<svg xmlns="http://www.w3.org/2000/svg" viewBox="0 0 111.35 97.36">
  <g id="Layer_2" data-name="Layer 2">
    <g id="Layer_1-2" data-name="Layer 1">
      <path id="primary" d="M74.37,97.36q-12.06,0-24.12,0a12.23,12.23,0,0,1-2.49-.25A3.7,3.7,0,0,1,44.51,93c0-9.72,0-19.44,0-29.15a53.34,53.34,0,0,0-.26-5.37,4.12,4.12,0,0,0-4-4c-4.42-.16-8.86-.15-13.28,0-2.3.1-3.74,1.73-4.05,4a28.74,28.74,0,0,0-.23,3.94c0,10.08,0,20.15,0,30.23,0,1.27.06,2.68-1.16,3.48a5.73,5.73,0,0,1-2.82,1.08c-3.55,0-7.1-.25-10.64-.41a1.76,1.76,0,0,1-1.81-1.45,27.23,27.23,0,0,1-.86-5.17c-.06-10.92.15-21.84-.07-32.75-.09-4.27,1.6-7,4.88-9.43C18.55,42,26.8,35.77,35.1,29.6,40.21,25.8,45.31,22,50.43,18.16c.54-.4,1.13-.75,1.71-1.1,2.87-1.72,5-1.63,7.66.4,3.1,2.33,6.15,4.72,9.26,7Q81.49,33.78,94,43c2.78,2.06,5.62,4.06,8.4,6.13a7.57,7.57,0,0,1,3.09,6.32q0,17,0,34c0,1.79-.29,3.58-.42,5.38a1.87,1.87,0,0,1-1.7,1.87,35.26,35.26,0,0,1-5.09.65c-8,.07-15.92,0-23.87,0Zm.18-34.73v.14c-1.68,0-3.36,0-5,0s-3.36.07-5,.26a3.79,3.79,0,0,0-3.66,3.62c-.85,5.62-.46,11.25,0,16.87.21,2.56,1.51,3.92,4,4,6.31.1,12.62.08,18.94,0a3.89,3.89,0,0,0,4.07-4c.11-5.35.13-10.72,0-16.07-.06-2.41-1-4.11-4.23-4.38C80.62,62.78,77.58,62.76,74.55,62.63Z"/>
      <path id="primary2" d="M17.6,14.68l2.14.25a3.5,3.5,0,0,1,2.65,2c.32.6.57,1.23.89,1.83.78,1.45,2.09,2,3.5,1.22a50.23,50.23,0,0,0,5.73-3.67C38.71,11.63,44.84,6.84,51,2.09c.51-.39,1-.73,1.56-1.11,2-1.47,3.91-1.17,5.75.13,2.53,1.8,5,3.71,7.46,5.59q11.71,8.85,23.43,17.71c6.28,4.72,12.62,9.38,18.91,14.1a7.3,7.3,0,0,1,3.2,5.26c.09.93.16,1.87-.79,2.46a2.47,2.47,0,0,1-3-.15c-5.7-4.16-11.42-8.29-17.12-12.45q-9.9-7.25-19.79-14.52c-3.85-2.84-7.73-5.64-11.54-8.52C57,9,54.92,8.71,52.77,10.18s-4.21,3-6.3,4.57C39.37,20,32.29,25.34,25.18,30.6Q15,38.11,4.79,45.55a5.93,5.93,0,0,1-1.47.78,2.13,2.13,0,0,1-3-1.55c-.57-2.2-.41-4.39,1.25-6.05A60.09,60.09,0,0,1,7,34.21c1.92-1.49,3.78-3,4.12-5.62.16-1.31.24-2.63.3-3.94.11-2.16.21-4.32.23-6.48a2.68,2.68,0,0,1,2.12-2.92c1.26-.32,2.55-.51,3.83-.76Z"/>
    </g>
  </g>
</svg>
