<?xml version="1.0" encoding="utf-8"?>
<!-- Generator: Adobe Illustrator 26.0.2, SVG Export Plug-In . SVG Version: 6.00 Build 0)  -->
<svg version="1.1" id="Layer_1" xmlns="http://www.w3.org/2000/svg" xmlns:xlink="http://www.w3.org/1999/xlink" x="0px" y="0px"
	 viewBox="0 0 200 200" style="enable-background:new 0 0 200 200;" xml:space="preserve">
	 <style type="text/css">
	     .primary{fill:#000000;}
	 </style>
<g>
	<g>
		<path id="path2" class="primary" d="M50.3,105.2l33.2,26.4c3.4,2.7,8.6,0.3,8.6-4.1v-8.8c0-2.8,1.9-5.3,4.7-5.3h52.7c2.8,0,5.1-2.1,5.1-5V94.5
			c0-2.7-2.3-5.1-5.1-5.1H96.7c-2.8,0-4.7-2.2-4.7-5.1v-8.8c0-4.3-5.1-6.7-8.5-4L50.5,97.2C47.7,99.1,47.6,103.2,50.3,105.2z"/>
	</g>
	<g>
		<path id="path3" class="primary" d="M193,100.3c0,5.6-2.1,11.2-6.4,15.5L116,186.4c-8.6,8.6-22.4,8.6-31,0l-70.6-70.6c-8.6-8.6-8.6-22.4,0-31
			L85,14.2c8.6-8.6,22.4-8.6,31,0l70.6,70.6C190.8,89.1,193,94.7,193,100.3z M16.9,100.3c0,3.3,1.3,6.7,3.8,9.2L91.3,180
			c5.1,5.1,13.3,5.1,18.4,0l70.6-70.6c5.1-5.1,5.1-13.3,0-18.4l-70.6-70.6c-5.1-5.1-13.3-5.1-18.4,0L20.7,91.1
			C18.2,93.6,16.9,97,16.9,100.3z"/>
	</g>
</g>
</svg>
