<?xml version="1.0" encoding="utf-8"?>
<!-- Generator: Adobe Illustrator 26.0.2, SVG Export Plug-In . SVG Version: 6.00 Build 0)  -->
<svg version="1.1" id="Layer_1" xmlns="http://www.w3.org/2000/svg" xmlns:xlink="http://www.w3.org/1999/xlink" x="0px" y="0px"
	 viewBox="0 0 200 200" style="enable-background:new 0 0 200 200;" xml:space="preserve">
<g>
	<path id="path1" class="primary" d="M186.6,22.5c2.5,2.2,2.8,6.1,0.7,8.7L68.5,178.7c-2.1,2.6-5.8,2.9-8.2,0.7l-2.9-2.6c-2.5-2.2-2.8-6.1-0.7-8.7L175.4,20.6
		c2.1-2.6,5.8-2.9,8.2-0.7L186.6,22.5z"/>
		<path id="path2" class="primary" d="M67.9,178.7c-2.2,2.5-5.9,2.7-8.3,0.4L12,133.6c-2.4-2.3-2.6-6.2-0.4-8.7l3.2-3.7c2.2-2.5,5.9-2.7,8.3-0.4l47.6,45.5
		c2.4,2.3,2.6,6.2,0.4,8.7L67.9,178.7z"/>
</g>
</svg>
