<?xml version="1.0" encoding="utf-8"?>
<!-- Generator: Adobe Illustrator 26.0.2, SVG Export Plug-In . SVG Version: 6.00 Build 0)  -->
<svg version="1.1" id="Layer_1" xmlns="http://www.w3.org/2000/svg" xmlns:xlink="http://www.w3.org/1999/xlink" x="0px" y="0px"
	 viewBox="0 0 200 200" style="enable-background:new 0 0 200 200;" xml:space="preserve">
	 <style type="text/css">
			 .primary{fill:#000000;}
	 </style>
<path id="path2" class="primary" d="M181.1,125.9c-8.5-8.5-23.1-9.1-32.5-7.5l-31.9-31.9l37.2-37.2l4.9-1.2l10.8-17.5l-5.5-5.5l-17.5,11l-1,4.5
	L108,77.8L84.7,54.4c1.6-9.3,0-22.7-8.5-31.3c-8.3-8.3-21.5-9.5-30.9-8.1l22.1,22.1L45.5,58.9l-24-24.2c-5.1,11.4-3.2,26.4,6.7,36.3
	c8.5,8.5,20.1,12.2,32.1,7.9l23.3,23.3l-8.3,8.3l-4.1-4.1c-2.2-2.2-6.1-2.2-8.5,0c-1.8,1.6-2.2,4.3-1.4,6.3
	c-2.8-0.4-5.7,0.6-7.7,2.6l-39.8,39.8c-6.1,6.1-6.1,15.8,0,21.9l3.2,3.2c3,3,6.9,4.5,11,4.5s7.9-1.4,11-4.5l40.2-39.8
	c2.2-2.2,3-5.3,2.4-8.1c2,0.6,4.3,0,5.9-1.6c1.2-1,1.8-2.6,1.8-4.3c0-1.6-0.6-3-1.8-4.3l-3.2-3.2l8.3-8.3l31.9,31.9
	c-4.3,12-1,23.8,7.5,32.3c7.9,7.9,19.1,10.8,28.6,9.3l-18.7-18.7l24.6-24.6l21.3,21.3C192.9,151.7,191.3,136.1,181.1,125.9z"/>
</svg>
