<?xml version="1.0" encoding="utf-8"?>
<!-- Generator: Adobe Illustrator 26.0.0, SVG Export Plug-In . SVG Version: 6.00 Build 0)  -->
<svg version="1.1" id="Layer_1" xmlns="http://www.w3.org/2000/svg" xmlns:xlink="http://www.w3.org/1999/xlink" x="0px" y="0px"
	 viewBox="0 0 200 200" style="enable-background:new 0 0 200 200;" xml:space="preserve">
<g>
	<path id="path" class="primary" d="M165.1,119.7c0,0-11.6-38.4,3.3-54.6c0,0-21.4,4.3-29.3,24c0.3-10.6-0.6-22.4-16.9-39.6c0,0-32.9-18.1-13.5-44.2
		c0,0-85.8,16-56,104.4c0,0-21.9-5.4-19.4-38.4c0,0-17.9,92.6,58.8,123.3c-46-35.8-33.1-63.5-33.1-63.5
		c-1.6,20.9,12.3,24.3,12.3,24.3c-18.8-56,32.4-73.7,32.4-73.7c-12.3,16.5,9.9,33.2,9.9,33.2c10.3,10.9,12.5,20.8,12.3,27.5
		c5-12.5,18.6-15.2,18.6-15.2c-9.4,10.2-2.1,34.5-2.1,34.5c0.3,3.6-0.1,7.1-1,10.4C155.1,157.8,166.7,139.5,165.1,119.7z"/>
</g>
</svg>
