<?xml version="1.0" encoding="utf-8"?>
<!-- Generator: Adobe Illustrator 26.0.2, SVG Export Plug-In . SVG Version: 6.00 Build 0)  -->
<svg version="1.1" id="Layer_1" xmlns="http://www.w3.org/2000/svg" xmlns:xlink="http://www.w3.org/1999/xlink" x="0px" y="0px"
	 viewBox="0 0 200 200" style="enable-background:new 0 0 200 200;" xml:space="preserve">
<g>
	<g>
		<g>
			<path id="path2" class="primary" d="M190.5,172.3L102.6,17.8c-0.6-1.2-1.8-1.8-3.2-1.8c-1.4,0-2.4,0.6-3.2,1.8L8.5,172.3c-0.6,1.2-0.6,2.4,0,3.5
				c0.6,1,1.8,1.8,3,1.8h175.6c1.2,0,2.4-0.6,3-1.8C191.2,174.7,191.2,173.3,190.5,172.3z M18,170.6L99.7,26.6l81.7,143.9H18z"/>
		</g>
	</g>
	<g>
		<g>
			<path id="path3" class="primary" d="M99.7,72.1c-5.9,0-10.6,4.7-10.6,10.6v37.6c0,4.3,3.5,7.9,7.9,7.9h5.3c4.3,0,7.9-3.5,7.9-7.9V82.7
				C110.3,76.8,105.6,72.1,99.7,72.1z M103.2,120.4c0,0.4-0.4,0.8-0.8,0.8h-5.3c-0.4,0-0.8-0.4-0.8-0.8V82.7c0-2,1.6-3.5,3.5-3.5
				s3.5,1.6,3.5,3.5L103.2,120.4L103.2,120.4z"/>
		</g>
	</g>
	<g>
		<g>
			<path id="path4" class="primary" d="M99.7,135.3C93.8,135.3,89,140,89,146s4.7,10.6,10.6,10.6c5.9,0,10.6-4.7,10.6-10.6S105.6,135.3,99.7,135.3z
				 M99.7,149.5c-2,0-3.5-1.6-3.5-3.5c0-2,1.6-3.5,3.5-3.5c2,0,3.5,1.6,3.5,3.5C103.2,147.9,101.7,149.5,99.7,149.5z"/>
		</g>
	</g>
</g>
</svg>
