<?xml version="1.0" encoding="utf-8"?>
<!-- Generator: Adobe Illustrator 26.0.2, SVG Export Plug-In . SVG Version: 6.00 Build 0)  -->
<svg version="1.1" id="Layer_1" xmlns="http://www.w3.org/2000/svg" xmlns:xlink="http://www.w3.org/1999/xlink" x="0px" y="0px"
	 viewBox="0 0 200 200" style="enable-background:new 0 0 200 200;" xml:space="preserve">
<g>
	<path id="path2" class="primary" d="M44.6,53.6c-18.4,0-33.4,14.8-33.4,33.4s33.4,54,33.4,54S78,105.4,78,87S63,53.6,44.6,53.6z M44.6,94.3
		c-6.9,0-12.5-5.5-12.5-12.5c0-6.9,5.5-12.5,12.5-12.5s12.5,5.5,12.5,12.5C57.1,88.8,51.5,94.3,44.6,94.3z"/>
	<path id="path3" class="primary" d="M164.8,8.5c-11.1,0-20.2,9.1-20.2,20.2s20.2,32.8,20.2,32.8S185,39.9,185,28.7S176.1,8.5,164.8,8.5z
		 M164.8,33.2c-4.2,0-7.5-3.4-7.5-7.5s3.4-7.5,7.5-7.5c4.2,0,7.5,3.4,7.5,7.5S169,33.2,164.8,33.2z"/>
</g>
<path id="path4" class="primary" d="M37.7,172.2L80.8,191c0,0,29.1-23.5,36.8-40.9s3.8-23.1,3-39.7c-0.8-16.6,7.7-28.1,58.1-37.2L166.2,69
	c-2.2-0.8-21.9,3.6-28.5,5.7c-7.9,2.6-15.6,5.9-22.3,10.7c-4.2,3-8.1,6.3-11.3,10.3c-4.5,5.9-4.7,13.6-6.3,20.6
	c-1.6,7.3-4.2,14.8-9.9,19.8C77.8,145.3,37.7,172.2,37.7,172.2z"/>
</svg>
