<?xml version="1.0" encoding="utf-8"?>
<!-- Generator: Adobe Illustrator 26.0.0, SVG Export Plug-In . SVG Version: 6.00 Build 0)  -->
<svg version="1.1" id="Layer_1" xmlns="http://www.w3.org/2000/svg" xmlns:xlink="http://www.w3.org/1999/xlink" x="0px" y="0px"
	 viewBox="0 0 200 200" style="enable-background:new 0 0 200 200;" xml:space="preserve">
	 <style type="text/css">
	     .primary{fill:#000000;}
	 </style>
<path id="path1" class="primary" d="M119.3,31.3c-1.9-1.2-4.2-1.4-6.3-0.6L16.7,71.9c-0.8,0.3-1.3,1.1-1.3,2v46.9c0,1.2,1,2.2,2.2,2.2h102.6
	c1.2,0,2.2-1,2.2-2.2v-84C122.3,34.7,121.2,32.6,119.3,31.3z M109.5,111.3c0,0.6-0.5,1.1-1.1,1.1h-9.7c-0.4,0-0.7-0.2-0.9-0.5
	l-8.2-14.9c-0.2-0.3-0.2-0.7,0-1.1s0.5-0.5,0.9-0.5h17.9c0.6,0,1.1,0.5,1.1,1.1V111.3z M109.6,88.6c0,0.6-0.5,1.1-1.1,1.1H90.6
	c-0.6,0-1.1-0.5-1.1-1.1V54c0-0.6,0.5-1.1,1.1-1.1h17.9c0.6,0,1.1,0.5,1.1,1.1V88.6z"/>
<g>
	<path id="path2" class="primary" d="M119.4,169.1H24.2c-4.1,0-7.9-2.3-9.7-6l-9.8-19.4c-1.7-3.4-1.6-7.4,0.4-10.6c2-3.2,5.5-5.2,9.3-5.2h114.9
		c3.8,0,7.3,1.9,9.3,5.2c2,3.2,2.1,7.2,0.4,10.6l-9.8,19.4C127.3,166.9,123.5,169.1,119.4,169.1z M14.4,134.5
		c-1.5,0-2.9,0.7-3.7,2.1c-0.8,1.3-0.9,2.8-0.2,4.2l9.8,19.4c0.7,1.5,2.2,2.4,3.8,2.4h95.2c1.6,0,3.1-0.9,3.8-2.4l9.8-19.4
		c0.7-1.4,0.6-2.9-0.2-4.2c-0.8-1.3-2.1-2.1-3.7-2.1H14.4z"/>
</g>
<g>
	<path id="path3" class="primary" d="M192.5,133.7l-10.1-10.1l7-21.6c0.2-0.5,0.1-0.9,0-1.4l-3.5-10.1c-0.2-0.8-1-1.3-1.8-1.5c-0.8-0.1-1.6,0.2-2.1,0.9
		l-13.6,19.8c-4.3-3.1-10.7-2.7-14.5,1.1l-0.2,0.2h-27.1c-0.6,0-1.1,0.5-1.1,1.1v9.5c0,0.6,0.5,1.1,1.1,1.1h15.6
		c-1.3,1.9-2.1,4.1-2.1,6.5c0,3,1.2,5.8,3.2,7.9l22.8,22.8c2.1,2.1,4.9,3.2,7.9,3.2c3,0,5.8-1.2,7.9-3.2l10.6-10.6
		c2.1-2.1,3.3-4.9,3.3-7.9C195.8,138.6,194.6,135.8,192.5,133.7z M171.7,112.9l11.5-16.8l1.8,5.3l-6.1,18.7L171.7,112.9z"/>
</g>
</svg>
