<?xml version="1.0" encoding="utf-8"?>
<!-- Generator: Adobe Illustrator 26.0.2, SVG Export Plug-In . SVG Version: 6.00 Build 0)  -->
<svg version="1.1" id="Layer_1" xmlns="http://www.w3.org/2000/svg" xmlns:xlink="http://www.w3.org/1999/xlink" x="0px" y="0px"
	 viewBox="0 0 200 200" style="enable-background:new 0 0 200 200;" xml:space="preserve">
<g>
	<path id="path2" class="primary" d="M146.9,78.2c12.3-2.3,9.3-18.9,6-27.3c-5.5-14-15-26.9-28.6-33.9c-12.1-6-36.4-8.8-50.2-0.4
		c-2.5,1.6-4.9,3.5-6.6,6c-6.8,9.5-3.1,18.5,6.4,23.8c7.2,3.9,14.6,7.6,21.8,11.1c-17.3,51-4.7,120.7-4.1,124c0.8,4.3,4.7,7.4,9,7.4
		c0.6,0,1.2,0,1.8-0.2c4.9-1,8.2-5.6,7.2-10.7c-0.2-0.8-12.1-66.6,2.7-112.9c3.1,1.4,6.2,2.9,9.5,4.3
		C128.7,72.6,138.9,79.8,146.9,78.2z"/>
	<path id="path3" class="primary" d="M165.9,128c-1.6-6.4-5.3-12.9-10.9-16.6c-5.1-3.3-15.6-5.8-22.2-2.9c-1.2,0.6-2.3,1.4-3.3,2.3
		c-3.5,3.9-2.3,8,1.6,10.9c2.1,1.6,4.3,2.9,6.4,4.3c-0.2,0.2-0.2,0.4-0.4,0.6c-6.2,8.8-6.4,40.1-6.2,53.2c0,3.7,3.1,6.8,6.8,6.8l0,0
		c3.7,0,6.8-3.1,6.8-7c-0.2-18.5,1.2-41.1,3.7-45.2c0.2-0.4,0.4-0.8,0.6-1.2c0.8,0.4,1.4,0.8,2.1,1.2c2.9,1.8,7,5.5,10.5,5.3
		C167.3,139.3,166.9,131.9,165.9,128z"/>
	<path id="path4" class="primary" d="M64.5,108.6c-6.6-2.9-17.3-0.4-22.2,2.9c-5.6,3.7-9.2,10.1-10.9,16.6c-1,3.9-1.4,11.3,4.1,11.7
		c3.7,0.2,7.6-3.5,10.5-5.3c0.8-0.4,1.4-0.8,2.1-1.2c0.2,0.4,0.4,0.8,0.6,1.2c2.5,4.1,4.1,26.7,3.7,45.2c0,3.7,2.9,6.8,6.8,7h0.2
		c3.7,0,6.8-2.9,6.8-6.8c0.2-13,0-44.4-6.2-53.2c-0.2-0.2-0.2-0.4-0.4-0.6c2.1-1.4,4.3-2.9,6.4-4.3c3.9-2.7,5.1-7,1.6-10.9
		C66.8,109.9,65.7,109.2,64.5,108.6z"/>
</g>
</svg>
