<?xml version="1.0" encoding="utf-8"?>
<!-- Generator: Adobe Illustrator 26.0.2, SVG Export Plug-In . SVG Version: 6.00 Build 0)  -->
<svg version="1.1" id="Layer_1" xmlns="http://www.w3.org/2000/svg" xmlns:xlink="http://www.w3.org/1999/xlink" x="0px" y="0px"
	 viewBox="0 0 200 200" style="enable-background:new 0 0 200 200;" xml:space="preserve">
<g>
	<path id="path2" class="primary" d="M101.5,109.9c-34.3,0-53.2-4.5-63.4-9.4v29.4c0,33.3,26.9,60.2,60.2,60.2h11.9c32.2,0,58.3-26.1,58.3-58.3V97.6
		C141.8,111.4,101.5,109.9,101.5,109.9z"/>
	<path id="path3" class="primary" d="M163.1,69.1c0-23.8-16-44.1-38.6-52.6c0,0.2,0,0.4-0.2,0.4c-3.9,10.9-6,21.4-7.2,24.6c-0.8,2.3-3.1,8.6-5.5,8.6
		h-22c-2.5,0-4.9-6.4-5.7-8.8l-6.2-22.2v-1.4c-22.4,8.6-38.2,28.3-38.2,51.7c0,0-12.7,3.1-12.7,6.8c0,3.7,11.9,19.1,74.3,19.1
		c0,0,54,2.1,78.4-19.5C183.7,68.9,163.1,69.1,163.1,69.1z"/>
	<path id="path4" class="primary" d="M88.2,30.1c0.6,1.8,2.3,3.3,4.3,3.3h16.6c1.8,0,3.5-1.2,4.1-3.1c0.8-2.5,2.5-7,5.3-15c0.8-2.3-0.4-5.1-2.7-5.7
		c-12.3-3.9-23.2-1.8-29.4,0c-2.5,0.6-3.7,3.3-3.1,5.7L88.2,30.1z"/>
</g>
</svg>
