<?xml version="1.0" encoding="utf-8"?>
<!-- Generator: Adobe Illustrator 26.0.0, SVG Export Plug-In . SVG Version: 6.00 Build 0)  -->
<svg version="1.1" id="Layer_1" xmlns="http://www.w3.org/2000/svg" xmlns:xlink="http://www.w3.org/1999/xlink" x="0px" y="0px"
	 viewBox="0 0 200 200" style="enable-background:new 0 0 200 200;" xml:space="preserve">
<g>
	<circle id="circle1" class="primary" cx="69.5" cy="61.9" r="18.9"/>
	<path id="path1" class="primary" d="M182.8,122.4V25.9H13.9v137.4h112.6c6.1,10.3,17.3,17.2,30.1,17.2c19.3,0,35-15.7,35-35
		C191.6,136.6,188.3,128.5,182.8,122.4z M87.2,102.2l-18.5-17l-43.6,53.1V37h146.6v76.9c-4.6-2.2-9.7-3.4-15.1-3.4
		c-1.3,0-2.6,0.1-3.8,0.2l-33.1-53.3L87.2,102.2z M156.6,172.6c-15,0-27.2-12.2-27.2-27.2s12.2-27.2,27.2-27.2
		c15,0,27.2,12.2,27.2,27.2S171.6,172.6,156.6,172.6z"/>
	<path id="path2" class="primary" d="M174.2,141.5h-13.7v-13.7c0-2.2-1.7-3.9-3.9-3.9s-3.9,1.7-3.9,3.9v13.7H139c-2.2,0-3.9,1.7-3.9,3.9c0,2.2,1.7,3.9,3.9,3.9
		h13.7V163c0,2.2,1.7,3.9,3.9,3.9s3.9-1.7,3.9-3.9v-13.7h13.7c2.2,0,3.9-1.7,3.9-3.9C178.1,143.3,176.3,141.5,174.2,141.5z"/>
</g>
</svg>
