<?xml version="1.0" encoding="utf-8"?>
<!-- Generator: Adobe Illustrator 26.0.2, SVG Export Plug-In . SVG Version: 6.00 Build 0)  -->
<svg version="1.1" id="Layer_1" xmlns="http://www.w3.org/2000/svg" xmlns:xlink="http://www.w3.org/1999/xlink" x="0px" y="0px"
	 viewBox="0 0 138.9 183.1" style="enable-background:new 0 0 200 200;" xml:space="preserve">
<style type="text/css">
	.primary{fill:#000000;}
    .pinFill{fill:#FFFFFF;}
</style>
<path id="pin" class="primary" d="M136,71c0-36.5-29.7-66-66.5-66C32.8,5,3,34.5,3,71c0,13,3.8,25.7,11.1,36.5l0,0l0.1,0.2c1.5,2.3,3.2,4.4,5,6.5
	l50.3,65l50.3-65c1.8-2,3.5-4.2,5-6.5l0.1-0.2l0,0C132.2,96.7,136,84,136,71L136,71z"/>
<path id="pinFill" class="pinFill" d="M69.5,131.7C36.2,131.7,9.3,105,9.3,72s26.9-59.8,60.2-59.8S129.7,39,129.7,72
	S102.7,131.7,69.5,131.7L69.5,131.7z"/>
<path id="number" class="primary" d="M76.9,37.8h-8.4c-0.4,0-0.8,0-1.2,0.1c-0.4,0.1-0.8,0.3-1.1,0.6L44.7,54.9c-0.5,0.3-0.9,0.9-1,1.5
	c-0.1,0.6,0.1,1.3,0.4,1.8l4,5.1c0.4,0.5,0.9,0.8,1.5,1c0.6,0.1,1.2-0.1,1.7-0.4l14.5-11.1v49.1c0,0.6,0.2,1.2,0.6,1.6
	c0.4,0.5,1,0.7,1.7,0.7h8.6c1.3,0,2.3-1,2.3-2.3V40.1C79.2,38.9,78.1,37.8,76.9,37.8C76.9,37.8,76.9,37.8,76.9,37.8z"/>
</svg>
