<?xml version="1.0" encoding="utf-8"?>
<!-- Generator: Adobe Illustrator 26.0.0, SVG Export Plug-In . SVG Version: 6.00 Build 0)  -->
<svg version="1.1" id="Layer_1" xmlns="http://www.w3.org/2000/svg" xmlns:xlink="http://www.w3.org/1999/xlink" x="0px" y="0px"
	 viewBox="0 0 200 200" style="enable-background:new 0 0 200 200;" xml:space="preserve">
	 <style type="text/css">
	     .primary{fill:#000000;}
	     .pinFill{fill:#FFFFFF;}
	 </style>
	 <g>
	 	<path id="pin" class="primary" d="M169.2,79.8c0-38.2-31-69.2-69.2-69.2s-69.2,31-69.2,69.2c0,14.1,4.3,27.3,11.5,38.2h0l0.1,0.2
	 		c1.6,2.4,3.3,4.6,5.2,6.8l52.4,68.2l52.4-68.2c1.9-2.2,3.6-4.4,5.2-6.8l0.1-0.2h0C165,107.1,169.2,94,169.2,79.8L169.2,79.8z"/>
	 	<path id="pinFill" class="pinFill" d="M100,143.5c-34.6,0-62.7-28.1-62.7-62.7S65.4,18.1,100,18.1s62.7,28.1,62.7,62.7
	 		S134.6,143.5,100,143.5L100,143.5z"/>
	 </g>
<g>
	<path id="path2" class="primary" d="M148.7,80.6c0,3-1.1,5.9-3.4,8.2L108,126.2c-4.5,4.5-11.9,4.5-16.4,0L54.2,88.8c-4.5-4.5-4.5-11.9,0-16.4L91.5,35
		c4.5-4.5,11.9-4.5,16.4,0l37.4,37.4C147.6,74.6,148.7,77.6,148.7,80.6z M55.5,80.6c0,1.8,0.7,3.5,2,4.9l37.4,37.4
		c2.7,2.7,7.1,2.7,9.8,0L142,85.4c2.7-2.7,2.7-7.1,0-9.7l-37.4-37.4c-2.7-2.7-7.1-2.7-9.8,0L57.5,75.7
		C56.2,77.1,55.5,78.8,55.5,80.6z"/>
</g>
<path id="path3" class="primary" d="M126.8,72.6l-15.2-11.8c-1.5-1.2-3.9-0.1-3.9,1.9v4.1c0,0.3,0,1.3,0,2.7h-6.9c-14.4,0-26.2,11.1-26.2,24.8h10.5
	c0-7.9,7-14.3,15.6-14.3h6.9c0,1.3,0,2.3,0,2.6v4.1c0,2,2.4,3.1,3.9,1.9l15.3-12.1C128.1,75.4,128.1,73.5,126.8,72.6z"/>
</svg>
