<?xml version="1.0" encoding="utf-8"?>
<!-- Generator: Adobe Illustrator 26.0.2, SVG Export Plug-In . SVG Version: 6.00 Build 0)  -->
<svg version="1.1" id="Layer_1" xmlns="http://www.w3.org/2000/svg" xmlns:xlink="http://www.w3.org/1999/xlink" x="0px" y="0px"
	 viewBox="0 0 200 200" style="enable-background:new 0 0 200 200;" xml:space="preserve">
	 <style type="text/css">
	     .primary{fill:#000000;}
	     .pinFill{fill:#FFFFFF;}
	 </style>
	 <g>
	 	<path id="pin" class="primary" d="M169.2,79.8c0-38.2-31-69.2-69.2-69.2s-69.2,31-69.2,69.2c0,14.1,4.3,27.3,11.5,38.2h0l0.1,0.2
	 		c1.6,2.4,3.3,4.6,5.2,6.8l52.4,68.2l52.4-68.2c1.9-2.2,3.6-4.4,5.2-6.8l0.1-0.2h0C165,107.1,169.2,94,169.2,79.8L169.2,79.8z"/>
	 	<path id="pinFill" class="pinFill" d="M100,143.5c-34.6,0-62.7-28.1-62.7-62.7S65.4,18.1,100,18.1s62.7,28.1,62.7,62.7
	 		S134.6,143.5,100,143.5L100,143.5z"/>
	 </g>
<g>
	<path id="path1" class="primary" d="M139.8,83.4L117.7,80c-2.9-0.4-4.8-3.1-4.4-6l0,0c0.4-2.9,3.1-4.8,6-4.4l22,1.3c2.9,0.4,4.9,5.2,4.5,8l0,0
		C145.4,81.8,142.7,83.8,139.8,83.4z"/>
	<path id="path2" class="primary" d="M136.7,96.2l-21.6-4.5c-2.8-0.6-4.6-3.4-4-6.2l0,0c0.6-2.8,3.4-4.6,6.2-4l22.2,3.8c2.8,0.6,4.1,4,3.5,6.9l0,0
		C142.3,95,139.5,96.8,136.7,96.2z"/>
	<path id="path3" class="primary" d="M133.6,109l-21.2-5.3c-2.8-0.6-4.5-3.3-4-6.1l0,0c0.6-2.8,3.3-4.5,6.1-4l21.4,4.5c2.8,0.6,4.5,3.3,4,6.1l0,0
		C139.3,106.9,136.4,109.6,133.6,109z"/>
	<path id="path4" class="primary" d="M126.7,120.6l-17.2-5.7c-2.6-0.7-4.1-3.4-3.5-6l0,0c0.7-2.6,3.4-4.1,6-3.5l18.9,4.9c2.6,0.7,4.1,3.4,3.5,6l0,0
		C133.7,118.9,129.3,121.3,126.7,120.6z"/>
	<path id="path5" class="primary" d="M129.9,43.6L129.9,43.6c-0.6-0.9-2.8-3-3.9-1.2l-0.7,1.1c-2.9,4.1-6.6,7.6-10.9,10.2c-3.5,2-7.2,4.2-7.8,4.5
		c-0.7,0.3-5.9,4.3-10.6,7.9c-5.1,3.9-17.7,6-17.7,6l0,0v34.3h3.5c4.4,0,8.7,1,12.7,2.9l9.5,4.5c0.7,0.3,1.4-0.4,1.1-1.1
		c0,0,0,0,0,0c-0.5-1.1-0.7-2.3-0.7-3.5c0.2-2.9,2-5.1,4.4-6.1c-1.8-1.9-2.6-4.7-1.6-7.4c0.4-1.1,1.1-2.1,2-2.9
		c0.6-0.5,1.2-0.9,1.9-1.2c-0.5-0.5-1-1.2-1.3-1.9c-0.5-1.1-0.8-2.3-0.7-3.5c0.2-2.9,2-5.2,4.4-6.1c-1.8-1.9-2.6-4.7-1.6-7.4
		c0.4-1.1,1.1-2.2,2.1-3c1.7-1.4,3.6-1.8,5.8-1.7l2.7,0.2l4.2-5.2c1.5-1.7,2.7-3.6,3.6-5.7l0.6-1.4C132.3,52,132.1,47.4,129.9,43.6
		L129.9,43.6z"/>
	<path id="path6" class="primary" d="M76.1,107.9V72.6c0-4.9-22.7-7.6-22.7-2.7l4.8,43.5C58.2,118.3,76.1,112.9,76.1,107.9z"/>
</g>
</svg>
