<?xml version="1.0" encoding="utf-8"?>
<!-- Generator: Adobe Illustrator 26.0.0, SVG Export Plug-In . SVG Version: 6.00 Build 0)  -->
<svg version="1.1" id="Layer_1" xmlns="http://www.w3.org/2000/svg" xmlns:xlink="http://www.w3.org/1999/xlink" x="0px" y="0px"
	 viewBox="0 0 200 200" style="enable-background:new 0 0 200 200;" xml:space="preserve">
	 <style type="text/css">
	     .primary{fill:#000000;}
	     .pinFill{fill:#FFFFFF;}
	 </style>
	 <g>
	 	<path id="pin" class="primary" d="M169.2,79.8c0-38.2-31-69.2-69.2-69.2s-69.2,31-69.2,69.2c0,14.1,4.3,27.3,11.5,38.2h0l0.1,0.2
	 		c1.6,2.4,3.3,4.6,5.2,6.8l52.4,68.2l52.4-68.2c1.9-2.2,3.6-4.4,5.2-6.8l0.1-0.2h0C165,107.1,169.2,94,169.2,79.8L169.2,79.8z"/>
	 	<path id="pinFill" class="pinFill" d="M100,143.5c-34.6,0-62.7-28.1-62.7-62.7S65.4,18.1,100,18.1s62.7,28.1,62.7,62.7
	 		S134.6,143.5,100,143.5L100,143.5z"/>
	 </g>
<path id="path2" class="primary" d="M99.7,32.8c-27.1,0-49,21.9-49,49c0,27.1,21.9,49,49,49c27.1,0,49-21.9,49-49C148.7,54.8,126.8,32.8,99.7,32.8z M64.8,57.4
	c4.4-6.2,11.5-11.3,17.9-13.7c10.9-4,20.7-4.8,33.7,0c10.2,3.8,21.1,13.1,22.6,24.4c0.9,7.3-5.1,7.2-5.1,7.2h-22.3
	c-2.3-4.3-6.7-7.2-11.9-7.2c-5.2,0-9.7,2.9-11.9,7.2c0,0-19.6,0-19.6,0c-4.5-0.2-8.3-2.4-7.6-7.5C61,64,62.6,60.5,64.8,57.4z
	 M90.7,118c0,0-0.5,4.8-8.2,2.2c-4.3-1.4-8.1-4.2-11.4-7.2c-3.9-3.6-7.5-8.1-9.4-13c-1.1-2.6,0.5-5.7,3.5-5.7h22
	c0,0,3.5,0.1,3.5,5.3S90.7,118,90.7,118z M99.7,92.9c-4.4,0-8-3.6-8-8s3.6-8,8-8s8,3.6,8,8S104.1,92.9,99.7,92.9z M137.7,99.9
	c-1.9,4.9-5.5,9.4-9.4,13c-3.4,3-7.1,5.8-11.4,7.2c-7.7,2.6-8.2-2.2-8.2-2.2s0-13.2,0-18.4s3.5-5.3,3.5-5.3h22
	C137.2,94.2,138.8,97.3,137.7,99.9z"/>
</svg>
