<?xml version="1.0" encoding="utf-8"?>
<!-- Generator: Adobe Illustrator 26.0.0, SVG Export Plug-In . SVG Version: 6.00 Build 0)  -->
<svg version="1.1" id="Layer_1" xmlns="http://www.w3.org/2000/svg" xmlns:xlink="http://www.w3.org/1999/xlink" x="0px" y="0px"
	 viewBox="0 0 200 200" style="enable-background:new 0 0 200 200;" xml:space="preserve">
	 <style type="text/css">
	     .primary{fill:#000000;}
	     .pinFill{fill:#FFFFFF;}
	 </style>
	 <g>
	 	<path id="pin" class="primary" d="M169.2,79.8c0-38.2-31-69.2-69.2-69.2s-69.2,31-69.2,69.2c0,14.1,4.3,27.3,11.5,38.2h0l0.1,0.2
	 		c1.6,2.4,3.3,4.6,5.2,6.8l52.4,68.2l52.4-68.2c1.9-2.2,3.6-4.4,5.2-6.8l0.1-0.2h0C165,107.1,169.2,94,169.2,79.8L169.2,79.8z"/>
	 	<path id="pinFill" class="pinFill" d="M100,143.5c-34.6,0-62.7-28.1-62.7-62.7S65.4,18.1,100,18.1s62.7,28.1,62.7,62.7
	 		S134.6,143.5,100,143.5L100,143.5z"/>
	 </g>
<g>
	<path id="path2" class="primary" d="M49.1,72.2c0,0-1.9,0.3-1.6,1.5c0.3,1.3,3,1.5,3,1.5s2.9,2.9,9.2-1c0,0,1.3-1.6,1.3,0.5
		c-0.1,2.1,1.3,4.2,2.9,6.2l0.5-1.6c0,0,2,4.3,4.7,6.6c2.8,2.3-0.6-1.9,1.3-1.7c1.9,0.2,5.1,5,5.1,5l1.1-1c0,0,5.2,2.5,7.6,5.9
		c2.5,3.4,6.6,16.6,4.3,23.2c-2.2,6.6-3.7,3.9-3.8,7c0,0,7.6,2.1,9.2,0.2c0,0,0.3-0.6,0.4-2.8c0,0,2.4-7.7,2-12.3
		c0,0-1.6-12.7,1.3-15c2.9-2.3,18.2-4,22.7-2.5c4.6,1.5,12.3,10.1,11.7,13.3c-0.6,3.1-1.8,8.7-4.7,9.7c-2.9,1-1.8,3.9-1.8,3.9
		s5.8,1.6,7.6,0.3c1.8-1.2,2.4-6.3,3.5-8.5c1.2-2.2,3.7-9,1.1-12.7c-2.6-3.7-2-9.5-0.4-10.9c1.6-1.4,0.6-5.4,0.4-8.4
		c0,0,2.3,8.2,0.8,11l1.7,0c0,0,1.2,2.9-0.5,5.7l2.1,0.1c0,0,1.9,5.3,4.1,7.4l0.7-2.1c0,0,4.2,2.8,4.8,5.3c0,0,1.9-8.3-0.6-13.6
		l1.7,0.8c0,0-2.5-3.2-3.9-7.5l1.6,0.5c0,0-2.6-2.3-4.4-7.6l1.6-0.3c0,0-4.5-2.5-6.3-9l1.6,0.2c0,0-4.4-3.4-9.4-5.3l1.5-1.2
		c0,0-11.6-6.6-24.9-4.9c-13.4,1.7-25.1-2.5-25.1-2.5l0.9-0.3c0,0-4.6-0.2-8.4-2.7l1.7,0c0,0-13.8-4.6-18.8-3c0,0-5.2-1.3-5.9-3.4
		c0,0-2.7,2.8,1.2,6.6c0,0-4.5,5.7-3,7.1c1.5,1.4,1.4,2.8,0.9,3.8C53,64.9,50.8,71.3,49.1,72.2L49.1,72.2z"/>
	<path id="path3" class="primary" d="M79,91c0,0,6.5,5.9,6.9,10c0,0-0.2,9.6-1.7,12c-1.4,2.4-5.8,5.7-7,6.4c0,0-6.9,0.6-7.5-1
		c-0.6-1.6-0.5-4.2,1.9-3.9c2.4,0.4,6.7-2.3,7.2-5.5C79.4,105.7,79.1,94.6,79,91L79,91z"/>
	<path id="path4" class="primary" d="M127.2,97.9c0,0,4.1,5.2,3.9,7.4c-0.2,2.2-3.2,8.2-3.2,8.2s-6.4,0.6-6-2.3c0,0-0.4-2.6,2.7-2.9
		C127.8,108.1,127.2,97.9,127.2,97.9L127.2,97.9z"/>
	<path id="path5" class="primary" d="M54.7,52.9L53,55.7c0,0-1.6-1.3-1.7-5.6C51.3,50.1,52.3,51.9,54.7,52.9L54.7,52.9z"/>
</g>
</svg>
