<?xml version="1.0" encoding="utf-8"?>
<!-- Generator: Adobe Illustrator 26.0.0, SVG Export Plug-In . SVG Version: 6.00 Build 0)  -->
<svg version="1.1" id="Layer_1" xmlns="http://www.w3.org/2000/svg" xmlns:xlink="http://www.w3.org/1999/xlink" x="0px" y="0px"
	 viewBox="0 0 200 200" style="enable-background:new 0 0 200 200;" xml:space="preserve">
	 <style type="text/css">
	     .primary{fill:#000000;}
	     .pinFill{fill:#FFFFFF;}
	 </style>
	 <g>
	 	<path id="pin" class="primary" d="M169.2,79.8c0-38.2-31-69.2-69.2-69.2s-69.2,31-69.2,69.2c0,14.1,4.3,27.3,11.5,38.2h0l0.1,0.2
	 		c1.6,2.4,3.3,4.6,5.2,6.8l52.4,68.2l52.4-68.2c1.9-2.2,3.6-4.4,5.2-6.8l0.1-0.2h0C165,107.1,169.2,94,169.2,79.8L169.2,79.8z"/>
	 	<path id="pinFill" class="pinFill" d="M100,143.5c-34.6,0-62.7-28.1-62.7-62.7S65.4,18.1,100,18.1s62.7,28.1,62.7,62.7
	 		S134.6,143.5,100,143.5L100,143.5z"/>
	 </g>
<g>
	<path id="path2" class="primary" d="M77.6,100.9c-1.1-1.1-3-1.1-4.1,0l-18.2,18.2l6,6l18.2-18.2c1.1-1.1,1.1-3,0-4.1L77.6,100.9z"/>
	<path id="path3" class="primary" d="M140.8,45.7l2.5-0.2l-0.2-2.8l-3,0.2c-0.3-0.5-0.6-1-1.1-1.5c-0.5-0.5-1.1-0.9-1.8-1.2l0.8-2.9l-2.7-0.7l-0.8,3.1
		c-1.3,0-2.5,0.5-3.6,1.3l-2.3-2.3l-2,2l2.3,2.3l-4.5,4.5l-2.3-2.3l-2,2l2.3,2.3l-4.4,4.4l-2.3-2.3l-2,2l2.3,2.3l-4.3,4.3l-2.3-2.3
		l-2,2l2.3,2.3l-4.2,4.2l-2.3-2.3l-2,2l2.3,2.3l-4.2,4.2L97,70.2l-2,2l2.3,2.3l-2.8,2.8l2.6,2.6l35.8-35.8c0.9-0.9,2.5-0.9,3.4,0
		c0.9,0.9,0.9,2.5,0,3.4l-35.8,35.8l2.6,2.6l2.8-2.8l2.3,2.3l2-2l-2.3-2.3l4.2-4.2l2.3,2.3l2-2l-2.3-2.3l4.2-4.2l2.3,2.3l2-2
		l-2.3-2.3l4.3-4.3l2.3,2.3l2-2l-2.3-2.3l4.4-4.4l2.3,2.3l2-2l-2.3-2.3l4.5-4.5l2.3,2.3l2-2l-2.3-2.3
		C140.3,48.5,140.8,47.1,140.8,45.7z"/>
	<path id="path4" class="primary" d="M93,80.9c-1.4-1.4-3.6-1.4-4.9,0L77.5,91.4c-1.4,1.4-1.4,3.6,0,4.9l6,6c1.4,1.4,3.6,1.4,4.9,0L99,91.9
		c1.4-1.4,1.4-3.6,0-4.9L93,80.9z M93,92.1l-4.3,4.3c-0.8,0.8-2.2,0.8-3.1,0l-2.2-2.2c-0.8-0.8-0.8-2.2,0-3.1l4.3-4.3
		c0.8-0.8,2.2-0.8,3.1,0l2.2,2.2C93.9,89.9,93.9,91.3,93,92.1z"/>
</g>
</svg>
