<?xml version="1.0" encoding="utf-8"?>
<!-- Generator: Adobe Illustrator 26.0.0, SVG Export Plug-In . SVG Version: 6.00 Build 0)  -->
<svg version="1.1" id="Layer_1" xmlns="http://www.w3.org/2000/svg" xmlns:xlink="http://www.w3.org/1999/xlink" x="0px" y="0px"
	 viewBox="0 0 200 200" style="enable-background:new 0 0 200 200;" xml:space="preserve">
	 <style type="text/css">
	     .primary{fill:#000000;}
	     .pinFill{fill:#FFFFFF;}
	 </style>
	 <g>
	 	<path id="pin" class="primary" d="M169.2,79.8c0-38.2-31-69.2-69.2-69.2s-69.2,31-69.2,69.2c0,14.1,4.3,27.3,11.5,38.2h0l0.1,0.2
	 		c1.6,2.4,3.3,4.6,5.2,6.8l52.4,68.2l52.4-68.2c1.9-2.2,3.6-4.4,5.2-6.8l0.1-0.2h0C165,107.1,169.2,94,169.2,79.8L169.2,79.8z"/>
	 	<path id="pinFill" class="pinFill" d="M100,143.5c-34.6,0-62.7-28.1-62.7-62.7S65.4,18.1,100,18.1s62.7,28.1,62.7,62.7
	 		S134.6,143.5,100,143.5L100,143.5z"/>
	 </g>
<g>
	<path id="path2" class="primary" d="M113.5,91.2c8.9,8.8,17.7,17.5,26.5,26.3c-2,1.9-3.8,3.6-5.6,5.4c-8.7-8.8-17.5-17.7-26.4-26.7
		c-10.3,6.9-20.9,8.7-32.3,4.8c-8-2.8-14.2-8-18.5-15.4c-8.7-14.9-5-34.1,8.6-45.1c13.1-10.5,32.2-9.8,45,1.9
		C122.8,53.3,126.9,74.5,113.5,91.2z M87.2,37.3C70,37.3,56.6,51,56.6,68.5c0.1,16.9,13.8,30.4,30.9,30.4
		c16.8-0.1,30.5-13.9,30.3-30.8C117.7,50.8,104.2,37.2,87.2,37.3z"/>
	<path id="path3" class="primary" d="M92,51.6c3.7,0,7.4,0,11.3,0c0,4,0,8,0,12.5c-1.5-1.8-2.7-3.2-3.8-4.6c-3.2,3.3-6.1,6.2-8.7,8.9c2.6,2.6,5.4,5.4,8.5,8.5
		c1-1.3,2.2-2.9,3.3-4.5c0.2,0.2,0.5,0.3,0.7,0.5c0,3.8,0,7.7,0,11.6c-3.8,0-7.6,0-11.4,0c-0.1-0.1-0.2-0.3-0.3-0.4
		c1.5-1.2,3-2.5,4.3-3.6c-3.2-3.2-6-6-8.6-8.6c-2.6,2.6-5.5,5.5-8.5,8.5c1.1,1,2.6,2.2,4,3.5c-0.1,0.2-0.2,0.4-0.3,0.5
		c-3.8,0-7.5,0-11.4,0c0-3.8,0-7.6,0-11.8c1.5,1.5,2.9,2.8,4.1,3.9c2.9-2.9,5.7-5.8,8.5-8.5c-2.6-2.5-5.4-5.3-8.6-8.5
		c-1.1,1.4-2.3,2.8-3.5,4.3c-0.2-0.1-0.3-0.2-0.5-0.3c0-3.9,0-7.9,0-12c3.8,0,7.6,0,11.8,0c-1.6,1.7-2.9,3.1-4.4,4.7
		c2.8,3,5.6,6,8.7,9.2c3-3.2,5.9-6.2,9.1-9.5c-1.6-1.4-3.1-2.6-4.6-3.9C91.8,51.9,91.9,51.7,92,51.6z"/>
</g>
</svg>
