<?xml version="1.0" encoding="utf-8"?>
<!-- Generator: Adobe Illustrator 26.0.2, SVG Export Plug-In . SVG Version: 6.00 Build 0)  -->
<svg version="1.1" id="Layer_1" xmlns="http://www.w3.org/2000/svg" xmlns:xlink="http://www.w3.org/1999/xlink" x="0px" y="0px"
	 viewBox="0 0 200 200" style="enable-background:new 0 0 200 200;" xml:space="preserve">
	 <style type="text/css">
	     .primary{fill:#000000;}
	     .pinFill{fill:#FFFFFF;}
	 </style>
	 <g>
	 	<path id="pin" class="primary" d="M169.2,79.8c0-38.2-31-69.2-69.2-69.2s-69.2,31-69.2,69.2c0,14.1,4.3,27.3,11.5,38.2h0l0.1,0.2
	 		c1.6,2.4,3.3,4.6,5.2,6.8l52.4,68.2l52.4-68.2c1.9-2.2,3.6-4.4,5.2-6.8l0.1-0.2h0C165,107.1,169.2,94,169.2,79.8L169.2,79.8z"/>
	 	<path id="pinFill" class="pinFill" d="M100,143.5c-34.6,0-62.7-28.1-62.7-62.7S65.4,18.1,100,18.1s62.7,28.1,62.7,62.7
	 		S134.6,143.5,100,143.5L100,143.5z"/>
	 </g>
<g>
	<path id="path1" class="primary" d="M82,123.1l-19-14.7c6-6.8,12.3-13.3,18.9-19.5c2.6-2.5,4.2-4.1,4.9-4.8c-2.1-0.3-8.1-1.7-18-4.2
		C61.7,78.1,57,76.8,54.7,76l7.4-22.2c11,4.5,20.8,9.4,29.5,14.7c-2-13.7-3-24.9-3-33.5H111c0,6.1-1.1,17.4-3.4,33.8
		c1.7-0.7,5.3-2.3,10.8-4.9c7.6-3.4,14.5-6.4,20.9-8.8l6.7,22.8c-9.3,2.1-20.1,4.2-32.4,6.2l15.1,17c3,3.4,5.4,6.3,7.2,8.4
		l-19.3,12.7l-17-28.1C94.5,103.2,88.6,112.8,82,123.1z"/>
</g>
</svg>
