<?xml version="1.0" encoding="utf-8"?>
<!-- Generator: Adobe Illustrator 26.0.2, SVG Export Plug-In . SVG Version: 6.00 Build 0)  -->
<svg version="1.1" id="Layer_1" xmlns="http://www.w3.org/2000/svg" xmlns:xlink="http://www.w3.org/1999/xlink" x="0px" y="0px"
	 viewBox="0 0 200 200" style="enable-background:new 0 0 200 200;" xml:space="preserve">
<style type="text/css">
    .primary{fill:#000000;}
    .pinFill{fill:#FFFFFF;}
</style>
<g>
	<path id="pin" class="primary" d="M169.2,79.8c0-38.2-31-69.2-69.2-69.2s-69.2,31-69.2,69.2c0,14.1,4.3,27.3,11.5,38.2h0l0.1,0.2
		c1.6,2.4,3.3,4.6,5.2,6.8l52.4,68.2l52.4-68.2c1.9-2.2,3.6-4.4,5.2-6.8l0.1-0.2h0C165,107.1,169.2,94,169.2,79.8L169.2,79.8z"/>
	<path id="pinFill" class="pinFill" d="M100,143.5c-34.6,0-62.7-28.1-62.7-62.7S65.4,18.1,100,18.1s62.7,28.1,62.7,62.7
		S134.6,143.5,100,143.5L100,143.5z"/>
</g>
<g>
	<path id="number" class="primary" d="M123.5,101H95.1l14.1-14.3c3.2-2.5,5.9-5,8.2-7.4s4-4.9,5.2-7.6c1.2-2.6,1.8-5.5,1.8-8.6c0-4-0.9-7.5-2.7-10.7
		s-4.5-5.7-8.2-7.5s-8.2-2.8-13.7-2.8c-3.9,0-7.4,0.6-10.5,1.9s-5.8,2.9-7.9,5s-3.8,4.5-4.9,7.2s-1.7,5.5-1.8,8.3
		c0,0.5,0.2,1,0.6,1.4s0.9,0.6,1.5,0.6h8.8c0.6,0,1.2-0.2,1.8-0.5c0.6-0.3,1-0.9,1.1-1.8c0.3-1.9,0.9-3.7,1.8-5.3
		c0.9-1.6,2.1-2.9,3.7-3.8c1.6-1,3.5-1.4,5.9-1.4c3.5,0,6.1,0.9,7.7,2.8c1.6,1.9,2.4,4.3,2.4,7.2c0,2-0.6,4-1.8,6
		c-1.2,2-3.2,4.2-5.9,6.7s-6.2,5.3-10.6,8.8l-15.7,15.6c-1.1,0.9-1.7,1.7-2,2.5c-0.3,0.8-0.4,1.5-0.4,2.1v5.1c0,0.7,0.2,1.2,0.7,1.7
		c0.5,0.5,1,0.7,1.7,0.7h47.5c0.7,0,1.3-0.2,1.7-0.7c0.4-0.5,0.7-1,0.7-1.7v-7.1c0-0.7-0.2-1.3-0.7-1.7
		C124.8,101.2,124.2,101,123.5,101z"/>
</g>
</svg>
