<?xml version="1.0" encoding="utf-8"?>
<!-- Generator: Adobe Illustrator 26.0.0, SVG Export Plug-In . SVG Version: 6.00 Build 0)  -->
<svg version="1.1" id="Layer_1" xmlns="http://www.w3.org/2000/svg" xmlns:xlink="http://www.w3.org/1999/xlink" x="0px" y="0px"
	 viewBox="0 0 200 200" style="enable-background:new 0 0 200 200;" xml:space="preserve">
	 <style type="text/css">
	     .primary{fill:#000000;}
	     .pinFill{fill:#FFFFFF;}
	 </style>
	 <g>
	 	<path id="pin" class="primary" d="M169.2,79.8c0-38.2-31-69.2-69.2-69.2s-69.2,31-69.2,69.2c0,14.1,4.3,27.3,11.5,38.2h0l0.1,0.2
	 		c1.6,2.4,3.3,4.6,5.2,6.8l52.4,68.2l52.4-68.2c1.9-2.2,3.6-4.4,5.2-6.8l0.1-0.2h0C165,107.1,169.2,94,169.2,79.8L169.2,79.8z"/>
	 	<path id="pinFill" class="pinFill" d="M100,143.5c-34.6,0-62.7-28.1-62.7-62.7S65.4,18.1,100,18.1s62.7,28.1,62.7,62.7
	 		S134.6,143.5,100,143.5L100,143.5z"/>
	 </g>
<g>
	<path id="path2" class="primary" d="M102.6,73.3h20.9c1.7,0,3.1-1.4,3.1-3.1v-2c0-1.7-1.4-3.1-3.1-3.1h-20.9c-1.7,0-3.1,1.4-3.1,3.1v2
		C99.4,71.9,100.8,73.3,102.6,73.3"/>
	<path id="path3" class="primary" d="M116.6,63.2h-7.2v-2.9c-1.5-0.2-2.7-0.8-3.7-1.8c-2.6-2.6-2.5-7.1-2.5-7.3l0-1h19.6l0,1c0,0.2,0.1,4.6-2.5,7.3
		c-1,1-2.2,1.6-3.7,1.8V63.2z M111.5,61.1h3.1v-2.8h1c1.3,0,2.4-0.4,3.2-1.3c1.3-1.4,1.7-3.5,1.9-4.8h-15.4c0.1,1.3,0.5,3.4,1.9,4.8
		c0.8,0.8,1.9,1.3,3.2,1.3h1V61.1z"/>
	<path id="path4" class="primary" d="M120.7,74.5h-15.4c-3.6,0-6.1,3.7-6.1,7.3v30c0,1.3,0.1,2.4,0.8,3.5c-0.8,0-1.7-0.1-2.3-0.4c-0.7-0.3-1.2-0.8-1.4-1.5
		l-1.5-4.4l0.1-0.1c0.7-0.3,1-1.1,0.7-1.8l-9-19.9c-0.2-0.5-0.7-0.8-1.2-0.8l0.1-0.1L73,58.4c-0.3-0.6-0.7-1.1-1.3-1.3l-8.5-2.9
		l-1.2,4.8l7.6,1.8c0.6,0.1,1.2,0.5,1.5,1.1l11.5,25.8c-0.4,0.4-0.5,1-0.2,1.5l9,19.9c0.3,0.6,1,0.9,1.6,0.7l1.4,4.2
		c0.4,1.3,1.3,2.2,2.5,2.7c0.9,0.4,1.9,0.5,3,0.5c0.6,0,1.2-0.3,1.8-0.3c1.1,0.8,2.4,1,3.8,1h15.4c3.6,0,7-2.5,7-6.2v-30
		C127.7,78.1,124.4,74.5,120.7,74.5"/>
</g>
<path id="path5" class="primary" d="M99.2,26.4c-29.6,0-53.8,24.1-53.8,53.8c0,29.6,24.1,53.8,53.8,53.8S153,109.8,153,80.2C153,50.5,128.9,26.4,99.2,26.4z
	 M51.5,80.2c0-26.3,21.4-47.8,47.8-47.8c12.1,0,23.1,4.5,31.6,12l-67.4,67.4C56,103.3,51.5,92.3,51.5,80.2z M99.2,127.9
	c-12.1,0-23.1-4.5-31.6-12L135,48.6c7.4,8.4,12,19.5,12,31.6C147,106.5,125.6,127.9,99.2,127.9z"/>
</svg>
