<?xml version="1.0" encoding="utf-8"?>
<!-- Generator: Adobe Illustrator 26.0.0, SVG Export Plug-In . SVG Version: 6.00 Build 0)  -->
<svg version="1.1" id="Layer_1" xmlns="http://www.w3.org/2000/svg" xmlns:xlink="http://www.w3.org/1999/xlink" x="0px" y="0px"
	 viewBox="0 0 200 200" style="enable-background:new 0 0 200 200;" xml:space="preserve">
	 <style type="text/css">
	     .primary{fill:#000000;}
	     .pinFill{fill:#FFFFFF;}
	 </style>
	 <g>
	 	<path id="pin" class="primary" d="M169.2,79.8c0-38.2-31-69.2-69.2-69.2s-69.2,31-69.2,69.2c0,14.1,4.3,27.3,11.5,38.2h0l0.1,0.2
	 		c1.6,2.4,3.3,4.6,5.2,6.8l52.4,68.2l52.4-68.2c1.9-2.2,3.6-4.4,5.2-6.8l0.1-0.2h0C165,107.1,169.2,94,169.2,79.8L169.2,79.8z"/>
	 	<path id="pinFill" class="pinFill" d="M100,143.5c-34.6,0-62.7-28.1-62.7-62.7S65.4,18.1,100,18.1s62.7,28.1,62.7,62.7
	 		S134.6,143.5,100,143.5L100,143.5z"/>
	 </g>
<g>
	<g>
		<path id="path1" class="primary" d="M99.86,37.6c-22.48,0-40.77,18.29-40.77,40.77s18.29,40.76,40.77,40.76s40.76-18.28,40.76-40.76S122.34,37.6,99.86,37.6z
			 M67.7,78.37c0-17.73,14.43-32.16,32.16-32.16c7.38,0,14.18,2.5,19.61,6.7c-0.34,0.18-0.65,0.42-0.94,0.71L75.11,97.04
			c-0.29,0.29-0.53,0.6-0.71,0.94C70.2,92.55,67.7,85.75,67.7,78.37z M99.86,110.53c-7.38,0-14.18-2.5-19.61-6.7
			c0.34-0.18,0.65-0.42,0.94-0.71l43.42-43.42c0.29-0.29,0.53-0.6,0.71-0.94c4.2,5.43,6.7,12.23,6.7,19.61
			C132.02,96.1,117.59,110.53,99.86,110.53z"/>
	</g>
</g>
</svg>
