<?xml version="1.0" encoding="utf-8"?>
<!-- Generator: Adobe Illustrator 26.0.0, SVG Export Plug-In . SVG Version: 6.00 Build 0)  -->
<svg version="1.1" id="Layer_1" xmlns="http://www.w3.org/2000/svg" xmlns:xlink="http://www.w3.org/1999/xlink" x="0px" y="0px"
	 viewBox="0 0 200 200" style="enable-background:new 0 0 200 200;" xml:space="preserve">
	 <style type="text/css">
	     .primary{fill:#000000;}
	     .pinFill{fill:#FFFFFF;}
	 </style>
	 <g>
	 	<path id="pin" class="primary" d="M169.2,79.8c0-38.2-31-69.2-69.2-69.2s-69.2,31-69.2,69.2c0,14.1,4.3,27.3,11.5,38.2h0l0.1,0.2
	 		c1.6,2.4,3.3,4.6,5.2,6.8l52.4,68.2l52.4-68.2c1.9-2.2,3.6-4.4,5.2-6.8l0.1-0.2h0C165,107.1,169.2,94,169.2,79.8L169.2,79.8z"/>
	 	<path id="pinFill" class="pinFill" d="M100,143.5c-34.6,0-62.7-28.1-62.7-62.7S65.4,18.1,100,18.1s62.7,28.1,62.7,62.7
	 		S134.6,143.5,100,143.5L100,143.5z"/>
	 </g>
<g>
	<path id="path2" class="primary" d="M130.2,82.4c6.1,0,11.7,2.6,15.6,6.8c4.5-7.9,2-25.6-6.2-25.6c-0.3,0-2.1,0-4.8,0H129c-5.3,0-12.3,0-19.6,0
		c-1.4-6.6-3.2-15.2-4-19.3c-1.5-7.3-6.2-7.3-8.8-7.3H67.8c-1.9,0-6.8,0-7.4,6.9C60,48.2,58.1,70.3,58,70.5
		c-0.1,1.2,0.8,2.2,1.9,2.3c0.5,0,1-0.1,1.4-0.4c0,0,0,0,0.1,0c4.4-2.4,9.4-3.6,14.6-3.6c7.8,0,15.1,2.8,20.5,7.8
		c5.5,5.2,8.6,12.2,8.6,19.9c0,1.4-0.1,2.8-0.3,4.2h4.2C110.5,90.3,119.4,82.4,130.2,82.4z M80.6,63.5c-7.8,0-14.3,0-17.7,0
		c0.6-6.9,1.5-16.6,1.7-19.3c0.2-2.9,1.1-3,3.2-3h12.8V63.5z M105,75.8c0,0-19.2-12.3-21-12.3V41.2h12.5c2.4,0,3.8,0,4.6,3.9
		c0.6,2.9,3.9,18.4,3.9,18.4V75.8z"/>
	<path id="path3" class="primary" d="M76.1,71.6c-14.5,0-26.3,10.5-26.3,25c0,6.9,2.8,13.3,7.8,17.9c4.9,4.4,11.4,6.9,18.5,6.9c7.1,0,13.7-2.4,18.5-6.9
		c5-4.6,7.8-10.9,7.8-17.9C102.4,82,90.6,71.6,76.1,71.6z M76.1,113.9c-9.6,0-17.4-7.8-17.4-17.4c0-9.6,7.8-17.4,17.4-17.4
		c9.6,0,17.4,7.8,17.4,17.4C93.5,106.1,85.7,113.9,76.1,113.9z"/>
	<path id="path4" class="primary" d="M130.2,85.1c-10.3,0-18.6,8.3-18.6,18.6c0,4.9,2,9.4,5.5,12.7c3.4,3.1,8.1,4.9,13.1,4.9c5,0,9.7-1.7,13.1-4.9
		c3.5-3.2,5.5-7.7,5.5-12.7C148.8,93.5,140.4,85.1,130.2,85.1z M130.2,114.8c-6.4,0-11.6-5.2-11.6-11.6s5.2-11.6,11.6-11.6
		c6.4,0,11.6,5.2,11.6,11.6S136.6,114.8,130.2,114.8z"/>
</g>
</svg>
