<?xml version="1.0" encoding="utf-8"?>
<!-- Generator: Adobe Illustrator 26.0.0, SVG Export Plug-In . SVG Version: 6.00 Build 0)  -->
<svg version="1.1" id="Layer_1" xmlns="http://www.w3.org/2000/svg" xmlns:xlink="http://www.w3.org/1999/xlink" x="0px" y="0px"
	 viewBox="0 0 200 200" style="enable-background:new 0 0 200 200;" xml:space="preserve">
	 <style type="text/css">
	     .primary{fill:#000000;}
	     .pinFill{fill:#FFFFFF;}
	 </style>
	 <g>
	 	<path id="pin" class="primary" d="M169.2,79.8c0-38.2-31-69.2-69.2-69.2s-69.2,31-69.2,69.2c0,14.1,4.3,27.3,11.5,38.2h0l0.1,0.2
	 		c1.6,2.4,3.3,4.6,5.2,6.8l52.4,68.2l52.4-68.2c1.9-2.2,3.6-4.4,5.2-6.8l0.1-0.2h0C165,107.1,169.2,94,169.2,79.8L169.2,79.8z"/>
	 	<path id="pinFill" class="pinFill" d="M100,143.5c-34.6,0-62.7-28.1-62.7-62.7S65.4,18.1,100,18.1s62.7,28.1,62.7,62.7
	 		S134.6,143.5,100,143.5L100,143.5z"/>
	 </g>
<g>
	<path id="path2" class="primary" d="M142.6,84.5c0.1-1.7,0.2-3.4,0.1-5.1c0-1.7-0.2-3.3-0.4-4.9l-8.6-1.4l-2.9-8.1l5.7-6.6c-1.7-2.9-3.8-5.6-6.1-8l-7.8,3.9
		l-7.2-4.9l0.8-8.7c-3-1.3-6.1-2.2-9.4-2.8l-4.1,7.7l-8.6,0.2l-4.4-7.5c-3.3,0.8-6.5,1.9-9.5,3.4l1.3,8.6l-6.9,5.3l-8-3.5
		c-2.2,2.5-4.1,5.3-5.7,8.3l6.1,6.2L64.6,75l-8.5,1.9c-0.2,1.7-0.2,3.5-0.2,5.2c0.1,1.6,0.2,3.2,0.4,4.8l8.6,1.4l2.9,8.1l-5.8,6.6
		c1.7,2.9,3.8,5.6,6.1,8l7.8-3.9l7.1,4.9l-0.8,8.7c3.1,1.3,6.3,2.3,9.6,2.8l4-7.8l8.6-0.2l4.5,7.5c3.3-0.8,6.5-1.9,9.5-3.4l-1.3-8.6
		l6.8-5.3l8,3.4c2.2-2.5,4.1-5.3,5.7-8.3l-6.1-6.2l2.4-8.3L142.6,84.5z M116.3,100.1c-10.7,9.4-26.9,8.3-36.3-2.3
		c-9.4-10.7-8.3-26.9,2.3-36.3c10.7-9.4,26.9-8.3,36.3,2.4C128,74.5,127,90.7,116.3,100.1z"/>
</g>
</svg>
