<?xml version="1.0" encoding="utf-8"?>
<!-- Generator: Adobe Illustrator 26.0.0, SVG Export Plug-In . SVG Version: 6.00 Build 0)  -->
<svg version="1.1" id="Layer_1" xmlns="http://www.w3.org/2000/svg" xmlns:xlink="http://www.w3.org/1999/xlink" x="0px" y="0px"
	 viewBox="0 0 200 200" style="enable-background:new 0 0 200 200;" xml:space="preserve">
	 <style type="text/css">
	     .primary{fill:#000000;}
	     .pinFill{fill:#FFFFFF;}
	 </style>
	 <g>
	 	<path id="pin" class="primary" d="M169.2,79.8c0-38.2-31-69.2-69.2-69.2s-69.2,31-69.2,69.2c0,14.1,4.3,27.3,11.5,38.2h0l0.1,0.2
	 		c1.6,2.4,3.3,4.6,5.2,6.8l52.4,68.2l52.4-68.2c1.9-2.2,3.6-4.4,5.2-6.8l0.1-0.2h0C165,107.1,169.2,94,169.2,79.8L169.2,79.8z"/>
	 	<path id="pinFill" class="pinFill" d="M100,143.5c-34.6,0-62.7-28.1-62.7-62.7S65.4,18.1,100,18.1s62.7,28.1,62.7,62.7
	 		S134.6,143.5,100,143.5L100,143.5z"/>
	 </g>
<path id="path" class="primary" d="M116.5,46.9c0.2,0.7,0.9,1.2,1.6,1.2h6.3c0.7,0,1.3-0.4,1.6-1.1c0.3-0.9,0.9-2.6,2-5.7c0.3-0.9-0.2-1.9-1.1-2.2
	c-4.6-1.5-8.8-0.7-11.1,0c-0.9,0.3-1.4,1.2-1.1,2.1L116.5,46.9z"/>
<path id="path2" class="primary" d="M144.8,61.7c0-9-6-16.7-14.6-19.9c0,0.1,0,0.1-0.1,0.2c-1.4,4.1-2.2,8.1-2.7,9.3c-0.3,0.9-1.2,3.3-2.1,3.3h-8.3
	c-1,0-1.8-2.4-2.1-3.3l-2.4-8.4c0,0,0-0.5,0-0.5c-3.7,1.4-6.9,3.6-9.3,6.3c8,4.2,13.5,12.6,13.5,22.3v0.5c1.5,0.1,3,0.1,4.6,0.1
	c0,0,20.3,0.8,29.6-7.4C152.6,61.6,144.8,61.7,144.8,61.7z"/>
<g>
	<path id="path3" class="primary" d="M79.8,90.3c-14.9,0-23.1-2-27.5-4.1v12.7c0,14.4,11.7,26.1,26.1,26.1h5.2c14,0,25.3-11.3,25.3-25.3V85
		C97.3,90.9,79.8,90.3,79.8,90.3z"/>
	<path id="path4" class="primary" d="M106.5,72.6c0-10.3-6.9-19.1-16.7-22.8c0,0.1,0,0.2-0.1,0.2c-1.7,4.7-2.6,9.3-3.1,10.7c-0.4,1-1.3,3.7-2.4,3.7h-9.5
		c-1.1,0-2.1-2.8-2.5-3.8L69.5,51c0,0,0-0.6,0-0.6c-9.7,3.7-16.6,12.2-16.6,22.4c0,0-5.5,1.3-5.5,2.9c0,1.6,5.2,8.3,32.2,8.3
		c0,0,23.4,0.9,34-8.5C115.4,72.5,106.5,72.6,106.5,72.6z"/>
	<path id="path5" class="primary" d="M74,55.7c0.3,0.8,1,1.4,1.9,1.4h7.2c0.8,0,1.5-0.5,1.8-1.3c0.4-1.1,1.1-3,2.3-6.5c0.4-1-0.2-2.2-1.2-2.5
		c-5.3-1.7-10.1-0.8-12.7,0c-1.1,0.3-1.6,1.4-1.3,2.5L74,55.7z"/>
</g>
<path id="path6" class="primary" d="M121.6,77c-1.7,0-3.3,0-4.8-0.1v27.1c0,1-0.1,1.9-0.2,2.9c1.2,0.2,2.5,0.3,3.8,0.3h4.6c12.2,0,22-9.9,22-22V72.5
	C136.8,77.6,121.6,77,121.6,77z"/>
</svg>
