<?xml version="1.0" encoding="utf-8"?>
<!-- Generator: Adobe Illustrator 26.0.0, SVG Export Plug-In . SVG Version: 6.00 Build 0)  -->
<svg version="1.1" id="Layer_1" xmlns="http://www.w3.org/2000/svg" xmlns:xlink="http://www.w3.org/1999/xlink" x="0px" y="0px"
	 viewBox="0 0 200 200" style="enable-background:new 0 0 200 200;" xml:space="preserve">
	 <style type="text/css">
	     .primary{fill:#000000;}
	     .pinFill{fill:#FFFFFF;}
	 </style>
	 <g>
	 	<path id="pin" class="primary" d="M169.2,79.8c0-38.2-31-69.2-69.2-69.2s-69.2,31-69.2,69.2c0,14.1,4.3,27.3,11.5,38.2h0l0.1,0.2
	 		c1.6,2.4,3.3,4.6,5.2,6.8l52.4,68.2l52.4-68.2c1.9-2.2,3.6-4.4,5.2-6.8l0.1-0.2h0C165,107.1,169.2,94,169.2,79.8L169.2,79.8z"/>
	 	<path id="pinFill" class="pinFill" d="M100,143.5c-34.6,0-62.7-28.1-62.7-62.7S65.4,18.1,100,18.1s62.7,28.1,62.7,62.7
	 		S134.6,143.5,100,143.5L100,143.5z"/>
	 </g>
<g>
	<path id="path2" class="primary" d="M116.5,60.9H82.1c-1.4,0-2.5,1-2.5,2.3c0,1.3,1.1,2.3,2.5,2.3h34.4c1.4,0,2.5-1,2.5-2.3S117.9,60.9,116.5,60.9z"/>
	<path id="path3" class="primary" d="M79.4,78.1c-13.7,0-24.8,11.1-24.8,24.8s11.1,24.8,24.8,24.8s24.8-11.1,24.8-24.8S93.1,78.1,79.4,78.1z M79.4,124.6
		c-11.9,0-21.7-9.7-21.7-21.7s9.7-21.7,21.7-21.7S101,91,101,102.9S91.3,124.6,79.4,124.6z"/>
	<path id="path4" class="primary" d="M80.2,100.8L78.9,85l-1.2,15.9c-0.7,0.4-1.2,1.2-1.2,2.1c0,1.3,1.1,2.4,2.4,2.4c1,0,1.9-0.6,2.2-1.5l9.9-0.9l-9.9-0.9
		C81,101.5,80.6,101.1,80.2,100.8z"/>
	<path id="path5" class="primary" d="M116.5,74.4h-32c4.1,0.7,7.8,2.3,11.1,4.6h20.9c1.4,0,2.5-1,2.5-2.3S117.9,74.4,116.5,74.4z"/>
	<path id="path6" class="primary" d="M116.5,90.1h-11.2c0.7,1.5,1.3,3,1.8,4.6h9.4c1.4,0,2.5-1,2.5-2.3C119,91.2,117.9,90.1,116.5,90.1z"/>
	<path id="path7" class="primary" d="M116.5,105.8h-8.4c-0.2,1.6-0.4,3.1-0.8,4.6h9.2c1.4,0,2.5-1,2.5-2.3C119,106.9,117.9,105.8,116.5,105.8z"/>
	<path id="path8" class="primary" d="M129,101.3h2.3c1.4,0,2.5-1,2.5-2.3s-1.1-2.3-2.5-2.3H129V101.3z"/>
	<path id="path9" class="primary" d="M133.8,54.1c0-1.3-1.1-2.3-2.5-2.3H129v4.6h2.3C132.7,56.3,133.8,55.3,133.8,54.1z"/>
	<path id="path10" class="primary" d="M129,69.9h2.3c1.4,0,2.5-1,2.5-2.3c0-1.3-1.1-2.3-2.5-2.3H129V69.9z"/>
	<path id="path11" class="primary" d="M129,85.6h2.3c1.4,0,2.5-1,2.5-2.3c0-1.3-1.1-2.3-2.5-2.3H129V85.6z"/>
	<path id="path12" class="primary" d="M140,40.3H84.4v6.3h3.2v-3.1h49.3V110h-9.5V49.4H71.7V75c1-0.3,2.1-0.5,3.2-0.7V52.5h49.3v66.6h-20.7
		c-0.8,1.1-1.6,2.2-2.5,3.2h26.4v-9.1H140V40.3z"/>
</g>
</svg>
