<?xml version="1.0" encoding="utf-8"?>
<!-- Generator: Adobe Illustrator 26.0.0, SVG Export Plug-In . SVG Version: 6.00 Build 0)  -->
<svg version="1.1" id="Layer_1" xmlns="http://www.w3.org/2000/svg" xmlns:xlink="http://www.w3.org/1999/xlink" x="0px" y="0px"
	 viewBox="0 0 200 200" style="enable-background:new 0 0 200 200;" xml:space="preserve">
<style type="text/css">
    .primary{fill:#000000;}
    .pinFill{fill:#FFFFFF;}
</style>
<g>
	<path id="pin" class="primary" d="M169.2,79.8c0-38.2-31-69.2-69.2-69.2s-69.2,31-69.2,69.2c0,14.1,4.3,27.3,11.5,38.2h0l0.1,0.2
		c1.6,2.4,3.3,4.6,5.2,6.8l52.4,68.2l52.4-68.2c1.9-2.2,3.6-4.4,5.2-6.8l0.1-0.2h0C165,107.1,169.2,94,169.2,79.8L169.2,79.8z"/>
	<path id="pinFill" class="pinFill" d="M100,143.5c-34.6,0-62.7-28.1-62.7-62.7S65.4,18.1,100,18.1s62.7,28.1,62.7,62.7
		S134.6,143.5,100,143.5L100,143.5z"/>
</g>
<g>
	<path id="path1" class="primary" d="M99.7,115.33c-6.17,0-11.49-1.02-15.96-3.05c-4.47-2.04-7.93-5.02-10.39-8.96s-3.83-8.83-4.09-14.68
		c-0.07-2.69-0.1-5.58-0.1-8.67s0.03-6.04,0.1-8.87c0.26-5.71,1.64-10.57,4.14-14.58c2.49-4,5.97-7.03,10.44-9.06
		c4.46-2.03,9.75-3.05,15.86-3.05c4.33,0,8.34,0.54,12.02,1.63c3.68,1.08,6.9,2.66,9.65,4.73s4.91,4.56,6.45,7.49
		c1.54,2.92,2.35,6.22,2.41,9.9c0.06,0.59-0.12,1.08-0.54,1.48c-0.43,0.39-0.94,0.59-1.53,0.59h-13.3c-0.85,0-1.51-0.18-1.97-0.54
		s-0.85-1.03-1.18-2.02c-0.92-3.48-2.41-5.86-4.48-7.14s-4.61-1.92-7.63-1.92c-3.61,0-6.47,1-8.57,3s-3.25,5.34-3.45,10
		c-0.2,5.39-0.2,10.9,0,16.55c0.2,4.66,1.34,8,3.45,10c2.1,2,4.96,3,8.57,3c3.02,0,5.58-0.66,7.68-1.97s3.58-3.68,4.43-7.09
		c0.26-0.98,0.64-1.66,1.13-2.02c0.49-0.36,1.17-0.54,2.02-0.54h13.3c0.59,0,1.1,0.2,1.53,0.59s0.61,0.89,0.54,1.48
		c-0.07,3.68-0.87,6.98-2.41,9.9c-1.54,2.92-3.69,5.42-6.45,7.49s-5.98,3.64-9.65,4.73C108.04,114.79,104.04,115.33,99.7,115.33z"/>
</g>
</svg>
