<?xml version="1.0" encoding="utf-8"?>
<!-- Generator: Adobe Illustrator 26.0.2, SVG Export Plug-In . SVG Version: 6.00 Build 0)  -->
<svg version="1.1" id="Layer_1" xmlns="http://www.w3.org/2000/svg" xmlns:xlink="http://www.w3.org/1999/xlink" x="0px" y="0px"
	 viewBox="0 0 200 200" style="enable-background:new 0 0 200 200;" xml:space="preserve">
	 <style type="text/css">
	     .primary{fill:#000000;}
	     .pinFill{fill:#FFFFFF;}
	 </style>
	 <g>
	 	<path id="pin" class="primary" d="M169.2,79.8c0-38.2-31-69.2-69.2-69.2s-69.2,31-69.2,69.2c0,14.1,4.3,27.3,11.5,38.2h0l0.1,0.2
	 		c1.6,2.4,3.3,4.6,5.2,6.8l52.4,68.2l52.4-68.2c1.9-2.2,3.6-4.4,5.2-6.8l0.1-0.2h0C165,107.1,169.2,94,169.2,79.8L169.2,79.8z"/>
	 	<path id="pinFill" class="pinFill" d="M100,143.5c-34.6,0-62.7-28.1-62.7-62.7S65.4,18.1,100,18.1s62.7,28.1,62.7,62.7
	 		S134.6,143.5,100,143.5L100,143.5z"/>
	 </g>
<g>
	<path id="path1" class="primary" d="M149.4,81.2c-0.2-0.3-5.1-9.2-13.5-15.4c-11.3-8.3-23.5-12.6-35.4-12.6s-24.2,4.4-35.4,12.6
		C56.7,72,51.7,80.9,51.5,81.2l-1.7,2.2l1.7,2.2c0.2,0.3,5.1,6.4,13.5,12.6c11.3,8.3,23.5,12.6,35.4,12.6s24.2-4.4,35.4-12.6
		c8.4-6.2,13.3-12.4,13.5-12.6l1.7-2.2L149.4,81.2z M80.9,99.3c-4.5-2-8.4-4.5-11.5-6.7c-4.8-3.5-8.4-7-10.4-9.2
		c2-2.2,5.6-5.7,10.4-9.2c3.1-2.2,7-4.7,11.5-6.7c-3.6,4.3-5.7,9.9-5.7,15.9C75.2,89.4,77.4,95,80.9,99.3z M100.4,102
		c-10.2,0-18.6-8.3-18.6-18.6c0-10.2,8.3-18.6,18.6-18.6c10.2,0,18.6,8.3,18.6,18.6C119,93.6,110.7,102,100.4,102z M131.4,92.6
		c-3.1,2.2-7,4.7-11.5,6.7c3.6-4.3,5.7-9.9,5.7-15.9c0-6-2.1-11.6-5.7-15.9c4.5,2,8.4,4.5,11.5,6.7c4.8,3.5,8.4,7,10.4,9.2
		C139.8,85.6,136.3,89.1,131.4,92.6z"/>
	<path id="path2" class="primary" d="M93.6,76.3c-3.8,3.8-3.8,9.9,0,13.7s9.9,3.8,13.7,0s3.8-9.9,0-13.7C103.5,72.6,97.4,72.6,93.6,76.3z M107,82.9
		c-0.8,0.8-2.8,0-4.6-1.7s-2.5-3.8-1.7-4.6c0.8-0.8,2.8,0,4.6,1.7C107,80,107.8,82.1,107,82.9z"/>
</g>
</svg>
