<?xml version="1.0" encoding="utf-8"?>
<!-- Generator: Adobe Illustrator 26.0.0, SVG Export Plug-In . SVG Version: 6.00 Build 0)  -->
<svg version="1.1" id="Layer_1" xmlns="http://www.w3.org/2000/svg" xmlns:xlink="http://www.w3.org/1999/xlink" x="0px" y="0px"
	 viewBox="0 0 200 200" style="enable-background:new 0 0 200 200;" xml:space="preserve">
	 <style type="text/css">
	     .primary{fill:#000000;}
	     .pinFill{fill:#FFFFFF;}
	 </style>
	 <g>
	 	<path id="pin" class="primary" d="M169.2,79.8c0-38.2-31-69.2-69.2-69.2s-69.2,31-69.2,69.2c0,14.1,4.3,27.3,11.5,38.2h0l0.1,0.2
	 		c1.6,2.4,3.3,4.6,5.2,6.8l52.4,68.2l52.4-68.2c1.9-2.2,3.6-4.4,5.2-6.8l0.1-0.2h0C165,107.1,169.2,94,169.2,79.8L169.2,79.8z"/>
	 	<path id="pinFill" class="pinFill" d="M100,143.5c-34.6,0-62.7-28.1-62.7-62.7S65.4,18.1,100,18.1s62.7,28.1,62.7,62.7
	 		S134.6,143.5,100,143.5L100,143.5z"/>
	 </g>
	 <g>
	 	<path id="number" class="primary" d="M124.76,39.05L110.32,55.4l-0.42-16.35h-18.9V55.4L75.06,39.05L62.91,52.1l28.08,34.31v39.5h18.69l0.14-39.46l28.1-34.35
	   	L124.76,39.05z M76.64,56.74l-4.93-5.87l1.79-1.5l4.93,5.87L76.64,56.74z M85.2,67.29l-4.92-5.87l1.79-1.5l4.92,5.87L85.2,67.29z
	   	 M93.33,78.03l-4.6-6.12l1.87-1.41l4.6,6.12L93.33,78.03z M99.18,45.34h2.34V53h-2.34V45.34z M101.61,122.2h-2.34v-7.66h2.34V122.2z
	   	 M101.61,108.6h-2.34v-7.66h2.34V108.6z M101.61,94.58h-2.34v-7.66h2.34V94.58z M101.61,80.35h-2.34v-7.66h2.34V80.35z
	   	 M101.61,66.29h-2.34v-7.66h2.34V66.29z M107.21,77.74l-1.87-1.41l4.6-6.12l1.87,1.41L107.21,77.74z M115.69,66.89l-1.79-1.5
	   	l4.93-5.87l1.79,1.5L115.69,66.89z M122.46,54.49l4.92-5.87l1.79,1.5l-4.92,5.87L122.46,54.49z"/>
	 </g>
	 </svg>
