<?xml version="1.0" encoding="utf-8"?>
<!-- Generator: Adobe Illustrator 26.0.0, SVG Export Plug-In . SVG Version: 6.00 Build 0)  -->
<svg version="1.1" id="Layer_1" xmlns="http://www.w3.org/2000/svg" xmlns:xlink="http://www.w3.org/1999/xlink" x="0px" y="0px"
	 viewBox="0 0 200 200" style="enable-background:new 0 0 200 200;" xml:space="preserve">
	 <style type="text/css">
	     .primary{fill:#000000;}
	     .pinFill{fill:#FFFFFF;}
	 </style>
	 <g>
	 	<path id="pin" class="primary" d="M169.2,79.8c0-38.2-31-69.2-69.2-69.2s-69.2,31-69.2,69.2c0,14.1,4.3,27.3,11.5,38.2h0l0.1,0.2
	 		c1.6,2.4,3.3,4.6,5.2,6.8l52.4,68.2l52.4-68.2c1.9-2.2,3.6-4.4,5.2-6.8l0.1-0.2h0C165,107.1,169.2,94,169.2,79.8L169.2,79.8z"/>
	 	<path id="pinFill" class="pinFill" d="M100,143.5c-34.6,0-62.7-28.1-62.7-62.7S65.4,18.1,100,18.1s62.7,28.1,62.7,62.7
	 		S134.6,143.5,100,143.5L100,143.5z"/>
	 </g>
<g>
	<path id="path2" class="primary" d="M139,50.5l-8.8-9.7c-1.7-1.9-4.1-3-6.7-3H65.4c-3.5,0-6.3,2.8-6.3,6.3v72.8c0,3.5,2.8,6.3,6.3,6.3h69.7
		c3.5,0,6.3-2.8,6.3-6.3V56.6C141.3,54.3,140.5,52.2,139,50.5z M122.4,118.4H78.1V82.1h44.3V118.4z M122.4,66c0,2.2-1.8,4-4,4H82.1
		c-2.2,0-4-1.8-4-4V51.8c0-2.2,1.8-4,4-4h36.3c2.2,0,4,1.8,4,4V66z"/>
	<rect id="rect1" class="primary" x="110.3" y="50.8" width="8.3" height="16.2"/>
</g>
<path id="path3" class="primary" d="M114.5,97.7H86c-1.2,0-2.2-1-2.2-2.2c0-1.2,1-2.2,2.2-2.2h28.5c1.2,0,2.2,1,2.2,2.2C116.7,96.8,115.7,97.7,114.5,97.7"/>
<path id="path4" class="primary" d="M114.4,109.6H86c-1.2,0-2.2-1-2.2-2.2c0-1.2,1-2.2,2.2-2.2h28.5c1.2,0,2.2,1,2.2,2.2C116.7,108.6,115.7,109.6,114.4,109.6"
	/>
</svg>
