<?xml version="1.0" encoding="utf-8"?>
<!-- Generator: Adobe Illustrator 26.0.0, SVG Export Plug-In . SVG Version: 6.00 Build 0)  -->
<svg version="1.1" id="Layer_1" xmlns="http://www.w3.org/2000/svg" xmlns:xlink="http://www.w3.org/1999/xlink" x="0px" y="0px"
	 viewBox="0 0 200 200" style="enable-background:new 0 0 200 200;" xml:space="preserve">
	 <style type="text/css">
	     .primary{fill:#000000;}
	     .pinFill{fill:#FFFFFF;}
	 </style>
	 <g>
	 	<path id="pin" class="primary" d="M169.2,79.8c0-38.2-31-69.2-69.2-69.2s-69.2,31-69.2,69.2c0,14.1,4.3,27.3,11.5,38.2h0l0.1,0.2
	 		c1.6,2.4,3.3,4.6,5.2,6.8l52.4,68.2l52.4-68.2c1.9-2.2,3.6-4.4,5.2-6.8l0.1-0.2h0C165,107.1,169.2,94,169.2,79.8L169.2,79.8z"/>
	 	<path id="pinFill" class="pinFill" d="M100,143.5c-34.6,0-62.7-28.1-62.7-62.7S65.4,18.1,100,18.1s62.7,28.1,62.7,62.7
	 		S134.6,143.5,100,143.5L100,143.5z"/>
	 </g>
<g>
	<path id="path2" class="primary" d="M123.9,33.5H76.3c-2.9,0-5.2,2.3-5.2,5.2v85.8c0,2.9,2.3,5.2,5.2,5.2h47.6c2.9,0,5.2-2.3,5.2-5.2V38.7
		C129.1,35.8,126.8,33.5,123.9,33.5z M90.2,37.3H110c1,0,1.8,0.8,1.8,1.8H88.4C88.4,38.1,89.2,37.3,90.2,37.3z M99.3,127.3
		c-2.4,0-4.4-2-4.4-4.4c0-2.4,2-4.4,4.4-4.4c2.4,0,4.4,2,4.4,4.4C103.7,125.4,101.7,127.3,99.3,127.3z M122.5,115.7H77.7V42.4h44.7
		V115.7z"/>
	<rect id="rect1" class="primary" x="83.5" y="74.7" width="7" height="7.5"/>
	<rect id="rect2" class="primary" x="83.5" y="86.8" width="7" height="7.5"/>
	<rect id="rect3" class="primary" x="83.5" y="62.6" width="7" height="7.5"/>
	<rect id="rect4" class="primary" x="83.5" y="98.9" width="7" height="7.5"/>
	<rect id="rect5" class="primary" x="93.5" y="74.7" width="22.9" height="7.5"/>
	<rect id="rect6" class="primary" x="93.5" y="86.8" width="22.9" height="7.5"/>
	<rect id="rect7" class="primary" x="93.5" y="62.6" width="22.9" height="7.5"/>
	<rect id="rect8" class="primary" x="93.5" y="98.9" width="22.9" height="7.5"/>
	<rect id="rect9" class="primary" x="83.5" y="54.9" width="33" height="3.8"/>
</g>
</svg>
