<?xml version="1.0" encoding="utf-8"?>
<!-- Generator: Adobe Illustrator 26.0.0, SVG Export Plug-In . SVG Version: 6.00 Build 0)  -->
<svg version="1.1" id="Layer_1" xmlns="http://www.w3.org/2000/svg" xmlns:xlink="http://www.w3.org/1999/xlink" x="0px" y="0px"
	 viewBox="0 0 200 200" style="enable-background:new 0 0 200 200;" xml:space="preserve">
	 <style type="text/css">
	     .primary{fill:#000000;}
	     .pinFill{fill:#FFFFFF;}
	 </style>
	 <g>
	 	<path id="pin" class="primary" d="M169.2,79.8c0-38.2-31-69.2-69.2-69.2s-69.2,31-69.2,69.2c0,14.1,4.3,27.3,11.5,38.2h0l0.1,0.2
	 		c1.6,2.4,3.3,4.6,5.2,6.8l52.4,68.2l52.4-68.2c1.9-2.2,3.6-4.4,5.2-6.8l0.1-0.2h0C165,107.1,169.2,94,169.2,79.8L169.2,79.8z"/>
	 	<path id="pinFill" class="pinFill" d="M100,143.5c-34.6,0-62.7-28.1-62.7-62.7S65.4,18.1,100,18.1s62.7,28.1,62.7,62.7
	 		S134.6,143.5,100,143.5L100,143.5z"/>
	 </g>
<g>
	<path id="path1" class="primary" d="M134.93,71.81v-4.44h-27.41V54.76c0.66-0.4,1.69-0.91,2.87-0.68c2.17,0.4,4.44,3.05,6.4,7.46
		c0.48,1.11,1.82,1.61,2.92,1.11c1.13-0.5,1.64-1.82,1.13-2.95c-2.67-5.98-5.95-9.35-9.71-10.01c-3.43-0.61-6.3,1.26-7.46,2.45
		c-0.4,0.4-0.63,0.98-0.63,1.56v16.84h-5.09v-3.18c0-0.68-0.55-1.26-1.26-1.26c-0.68,0-1.26,0.58-1.26,1.26v3.18h-5.27v-3.18
		c0-0.68-0.55-1.26-1.26-1.26s-1.26,0.58-1.26,1.26v3.18h-5.27v-3.18c0-0.68-0.58-1.26-1.26-1.26c-0.71,0-1.26,0.58-1.26,1.26v3.18
		h-5.3v-3.18c0-0.68-0.55-1.26-1.26-1.26c-0.68,0-1.26,0.58-1.26,1.26v3.18h-5.27v-3.18c0-0.68-0.55-1.26-1.26-1.26
		s-1.26,0.58-1.26,1.26v3.35c-1.19,0.18-2.29,0.55-3.33,1.06l-2.72-4.01c-0.4-0.55-1.19-0.71-1.77-0.33
		c-0.55,0.4-0.71,1.19-0.33,1.77l2.67,3.91c-0.98,0.76-1.87,1.69-2.6,2.72l-3.93-2.85c-0.55-0.4-1.36-0.28-1.77,0.3
		c-0.4,0.55-0.28,1.34,0.3,1.74L55,78.09c-0.53,1.24-0.83,2.57-0.91,3.96h-4.61c-0.71,0-1.26,0.55-1.26,1.26s0.55,1.26,1.26,1.26
		h4.74c0.15,1.03,0.43,2.04,0.83,2.98l-3.96,2.82c-0.55,0.4-0.68,1.21-0.28,1.77c0.25,0.35,0.63,0.53,1.03,0.53
		c0.25,0,0.5-0.08,0.73-0.25l3.71-2.67c0.81,1.13,1.79,2.14,2.95,2.92l-2.6,3.78c-0.4,0.58-0.25,1.36,0.33,1.77
		c0.2,0.15,0.45,0.2,0.71,0.2c0.4,0,0.78-0.18,1.03-0.53l2.7-3.98c0.91,0.4,1.84,0.68,2.85,0.83v4.01c0,0.68,0.55,1.26,1.26,1.26
		s1.26-0.58,1.26-1.26v-3.83h5.27v3.83c0,0.68,0.58,1.26,1.26,1.26c0.71,0,1.26-0.58,1.26-1.26v-3.83h5.3v3.83
		c0,0.68,0.55,1.26,1.26,1.26c0.68,0,1.26-0.58,1.26-1.26v-3.83h5.27v3.83c0,0.68,0.55,1.26,1.26,1.26s1.26-0.58,1.26-1.26v-3.83
		h5.27v3.83c0,0.68,0.58,1.26,1.26,1.26c0.71,0,1.26-0.58,1.26-1.26v-3.83h5.09v4.34h42.87V71.81H134.93z M103.06,89.96H66.25
		c-3.98,0-7.24-3.25-7.24-7.24s3.25-7.24,7.24-7.24h36.81V89.96z M142.92,96.07h-7.99V74.84h7.99V96.07z"/>
</g>
</svg>
