<?xml version="1.0" encoding="utf-8"?>
<!-- Generator: Adobe Illustrator 26.0.0, SVG Export Plug-In . SVG Version: 6.00 Build 0)  -->
<svg version="1.1" id="Layer_1" xmlns="http://www.w3.org/2000/svg" xmlns:xlink="http://www.w3.org/1999/xlink" x="0px" y="0px"
	 viewBox="0 0 200 200" style="enable-background:new 0 0 200 200;" xml:space="preserve">
<style type="text/css">
    .primary{fill:#000000;}
    .pinFill{fill:#FFFFFF;}
</style>
<g>
	<path id="pin" class="primary" d="M169.2,79.8c0-38.2-31-69.2-69.2-69.2s-69.2,31-69.2,69.2c0,14.1,4.3,27.3,11.5,38.2h0l0.1,0.2
		c1.6,2.4,3.3,4.6,5.2,6.8l52.4,68.2l52.4-68.2c1.9-2.2,3.6-4.4,5.2-6.8l0.1-0.2h0C165,107.1,169.2,94,169.2,79.8L169.2,79.8z"/>
	<path id="pinFill" class="pinFill" d="M100,143.5c-34.6,0-62.7-28.1-62.7-62.7S65.4,18.1,100,18.1s62.7,28.1,62.7,62.7
		S134.6,143.5,100,143.5L100,143.5z"/>
</g>
<g>
	<g>
		<path id="path2" class="primary" d="M102.37,107.18l13.98-17.57c1.41-1.82,0.14-4.54-2.18-4.54h-4.68c-1.5,0-2.81-1-2.81-2.5V54.66c0-1.5-1.09-2.72-2.63-2.72
			H96.7c-1.45,0-2.72,1.23-2.72,2.72v27.92c0,1.5-1.18,2.5-2.68,2.5h-4.68c-2.27,0-3.54,2.72-2.13,4.49l13.62,17.52
			C99.15,108.54,101.28,108.59,102.37,107.18z"/>
	</g>
	<g>
		<path id="path3" class="primary" d="M99.75,31.6c2.98,0,5.95,1.13,8.21,3.4l37.38,37.38c4.53,4.53,4.53,11.89,0,16.42l-37.38,37.38
			c-4.53,4.53-11.89,4.53-16.42,0L54.16,88.79c-4.53-4.53-4.53-11.89,0-16.42l37.38-37.38C93.8,32.73,96.78,31.6,99.75,31.6z
			 M99.75,124.85c1.76,0,3.53-0.67,4.87-2.01L142,85.46c2.69-2.69,2.69-7.06,0-9.75l-37.38-37.38c-2.69-2.68-7.06-2.69-9.74,0
			L57.5,75.71c-2.69,2.69-2.69,7.06,0,9.75l37.38,37.38C96.22,124.18,97.99,124.85,99.75,124.85z"/>
	</g>
</g>
</svg>
