<?xml version="1.0" encoding="utf-8"?>
<!-- Generator: Adobe Illustrator 26.0.2, SVG Export Plug-In . SVG Version: 6.00 Build 0)  -->
<svg version="1.1" id="Layer_1" xmlns="http://www.w3.org/2000/svg" xmlns:xlink="http://www.w3.org/1999/xlink" x="0px" y="0px"
	 viewBox="0 0 200 200" style="enable-background:new 0 0 200 200;" xml:space="preserve">
	 <style type="text/css">
	     .primary{fill:#000000;}
	     .pinFill{fill:#FFFFFF;}
	 </style>
	 <g>
	 	<path id="pin" class="primary" d="M169.2,79.8c0-38.2-31-69.2-69.2-69.2s-69.2,31-69.2,69.2c0,14.1,4.3,27.3,11.5,38.2h0l0.1,0.2
	 		c1.6,2.4,3.3,4.6,5.2,6.8l52.4,68.2l52.4-68.2c1.9-2.2,3.6-4.4,5.2-6.8l0.1-0.2h0C165,107.1,169.2,94,169.2,79.8L169.2,79.8z"/>
	 	<path id="pinFill" class="pinFill" d="M100,143.5c-34.6,0-62.7-28.1-62.7-62.7S65.4,18.1,100,18.1s62.7,28.1,62.7,62.7
	 		S134.6,143.5,100,143.5L100,143.5z"/>
	 </g>
<g>
	<path id="path" class="primary" d="M90.3,103.5l33.2-33.2c6.2,2.2,12.2,0.4,16.7-4.1c5.2-5.2,6.1-13.1,3.4-18.9l-12.5,12.5l-11.3-11.3L131.2,37
		c-4.9-0.8-11.8-0.1-16.1,4.2c-4.4,4.4-5.3,11.5-4.4,16.3L77.5,90.7c-4.8-0.8-12.4-0.6-16.8,3.9c-5.3,5.3-6.2,13.4-3.4,19.2
		l11.1-11.1l12.7,12.7l-9.7,9.7c5,0.7,10.8-0.7,14.9-4.9C90.8,115.8,92.5,109.7,90.3,103.5z"/>
</g>
</svg>
