<?xml version="1.0" encoding="utf-8"?>
<!-- Generator: Adobe Illustrator 26.0.0, SVG Export Plug-In . SVG Version: 6.00 Build 0)  -->
<svg version="1.1" id="Layer_1" xmlns="http://www.w3.org/2000/svg" xmlns:xlink="http://www.w3.org/1999/xlink" x="0px" y="0px"
	 viewBox="0 0 200 200" style="enable-background:new 0 0 200 200;" xml:space="preserve">
	 <style type="text/css">
	     .primary{fill:#000000;}
	     .pinFill{fill:#FFFFFF;}
	 </style>
	 <g>
	 	<path id="pin" class="primary" d="M169.2,79.8c0-38.2-31-69.2-69.2-69.2s-69.2,31-69.2,69.2c0,14.1,4.3,27.3,11.5,38.2h0l0.1,0.2
	 		c1.6,2.4,3.3,4.6,5.2,6.8l52.4,68.2l52.4-68.2c1.9-2.2,3.6-4.4,5.2-6.8l0.1-0.2h0C165,107.1,169.2,94,169.2,79.8L169.2,79.8z"/>
	 	<path id="pinFill" class="pinFill" d="M100,143.5c-34.6,0-62.7-28.1-62.7-62.7S65.4,18.1,100,18.1s62.7,28.1,62.7,62.7
	 		S134.6,143.5,100,143.5L100,143.5z"/>
	 </g>
<g>
	<polygon id="polygon1" class="primary" points="89,133 111.2,132.9 111.1,128.1 99.9,128.2 99.9,125.8 111.1,125.7 111.1,123.3 103.2,123.3 103.1,120.9
		111.1,120.9 111.1,118.5 103.1,118.5 103.1,116.1 111.1,116.1 111.1,113.7 103.1,113.7 103.1,111.3 111,111.3 111,108.9
		99.8,108.9 99.8,106.5 111,106.5 111,104 103.1,104.1 103.1,101.7 111,101.6 111,99.2 103,99.3 103,96.9 111,96.8 111,94.4
		103,94.4 103,92 111,92 110.9,89.6 99.7,89.6 99.7,87.2 110.9,87.2 110.9,84.8 103,84.8 103,82.4 110.9,82.4 110.9,80 102.9,80
		102.9,77.6 110.9,77.5 110.9,75.1 102.9,75.2 102.9,72.8 110.9,72.7 110.8,70.3 99.6,70.4 99.6,68 110.8,67.9 110.8,65.5
		102.9,65.5 102.9,63.1 110.8,63.1 110.8,60.7 102.9,60.7 102.8,58.3 110.8,58.3 110.8,55.9 102.8,55.9 102.8,53.5 110.8,53.5
		110.8,51.1 99.6,51.1 99.5,48.7 110.7,48.6 110.7,46.2 102.8,46.3 102.8,43.9 110.7,43.8 110.7,41.4 102.8,41.5 102.7,39 110.7,39
		110.7,36.6 102.7,36.6 102.7,34.2 110.7,34.2 110.7,29.4 88.5,29.5 	"/>
</g>
</svg>
