<?xml version="1.0" encoding="utf-8"?>
<!-- Generator: Adobe Illustrator 26.0.0, SVG Export Plug-In . SVG Version: 6.00 Build 0)  -->
<svg version="1.1" id="Layer_1" xmlns="http://www.w3.org/2000/svg" xmlns:xlink="http://www.w3.org/1999/xlink" x="0px" y="0px"
	 viewBox="0 0 200 200" style="enable-background:new 0 0 200 200;" xml:space="preserve">
	 <style type="text/css">
	     .primary{fill:#000000;}
	     .pinFill{fill:#FFFFFF;}
	 </style>
	 <g>
	 	<path id="pin" class="primary" d="M169.2,79.8c0-38.2-31-69.2-69.2-69.2s-69.2,31-69.2,69.2c0,14.1,4.3,27.3,11.5,38.2h0l0.1,0.2
	 		c1.6,2.4,3.3,4.6,5.2,6.8l52.4,68.2l52.4-68.2c1.9-2.2,3.6-4.4,5.2-6.8l0.1-0.2h0C165,107.1,169.2,94,169.2,79.8L169.2,79.8z"/>
	 	<path id="pinFill" class="pinFill" d="M100,143.5c-34.6,0-62.7-28.1-62.7-62.7S65.4,18.1,100,18.1s62.7,28.1,62.7,62.7
	 		S134.6,143.5,100,143.5L100,143.5z"/>
	 </g>
<path id="path2" class="primary" d="M146.63,78.29c0-4.9-2.8-9.13-6.88-11.22c0.48-1.33,0.76-2.77,0.76-4.28c0-6.96-5.64-12.6-12.59-12.6
	c-1.29,0-2.54,0.2-3.72,0.56c-2.75-5.76-8.61-9.75-15.43-9.75c-1.6,0-3.13,0.24-4.6,0.64c-2.96-5.11-8.47-8.56-14.8-8.56
	c-7.65,0-14.13,5.03-16.31,11.95c-4.09,1.19-7.37,4.24-8.89,8.17c-6.3,2.36-10.79,8.41-10.79,15.53c0,6.91,4.22,12.82,10.22,15.32
	c-0.23,1.09-0.35,2.23-0.35,3.4c0,9.16,7.43,16.59,16.6,16.59c3.65,0,7.03-1.19,9.77-3.19l5.8,7.51l-2.38,22.18h14.47
	c0,0-2.21-17.14-2.56-20.71c3.73-3.73,5.88-5.88,7.13-7.12c3.04,2.78,7.07,4.48,11.51,4.48c9.45,0,17.11-7.66,17.11-17.1
	c0-0.37-0.03-0.74-0.06-1.1C144.23,86.79,146.63,82.82,146.63,78.29z M91.48,55.14l-3.4,3.61l-0.76-1.2L91.48,55.14z M91.45,60.22
	l-3.09,1.8l0.15-1.79C88.04,59.85,91.45,60.22,91.45,60.22z M82.35,56.67c2.22-0.52,4.43,0.86,4.94,3.08
	c0.51,2.22-0.86,4.43-3.08,4.94c-2.22,0.51-4.43-0.86-4.94-3.08C78.75,59.4,80.13,57.19,82.35,56.67z M83.21,65.77
	c2.05,0,3.8,0.97,4.62,2.37h-9.25C79.41,66.75,81.16,65.77,83.21,65.77z M83.73,84c-7.45,0-13.58-6.12-14.26-13.04
	c-0.07-0.69,0.48-1.28,1.17-1.28h25.67c0.99,0,1.75,0.88,1.61,1.86C96.97,78.22,90.98,84,83.73,84z M97.7,106.11l-5.22-7.92
	c1.36-1.61,2.42-3.48,3.1-5.54l4.42,7.5L97.7,106.11z M105.69,91.13l-2.29,6.98l-3.38-5.67C102.03,92.33,103.93,91.87,105.69,91.13z
	 M103.41,107.21l4.02-11.51c0.57,1.66,1.4,3.2,2.43,4.58L103.41,107.21z"/>
</svg>
