<?xml version="1.0" encoding="utf-8"?>
<!-- Generator: Adobe Illustrator 26.0.0, SVG Export Plug-In . SVG Version: 6.00 Build 0)  -->
<svg version="1.1" id="Layer_1" xmlns="http://www.w3.org/2000/svg" xmlns:xlink="http://www.w3.org/1999/xlink" x="0px" y="0px"
	 viewBox="0 0 200 200" style="enable-background:new 0 0 200 200;" xml:space="preserve">
	 <style type="text/css">
	     .primary{fill:#000000;}
	     .pinFill{fill:#FFFFFF;}
	 </style>
	 <g>
	 	<path id="pin" class="primary" d="M169.2,79.8c0-38.2-31-69.2-69.2-69.2s-69.2,31-69.2,69.2c0,14.1,4.3,27.3,11.5,38.2h0l0.1,0.2
	 		c1.6,2.4,3.3,4.6,5.2,6.8l52.4,68.2l52.4-68.2c1.9-2.2,3.6-4.4,5.2-6.8l0.1-0.2h0C165,107.1,169.2,94,169.2,79.8L169.2,79.8z"/>
	 	<path id="pinFill" class="pinFill" d="M100,143.5c-34.6,0-62.7-28.1-62.7-62.7S65.4,18.1,100,18.1s62.7,28.1,62.7,62.7
	 		S134.6,143.5,100,143.5L100,143.5z"/>
	 </g>
<g>
	<path id="path2" class="primary" d="M91.4,44.9c-2.6-0.8-5.4,0.4-6.7,2.8l-1,1.8c0.1,0,0.3,0,0.4,0c4.5,0.3,8.3,2.8,10.5,6.3l0.9-4.2
		C96,48.6,94.3,45.7,91.4,44.9z"/>
	<path id="path3" class="primary" d="M82.8,52.3c-4.2-0.3-8.3,1.5-11.1,4.7l-9.7,11.5c2.3-0.7,4.8-1,7.4-1c10.8,0,20.2,6.4,24.5,15.6l1.4-16.3
		C95.9,59.3,90.3,52.8,82.8,52.3z"/>
	<path id="path4" class="primary" d="M69.4,72C57,72,47,82.1,47,94.5C47,106.9,57,117,69.4,117c12.4,0,22.5-10.1,22.5-22.5C91.9,82.1,81.8,72,69.4,72z
		 M69.4,112.2c-9.8,0-17.7-8-17.7-17.7c0-9.8,8-17.7,17.7-17.7c9.8,0,17.7,8,17.7,17.7C87.2,104.3,79.2,112.2,69.4,112.2z"/>
	<path id="path5" class="primary" d="M116.7,49.5l-1-1.9c-1.3-2.4-4.1-3.6-6.7-2.8c-2.9,0.9-4.6,3.8-4,6.7l1,5C108.1,52.6,112,49.9,116.7,49.5z"/>
	<path id="path6" class="primary" d="M130.9,67.5c2.6,0,5,0.4,7.4,1L128.6,57c-2.7-3.2-6.8-5-11.1-4.7c-7.5,0.5-13.1,7-12.4,14.5l1.4,16.3
		C110.8,73.9,120.1,67.5,130.9,67.5z"/>
	<path id="path7" class="primary" d="M130.9,72c-12.4,0-22.5,10.1-22.5,22.5c0,12.4,10.1,22.5,22.5,22.5c12.4,0,22.5-10.1,22.5-22.5
		C153.4,82.1,143.3,72,130.9,72z M130.9,112.2c-9.8,0-17.7-8-17.7-17.7c0-9.8,8-17.7,17.7-17.7c9.8,0,17.7,8,17.7,17.7
		C148.7,104.3,140.7,112.2,130.9,112.2z"/>
	<polygon id="polygon1" class="primary" points="102.3,69.3 97.7,69.3 96.7,82.8 103.1,82.8 	"/>
	<rect id="rect1" class="primary" x="96.7" y="85.3" width="6.4" height="6.4"/>
</g>
</svg>
