<?xml version="1.0" encoding="utf-8"?>
<!-- Generator: Adobe Illustrator 26.0.0, SVG Export Plug-In . SVG Version: 6.00 Build 0)  -->
<svg version="1.1" id="Layer_1" xmlns="http://www.w3.org/2000/svg" xmlns:xlink="http://www.w3.org/1999/xlink" x="0px" y="0px"
	 viewBox="0 0 200 200" style="enable-background:new 0 0 200 200;" xml:space="preserve">

<style type="text/css">
    .primary{fill:#000000;}
    .pinFill{fill:#FFFFFF;}
</style>
<g>
	<path id="pin" class="primary" d="M169.2,79.8c0-38.2-31-69.2-69.2-69.2s-69.2,31-69.2,69.2c0,14.1,4.3,27.3,11.5,38.2h0l0.1,0.2
		c1.6,2.4,3.3,4.6,5.2,6.8l52.4,68.2l52.4-68.2c1.9-2.2,3.6-4.4,5.2-6.8l0.1-0.2h0C165,107.1,169.2,94,169.2,79.8L169.2,79.8z"/>
	<path id="pinFill" class="pinFill" d="M100,143.5c-34.6,0-62.7-28.1-62.7-62.7S65.4,18.1,100,18.1s62.7,28.1,62.7,62.7
		S134.6,143.5,100,143.5L100,143.5z"/>
</g>
<g>
	<path id="path2" class="primary" d="M45.04,77.15c0,0,0.17,8.94,1.2,14.1c0,0,15.99-13.58,27.85-15.99C74.09,75.26,57.07,75.26,45.04,77.15z"/>
	<path id="path3" class="primary" d="M47.33,94.98c0,0,4.13,12.49,6.08,14.1c0,0,10.66-22.35,30.84-33.82h-5.16C79.08,75.26,56.5,84.78,47.33,94.98z"/>
	<path id="path4" class="primary" d="M88.48,75.26h7.45c0,0-20.98,37.83-21.84,53.19c0,0-12.05-7.72-16.79-14.1C57.3,114.35,73.12,82.6,88.48,75.26z"/>
	<path id="path5" class="primary" d="M99.71,75.26h10.55l7.34,56.51c0,0-11.12,4.13-35.08,0C82.52,131.77,83.09,108.05,99.71,75.26z"/>
	<path id="path6" class="primary" d="M114.04,75.26h7.79c0,0,13.64,18.57,21.09,39.43c0,0-11.57,12.25-18.57,13.76L114.04,75.26z"/>
	<path id="path7" class="primary" d="M126.31,75.26c0,0,16.62-0.11,28.66,6.53c0,0-1.26,16.97-6.08,24.19C148.89,105.98,135.36,81.57,126.31,75.26z"/>
</g>
</svg>
