<?xml version="1.0" encoding="utf-8"?>
<!-- Generator: Adobe Illustrator 26.0.0, SVG Export Plug-In . SVG Version: 6.00 Build 0)  -->
<svg version="1.1" id="Layer_1" xmlns="http://www.w3.org/2000/svg" xmlns:xlink="http://www.w3.org/1999/xlink" x="0px" y="0px"
	 viewBox="0 0 200 200" style="enable-background:new 0 0 200 200;" xml:space="preserve">
	 <style type="text/css">
	     .primary{fill:#000000;}
	     .pinFill{fill:#FFFFFF;}
	 </style>
	 <g>
	 	<path id="pin" class="primary" d="M169.2,79.8c0-38.2-31-69.2-69.2-69.2s-69.2,31-69.2,69.2c0,14.1,4.3,27.3,11.5,38.2h0l0.1,0.2
	 		c1.6,2.4,3.3,4.6,5.2,6.8l52.4,68.2l52.4-68.2c1.9-2.2,3.6-4.4,5.2-6.8l0.1-0.2h0C165,107.1,169.2,94,169.2,79.8L169.2,79.8z"/>
	 	<path id="pinFill" class="pinFill" d="M100,143.5c-34.6,0-62.7-28.1-62.7-62.7S65.4,18.1,100,18.1s62.7,28.1,62.7,62.7
	 		S134.6,143.5,100,143.5L100,143.5z"/>
	 </g>
<g>
	<path id="path2" class="primary" d="M103.9,71.2h27.5c2.3,0,4.1-1.8,4.1-4.1v-2.6c0-2.3-1.8-4.1-4.1-4.1h-27.5c-2.3,0-4.1,1.8-4.1,4.1v2.6
		C99.7,69.3,101.6,71.2,103.9,71.2z"/>
	<path id="path3" class="primary" d="M112.9,54.1v3.8h9.5v-3.8c1.9-0.3,3.5-1.1,4.8-2.4c3.4-3.5,3.3-9.3,3.3-9.6l0-1.3h-25.8l0,1.3c0,0.3-0.1,6.1,3.3,9.6
		C109.3,53,111,53.8,112.9,54.1z M127.7,43.5c-0.2,1.7-0.7,4.5-2.5,6.3c-1.1,1.1-2.5,1.7-4.3,1.7h-1.4v3.7h-4.1v-3.7h-1.4
		c-1.8,0-3.2-0.5-4.3-1.7c-1.7-1.8-2.3-4.6-2.5-6.3H127.7z"/>
	<path id="path4" class="primary" d="M127.7,73.7h-20.2c-4.8,0-8,3.9-8,8.7v39.5c0,1.7,0.1,3.2,1,4.5c-1.1,0-2.2-0.1-3-0.5c-0.9-0.4-1.6-1-1.9-2l-2-5.7l0.1-0.1
		c0.9-0.4,1.3-1.5,0.9-2.4L82.8,89.6c-0.3-0.6-0.9-1-1.6-1l0.2-0.1L65,51.6c-0.3-0.8-1-1.4-1.8-1.7L52,46.1l-1.6,6.3l10,2.4
		c0.8,0.2,1.6,0.7,1.9,1.5l15.1,33.9c-0.5,0.5-0.6,1.3-0.3,2l11.8,26.1c0.4,0.8,1.3,1.2,2.1,1l1.9,5.5c0.6,1.7,1.7,2.9,3.3,3.6
		c1.2,0.5,2.5,0.7,4,0.7c0.8,0,1.6-0.3,2.3-0.4c1.4,1,3.1,1.4,5,1.4h20.2c4.8,0,9.3-3.4,9.3-8.2V82.4
		C137.1,77.6,132.5,73.7,127.7,73.7z"/>
</g>
</svg>
