<?xml version="1.0" encoding="utf-8"?>
<!-- Generator: Adobe Illustrator 26.0.0, SVG Export Plug-In . SVG Version: 6.00 Build 0)  -->
<svg version="1.1" id="Layer_1" xmlns="http://www.w3.org/2000/svg" xmlns:xlink="http://www.w3.org/1999/xlink" x="0px" y="0px"
	 viewBox="0 0 200 200" style="enable-background:new 0 0 200 200;" xml:space="preserve">
<style type="text/css">
    .primary{fill:#000000;}
    .pinFill{fill:#FFFFFF;}
</style>
<g>
	<path id="pin" class="primary" d="M169.2,79.8c0-38.2-31-69.2-69.2-69.2s-69.2,31-69.2,69.2c0,14.1,4.3,27.3,11.5,38.2h0l0.1,0.2
		c1.6,2.4,3.3,4.6,5.2,6.8l52.4,68.2l52.4-68.2c1.9-2.2,3.6-4.4,5.2-6.8l0.1-0.2h0C165,107.1,169.2,94,169.2,79.8L169.2,79.8z"/>
	<path id="pinFill" class="pinFill" d="M100,143.5c-34.6,0-62.7-28.1-62.7-62.7S65.4,18.1,100,18.1s62.7,28.1,62.7,62.7
		S134.6,143.5,100,143.5L100,143.5z"/>
</g>
<g>
	<circle id="circle1" class="primary" cx="127.74" cy="109.4" r="5.59"/>
	<circle id="circle2" class="primary" cx="78.27" cy="109.4" r="5.59"/>
	<path id="path1" class="primary" d="M140.2,95.59c-0.08-0.9-0.73-1.65-1.61-1.86l-10.05-2.37c-0.7-0.16-1.26-0.67-1.5-1.35l-3.4-9.64
		c-0.3-0.84-1.09-1.4-1.98-1.4h-14.75c-1.12,0-2.02,0.88-2.09,1.98v28.45h1.79v-0.02c0.1,0.01,0.2,0.02,0.3,0.02l13.57,0.01v-0.01
		c0-4.01,3.26-7.27,7.27-7.27c3.98,0,7.23,3.22,7.27,7.2l4.12-0.02c1.23-0.01,2.19-1.06,2.08-2.29L140.2,95.59z M122.43,91.68
		l-11.9,0.01c-0.72-0.1-1.26-0.72-1.26-1.45v-6.38c0-0.81,0.65-1.46,1.46-1.46h9.49c0.66,0,1.24,0.44,1.41,1.08l1.88,6.96
		C123.7,91.13,123.13,91.78,122.43,91.68z"/>
	<path id="path2" class="primary" d="M124.22,54.85L82.31,76.67l-8.46,3.86v1.66h28.96v27.2H85.34c0-4-3.11-7.26-6.93-7.27h-0.03
		c-3.83,0.01-6.94,3.27-6.94,7.27H60.83c-1.11,0-2.01-0.94-2.01-2.1c0,0-0.05-6.11-0.05-7.27V84.29c0-1.16,0.9-2.1,2.01-2.1h4.54
		c0.16-1,0.55-1.92,1.11-2.71v-0.01h0.01c0.21-0.31,0.45-0.6,0.72-0.87c0.3-0.3,0.63-0.57,0.98-0.8c0.11-0.08,0.23-0.15,0.36-0.22
		l0.74-0.38l0.01-0.01l42.3-22.02H77.03l-0.25,2.04c-0.27,2.3-2.22,4.03-4.54,4.03h-6.68c-2.31,0-4.27-1.73-4.54-4.03l-1.25-10.33
		c-0.32-2.73,1.8-5.13,4.55-5.13h9.16c2.75,0,4.88,2.4,4.55,5.13l-0.33,2.71h45.23c1.29,0,2.4,0.88,2.71,2.13
		C125.94,52.96,125.36,54.26,124.22,54.85z"/>
</g>
</svg>
