<?xml version="1.0" encoding="utf-8"?>
<!-- Generator: Adobe Illustrator 26.0.0, SVG Export Plug-In . SVG Version: 6.00 Build 0)  -->
<svg version="1.1" id="Layer_1" xmlns="http://www.w3.org/2000/svg" xmlns:xlink="http://www.w3.org/1999/xlink" x="0px" y="0px"
	 viewBox="0 0 200 200" style="enable-background:new 0 0 200 200;" xml:space="preserve">
	 <style type="text/css">
	     .primary{fill:#000000;}
	     .pinFill{fill:#FFFFFF;}
	 </style>
	 <g>
	 	<path id="pin" class="primary" d="M169.2,79.8c0-38.2-31-69.2-69.2-69.2s-69.2,31-69.2,69.2c0,14.1,4.3,27.3,11.5,38.2h0l0.1,0.2
	 		c1.6,2.4,3.3,4.6,5.2,6.8l52.4,68.2l52.4-68.2c1.9-2.2,3.6-4.4,5.2-6.8l0.1-0.2h0C165,107.1,169.2,94,169.2,79.8L169.2,79.8z"/>
	 	<path id="pinFill" class="pinFill" d="M100,143.5c-34.6,0-62.7-28.1-62.7-62.7S65.4,18.1,100,18.1s62.7,28.1,62.7,62.7
	 		S134.6,143.5,100,143.5L100,143.5z"/>
	 </g>
<g>
	<path id="path2" class="primary" d="M124.4,70.7c6.3-1.2,4.8-9.7,3.1-14c-2.8-7.2-7.7-13.8-14.7-17.4c-6.2-3.1-18.7-4.5-25.8-0.2c-1.3,0.8-2.5,1.8-3.4,3.1
		c-3.5,4.9-1.6,9.5,3.3,12.2c3.7,2,7.5,3.9,11.2,5.7c-8.9,26.2-2.4,62-2.1,63.7c0.4,2.2,2.4,3.8,4.6,3.8c0.3,0,0.6,0,0.9-0.1
		c2.5-0.5,4.2-2.9,3.7-5.5c-0.1-0.4-6.2-34.2,1.4-58c1.6,0.7,3.2,1.5,4.9,2.2C115.1,67.8,120.3,71.5,124.4,70.7z"/>
	<path id="path3" class="primary" d="M134.2,96.3c-0.8-3.3-2.7-6.6-5.6-8.5c-2.6-1.7-8-3-11.4-1.5c-0.6,0.3-1.2,0.7-1.7,1.2c-1.8,2-1.2,4.1,0.8,5.6
		c1.1,0.8,2.2,1.5,3.3,2.2c-0.1,0.1-0.1,0.2-0.2,0.3c-3.2,4.5-3.3,20.6-3.2,27.3c0,1.9,1.6,3.5,3.5,3.5h0c1.9,0,3.5-1.6,3.5-3.6
		c-0.1-9.5,0.6-21.1,1.9-23.2c0.1-0.2,0.2-0.4,0.3-0.6c0.4,0.2,0.7,0.4,1.1,0.6c1.5,0.9,3.6,2.8,5.4,2.7
		C134.9,102.1,134.7,98.3,134.2,96.3z"/>
	<path id="path4" class="primary" d="M82.1,86.3c-3.4-1.5-8.9-0.2-11.4,1.5c-2.9,1.9-4.7,5.2-5.6,8.5c-0.5,2-0.7,5.8,2.1,6c1.9,0.1,3.9-1.8,5.4-2.7
		c0.4-0.2,0.7-0.4,1.1-0.6c0.1,0.2,0.2,0.4,0.3,0.6c1.3,2.1,2.1,13.7,1.9,23.2c0,1.9,1.5,3.5,3.5,3.6h0.1c1.9,0,3.5-1.5,3.5-3.5
		c0.1-6.7,0-22.8-3.2-27.3c-0.1-0.1-0.1-0.2-0.2-0.3c1.1-0.7,2.2-1.5,3.3-2.2c2-1.4,2.6-3.6,0.8-5.6C83.3,87,82.7,86.6,82.1,86.3z"
		/>
</g>
</svg>
