<?xml version="1.0" encoding="utf-8"?>
<!-- Generator: Adobe Illustrator 26.0.0, SVG Export Plug-In . SVG Version: 6.00 Build 0)  -->
<svg version="1.1" id="Layer_1" xmlns="http://www.w3.org/2000/svg" xmlns:xlink="http://www.w3.org/1999/xlink" x="0px" y="0px"
	 viewBox="0 0 200 200" style="enable-background:new 0 0 200 200;" xml:space="preserve">
	 <style type="text/css">
	     .primary{fill:#000000;}
	     .pinFill{fill:#FFFFFF;}
	 </style>
	 <g>
	 	<path id="pin" class="primary" d="M169.2,79.8c0-38.2-31-69.2-69.2-69.2s-69.2,31-69.2,69.2c0,14.1,4.3,27.3,11.5,38.2h0l0.1,0.2
	 		c1.6,2.4,3.3,4.6,5.2,6.8l52.4,68.2l52.4-68.2c1.9-2.2,3.6-4.4,5.2-6.8l0.1-0.2h0C165,107.1,169.2,94,169.2,79.8L169.2,79.8z"/>
	 	<path id="pinFill" class="pinFill" d="M100,143.5c-34.6,0-62.7-28.1-62.7-62.7S65.4,18.1,100,18.1s62.7,28.1,62.7,62.7
	 		S134.6,143.5,100,143.5L100,143.5z"/>
	 </g>
<path id="path2" class="primary" d="M103.7,37.4c2.2,6.1,0.6,8.2-3.1,11.4c-0.3,1.3-1.1,2.5-2.1,3.6c-2.6,2.8-7.4,4.6-10.1,5.5
	c-1.7,0.5-2.4,0.6-3.1,1.3c0.1,0.5,0.3,0.6,1,0.6c2.1-1.9,3.6-1.9,5.4-2.8c0.7-0.4,1.3-0.2,1,0.8c-0.6,2.5-2.1,5.1-5.1,5.1
	c-0.6,0.1-0.5,1.1-1.8,2c0.3,0.8,1.3,2.9,2,4.6c0.7,1.8,1.6,3,3.6,3.5c3.6,0.3,6.6,0.8,10.7,0.9c2.7,0.1,5.8,1.6,7.6,1.1
	c3.5-0.9,7.9-1.7,11.3-1.7c3.2-0.1,3.8-0.3,5.9,2c2,2.2,4.2,3.4,5.9,4.6c1.8,1.3,1.9,3.2,1.7,7.3c-0.6,6.3-2,9.3,2,16.1
	c2.2,1.8,2.2,2.1,2.2,4.4c0.2,1.6,0.1,4.2,0.8,4.2c0.7,0.3-0.1,2.8,0.3,4.7c0.2,1.7,0.9,4.9,1.2,6.4c0.2,1-0.6,0.4-0.5,1
	c-0.1,0.9-0.1,1.7-2.1,1.7c-1.1-0.1-1.5-0.3-1.7-1.1c0.3-0.4,0.6-1,1.2-1.2c0.5-0.4,0.1-2.5-0.2-3.8c-0.9-6.1-1.1-7.3-3.5-10.8
	c-1.1-1.8-5.9-5.8-10.2-11.3c-0.3,2.5,2.8,4.7,3.9,6c1.2,1.4,2.4,1,1.6,3.8c-0.7,2.6-1.3,6.5-2.8,10.9c-0.5,2.2-0.7,4-0.7,5.8
	l-0.6,0.1c-0.1,1.2-0.3,1.4-1.8,1.8c-1.6-0.1-2.2-0.1-2.6-0.7c0.6-0.8,0.9-1.5,1.7-1.7c1.4-3.5,2-8.4,2.1-10.8
	c0.1-4-0.2-4.9-1.9-6.1c-2.7-1.7-4.9-3.2-6.6-5.9c-2.8,0.9-4.1,0.8-8,0.2c-1.6-0.4-3.9,0.1-6-0.2c-0.2,5.1-1.2,9.8-1.5,12.7
	c0.1,2.4-0.4,3.5,0.1,5.1c0.1,1.4,0.4,2.7,1,4l-0.5,0.1c0.2,1-0.2,1.3-1.1,1.6c-0.9,0.1-1.5-0.1-1.8-0.5l1-1.4c-0.1-2.6-1-5-1.3-6.3
	c-1.2-5.1-0.2-8.2-1.1-9.8c-0.7-1.3-0.5-4.6-1.2-5.4c-1.1,0.6-0.7,5.3-2,9.8l-1.6,7.5c-0.5,1.2-0.4,2.7-0.1,4.4l-0.6,0.2
	c0,0.6-0.2,1.2-1.2,1.5c-0.8,0.1-1.7,0-2-0.7c0.3-0.5,0.7-0.9,1.2-1c0.7-2.2,0.4-4.5,0.4-6.8c-0.5-1.6-0.4-4-0.1-6.5
	c0.3-2.6-0.3-7.9-1.2-10.7c-1.8-2.4-4.7-2.4-4.8-4.7c-4.1-2.5-6.6-4.5-8.5-8.4c-1.8-3.2-2.3-6.6-0.9-9.7c0.5-1.2,0.1-4.1,0.4-5.2
	c0.5-1.5,0.1-3.4,0.6-4.5l-0.2-1.7c-0.4-1.1-0.7-1.2-1.5-1.6c-3.2-0.2-4.6-2.3-5.2-4.7c-0.4-1.1,0.2-1.5,1.2-1
	c1.8,0.9,3.2,0.9,5.1,2.6c0.7,0.2,0.9-0.2,0.9-0.7c0.1-0.8-4.6-1.6-9.5-4.2c-3.6-1.8-6.3-4.2-5-8.4c-0.4-0.6-0.8-1.6-0.6-2
	c0.2,0.1,0.4,1.2,0.8,0.9c-0.5-1.6-1.4-3.1-2.8-3.9c0,0,0.5,0,0.8,0c-0.5-2.5,0.1-5,1.1-5.9c-0.1,1.5-1.5,4.3,0.7,5.6
	c1.2-0.9,1.2-2.9,2.1-3.3c-0.3,2.4-0.5,4.3,0.1,6l0.9-1.5c0.6-0.7,1.4-2.7,1.7-2.8c0.2,0.7-0.7,3.1-2,5.5c-0.4,0.9,1.5,5.1,3.7,7
	c-0.3-0.6-0.2-1.8,0.2-1.8c0.3,2.4,1.5,3.5,3.8,4.7c1.4,0.7,2.7,1.3,2.9-0.3c-0.3-2.1-0.3-6,0.2-6.1c0.3,0.3,0.1,2.5,0.3,4.5
	c0.3,2.4,1.1,3.3,2.5,4.7c0.5,0.4,0.6-0.2,1.6,0.6c0.3,0.3,1.5,0.4,1.8,0.1c0.7-0.4,1.4-0.3,2.1-0.5c4.6-4.8,2.6-6.8,4-8.4
	c-0.1,2.2,0.5,4.3-1.2,6.8c0.8-0.5,1.4-0.2,2.1-0.4c3.5-1.1,4.3-1.7,4.7-4.6c0.3,0.1,0.4,1.3,0.2,2.2c1.3-0.9,2.2-2.1,2.8-3.1
	c1.4-2.5,1.8-3.9,1.8-6.8c0.2-5.9-2.4-7-2-7c0.4-0.1,1.1,0.6,1.4,0.7c0-0.4-0.2-0.8-0.3-1.2c0.4-0.2,1.2,1.1,1.5,2.4
	c1.1,1.8,1.3,3.3,1.2,6.3l0.6,1.6l0.7-2.3l0.2,2.5l1.9-2.1C104.9,41.3,103,37.7,103.7,37.4L103.7,37.4z M65.1,52.4
	c-1.3-1.2-2.4-2.9-2.9-5.2C61.8,49.4,62.7,51.2,65.1,52.4z"/>
</svg>
