<?xml version="1.0" encoding="utf-8"?>
<!-- Generator: Adobe Illustrator 26.0.0, SVG Export Plug-In . SVG Version: 6.00 Build 0)  -->
<svg version="1.1" id="Layer_1" xmlns="http://www.w3.org/2000/svg" xmlns:xlink="http://www.w3.org/1999/xlink" x="0px" y="0px"
	 viewBox="0 0 200 200" style="enable-background:new 0 0 200 200;" xml:space="preserve">
	 <style type="text/css">
	     .primary{fill:#000000;}
	     .pinFill{fill:#FFFFFF;}
	 </style>
	 <g>
	 	<path id="pin" class="primary" d="M169.2,79.8c0-38.2-31-69.2-69.2-69.2s-69.2,31-69.2,69.2c0,14.1,4.3,27.3,11.5,38.2h0l0.1,0.2
	 		c1.6,2.4,3.3,4.6,5.2,6.8l52.4,68.2l52.4-68.2c1.9-2.2,3.6-4.4,5.2-6.8l0.1-0.2h0C165,107.1,169.2,94,169.2,79.8L169.2,79.8z"/>
	 	<path id="pinFill" class="pinFill" d="M100,143.5c-34.6,0-62.7-28.1-62.7-62.7S65.4,18.1,100,18.1s62.7,28.1,62.7,62.7
	 		S134.6,143.5,100,143.5L100,143.5z"/>
	 </g>
<g>
	<path id="path2" class="primary" d="M68.4,93c-0.4,0.1-0.7,0.2-1.1,0.3c-0.2,0.1-0.5,0.2-0.7-0.1c-0.2-0.3,0.2-0.4,0.3-0.5c0.8-0.5,1.5-1,2.3-1.5
		c1.5-0.9,2.6-2.2,3.7-3.5c0.5-0.6,1.1-1.3,1.6-1.9c0.3-0.3,0.5-0.6,0.2-1.1c-0.2-0.4,0-0.8,0.3-1.2c0.9-1,1.7-2.1,2.8-2.9
		c0.3-0.2,0.3-0.4,0-0.6c-0.3-0.3-0.3-0.7,0-1.1c0.4-0.6,1.1-0.9,1.6-1.3c0.2-0.1,0.4-0.3,0.5-0.5c0.4-1.3,1.5-1.9,2.4-2.6
		c0.4-0.3,0.7-0.5,0.8-1c0.1-0.2,0.2-0.6,0.4-0.7c1.1-0.7,1.7-1.9,2.7-2.6c0.9-0.6,1.7-1.4,2.6-2c1.3-0.9,2.3-2.3,3.7-3.1
		c0.9-0.5,1.8-0.7,2.7-0.7c1.6,0,3.3,0,4.9,0.1c0.5,0,0.6-0.2,0.5-0.7c-0.3-1.1-0.6-2.2-0.7-3.3c-0.1-1-0.5-1.9-0.6-2.8
		c-0.1-0.9-0.6-1.8-0.4-2.7c0.1-0.2-0.1-0.4-0.2-0.5c-0.4-0.5-0.7-1.1-0.6-1.9c0.1-0.3-0.1-0.5-0.2-0.7c-0.3-0.6-0.4-1.1-0.1-1.8
		c0.1-0.3,0-0.4-0.1-0.6c-0.7-1-0.7-1.2,0.1-2.1c0.1-0.2,0.1-0.3,0.1-0.5c-0.1-0.3-0.2-0.6-0.1-0.8c0-0.7-0.3-0.9-0.9-1.1
		c-0.4-0.1-0.8-0.2-1.1-0.5c-0.3-0.3-0.4-0.6,0-0.8c0.4-0.2,0.3-0.3,0-0.5c-0.4-0.3-0.8-0.6-1.1-1.1c-0.2-0.3-0.4-0.7-0.1-1.1
		c0.1-0.2,0.1-0.3-0.1-0.4c-0.2-0.2-0.4-0.4-0.6-0.6c-0.7-0.8-0.6-1.3,0.5-1.7c-0.3-0.2-0.6-0.4-0.8-0.6c-0.2-0.2-0.4-0.3-0.6-0.5
		c-0.2-0.2-0.4-0.5-0.3-0.9c0.1-0.4,0.5-0.4,0.8-0.4c0.1,0,0.2,0,0.4,0c-0.5-0.5-1.1-0.8-1.4-1.4c-0.4-0.8-0.2-1.1,0.6-1.1
		c0.9,0,1.7,0,2.7,0c-0.4-0.5-0.9-0.8-1.2-1.2c-0.2-0.2-0.5-0.4-0.7-0.7c-0.4-0.6-0.2-1.1,0.6-1.2c0.5,0,1,0,1.5,0
		c0.2,0,0.4,0.1,0.5,0c0.1-0.2-0.1-0.3-0.2-0.5c-0.2-0.3-0.5-0.7-0.6-1c-0.4-0.9-0.1-1.4,0.9-1.4c0.5,0,0.9,0.2,1.5,0.3
		c-0.3-0.4-0.5-0.7-0.7-1c-0.2-0.6,0-0.9,0.6-1.1c0.2,0,0.4-0.1,0.6-0.1c0.5,0,0.8,0,0.8-0.7c0-0.3,0.2-0.5,0.6-0.5
		c0.2,0,0.4,0,0.6,0.1c1.3,0.6,2.7,0.5,4.1,0.7c1.3,0.2,2.3,0.9,3.2,1.7c2.2,2,3.8,4.3,5.1,6.9c0.8,1.5,1.6,3.1,2.2,4.7
		c0.1,0.3,0.2,0.5,0.2,0.8c0.1,0.5,0.3,0.9,0.6,1.3c0.5,0.5,0.8,1.2,1,1.8c0.7,2.3,1.5,4.6,2.7,6.7c0.6,1.1,1.3,1.6,2.6,1.5
		c2.6-0.1,4.9-1,7-2.4c0.6-0.4,1.2-0.7,1.8-1.1c0.7-0.4,1.3-0.9,1.8-1.7c-0.5-0.2-0.9-0.4-1.1-0.9c-0.2-0.5-0.1-0.7,0.4-0.6
		c1.1,0.2,1.9-0.3,2.7-1c0.9-0.8,1.8-1.4,3.1-1.3c1.5,0.1,2.9,0.5,4.1,1.4c0.3,0.2,0.6,0.4,1,0.5c0.7,0.2,1.3,0.6,1.8,1.2
		c0.1,0.1,0.3,0.3,0.3,0.5c0.1,0.2,0.2,0.4,0,0.6c-0.2,0.2-0.4,0-0.5-0.1c-0.6-0.3-1.4-0.3-2.1-0.4c0.6,0.3,1.2,0.5,1.8,0.8
		c0.2,0.1,0.4,0.2,0.4,0.4c0,0.3-0.3,0.3-0.5,0.3c-1.6-0.2-3,0.3-4.2,1.3c-0.4,0.3-0.9,0.4-1.4,0.5c-3.1,0.8-5,2.8-6.2,5.7
		c-1.2,2.9-1.7,5.9-1.9,9c0,0.3,0.1,0.5,0.3,0.7c1.3,1.4,2.6,2.9,4.1,4.2c0.8,0.7,1.8,1.2,2.7,1.8c1,0.7,1.9,1.5,2.1,2.8
		c0.1,0.4,0.3,0.7,0.6,0.9c1.5,1.2,2.9,2.5,4.4,3.7c0.8,0.7,1.4,1.5,1.8,2.5c0.8,1.9,1.6,3.9,2.2,5.9c0.2,0.7,0.2,1.4-0.3,2.1
		c-0.3,0.3-0.3,0.8-0.3,1.2c-0.1,1.1-0.1,2.1-0.1,3.2c0,0.1,0,0.3,0,0.4c-0.1,0.3-0.2,0.5-0.5,0.5c-0.3,0-0.5-0.2-0.5-0.5
		c0-0.6-0.2-1.2-0.6-1.9c-0.1,0.9-0.2,1.6-0.3,2.4c-0.1,0.4-0.2,0.8-0.3,1.1c-0.1,0.3-0.1,0.7-0.5,0.7c-0.4,0-0.5-0.3-0.6-0.6
		c-0.4-0.9-0.8-1.8-1.2-2.7c-0.1-0.2-0.1-0.4-0.4-0.5c-0.1,0.3,0,0.5,0,0.8c0,1.3,0.1,2.6,0.1,3.8c0,0.7-0.4,0.9-1,0.5
		c-0.5-0.3-0.9-0.7-1.1-1.3c-0.3-1-0.7-2-0.9-3c-0.1,0-0.1,0-0.2,0c0,1,0,2,0,3c0,0.4,0,0.8-0.1,1.1c-0.2,0.5-0.4,0.9-0.9,1
		c-0.6,0.1-0.8-0.4-1-0.8c-0.3-0.7-0.6-1.5-0.7-2.3c0-0.2,0-0.5-0.3-0.8c-0.1,0.8-0.1,1.6-0.2,2.3c0,0.3,0,0.6-0.2,0.8
		c-0.2,0.4-0.4,0.6-0.9,0.6c-0.5,0-0.7-0.3-0.8-0.7c-0.3-0.9-0.7-1.8-1.1-2.8c-0.3,0.7-0.5,1.2-0.7,1.8c-0.1,0.3-0.2,0.8-0.7,0.7
		c-0.5,0-0.7-0.4-0.8-0.8c-0.2-0.6-0.3-1.2-0.4-1.8c0-0.2-0.1-0.4-0.3-0.4c-0.2,0-0.3,0.2-0.3,0.4c-0.2,0.3-0.3,0.8-0.8,0.7
		c-0.5-0.1-0.7-0.5-0.7-0.9c-0.2-0.8-0.3-1.6-0.4-2.3c0-0.1,0-0.3-0.2-0.3c-0.2,0-0.2,0.1-0.3,0.2c-0.2,0.3-0.4,0.5-0.8,0.5
		c-0.4-0.1-0.5-0.4-0.6-0.8c-0.3-0.9-0.6-1.8-0.7-2.7c-0.1-0.3-0.2-0.5-0.6-0.6c-0.3,0-0.7-0.1-0.9-0.4c-0.1-0.1-0.3-0.2-0.5-0.2
		c-0.6,0-1.2-0.1-1.8-0.5c-0.5-0.3-1.1-0.4-1.7-0.5c-1-0.2-1.8-0.8-2.7-1c-0.1,0-0.3-0.1-0.4-0.2c-0.8-1-2.2-0.9-3.2-1.6
		c-0.8-0.6-1.9-0.7-2.6-1.5c-0.3-0.3-0.7-0.3-1-0.3c-0.4,0.1-0.3,0.5-0.3,0.7c-0.2,1-0.6,1.7-1.6,1.9c-0.8,0.2-1.2,1.1-1.8,1.6
		c-0.1,0.1-0.2,0.3-0.4,0.4c-0.4,0.3-0.8,0.5-1.2,0c-0.3-0.3-0.4-0.1-0.6,0.1c-0.7,0.7-1.5,1.4-2.2,2.1c-0.3,0.3-0.6,0.5-1,0.1
		c-0.2-0.2-0.4-0.1-0.5,0c-0.6,0.4-1.2,0.8-1.9,1.2c-0.5,0.3-1,0.6-1.5,0c-0.2-0.3-0.4,0-0.6,0.1c-1.1,0.7-2.2,1.5-3.3,2.1
		c-0.8,0.4-1.1,0.4-1.5-0.5c-0.2-0.4-0.3-0.4-0.6-0.1c-0.8,0.7-1.6,1.4-2.5,2c-0.4,0.3-0.9,0.4-1.4,0.5c-0.3,0-0.5,0-0.6-0.3
		c-0.2-0.5-0.4-0.3-0.6-0.1c-0.7,0.5-1.4,1-2.1,1.6c-0.4,0.3-0.8,0.6-1.3,0.8c-0.6,0.2-1.1,0-1.2-0.7c-0.1-0.6-0.3-0.5-0.6-0.3
		c-1.4,0.9-2.8,1.7-4.1,2.6c-0.2,0.1-0.4,0.3-0.7,0.4c-0.8,0.4-0.8,0.4-1.3-0.4c-0.1-0.2-0.3-0.2-0.5-0.1c-1,0.5-1.9,1-2.5,2
		c-1,1.6-2.3,2.9-3.7,4.1c-1.1,0.9-1.8,2.1-2.4,3.3c-0.8,1.6-1.7,3.3-2.5,5c-0.6,1.3-1.5,2.3-2.4,3.3c-0.8,0.9-1.7,1.8-2.5,2.7
		c-0.1,0.1-0.2,0.2-0.4,0.3c-0.1,0.1-0.3,0.2-0.5,0.1c-0.2-0.1-0.1-0.3-0.1-0.5c0.3-0.7,0.8-1.3,1.2-1.9c1.8-2.5,3.2-5.3,4.5-8.1
		c0,0,0-0.1,0-0.2c-0.8,0.6-1.7,1-2.5,1.4c-0.8,0.3-1.1,1.1-1.5,1.8c-0.5,1-1,2-1.6,2.9c-1,1.7-2.5,3-4,4.2c0,0-0.1,0.1-0.2,0.1
		c-0.3,0.1-0.6,0.4-0.8,0.1c-0.2-0.3-0.1-0.6,0.1-0.8c1-1.1,1.8-2.3,2.6-3.6c0.4-0.7,0.9-1.3,1.3-2c0.1-0.2,0.3-0.5,0.3-0.8
		c-0.9,0.3-1.7,0.5-2.7,0.6c-0.8,0.1-1.6,0.1-2.4-0.4c-0.2-0.1-0.4-0.3-0.4-0.6c0.1-0.3,0.3-0.2,0.5-0.3c1.2-0.2,2.4-0.5,3.5-0.9
		c1.2-0.5,2.1-1.4,3-2.2c2.2-2,4.3-4.2,6.3-6.3c1.6-1.7,3.3-3.2,4.9-4.8c1.5-1.4,2.9-2.8,4.5-4c0.2-0.1,0.4-0.2,0.4-0.5
		c-0.5,0.1-0.9,0.3-1.3,0.6c-2.1,1.8-4.1,3.7-6.2,5.6c-1.1,1-2.1,2-3.2,2.9c-1.2,1-2.7,1.3-4.2,1.5c-0.3,0-0.7-0.1-1-0.2
		c-0.1,0-0.3-0.1-0.3-0.3c0-0.2,0.2-0.2,0.3-0.3c0,0,0,0,0.1,0c2,0,3.2-1.3,4.4-2.6c1.6-1.6,3.2-3.2,4.8-4.8
		c0.2-0.2,0.3-0.3,0.4-0.5C68.4,93.1,68.4,93.1,68.4,93z"/>
</g>
</svg>
