<?xml version="1.0" encoding="utf-8"?>
<!-- Generator: Adobe Illustrator 26.0.0, SVG Export Plug-In . SVG Version: 6.00 Build 0)  -->
<svg version="1.1" id="Layer_1" xmlns="http://www.w3.org/2000/svg" xmlns:xlink="http://www.w3.org/1999/xlink" x="0px" y="0px"
	 viewBox="0 0 200 200" style="enable-background:new 0 0 200 200;" xml:space="preserve">
	 <style type="text/css">
	     .primary{fill:#000000;}
	     .pinFill{fill:#FFFFFF;}
	 </style>
	 <g>
	 	<path id="pin" class="primary" d="M169.2,79.8c0-38.2-31-69.2-69.2-69.2s-69.2,31-69.2,69.2c0,14.1,4.3,27.3,11.5,38.2h0l0.1,0.2
	 		c1.6,2.4,3.3,4.6,5.2,6.8l52.4,68.2l52.4-68.2c1.9-2.2,3.6-4.4,5.2-6.8l0.1-0.2h0C165,107.1,169.2,94,169.2,79.8L169.2,79.8z"/>
	 	<path id="pinFill" class="pinFill" d="M100,143.5c-34.6,0-62.7-28.1-62.7-62.7S65.4,18.1,100,18.1s62.7,28.1,62.7,62.7
	 		S134.6,143.5,100,143.5L100,143.5z"/>
	 </g>
<path id="path2" class="primary" d="M97.8,80.3c-3,0.3-6.3,0.5-9.9,0.5c-12.2,0-22.1-2-22.1-4.4c0-2.4,9.9-4.4,22.1-4.4c2.1,0,4.2,0.1,6.1,0.2l-1.6-3.4
	c-1.5-0.1-3-0.1-4.6-0.1c-16,0-29,3-29,6.8v17.6c0,4.2,0.4,8.8-1.7,12.6c-1.6,2.8-4.5,5-6.5,7.7l13.9-2.6v4.1l8.8-6.2l6,12.5
	l12.8-12.5l6.5,6.3l6.8-8c0,0,2.3,1.2,5.5,2.7L97.8,80.3z"/>
<path id="path3" class="primary" d="M140.5,78.1c-0.4-0.9-1.4-1.2-2.2-0.8l-11.4,5.2c-1.1-0.6-2.5-0.6-3.7,0l-0.2,0.1l-0.5-1.1l3.3-1.6l-1.4-2.9l-3.4,1.7
	l-3-6.1l3.3-1.6l-1.4-2.9l-3.3,1.6l-3-6.1L117,62l-1.4-2.9l-3.3,1.6l-3-6.3l3.3-1.6l-1.4-2.9l-3.3,1.6l-3.1-6.4l3.3-1.6l-1.4-2.9
	l-3.3,1.6l-3.2-6.5l3.3-1.6l-1.4-2.9l-3.3,1.6c-0.9-1.3-2-2.3-3.4-2.8l0.3-3.6l-3.2-0.3l-0.2,3.4c-0.9,0.1-1.7,0.3-2.4,0.6
	C89,30.6,88.5,31,88,31.4l-3.2-1.3l-1.3,2.9l2.6,1.2c-0.5,1.5-0.5,3.2,0,4.6l-3.3,1.6l1.4,2.9l3.3-1.6l3.2,6.5l-3.3,1.6l1.4,2.9
	l3.3-1.6l3.1,6.4L92,59.2l1.4,2.9l3.3-1.6l3,6.3l-3.3,1.6l1.4,2.9l3.3-1.6l3,6.1l-3.3,1.6l1.4,2.9l3.3-1.6l3,6.1l-3.3,1.6l1.4,2.9
	l3.3-1.6l0.6,1.2c-2,1.1-2.8,3.5-1.8,5.6l7.2,14.6c0.8,1.6,2.5,2.5,4.2,2.3c0,0.1,0,0.1,0.1,0.2l8.3,19.2c0.2,0.6,0.8,0.9,1.4,0.9
	c0.1,0,0.1,0,0.2,0c0.7-0.1,1.2-0.6,1.3-1.2l4.3-26.9c0.9-1.2,1.1-2.9,0.4-4.4l-1.1-2.2c0.5-0.1,1.1-0.4,1.6-0.7
	c2.6-1.5,3.7-4.6,2.5-6.8c-1.3-2.2-4.5-2.8-7.1-1.2c-0.3,0.2-0.6,0.4-0.9,0.7l-1.8-3.6l10.5-4.8C140.5,80,140.9,79,140.5,78.1z
	 M114.2,86.9L90.4,37.8c-0.6-1.3,0-3,1.3-3.7c1.3-0.6,3,0,3.7,1.3l23.8,49.1L114.2,86.9z M129.2,124.7l-6.2-14.5c0,0,0,0,0-0.1
	l9.3-4.6L129.2,124.7z M133.4,90.7c0.6-0.3,1.1-0.5,1.6-0.5c0.6,0,1.2,0.2,1.4,0.6c0.4,0.7-0.1,1.9-1.4,2.7c-0.5,0.3-1,0.4-1.5,0.5
	l-1.2-2.4C132.6,91.3,132.9,91,133.4,90.7z"/>
</svg>
