<?xml version="1.0" encoding="utf-8"?>
<!-- Generator: Adobe Illustrator 26.0.0, SVG Export Plug-In . SVG Version: 6.00 Build 0)  -->
<svg version="1.1" id="Layer_1" xmlns="http://www.w3.org/2000/svg" xmlns:xlink="http://www.w3.org/1999/xlink" x="0px" y="0px"
	 viewBox="0 0 200 200" style="enable-background:new 0 0 200 200;" xml:space="preserve">
	 <style type="text/css">
	     .primary{fill:#000000;}
	     .pinFill{fill:#FFFFFF;}
	 </style>
	 <g>
	 	<path id="pin" class="primary" d="M169.2,79.8c0-38.2-31-69.2-69.2-69.2s-69.2,31-69.2,69.2c0,14.1,4.3,27.3,11.5,38.2h0l0.1,0.2
	 		c1.6,2.4,3.3,4.6,5.2,6.8l52.4,68.2l52.4-68.2c1.9-2.2,3.6-4.4,5.2-6.8l0.1-0.2h0C165,107.1,169.2,94,169.2,79.8L169.2,79.8z"/>
	 	<path id="pinFill" class="pinFill" d="M100,143.5c-34.6,0-62.7-28.1-62.7-62.7S65.4,18.1,100,18.1s62.7,28.1,62.7,62.7
	 		S134.6,143.5,100,143.5L100,143.5z"/>
	 </g>
<g>
	<path id="path2" class="primary" d="M128.5,32.2H71c-2.1,0-3.7,1.7-3.7,3.7v89.7c0,2.1,1.7,3.7,3.7,3.7h57.4c2.1,0,3.7-1.7,3.7-3.7V36.1
		C132.2,34,130.5,32.2,128.5,32.2z M89.1,35.6h21.3c0.5,0,0.9,0.4,0.9,0.9s-0.4,0.9-0.9,0.9H89.1c-0.5,0-0.9-0.4-0.9-0.9
		S88.6,35.6,89.1,35.6z M99.8,126.3c-2.5,0-4.5-2-4.5-4.5s2-4.5,4.5-4.5s4.5,2,4.5,4.5C104.2,124.3,102.2,126.3,99.8,126.3z
		 M125.2,115H74.3V40.8h50.9V115z"/>
	<path id="path3" class="primary" d="M113.9,89.7h-10.6v2.1c0,1.9-0.2,3.7-0.7,5.5l-2.9,11.9l-2.8-11.7c-0.5-1.9-0.7-3.9-0.7-5.9v-1.9H85.5c0-2.8,1.1-5.4,3-7.2
		c0.7-0.7,1.6-1.3,2.5-1.8v-24c-3.3-1.7-5.5-5.1-5.5-9.1h28.3c0,2.8-1.1,5.4-3,7.2c-0.7,0.7-1.6,1.3-2.5,1.8v24
		C111.6,82.4,113.9,85.8,113.9,89.7z"/>
</g>
</svg>
