<?xml version="1.0" encoding="utf-8"?>
<!-- Generator: Adobe Illustrator 26.0.0, SVG Export Plug-In . SVG Version: 6.00 Build 0)  -->
<svg version="1.1" id="Layer_1" xmlns="http://www.w3.org/2000/svg" xmlns:xlink="http://www.w3.org/1999/xlink" x="0px" y="0px"
	 viewBox="0 0 200 200" style="enable-background:new 0 0 200 200;" xml:space="preserve">
	 <style type="text/css">
	     .primary{fill:#000000;}
	     .pinFill{fill:#FFFFFF;}
	 </style>
	 <g>
	 	<path id="pin" class="primary" d="M169.2,79.8c0-38.2-31-69.2-69.2-69.2s-69.2,31-69.2,69.2c0,14.1,4.3,27.3,11.5,38.2h0l0.1,0.2
	 		c1.6,2.4,3.3,4.6,5.2,6.8l52.4,68.2l52.4-68.2c1.9-2.2,3.6-4.4,5.2-6.8l0.1-0.2h0C165,107.1,169.2,94,169.2,79.8L169.2,79.8z"/>
	 	<path id="pinFill" class="pinFill" d="M100,143.5c-34.6,0-62.7-28.1-62.7-62.7S65.4,18.1,100,18.1s62.7,28.1,62.7,62.7
	 		S134.6,143.5,100,143.5L100,143.5z"/>
	 </g>
<g>
	<path id="path2" class="primary" d="M70.9,126.2h34.2V35.4H70.9V126.2z M88.2,121.1c-6.5,0-11.9-5.3-11.9-11.9s5.3-11.9,11.9-11.9c6.5,0,11.9,5.3,11.9,11.9
		S94.8,121.1,88.2,121.1 M88.2,92.2c-6.5,0-11.9-5.3-11.9-11.9c0-6.5,5.3-11.9,11.9-11.9c6.5,0,11.9,5.3,11.9,11.9
		C100.1,86.9,94.8,92.2,88.2,92.2 M88.2,63.2c-6.5,0-11.9-5.3-11.9-11.9c0-6.5,5.3-11.9,11.9-11.9c6.5,0,11.9,5.3,11.9,11.9
		C100.1,57.9,94.8,63.2,88.2,63.2"/>
	<path id="path3" class="primary" d="M123.3,120.5c-5.7,0-9.6-4.2-9.6-9.8c0-5.7,4-9.8,9.7-9.8c5.7,0,9.5,4.1,9.6,9.8c0,5.6-3.8,9.8-9.6,9.8H123.3z M117.3,95.4
		l-2.5-49H132l-2.4,49H117.3z"/>
</g>
</svg>
