<?xml version="1.0" encoding="utf-8"?>
<!-- Generator: Adobe Illustrator 26.0.0, SVG Export Plug-In . SVG Version: 6.00 Build 0)  -->
<svg version="1.1" id="Layer_1" xmlns="http://www.w3.org/2000/svg" xmlns:xlink="http://www.w3.org/1999/xlink" x="0px" y="0px"
	 viewBox="0 0 200 200" style="enable-background:new 0 0 200 200;" xml:space="preserve">
	 <style type="text/css">
	     .primary{fill:#000000;}
	     .pinFill{fill:#FFFFFF;}
	 </style>
	 <g>
	 	<path id="pin" class="primary" d="M169.2,79.8c0-38.2-31-69.2-69.2-69.2s-69.2,31-69.2,69.2c0,14.1,4.3,27.3,11.5,38.2h0l0.1,0.2
	 		c1.6,2.4,3.3,4.6,5.2,6.8l52.4,68.2l52.4-68.2c1.9-2.2,3.6-4.4,5.2-6.8l0.1-0.2h0C165,107.1,169.2,94,169.2,79.8L169.2,79.8z"/>
	 	<path id="pinFill" class="pinFill" d="M100,143.5c-34.6,0-62.7-28.1-62.7-62.7S65.4,18.1,100,18.1s62.7,28.1,62.7,62.7
	 		S134.6,143.5,100,143.5L100,143.5z"/>
	 </g>
<g>
	<g>
		<g>
			<path id="path2" class="primary" d="M145.7,112.4l-44.6-78.5c-0.3-0.6-0.9-0.9-1.6-0.9s-1.2,0.3-1.6,0.9l-44.6,78.5c-0.3,0.6-0.3,1.2,0,1.8
				c0.3,0.5,0.9,0.9,1.5,0.9h89.2c0.6,0,1.2-0.3,1.5-0.9C146.1,113.6,146.1,112.9,145.7,112.4z M58.1,111.5l41.5-73.1l41.5,73.1
				H58.1z"/>
		</g>
	</g>
	<g>
		<g>
			<path id="path3" class="primary" d="M99.6,61.5c-3,0-5.4,2.4-5.4,5.4V86c0,2.2,1.8,4,4,4h2.7c2.2,0,4-1.8,4-4V66.9C105,63.9,102.6,61.5,99.6,61.5z M101.4,86
				c0,0.2-0.2,0.4-0.4,0.4h-2.7c-0.2,0-0.4-0.2-0.4-0.4V66.9c0-1,0.8-1.8,1.8-1.8c1,0,1.8,0.8,1.8,1.8L101.4,86L101.4,86z"/>
		</g>
	</g>
	<g>
		<g>
			<path id="path4" class="primary" d="M99.6,93.6c-3,0-5.4,2.4-5.4,5.4c0,3,2.4,5.4,5.4,5.4c3,0,5.4-2.4,5.4-5.4C105,96,102.6,93.6,99.6,93.6z M99.6,100.8
				c-1,0-1.8-0.8-1.8-1.8c0-1,0.8-1.8,1.8-1.8s1.8,0.8,1.8,1.8C101.4,100,100.6,100.8,99.6,100.8z"/>
		</g>
	</g>
</g>
</svg>
