<?xml version="1.0" encoding="utf-8"?>
<!-- Generator: Adobe Illustrator 26.0.0, SVG Export Plug-In . SVG Version: 6.00 Build 0)  -->
<svg version="1.1" id="Layer_1" xmlns="http://www.w3.org/2000/svg" xmlns:xlink="http://www.w3.org/1999/xlink" x="0px" y="0px"
	 viewBox="0 0 200 200" style="enable-background:new 0 0 200 200;" xml:space="preserve">
	 <style type="text/css">
	     .primary{fill:#000000;}
	     .pinFill{fill:#FFFFFF;}
	 </style>
	 <g>
	 	<path id="pin" class="primary" d="M169.2,79.8c0-38.2-31-69.2-69.2-69.2s-69.2,31-69.2,69.2c0,14.1,4.3,27.3,11.5,38.2h0l0.1,0.2
	 		c1.6,2.4,3.3,4.6,5.2,6.8l52.4,68.2l52.4-68.2c1.9-2.2,3.6-4.4,5.2-6.8l0.1-0.2h0C165,107.1,169.2,94,169.2,79.8L169.2,79.8z"/>
	 	<path id="pinFill" class="pinFill" d="M100,143.5c-34.6,0-62.7-28.1-62.7-62.7S65.4,18.1,100,18.1s62.7,28.1,62.7,62.7
	 		S134.6,143.5,100,143.5L100,143.5z"/>
	 </g>
<g>
	<path id="path2" class="primary" d="M132.2,125.8h-64V35.4h64V125.8z M72.2,121.8h55.9V39.4H72.2V121.8z"/>
	<rect id="rect1" class="primary" x="69.6" y="74.6" transform="matrix(0.5235 -0.852 0.852 0.5235 -18.6072 124.0698)" width="64" height="8.2"/>
	<polygon id="polygon1" class="primary" points="78,117.7 84,113.1 83.6,111.1 82,112 82.4,109.9 80.5,111.7 79.9,108.9 	"/>
	<path id="path3" class="primary" d="M123.5,50.9l-7-4.3l1.5-2.4c0.5-0.9,1.9-0.9,3.2-0.2l2.6,1.6c1.2,0.8,1.8,2.1,1.3,2.9L123.5,50.9z"/>
</g>
</svg>
