<?xml version="1.0" encoding="utf-8"?>
<!-- Generator: Adobe Illustrator 26.0.0, SVG Export Plug-In . SVG Version: 6.00 Build 0)  -->
<svg version="1.1" id="Layer_1" xmlns="http://www.w3.org/2000/svg" xmlns:xlink="http://www.w3.org/1999/xlink" x="0px" y="0px"
	 viewBox="0 0 200 200" style="enable-background:new 0 0 200 200;" xml:space="preserve">
	 <style type="text/css">
	     .primary{fill:#000000;}
	     .pinFill{fill:#FFFFFF;}
	 </style>
	 <g>
	 	<path id="pin" class="primary" d="M169.2,79.8c0-38.2-31-69.2-69.2-69.2s-69.2,31-69.2,69.2c0,14.1,4.3,27.3,11.5,38.2h0l0.1,0.2
	 		c1.6,2.4,3.3,4.6,5.2,6.8l52.4,68.2l52.4-68.2c1.9-2.2,3.6-4.4,5.2-6.8l0.1-0.2h0C165,107.1,169.2,94,169.2,79.8L169.2,79.8z"/>
	 	<path id="pinFill" class="pinFill" d="M100,143.5c-34.6,0-62.7-28.1-62.7-62.7S65.4,18.1,100,18.1s62.7,28.1,62.7,62.7
	 		S134.6,143.5,100,143.5L100,143.5z"/>
	 </g>
<path id="path2" class="primary" d="M121.9,43c0-0.3-0.3-0.4-0.5-0.4c-0.3,0-0.6,0-0.9,0c-0.9,0-1.8-0.1-2.7,0.8c-0.7,0.7-1.4,1.4-2.1,2.1
	c-1.8,1.8-3.6,3.7-5.3,5.7c-0.5,0.6-1.2,1.4-0.7,2.3c0.4,0.8,0.1,1.3-0.5,2.1l-0.1,0.2c-0.8,1.1-1.5,2.2-2.2,3.4
	c-1.9,3.1-3.2,6.5-4.4,10c0-0.9,0.1-1.7,0.2-2.6c0-0.4,0.1-0.8,0.1-1.2c0.7-8.6,2.7-15.9,6-22.6c0.6-1.2,1-1.7,2.1-1.7
	c1,0,1.6-0.7,2-1.3l1.8-2.4c1.3-1.8,2.7-3.7,4.1-5.5c1.3-1.7,2.9-3.7,2.3-6.3c0-0.2-0.2-0.3-0.3-0.4c-3.3-1.1-4.7,1-6,2.9
	c-0.2,0.3-0.4,0.6-0.7,0.9c-1.6,2.2-3.2,4.3-4.6,6.4l-0.2,0.3c-0.9,1.2-1.8,2.5-1.1,4.4c0,0.2-0.3,0.7-0.4,0.9
	c-4.7,8-7.1,16.8-7.5,27c0,0.4,0,0.5-0.6,0.9c-0.7,0.4-1.6,0.7-2.5,0.9c-1.3,0.4-2.7,0.8-3.8,1.8c0.3-1.7,0.7-2,2.5-3.2
	c0.9-0.6,1.5-1.4,2.1-2.3c0.1-0.2,0.3-0.4,0.4-0.7c0.4-0.6,0.7-1.2,1.2-1.6c0,0,0.1-0.1,0.2-0.1c0.2-0.1,0.6-0.4,0.6-0.8
	c0-0.3-0.1-0.5-0.3-0.8c-0.2-0.3-0.5-0.4-0.8-0.4c-0.5,0-0.9,0.3-1.1,0.6c-0.8,0.8-1.7,1.4-2.8,1.9c1.3-3.3,2.9-6.2,4.4-9.1
	c0.6-1.2,1.3-2.4,1.9-3.5c0.1-0.2,0-0.5-0.2-0.7c-0.2-0.1-0.5-0.1-0.7,0.1C94.3,60.5,91,68.6,90.4,77c-1.4-3.8-1.6-7.9-1.8-11.5
	c-0.1-1.1,0.3-1.8,1.2-2.2c1.1-0.5,1.9-1.4,2.5-2.6l0.3-0.6c0.6-1.3,1.2-2.6,2-3.9c0.1-0.2,0.1-0.4,0-0.6s-0.4-0.2-0.6-0.1
	c-1.7,0.9-3.3,2.2-5.1,3.9c0.1-1.9,0.6-3.8,1.1-5.7c0.4-1.4,0.8-2.8,1-4.3c0-0.2-0.1-0.5-0.3-0.5c-0.2-0.1-0.5,0-0.6,0.2
	C89,50.4,88.5,52,88,53.7c-0.1,0.3-0.2,0.6-0.3,0.9c-0.3-0.7-0.7-1.4-1-2c-0.5-0.9-1.1-1.8-1.2-2.8c-0.1-0.4-0.3-0.6-0.4-0.8
	c-0.2-0.1-0.5-0.2-1-0.1c-0.4,0.1-0.6,0.3-0.7,0.6c-0.1,0.3-0.1,0.6,0.1,0.9c0.4,0.9,0.5,1.8,0.6,2.9l0,0.5c0.2,1.9,0.5,3.4,1.9,4.8
	c0.7,0.7,0.7,1.6,0.6,2.3c-0.2,1.2-0.2,2.4-0.2,3.5c0,1.4,0,2.8,0,4.3l0,0.7c-0.5-0.5-0.9-1.1-1.2-1.7l0-0.1
	c-0.1-0.2-0.2-0.6-0.6-0.7c-0.4-0.1-0.8,0.2-1,0.3c-0.3,0.2-0.7,0.5-0.7,0.9c0,0.4,0.2,0.7,0.4,0.9c0.6,0.7,0.9,1.6,1.1,2.5
	c0.1,0.3,0.2,0.6,0.2,0.8c0.1,0.3,0.1,0.5,0.2,0.8c0.2,0.9,0.5,2,1.3,2.6c1.3,1,1.7,2.3,2.1,3.8c0.1,0.3,0.2,0.7,0.3,1
	c0.5,1.8,1.1,3.6,1.6,5.3l-1-1.2c-0.9-1.1-2.1-2.1-3.5-2.9c-0.1,0-0.2-0.1-0.2-0.1c-0.5-0.3-1.2-0.7-1.9-0.3
	c-0.8,0.5-0.6,1.3-0.4,1.8c0,0.1,0.1,0.3,0.1,0.4c0,0.4,0.2,0.8,0.4,1.2c1.9,4.2,4.8,7.6,8.5,10.1L92,95c0.6,0.4,1.2,0.8,1.4,1.4
	c1,3,1.8,6.2,2.4,9.2c-3.8-4.6-8.2-8.5-13.2-11.6c-0.1-0.1-0.3-0.2-0.4-0.3c-0.9-0.6-2-1.3-3.3-0.7c-2.2,1-4,2.2-5.5,3.5l-0.1,0.1
	c-0.3,0.3-0.9,0.8-0.6,1.5c0.3,0.8,1,0.8,1.5,0.8c1.7,0.1,3.3-0.2,4.8-0.5c1.1-0.2,1.6,0,2.1,0.9c1.8,3.4,4,6.3,5.9,8.5
	c-0.3-0.2-0.6-0.3-1-0.2c-0.8,0.3-0.7,1.1-0.6,1.4c0,0.1,0,0.1,0,0.2c0,0.3,0.1,0.6,0.2,0.9c0,0.1,0.1,0.3,0.1,0.4l1.1,4.6
	c-0.5-1-1.1-2.1-1.8-3l-0.1-0.1c-0.2-0.3-0.7-1-1.5-0.7c-0.9,0.3-0.6,1.2-0.6,1.5l0,0.2c0.2,1.1,0.5,2.1,0.8,3.2
	c1.5,5.8,2.5,10.7,2.9,15.6c0-0.1-0.1-0.2-0.1-0.2c-2.2-4.4-4.6-7-8-8.4c-1.2-0.5-2.2-1.1-3.1-1.9c-2-1.8-4.1-2.7-6.4-2.8
	c-0.2,0-0.4,0.1-0.5,0.3s0,0.4,0.1,0.6c2.8,2.3,5.7,5.1,7.7,8.9c-3.9-4.9-6.7-6.8-9.4-6.3c-0.3,0-0.4,0.3-0.4,0.5
	c0.1,0.8,0.6,1.1,1,1.4l0.2,0.1c5.4,4,8.4,9.7,9.2,17.7c0,0.2,0.1,0.9-0.1,1c-0.1,0.1-0.3,0.1-0.7,0.1c-0.7-0.1-1.2,0.1-1.5,0.4
	c-0.5,0.5-0.6,1.2-0.6,1.7c0,1,0,1.8,0.5,2.2c0.5,0.5,1.3,0.5,2.5,0.5h38.1c0.3,0,0.5-0.2,0.5-0.5v-11.9c0,0,0,0,0,0
	c0-0.9-0.1-1.7-0.1-2.6c-0.2-4.8-0.4-9.7-2-14.4c-0.1-0.2-0.1-0.4-0.1-0.6c-0.1-0.6-0.2-1.7-1.3-1.7c-1.2,0-1.2,1.2-1.3,1.8
	c0,0.1,0,0.3,0,0.4c-0.2,1.3-0.3,2.6-0.4,3.9c0-0.2-0.1-0.4-0.1-0.6l0-0.2c-0.1-0.6-0.2-1.7-1.2-1.7c0,0,0,0,0,0
	c-1.2,0-1.3,1.2-1.3,1.7c0,0.1,0,0.2,0,0.3c-0.1,0.9-0.2,1.7-0.3,2.6c-0.1-0.2-0.3-0.5-0.5-0.7c-0.1-0.1-0.3-0.2-0.5-0.2
	c-0.2,0-0.3,0.2-0.4,0.4c0,0.1-0.1,0.3-0.1,0.4c-0.1-1.5-0.4-3.1-1.1-4.6c-0.1-0.2-0.2-0.3-0.4-0.3c-0.2,0-0.4,0.1-0.5,0.3
	c-0.5,0.8-0.6,1.8-0.7,2.7c-0.1,0.8-0.2,1.5-0.5,2.1c-0.1-0.3-0.2-0.6-0.4-0.8c-1.4-1.9-1.3-4-1.1-6.5c0.3-3.4,0.8-6.8,1.2-10.1
	l0.2-1.4c0.3-2.7,1.5-4.3,3.5-5.2c1.2-0.5,2.2-1.3,3-2.5c2.2-3.1,3.8-6.6,4.9-10.7l0-0.1c0.2-0.5,0.4-1.5-0.4-2
	c-0.9-0.6-1.7,0.2-2.1,0.6l-0.4,0.4c-3.3,3.3-6.8,6.7-8,11.7l0-2.1c0-3.5,0-7-0.3-10.6l-0.1-1c-0.2-2.3-0.4-4.6-0.2-6.9
	c0.4-4.1,1.7-8.4,3.6-12.6c0.2-0.5,0.5-1,0.7-1.5c1.6-3.5,3.1-6.9,6.7-9c1.6-1,2.8-2.4,4.1-3.9c0.6-0.7,1.3-1.5,1.9-2.2
	C121,46.9,122.2,45.3,121.9,43z M105.9,141.8c0.4-1.7,0.8-3.4,1.2-5.1c0,1.8,0,3.6-0.2,5.3l0,0.1c0,0.3-0.1,0.7-0.2,0.8
	c-0.1,0-0.2,0.1-0.4,0c-0.2,0-0.3-0.1-0.4-0.2C105.7,142.5,105.8,142.1,105.9,141.8z M81.5,129.7c1.6,2.2,2.7,5,3.3,8.3
	c0.2,1.2,0.3,2.4,0.4,3.6l0,0.5c0,0.2,0,0.6-0.1,0.8c-0.1,0.1-0.3,0.1-0.4,0.1c-0.4,0-0.5-0.1-0.6-0.9l-0.1-1
	c-0.3-3.5-0.7-7.2-2.1-10.6C81.7,130.3,81.6,130,81.5,129.7z M97.9,72.8c0.3-0.2,0.5-0.5,0.8-0.7c0.1-0.1,0.3-0.2,0.4-0.4
	c0.3-0.3,0.5-0.5,0.6-0.5c0,0,0.1,0,0.1,0c0.1,0,0.1,0.1,0.1,0.7c0,0.2,0,0.4,0,0.6c0.1,2.7,0.2,5.3,0.2,8l0,0.3
	c0,0.5,0,0.8-0.2,1.1c-2.9,3.4-3.3,7.6-3.8,11.7l-0.1,0.6c0,0.1,0,0.1,0,0.2c-0.2-0.5-0.4-1-0.6-1.5c-0.9-2.2-1.7-4.3-2.4-6.4
	c-0.8-2.4-0.7-4.9-0.5-7.5c0-1,0.1-1.9,0.1-2.9c0-0.5,0.4-1,0.8-1C95.5,75,96.7,73.9,97.9,72.8z M100.3,95.5
	c-0.2,3.6-0.3,7.3-0.8,11c-0.4-1.8-0.9-3.6-1.3-5.3c-0.2-0.7-0.1-1.2,0.2-1.5C99.2,98.4,99.8,97,100.3,95.5z M95.2,113.6
	c1.7,0.3,2.3,1.9,2.3,3.2c0,2-0.5,4-1.2,6.2c-1-2.7-1.8-5.1-3.1-7.3c-0.1-0.2-0.2-0.3-0.2-0.5c-0.3-0.6-0.7-1.6-1.6-1.6
	c-0.1,0-0.3,0-0.4,0.1c-0.2,0.1-0.4,0.2-0.5,0.3c-0.7-1.7-1.6-3.6-2.9-5.5C89.7,110.9,91.8,113,95.2,113.6z"/>
</svg>
