<?xml version="1.0" encoding="utf-8"?>
<!-- Generator: Adobe Illustrator 26.0.0, SVG Export Plug-In . SVG Version: 6.00 Build 0)  -->
<svg version="1.1" id="Layer_1" xmlns="http://www.w3.org/2000/svg" xmlns:xlink="http://www.w3.org/1999/xlink" x="0px" y="0px"
	 viewBox="0 0 200 200" style="enable-background:new 0 0 200 200;" xml:space="preserve">
	 <style type="text/css">
	     .primary{fill:#000000;}
	     .pinFill{fill:#FFFFFF;}
	 </style>
	 <g>
	 	<path id="pin" class="primary" d="M169.2,79.8c0-38.2-31-69.2-69.2-69.2s-69.2,31-69.2,69.2c0,14.1,4.3,27.3,11.5,38.2h0l0.1,0.2
	 		c1.6,2.4,3.3,4.6,5.2,6.8l52.4,68.2l52.4-68.2c1.9-2.2,3.6-4.4,5.2-6.8l0.1-0.2h0C165,107.1,169.2,94,169.2,79.8L169.2,79.8z"/>
	 	<path id="pinFill" class="pinFill" d="M100,143.5c-34.6,0-62.7-28.1-62.7-62.7S65.4,18.1,100,18.1s62.7,28.1,62.7,62.7
	 		S134.6,143.5,100,143.5L100,143.5z"/>
	 </g>
<g>
	<path id="path2" class="primary" d="M131.4,44.3h-11.6v-5.1c0-3.2-2.6-5.9-5.9-5.9H87.3c-3.2,0-5.9,2.6-5.9,5.9v5.1H69.3c-3.1,0-5.7,2.5-5.7,5.7v7
		c0,2.8,2.3,5.1,5.1,5.1h63.2c3.1,0,5.7-2.5,5.7-5.7v-6C137.6,47.1,134.8,44.3,131.4,44.3 M89.5,37.5h22.3c2.2,0,3.9,1.8,3.9,3.9
		v2.9H85.5v-2.9C85.5,39.2,87.3,37.5,89.5,37.5"/>
	<path id="path3" class="primary" d="M68.4,73.4l5.7,51.1c0.3,2.4,2.2,4.2,4.4,4.2h43.4c2.2,0,4.1-1.8,4.4-4.1l6.5-51.1c0.4-2.9-1.7-5.4-4.4-5.4H72.8
		C70.1,68,68.1,70.6,68.4,73.4 M85.6,116.6c0,1.2-0.9,2.2-2.1,2.2s-2.1-1-2.1-2.2V79.1c0-1.2,0.9-2.2,2.1-2.2s2.1,1,2.1,2.2V116.6z
		 M102,116.6c0,1.2-0.9,2.2-2.1,2.2c-1.1,0-2.1-1-2.1-2.2V79.1c0-1.2,0.9-2.2,2.1-2.2c1.1,0,2.1,1,2.1,2.2V116.6z M119.8,116.6
		c0,1.2-0.9,2.2-2.1,2.2c-1.1,0-2.1-1-2.1-2.2V79.1c0-1.2,0.9-2.2,2.1-2.2c1.1,0,2.1,1,2.1,2.2V116.6z"/>
</g>
</svg>
