<?xml version="1.0" encoding="utf-8"?>
<!-- Generator: Adobe Illustrator 26.0.2, SVG Export Plug-In . SVG Version: 6.00 Build 0)  -->
<svg version="1.1" id="Layer_1" xmlns="http://www.w3.org/2000/svg" xmlns:xlink="http://www.w3.org/1999/xlink" x="0px" y="0px"
	 viewBox="0 0 200 200" style="enable-background:new 0 0 200 200;" xml:space="preserve">
	 <style type="text/css">
	     .primary{fill:#000000;}
	     .pinFill{fill:#FFFFFF;}
	 </style>
<g>
	<path id="pin" class="primary" d="M169.2,79.8c0-38.2-31-69.2-69.2-69.2s-69.2,31-69.2,69.2c0,14.1,4.3,27.3,11.5,38.2l0,0l0.1,0.2
		c1.6,2.4,3.3,4.6,5.2,6.8l52.4,68.2l52.4-68.2c1.9-2.2,3.6-4.4,5.2-6.8l0.1-0.2l0,0C165,107.1,169.2,94,169.2,79.8L169.2,79.8z"/>
	<path id="pinFill" class="pinFill" d="M100,143.5c-34.6,0-62.7-28.1-62.7-62.7S65.4,18.1,100,18.1s62.7,28.1,62.7,62.7
		S134.6,143.5,100,143.5L100,143.5z"/>
</g>
<path id="path1" class="primary" d="M111,36.8c-1-0.7-2.3-0.8-3.5-0.3L54.7,59.1c-0.4,0.2-0.7,0.6-0.7,1.1v25.7c0,0.7,0.5,1.2,1.2,1.2h56.3
	c0.7,0,1.2-0.5,1.2-1.2V39.8C112.7,38.7,112.1,37.5,111,36.8z M105.7,80.7c0,0.3-0.3,0.6-0.6,0.6h-5.3c-0.2,0-0.4-0.1-0.5-0.3
	l-4.5-8.2c-0.1-0.2-0.1-0.4,0-0.6C94.8,72,95,72,95.2,72h9.8c0.3,0,0.6,0.3,0.6,0.6C105.7,72.6,105.7,80.7,105.7,80.7z M105.7,68.2
	c0,0.3-0.3,0.6-0.6,0.6h-9.8c-0.3,0-0.6-0.3-0.6-0.6v-19c0-0.3,0.3-0.6,0.6-0.6h9.8c0.3,0,0.6,0.3,0.6,0.6V68.2z"/>
<g>
	<path id="path2" class="primary" d="M111.1,112.4H58.9c-2.2,0-4.3-1.3-5.3-3.3l-5.4-10.6c-0.9-1.9-0.9-4.1,0.2-5.8s3-2.9,5.1-2.9h63
		c2.1,0,4,1,5.1,2.9c1.1,1.8,1.2,3.9,0.2,5.8l-5.4,10.6C115.4,111.2,113.3,112.4,111.1,112.4z M53.5,93.4c-0.8,0-1.6,0.4-2,1.2
		c-0.4,0.7-0.5,1.5-0.1,2.3l5.4,10.6c0.4,0.8,1.2,1.3,2.1,1.3H111c0.9,0,1.7-0.5,2.1-1.3l5.4-10.6c0.4-0.8,0.3-1.6-0.1-2.3
		c-0.4-0.7-1.2-1.2-2-1.2H53.5z"/>
</g>
<g>
	<path id="path3" class="primary" d="M151.2,93l-5.5-5.5l3.8-11.8c0.1-0.3,0.1-0.5,0-0.8l-1.9-5.5c-0.1-0.4-0.5-0.7-1-0.8c-0.4-0.1-0.9,0.1-1.2,0.5
		L138,79.8c-2.4-1.7-5.9-1.5-8,0.6l-0.1,0.1H115c-0.3,0-0.6,0.3-0.6,0.6v5.2c0,0.3,0.3,0.6,0.6,0.6h8.6c-0.7,1-1.2,2.2-1.2,3.6
		c0,1.6,0.7,3.2,1.8,4.3l12.5,12.5c1.2,1.2,2.7,1.8,4.3,1.8c1.6,0,3.2-0.7,4.3-1.8l5.8-5.8c1.2-1.2,1.8-2.7,1.8-4.3
		C153,95.7,152.3,94.1,151.2,93z M139.8,81.6l6.3-9.2l1,2.9l-3.3,10.3L139.8,81.6z"/>
</g>
</svg>
