<?xml version="1.0" encoding="utf-8"?>
<!-- Generator: Adobe Illustrator 26.0.0, SVG Export Plug-In . SVG Version: 6.00 Build 0)  -->
<svg version="1.1" id="Layer_1" xmlns="http://www.w3.org/2000/svg" xmlns:xlink="http://www.w3.org/1999/xlink" x="0px" y="0px"
	 viewBox="0 0 200 200" style="enable-background:new 0 0 200 200;" xml:space="preserve">
<style type="text/css">
    .primary{fill:#000000;}
    .pinFill{fill:#FFFFFF;}
</style>
<g>
	<path id="pin" class="primary" d="M169.2,79.8c0-38.2-31-69.2-69.2-69.2s-69.2,31-69.2,69.2c0,14.1,4.3,27.3,11.5,38.2h0l0.1,0.2
		c1.6,2.4,3.3,4.6,5.2,6.8l52.4,68.2l52.4-68.2c1.9-2.2,3.6-4.4,5.2-6.8l0.1-0.2h0C165,107.1,169.2,94,169.2,79.8L169.2,79.8z"/>
	<path id="pinFill" class="pinFill" d="M100,143.5c-34.6,0-62.7-28.1-62.7-62.7S65.4,18.1,100,18.1s62.7,28.1,62.7,62.7
		S134.6,143.5,100,143.5L100,143.5z"/>
</g>
<path id="path2" class="primary" d="M125.17,88.33c-1.02,0-1.92-0.73-2.1-1.77c-0.2-1.16,0.58-2.27,1.74-2.47l28.64-4.98c1.16-0.2,2.27,0.58,2.47,1.74
	c0.2,1.16-0.58,2.27-1.74,2.47l-28.64,4.98C125.41,88.32,125.29,88.33,125.17,88.33"/>
<path id="path3" class="primary" d="M122.32,82.28c-0.58,0-1.15-0.23-1.57-0.69c-0.8-0.87-0.74-2.22,0.13-3.02l19.03-17.43c0.87-0.8,2.22-0.74,3.02,0.13
	c0.8,0.87,0.74,2.22-0.13,3.02l-19.03,17.43C123.35,82.1,122.84,82.28,122.32,82.28"/>
<path id="path4" class="primary" d="M145.72,106.23c-0.31,0-0.62-0.07-0.92-0.21l-22.59-10.85c-1.06-0.51-1.51-1.79-1-2.85c0.51-1.06,1.79-1.51,2.85-1
	l22.59,10.85c1.06,0.51,1.51,1.79,1,2.85C147.28,105.78,146.52,106.23,145.72,106.23"/>
<path id="path5" class="primary" d="M116.4,80.41l0.89-10.92c0.26-3.15-2.82-5.51-5.8-4.45l-26.26,9.4c-2.38-6.66-9.71-10.13-16.37-7.74l-2.97,1.06l-8.32-6.37
	c-2.87-2.2-6.9,0.44-6.04,3.95l1.7,6.95c-3.7,1.36-5.62,5.45-4.29,9.16l10.04,28.06c1.34,3.74,5.45,5.68,9.19,4.34l23.34-8.39
	l18.26-0.61c1.79-0.06,3.38-1.18,4.05-2.84l2.24-5.63c0.64-1.61-0.58-3.35-2.31-3.29l-21.6,0.69l-0.2-0.56l20.19-7.22
	C114.52,85.12,116.19,82.95,116.4,80.41"/>
</svg>
