<?xml version="1.0" encoding="utf-8"?>
<!-- Generator: Adobe Illustrator 26.0.0, SVG Export Plug-In . SVG Version: 6.00 Build 0)  -->
<svg version="1.1" id="Layer_1" xmlns="http://www.w3.org/2000/svg" xmlns:xlink="http://www.w3.org/1999/xlink" x="0px" y="0px"
	 viewBox="0 0 200 200" style="enable-background:new 0 0 200 200;" xml:space="preserve">
<style type="text/css">
    .primary{fill:#000000;}
    .pinFill{fill:#FFFFFF;}
</style>

<g>
	<path id="pin" class="primary" d="M169.2,79.8c0-38.2-31-69.2-69.2-69.2s-69.2,31-69.2,69.2c0,14.1,4.3,27.3,11.5,38.2h0l0.1,0.2
		c1.6,2.4,3.3,4.6,5.2,6.8l52.4,68.2l52.4-68.2c1.9-2.2,3.6-4.4,5.2-6.8l0.1-0.2h0C165,107.1,169.2,94,169.2,79.8L169.2,79.8z"/>
	<path id="pinFill" class="pinFill" d="M100,143.5c-34.6,0-62.7-28.1-62.7-62.7S65.4,18.1,100,18.1s62.7,28.1,62.7,62.7
		S134.6,143.5,100,143.5L100,143.5z"/>
</g>

<circle id="circle" class="primary" cx="99.89" cy="80.37" r="51.17"/>
<path id="path1" class="pinFill" d="M105.54,80.37L128,57.91c1.56-1.56,1.56-4.09,0-5.66c-1.56-1.56-4.1-1.56-5.66,0L99.88,74.71L77.42,52.25
	c-1.56-1.56-4.09-1.56-5.66,0c-1.56,1.56-1.56,4.09,0,5.66l22.47,22.46l-22.47,22.47c-1.56,1.56-1.56,4.09,0,5.66
	c0.78,0.78,1.8,1.17,2.83,1.17s2.05-0.39,2.83-1.17l22.46-22.46l22.47,22.46c0.78,0.78,1.8,1.17,2.83,1.17s2.05-0.39,2.83-1.17
	c1.56-1.56,1.56-4.09,0-5.66L105.54,80.37z"/>
</svg>
