<?xml version="1.0" encoding="utf-8"?>
<!-- Generator: Adobe Illustrator 26.0.2, SVG Export Plug-In . SVG Version: 6.00 Build 0)  -->
<svg version="1.1" id="Layer_1" xmlns="http://www.w3.org/2000/svg" xmlns:xlink="http://www.w3.org/1999/xlink" x="0px" y="0px"
	 viewBox="0 0 200 200" style="enable-background:new 0 0 200 200;" xml:space="preserve">
<g>
	<path id="path2" class="primary" d="M153.8,13.4H47c-4,0-7.1,3.1-7.1,7.1c0,3.6,2.6,6.6,6.1,7.1v11.3c0,2.6,2.1,4.5,4.5,4.5s4.5-2.1,4.5-4.5V27.6
		H57c0.2,0.2,0.2,0.2,0.3,0.3l35.8,28.7V69h-5v-1.9c0-1.2-1-2.3-2.3-2.3H73.1c-1.2,0-2.3,1-2.3,2.3v8.7h17.3v-4.8h5v16.5h-5V77.1
		H70.9v14.5c0,1.2,1,2.3,2.3,2.3H86c1.2,0,2.3-1,2.3-2.3v-2.6h5v92.8c0,4,3.1,7.1,7.1,7.1c4,0,7.1-3.3,7.1-7.1v-93h5.2v2.6
		c0,1.2,1,2.3,2.3,2.3h13c1.2,0,2.3-1,2.3-2.3V77h-17.3v10.2h-5.2V70.7h5.2v4.8h17.3v-8.7c0-1.2-1-2.3-2.3-2.3h-13
		c-1.2,0-2.3,1-2.3,2.3v1.9h-5.2V56.5l35.8-28.7c0.2,0,0.2-0.2,0.3-0.3h2.1v11.3c0,2.6,2.1,4.5,4.5,4.5s4.5-2.1,4.5-4.5V27.4
		c3.5-0.5,6.1-3.5,6.1-7.1C160.9,16.5,157.8,13.4,153.8,13.4z M93.2,45.1L71.6,27.8h21.6V45.1z M107.6,45.1V27.8h21.6L107.6,45.1z"
		/>
</g>
</svg>
