<?xml version="1.0" encoding="utf-8"?>
<!-- Generator: Adobe Illustrator 26.0.2, SVG Export Plug-In . SVG Version: 6.00 Build 0)  -->
<svg version="1.1" id="Layer_1" xmlns="http://www.w3.org/2000/svg" xmlns:xlink="http://www.w3.org/1999/xlink" x="0px" y="0px"
	 viewBox="0 0 200 200" style="enable-background:new 0 0 200 200;" xml:space="preserve">
<g>
	<path id="path2" class="primary" d="M190.4,109.1c0.2-3.6,0.4-7.1,0.2-10.7c0-3.6-0.4-6.9-0.8-10.3l-18.1-2.9l-6.1-17l12-13.9
		c-3.6-6.1-8-11.8-12.8-16.8l-16.4,8.2l-15.1-10.3l1.7-18.3c-6.3-2.7-12.8-4.6-19.7-5.9l-8.6,16.2l-18.1,0.4l-9.2-15.7
		c-6.9,1.7-13.6,4-19.9,7.1l2.7,18.1L47.7,48.5l-16.8-7.3c-4.6,5.2-8.6,11.1-12,17.4l12.8,13l-5,17.6l-17.8,4
		c-0.4,3.6-0.4,7.3-0.4,10.9c0.2,3.4,0.4,6.7,0.8,10.1l18.1,2.9l6.1,17L21.2,148c3.6,6.1,8,11.8,12.8,16.8l16.4-8.2l14.9,10.3
		l-1.7,18.3c6.5,2.7,13.2,4.8,20.2,5.9l8.4-16.4l18.1-0.4l9.4,15.7c6.9-1.7,13.6-4,19.9-7.1l-2.7-18.1l14.3-11.1l16.8,7.1
		c4.6-5.2,8.6-11.1,12-17.4l-12.8-13l5-17.4L190.4,109.1z M135.2,141.9c-22.5,19.7-56.5,17.4-76.2-4.8
		c-19.7-22.5-17.4-56.5,4.8-76.2c22.5-19.7,56.5-17.4,76.2,5C159.8,88.1,157.7,122.1,135.2,141.9z"/>
</g>
</svg>
