<?xml version="1.0" encoding="utf-8"?>
<!-- Generator: Adobe Illustrator 26.0.2, SVG Export Plug-In . SVG Version: 6.00 Build 0)  -->
<svg version="1.1" id="Layer_1" xmlns="http://www.w3.org/2000/svg" xmlns:xlink="http://www.w3.org/1999/xlink" x="0px" y="0px"
	 viewBox="0 0 200 200" style="enable-background:new 0 0 200 200;" xml:space="preserve">
<path id="path2" class="primary" d="M146.5,11.6H52.9c-3.8,0-6.7,3.1-6.7,6.7v163c0,3.8,3.1,6.7,6.7,6.7h93.4c3.8,0,6.7-3.1,6.7-6.7V18.5
	C153.2,14.7,150.1,11.6,146.5,11.6z M80.4,17.6H119c0.9,0,1.6,0.7,1.6,1.6c0,0.9-0.7,1.6-1.6,1.6H80.4c-0.9,0-1.6-0.7-1.6-1.6
	C78.7,18.3,79.4,17.6,80.4,17.6z M99.8,182.5c-4.5,0-8.2-3.6-8.2-8.2c0-4.5,3.6-8.2,8.2-8.2s8.2,3.6,8.2,8.2
	C107.8,178.9,104.2,182.5,99.8,182.5z M140.5,161.8H58.9V27h81.6V161.8z"/>
</svg>
