<?xml version="1.0" encoding="utf-8"?>
<!-- Generator: Adobe Illustrator 26.0.2, SVG Export Plug-In . SVG Version: 6.00 Build 0)  -->
<svg version="1.1" id="Layer_1" xmlns="http://www.w3.org/2000/svg" xmlns:xlink="http://www.w3.org/1999/xlink" x="0px" y="0px"
	 viewBox="0 0 200 200" style="enable-background:new 0 0 200 200;" xml:space="preserve">
<g>
	<path id="path2" class="primary" d="M133.2,9.6H38.3c-3.8,0-6.7,3.2-6.7,6.7v165.3c0,3.8,3.2,6.7,6.7,6.7H133c3.8,0,6.7-3.2,6.7-6.7V16.7
		C139.9,12.8,136.9,9.6,133.2,9.6z M66.1,15.7h39.3c1,0,1.6,0.8,1.6,1.6c0,0.8-0.8,1.6-1.6,1.6H66.1c-1,0-1.6-0.8-1.6-1.6
		C64.5,16.5,65.3,15.7,66.1,15.7z M85.9,183c-4.6,0-8.3-3.8-8.3-8.3c0-4.6,3.8-8.3,8.3-8.3s8.3,3.8,8.3,8.3
		C93.9,179.3,90.3,183,85.9,183z M127,162H44.4V25.3h82.8V162H127z"/>
	<g>

			<rect id="rect" class="primary" x="158" y="38.4" transform="matrix(0.9999 -1.173928e-02 1.173928e-02 0.9999 -1.2228 1.9616)" width="17.1" height="133.6"/>
		<polygon id="polygon" points="164.7,10 159.3,24.7 162.3,27.9 164.1,24.5 165.7,28.6 167.1,23.3 171.3,27.7 		"/>
		<path id="path3" class="primary" d="M158.8,178.5l17.1-0.2v6c0.2,2.2-2.4,3.8-5.4,4h-6.4c-3,0-5.6-1.8-5.6-3.8L158.8,178.5z"/>
	</g>
</g>
</svg>
