<?xml version="1.0" encoding="utf-8"?>
<!-- Generator: Adobe Illustrator 26.0.0, SVG Export Plug-In . SVG Version: 6.00 Build 0)  -->
<svg version="1.1" id="Layer_1" xmlns="http://www.w3.org/2000/svg" xmlns:xlink="http://www.w3.org/1999/xlink" x="0px" y="0px"
	 viewBox="0 0 200 200" style="enable-background:new 0 0 200 200;" xml:space="preserve">
<g>
	<path id="path1" class="primary" d="M181.8,105.6L137,98.7c-5.8-0.9-9.8-6.3-8.9-12.2l0,0c0.9-5.8,6.3-9.8,12.2-8.9l44.6,2.7c5.8,0.9,10,10.5,9.1,16.3l0,0
		C193.1,102.5,187.6,106.5,181.8,105.6z"/>
	<path id="path2" class="primary" d="M175.6,131.7l-43.9-9.2c-5.7-1.2-9.4-6.8-8.2-12.5l0,0c1.2-5.7,6.8-9.4,12.5-8.2l45,7.8c5.7,1.2,8.3,8.1,7.1,13.9l0,0
		C186.9,129.2,181.3,132.8,175.6,131.7z"/>
	<path id="path3" class="primary" d="M169.3,157.5l-43.1-10.7c-5.6-1.2-9.2-6.7-8.1-12.3v0c1.2-5.6,6.7-9.2,12.3-8.1l43.4,9.1c5.6,1.2,9.2,6.7,8.1,12.3l0,0
		C180.8,153.4,175,158.7,169.3,157.5z"/>
	<path id="path4" class="primary" d="M155.2,181.1l-34.8-11.6c-5.3-1.4-8.4-6.8-7-12.1l0,0c1.4-5.3,6.8-8.4,12.1-7l38.4,10c5.3,1.4,8.4,6.8,7,12.1l0,0
		C169.4,177.7,160.5,182.5,155.2,181.1z"/>
	<path id="path5" class="primary" d="M161.8,25L161.8,25c-1.3-1.9-5.6-6.1-8-2.5l-1.5,2.2c-5.8,8.4-13.3,15.4-22.2,20.6c-7.1,4.1-14.6,8.5-15.9,9.2
		c-1.4,0.7-11.9,8.7-21.6,16.1c-10.3,7.9-36,12.2-36,12.2l0,0v69.6h7.2c8.9,0,17.7,2,25.7,5.9l19.2,9.2c1.4,0.7,2.9-0.8,2.2-2.3
		c0,0,0-0.1-0.1-0.1c-1.1-2.2-1.5-4.7-1.4-7.1c0.4-5.8,4.1-10.4,8.9-12.3c-3.7-3.8-5.2-9.5-3.2-15c0.8-2.3,2.3-4.3,4.1-5.9
		c1.2-1,2.5-1.8,3.9-2.4c-1.1-1.1-2-2.4-2.6-3.8c-1.1-2.2-1.6-4.7-1.4-7.1c0.4-5.8,4.1-10.5,8.9-12.4c-3.7-3.8-5.2-9.5-3.2-15
		c0.8-2.3,2.3-4.4,4.2-6c3.5-2.9,7.4-3.6,11.7-3.4l5.4,0.4l8.5-10.5c3-3.5,5.5-7.4,7.3-11.6l1.2-2.8C166.7,41.9,166.1,32.7,161.8,25
		L161.8,25z"/>
	<path id="path6" class="primary" d="M52.6,155.4V83.7c0-10-46.1-15.5-46.1-5.5l9.8,88.3C16.3,176.4,52.6,165.4,52.6,155.4z"/>
</g>
</svg>
