<?xml version="1.0" encoding="utf-8"?>
<!-- Generator: Adobe Illustrator 26.0.2, SVG Export Plug-In . SVG Version: 6.00 Build 0)  -->
<svg version="1.1" id="Layer_1" xmlns="http://www.w3.org/2000/svg" xmlns:xlink="http://www.w3.org/1999/xlink" x="0px" y="0px"
	 viewBox="0 0 200 200" style="enable-background:new 0 0 200 200;" xml:space="preserve">
<g>
	<path id="path2" class="primary" d="M136.8,31.4h-21.2v-9.3c0-5.9-4.8-10.8-10.8-10.8H56c-5.9,0-10.8,4.8-10.8,10.8v9.3H23
		c-5.7,0-10.4,4.6-10.4,10.4v12.8c0,5.1,4.2,9.3,9.3,9.3h115.7c5.7,0,10.4-4.6,10.4-10.4v-11C148.1,36.6,143,31.4,136.8,31.4 M60,19
		h40.8c4,0,7.1,3.3,7.1,7.1v5.3H52.7v-5.3C52.7,22.1,56,19,60,19"/>
	<path id="path3" class="primary" d="M21.4,84.7l10.4,93.6c0.5,4.4,4,7.7,8.1,7.7h79.5c4,0,7.5-3.3,8.1-7.5l11.9-93.6c0.7-5.3-3.1-9.9-8.1-9.9H29.4
		C24.5,74.8,20.8,79.6,21.4,84.7 M52.9,163.8c0,2.2-1.6,4-3.8,4s-3.8-1.8-3.8-4V95.2c0-2.2,1.6-4,3.8-4s3.8,1.8,3.8,4V163.8z
		 M82.9,163.8c0,2.2-1.6,4-3.8,4c-2,0-3.8-1.8-3.8-4V95.2c0-2.2,1.6-4,3.8-4c2,0,3.8,1.8,3.8,4V163.8z M115.5,163.8
		c0,2.2-1.6,4-3.8,4c-2,0-3.8-1.8-3.8-4V95.2c0-2.2,1.6-4,3.8-4c2,0,3.8,1.8,3.8,4V163.8z"/>
</g>
</svg>
