<?xml version="1.0" encoding="utf-8"?>
<!-- Generator: Adobe Illustrator 26.0.2, SVG Export Plug-In . SVG Version: 6.00 Build 0)  -->
<svg version="1.1" id="Layer_1" xmlns="http://www.w3.org/2000/svg" xmlns:xlink="http://www.w3.org/1999/xlink" x="0px" y="0px"
	 viewBox="0 0 200 200" style="enable-background:new 0 0 200 200;" xml:space="preserve">
<g>
	<path id="path2" class="primary" d="M165.8,127.7H91.3c-6.6,0-12.6,3-16.8,7.6h-42c-2.4,0-4.2,1.8-4.2,4.2c0,2.2,1.8,4.2,4.2,4.2h37.2
		c-0.6,2.2-1,4.4-1,6.8v9H18.2V46.6c0-0.4,0.4-0.8,0.8-0.8h16.4c0.6,1.4,2,2.6,3.6,2.6h50.1c1.6,0,3-1,3.6-2.6h17.4c0,0,0,4,0,10.4
		c-4.2,2.6-7.6,6.2-10.2,10.4c-0.4-1.8-2-3.2-4-3.2H32.4c-2.4,0-4.2,1.8-4.2,4.2c0,2.2,1.8,4.2,4.2,4.2h63.5c0.6,0,1-0.2,1.6-0.4
		c-1.8,4-2.8,8.6-2.8,13.2c0,1,0,1.8,0.2,2.6H32.4c-2.4,0-4.2,1.8-4.2,4.2s1.8,4.2,4.2,4.2h63.5c0.2,0,0.4,0,0.6,0
		c4.6,13.2,17.2,22.8,32,22.8c18.6,0,33.8-15.2,33.8-33.8s-15.2-33.8-33.8-33.8c-3.6,0-7,0.6-10.2,1.6v-6.8c0-4.4-3.6-8-8-8h-18
		c-1.4-3.8-5.2-6.4-9.4-6.4h-8c-1.4-4.8-5.8-8.2-11-8.2s-9.6,3.4-11,8.2h-8c-4.2,0-7.8,2.6-9.4,6.4H17.6c-4.4,0-8,3.6-8,8v114.1
		c0,4.4,3.6,8,8,8h50.7h41.6H188v-17.2C188.4,137.9,178.2,127.7,165.8,127.7z M64.5,30.4c2.8,0,5.2,2.4,5.2,5.2
		c0,2.8-2.4,5.2-5.2,5.2c-2.8,0-5.2-2.4-5.2-5.2S61.7,30.4,64.5,30.4z"/>
	<path id="path3" class="primary" d="M32.4,111.3c-2.4,0-4.2,1.8-4.2,4.2s1.8,4.2,4.2,4.2h63.5c2.2,0,4.2-1.8,4.2-4.2s-1.8-4.2-4.2-4.2H32.4z"/>
</g>
</svg>
