<?xml version="1.0" encoding="utf-8"?>
<!-- Generator: Adobe Illustrator 26.0.0, SVG Export Plug-In . SVG Version: 6.00 Build 0)  -->
<svg version="1.1" id="Layer_1" xmlns="http://www.w3.org/2000/svg" xmlns:xlink="http://www.w3.org/1999/xlink" x="0px" y="0px"
	 viewBox="0 0 200 200" style="enable-background:new 0 0 200 200;" xml:space="preserve">
<g>
	<path id="path" class="primary" d="M79.1,145.7l68.6-68.6c12.9,4.6,25.3,0.8,34.5-8.4c10.7-10.7,12.6-27,7.1-39.1l-25.8,25.8L140.1,32l23.7-23.7
		c-10.1-1.6-24.3-0.2-33.2,8.7c-9.2,9.2-10.9,23.7-9.2,33.7l-68.6,68.6c-10-1.7-25.6-1.2-34.8,8.1c-11,11-12.8,27.8-7.1,39.7
		l22.9-22.9l26.3,26.3l-20,20C50.4,192,62.4,189,71,180.4C80.2,171.2,83.7,158.6,79.1,145.7z"/>
</g>
</svg>
