<?xml version="1.0" encoding="utf-8"?>
<!-- Generator: Adobe Illustrator 26.0.2, SVG Export Plug-In . SVG Version: 6.00 Build 0)  -->
<svg version="1.1" id="Layer_1" xmlns="http://www.w3.org/2000/svg" xmlns:xlink="http://www.w3.org/1999/xlink" x="0px" y="0px"
	 viewBox="0 0 200 200" style="enable-background:new 0 0 200 200;" xml:space="preserve">
<g>
	<path id="number" class="primary" d="M149.4,6.1h-31.5c-1.7,0-3.2,0.1-4.6,0.3c-1.4,0.2-2.8,0.7-4.3,1.6L28.8,54.9c-2.2,1.1-3.4,2.5-3.7,4.3
		c-0.4,1.8,0.2,3.5,1.6,5.2l15,14.6c1.7,1.6,3.6,2.6,5.7,2.8c2.2,0.3,4.3-0.1,6.4-1.2l54.4-31.7v140.3c0,1.8,0.8,3.4,2.3,4.6
		c1.5,1.3,3.6,1.9,6.3,1.9h32.5c2.4,0,4.4-0.6,6.1-1.9c1.7-1.3,2.5-2.8,2.5-4.6V12.6c0-1.8-0.8-3.3-2.5-4.6
		C153.8,6.7,151.7,6.1,149.4,6.1z"/>
</g>
</svg>
