<?xml version="1.0" encoding="utf-8"?>
<!-- Generator: Adobe Illustrator 26.0.2, SVG Export Plug-In . SVG Version: 6.00 Build 0)  -->
<svg version="1.1" id="Layer_1" xmlns="http://www.w3.org/2000/svg" xmlns:xlink="http://www.w3.org/1999/xlink" x="0px" y="0px"
	 viewBox="0 0 200 200" style="enable-background:new 0 0 200 200;" xml:space="preserve">
	 <style type="text/css">
			 .primary{fill:#000000;}
	 </style>
<g>
	<path id="number" class="primary" d="M129.2,9.1h-23.3c-1.3,0-2.4,0.1-3.4,0.3c-1,0.2-2.1,0.7-3.2,1.5L39.8,56.2c-1.6,1.1-2.5,2.4-2.7,4.2
		c-0.3,1.7,0.1,3.4,1.2,5l11.1,14.1c1.3,1.5,2.7,2.5,4.2,2.7c1.6,0.3,3.2-0.1,4.7-1.2l40.3-30.6v135.5c0,1.7,0.6,3.3,1.7,4.4
		c1.1,1.3,2.7,1.8,4.7,1.8h24.1c1.8,0,3.3-0.6,4.5-1.8c1.3-1.3,1.9-2.7,1.9-4.4V15.4c0-1.7-0.6-3.2-1.9-4.4
		C132.5,9.7,130.9,9.1,129.2,9.1z"/>
</g>
</svg>
