<?xml version="1.0" encoding="utf-8"?>
<!-- Generator: Adobe Illustrator 26.0.2, SVG Export Plug-In . SVG Version: 6.00 Build 0)  -->
<svg version="1.1" id="Layer_1" xmlns="http://www.w3.org/2000/svg" xmlns:xlink="http://www.w3.org/1999/xlink" x="0px" y="0px"
	 viewBox="0 0 200 200" style="enable-background:new 0 0 200 200;" xml:space="preserve">
<g>
	<path id="number" class="primary" d="M165.5,163.1H87.7l38.8-37.8c8.7-6.7,16.2-13.2,22.4-19.6c6.2-6.4,10.9-13,14.2-19.9
		c3.3-6.9,4.9-14.5,4.9-22.7c0-10.5-2.5-19.9-7.5-28.3c-5-8.4-12.5-15.1-22.4-19.9s-22.5-7.3-37.6-7.3c-10.7,0-20.4,1.7-28.9,5
		s-15.8,7.7-21.7,13.3S39.5,37.5,36.3,44.6S31.6,59,31.4,66.5c0,1.4,0.5,2.6,1.6,3.7c1.1,1.1,2.4,1.6,4.1,1.6h24.3
		c1.6,0,3.3-0.4,4.9-1.3c1.6-0.9,2.6-2.5,3-4.7c0.9-5.1,2.6-9.7,5.1-13.9c2.4-4.2,5.9-7.6,10.3-10.1c4.4-2.5,9.7-3.8,16.1-3.8
		c9.6,0,16.7,2.5,21.2,7.3c4.5,4.9,6.7,11.3,6.7,19.2c0,5.3-1.7,10.5-5.1,15.9c-3.4,5.3-8.7,11.2-16.1,17.6S90.4,112,78.4,121.1
		l-43.2,41.2c-2.9,2.3-4.8,4.5-5.6,6.7c-0.8,2.2-1.2,4.1-1.2,5.7V188c0,1.7,0.6,3.2,1.9,4.5c1.3,1.2,2.8,1.8,4.6,1.8h130.6
		c2,0,3.6-0.6,4.8-1.8c1.2-1.2,1.8-2.7,1.8-4.5v-18.6c0-1.9-0.6-3.5-1.8-4.6C169.1,163.7,167.5,163.1,165.5,163.1z"/>
</g>
</svg>
