<?xml version="1.0" encoding="utf-8"?>
<!-- Generator: Adobe Illustrator 26.0.2, SVG Export Plug-In . SVG Version: 6.00 Build 0)  -->
<svg version="1.1" id="Layer_1" xmlns="http://www.w3.org/2000/svg" xmlns:xlink="http://www.w3.org/1999/xlink" x="0px" y="0px"
	 viewBox="0 0 200 200" style="enable-background:new 0 0 200 200;" xml:space="preserve">
<g>
	<path id="number" d="M146.2,92.5c-8.2-3.9-17.5-6.2-27.9-7.1l-3.1-0.3l44.5-45.8c0.9-0.9,1.6-1.9,2.3-3.1s1-2.6,1-4.1V16.7
		c0-1.9-0.6-3.4-1.8-4.6c-1.2-1.2-2.7-1.8-4.6-1.8H46.2c-1.9,0-3.4,0.6-4.5,1.8c-1.1,1.2-1.7,2.7-1.7,4.6v17c0,1.7,0.5,3.2,1.7,4.4
		c1.1,1.2,2.6,1.8,4.5,1.8h73.6l-46.1,45c-0.9,0.9-1.7,1.9-2.4,3.2c-0.8,1.3-1.2,2.8-1.2,4.5v10.8c0,1.9,0.6,3.4,1.8,4.5
		c1.2,1.1,2.7,1.7,4.6,1.7h26.5c10.1,0,18,2,23.7,6c5.7,4,8.5,10.6,8.5,19.7c0,9.1-3.1,16.1-9.1,21c-6.1,4.9-14.3,7.3-24.6,7.3
		c-5.2,0-10-0.5-14.7-1.7c-4.6-1.1-8.7-3-12.2-5.8c-3.5-2.7-6-6.4-7.6-11.1c-0.9-2-1.9-3.4-3.1-4.1c-1.2-0.7-2.7-1-4.4-1H36.5
		c-1.6,0-2.9,0.5-4,1.4c-1.1,1-1.7,2.2-1.7,3.7c0.2,5.5,1.7,11,4.6,16.6c2.9,5.6,7.3,10.7,13,15.4c5.7,4.7,13,8.5,21.8,11.4
		c8.8,2.9,19.1,4.4,31.1,4.4c13.7,0,25.9-2.2,36.5-6.7c10.6-4.5,19-10.9,25.1-19.2c6.1-8.3,9.1-18.3,9.1-30
		c0-11.2-2.3-20.4-6.8-27.8C160.7,102,154.4,96.4,146.2,92.5z"/>
</g>
</svg>
