<?xml version="1.0" encoding="utf-8"?>
<!-- Generator: Adobe Illustrator 26.0.2, SVG Export Plug-In . SVG Version: 6.00 Build 0)  -->
<svg version="1.1" id="Layer_1" xmlns="http://www.w3.org/2000/svg" xmlns:xlink="http://www.w3.org/1999/xlink" x="0px" y="0px"
	 viewBox="0 0 200 200" style="enable-background:new 0 0 200 200;" xml:space="preserve">
	 <style type="text/css">
			 .primary{fill:#000000;}
	 </style>
<g>
	<path id="number" class="primary" d="M168.2,122.1h-23.7V14c0-1.8-0.6-3.3-1.9-4.5c-1.2-1.2-2.8-1.9-4.5-1.9h-29c-4.3,0-7.6,1.5-9.9,4.5L20.6,121
		c-1.1,1.2-1.8,2.6-2.3,4.1c-0.5,1.5-0.7,2.8-0.7,3.9v18.1c0,1.8,0.6,3.3,1.7,4.5c1.2,1.2,2.7,1.9,4.7,1.9h84.4v34.1
		c0,1.8,0.6,3.3,1.9,4.5c1.2,1.2,2.8,1.9,4.5,1.9h23.1c1.8,0,3.3-0.6,4.5-1.9c1.2-1.2,1.9-2.8,1.9-4.5v-34.1h24
		c1.8,0,3.3-0.6,4.5-1.9c1.2-1.2,1.9-2.8,1.9-4.5v-18.7c0-2-0.6-3.5-1.7-4.7C171.9,122.7,170.3,122.1,168.2,122.1z M109.3,123.1
		H54.7l54.6-77C109.3,46.2,109.3,123.1,109.3,123.1z"/>
</g>
</svg>
