<?xml version="1.0" encoding="utf-8"?>
<!-- Generator: Adobe Illustrator 26.0.0, SVG Export Plug-In . SVG Version: 6.00 Build 0)  -->
<svg version="1.1" id="Layer_1" xmlns="http://www.w3.org/2000/svg" xmlns:xlink="http://www.w3.org/1999/xlink" x="0px" y="0px"
	 viewBox="0 0 200 200" style="enable-background:new 0 0 200 200;" xml:space="preserve">
<g>
	<path id="path1" class="primary" d="M111.57,43.06c-0.2-0.73-0.61-1.37-1.24-1.94c-0.63-0.56-1.51-0.84-2.63-0.84H92.99c-1.13,0-2,0.28-2.63,0.84
		s-1.04,1.21-1.24,1.94l-23.35,63.79c-0.07,0.26-0.1,0.56-0.1,0.89c0,0.53,0.21,1.01,0.65,1.44c0.43,0.43,0.91,0.65,1.44,0.65h12.22
		c1.13,0,1.92-0.25,2.38-0.75s0.76-0.94,0.89-1.34l3.78-10.13h26.53l3.88,10.13c0.13,0.4,0.45,0.84,0.94,1.34s1.24,0.75,2.24,0.75
		h12.22c0.6,0,1.11-0.21,1.54-0.65c0.43-0.43,0.65-0.91,0.65-1.44c0-0.33-0.07-0.63-0.2-0.89L111.57,43.06z M91.1,83.31l9.24-26.23
		l9.24,26.23H91.1z"/>
	<g>
		<path id="path2" class="primary" d="M169.22,79.83c0-38.23-30.99-69.22-69.22-69.22c-38.23,0-69.22,30.99-69.22,69.22c0,14.14,4.26,27.27,11.53,38.23h-0.03
			l0.13,0.17c1.58,2.37,3.33,4.6,5.19,6.75L100,193.16l52.38-68.18c1.86-2.15,3.62-4.39,5.2-6.77l0.13-0.17h-0.03
			C164.96,107.1,169.22,93.96,169.22,79.83 M100,143.47c-34.61,0-62.67-28.06-62.67-62.67c0-34.61,28.06-62.67,62.67-62.67
			c34.61,0,62.67,28.06,62.67,62.67C162.67,115.41,134.61,143.47,100,143.47"/>
	</g>
</g>
</svg>
