<?xml version="1.0" encoding="utf-8"?>
<!-- Generator: Adobe Illustrator 26.0.2, SVG Export Plug-In . SVG Version: 6.00 Build 0)  -->
<svg version="1.1" id="Layer_1" xmlns="http://www.w3.org/2000/svg" xmlns:xlink="http://www.w3.org/1999/xlink" x="0px" y="0px"
	 viewBox="0 0 200 200" style="enable-background:new 0 0 200 200;" xml:space="preserve">
	 <style type="text/css">
			 .primary{fill:#000000;}
	 </style>
<g>
	<path id="path1" class="primary" d="M127.6,17.4c-0.5-1.9-1.6-3.5-3.2-5c-1.6-1.4-3.9-2.2-6.8-2.2H79.9c-2.9,0-5.1,0.7-6.8,2.2s-2.7,3.1-3.2,5
		l-60,163.9c-0.2,0.7-0.3,1.4-0.3,2.3c0,1.4,0.5,2.6,1.7,3.7c1.1,1.1,2.3,1.7,3.7,1.7h31.4c2.9,0,4.9-0.6,6.1-1.9
		c1.2-1.3,2-2.4,2.3-3.4l9.7-26h68.2l10,26c0.3,1,1.2,2.2,2.4,3.4c1.3,1.3,3.2,1.9,5.8,1.9h31.4c1.5,0,2.9-0.5,4-1.7
		c1.1-1.1,1.7-2.3,1.7-3.7c0-0.8-0.2-1.6-0.5-2.3L127.6,17.4z M75,120.9l23.7-67.4l23.7,67.4H75z"/>
</g>
</svg>
