<?xml version="1.0" encoding="utf-8"?>
<!-- Generator: Adobe Illustrator 26.0.2, SVG Export Plug-In . SVG Version: 6.00 Build 0)  -->
<svg version="1.1" id="Layer_1" xmlns="http://www.w3.org/2000/svg" xmlns:xlink="http://www.w3.org/1999/xlink" x="0px" y="0px"
	 viewBox="0 0 200 200" style="enable-background:new 0 0 200 200;" xml:space="preserve">
<g>
	<path id="number" d="M155,13L123.3,46l-0.9-32.9H80.7V46L45.7,13L18.9,39.3l61.8,69.1V188h41.1l0.3-79.5L184,39.3L155,13z
		 M49.1,48.7L38.3,36.9l3.9-3l10.9,11.8L49.1,48.7z M68,69.9L57.1,58.1l3.9-3l10.8,11.8L68,69.9z M85.9,91.6L75.7,79.2l4.1-2.8
		L90,88.7L85.9,91.6z M98.7,25.7h5.2v15.4h-5.2V25.7z M104.1,180.5h-5.2v-15.4h5.2V180.5z M104.1,153.1h-5.2v-15.4h5.2V153.1z
		 M104.1,124.9h-5.2v-15.4h5.2V124.9z M104.1,96.2h-5.2V80.8h5.2V96.2z M104.1,67.9h-5.2V52.5h5.2V67.9z M116.4,91l-4.1-2.8
		l10.1-12.3l4.1,2.8L116.4,91z M135.1,69.1l-3.9-3L142,54.3l3.9,3L135.1,69.1z M150,44.1l10.8-11.8l3.9,3l-10.8,11.8L150,44.1z"/>
</g>
</svg>
