<?xml version="1.0" encoding="utf-8"?>
<!-- Generator: Adobe Illustrator 26.0.2, SVG Export Plug-In . SVG Version: 6.00 Build 0)  -->
<svg version="1.1" id="Layer_1" xmlns="http://www.w3.org/2000/svg" xmlns:xlink="http://www.w3.org/1999/xlink" x="0px" y="0px"
	 viewBox="0 0 200 200" style="enable-background:new 0 0 200 200;" xml:space="preserve">
	 <style type="text/css">
	     .primary{fill:#000000;}
	 </style>
<g>
	<path id="path2" class="primary" d="M12,17.3c0,0,0.3,14.5,1.9,22.8c0,0,25.9-22,45.1-25.9C59.1,14.3,31.5,14.3,12,17.3z"/>
	<path id="path3" class="primary" d="M15.7,46.2c0,0,6.7,20.2,9.8,22.8c0,0,17.3-36.2,49.9-54.7h-8.4C67.1,14.3,30.6,29.7,15.7,46.2z"/>
	<path id="path4" class="primary" d="M82.4,14.3h12.1c0,0-34,61.2-35.4,86.1c0,0-19.5-12.5-27.2-22.8C31.9,77.5,57.5,26.1,82.4,14.3z"/>
	<path id="path5" class="primary" d="M100.5,14.3h17.1l11.9,91.5c0,0-18,6.7-56.8,0C72.7,105.7,73.6,67.3,100.5,14.3z"/>
	<path id="path6" class="primary" d="M123.7,14.3h12.6c0,0,22.1,30.1,34.1,63.8c0,0-18.7,19.8-30.1,22.3L123.7,14.3z"/>
	<path id="path7" class="primary" d="M143.6,14.3c0,0,26.9-0.2,46.4,10.6c0,0-2,27.5-9.8,39.2C180.2,64,158.3,24.5,143.6,14.3z"/>
</g>
</svg>
