<?xml version="1.0" encoding="utf-8"?>
<!-- Generator: Adobe Illustrator 26.0.2, SVG Export Plug-In . SVG Version: 6.00 Build 0)  -->
<svg version="1.1" id="Layer_1" xmlns="http://www.w3.org/2000/svg" xmlns:xlink="http://www.w3.org/1999/xlink" x="0px" y="0px"
	 viewBox="0 0 200 200" style="enable-background:new 0 0 200 200;" xml:space="preserve">
	 <style type="text/css">
	     .primary{fill:#000000;}
	 </style>
<g>
	<g>
		<path id="path2" class="primary" d="M151.3,105.3L117.7,132c-3.5,2.7-8.7,0.3-8.7-4.2v-9c0-2.9-1.9-5.4-4.8-5.4H50.9c-2.9,0-5.2-2.1-5.2-5V94.5
			c0-2.8,2.4-5.2,5.2-5.2h53.4c2.9,0,4.8-2.3,4.8-5.1v-9c0-4.3,5.2-6.8,8.6-4.1l33.5,26.1C154,99.1,154,103.2,151.3,105.3z"/>
	</g>
	<g>
		<path id="path3" class="primary" d="M13.3,84.6l71.5-71.5c8.7-8.7,22.7-8.7,31.4,0l71.5,71.5c8.7,8.7,8.7,22.7,0,31.4l-71.5,71.5
			c-8.7,8.7-22.7,8.7-31.4,0L13.3,116c-4.3-4.3-6.5-10-6.5-15.7S8.9,88.9,13.3,84.6z M181.3,91l-71.5-71.5c-5.1-5.1-13.5-5.1-18.6,0
			L19.7,91c-5.1,5.1-5.1,13.5,0,18.6l71.5,71.5c5.1,5.1,13.5,5.1,18.6,0l71.5-71.5c2.6-2.6,3.8-5.9,3.8-9.3
			C185.1,96.9,183.9,93.5,181.3,91z"/>
	</g>
</g>
</svg>
