<?xml version="1.0" encoding="utf-8"?>
<!-- Generator: Adobe Illustrator 26.0.2, SVG Export Plug-In . SVG Version: 6.00 Build 0)  -->
<svg version="1.1" id="Layer_1" xmlns="http://www.w3.org/2000/svg" xmlns:xlink="http://www.w3.org/1999/xlink" x="0px" y="0px"
	 viewBox="0 0 200 200" style="enable-background:new 0 0 200 200;" xml:space="preserve">
	 <style type="text/css">
	     .primary{fill:#000000;}
	 </style>
<g>
	<g>
		<path id="path2" class="primary" d="M106,150.6l26.5-33.3c2.7-3.4,0.3-8.6-4.1-8.6h-8.9c-2.8,0-5.3-1.9-5.3-4.7V51.1c0-2.8-2.1-5.2-5-5.2H95.3
			c-2.7,0-5.2,2.3-5.2,5.2V104c0,2.8-2.2,4.7-5.1,4.7h-8.9c-4.3,0-6.7,5.2-4,8.5l25.8,33.2C99.9,153.1,103.9,153.2,106,150.6z"/>
	</g>
	<g>
		<path id="path3" class="primary" d="M101,7.4c5.6,0,11.3,2.1,15.6,6.4l70.8,70.8c8.6,8.6,8.6,22.5,0,31.1l-70.8,70.8c-8.6,8.6-22.5,8.6-31.1,0
			l-70.8-70.8c-8.6-8.6-8.6-22.5,0-31.1l70.8-70.8C89.8,9.5,95.4,7.4,101,7.4z M101,184c3.3,0,6.7-1.3,9.2-3.8l70.8-70.8
			c5.1-5.1,5.1-13.4,0-18.5l-70.8-70.8c-5.1-5.1-13.4-5.1-18.5,0L21,90.9c-5.1,5.1-5.1,13.4,0,18.5l70.8,70.8
			C94.4,182.8,97.7,184,101,184z"/>
	</g>
</g>
</svg>
