<?xml version="1.0" encoding="utf-8"?>
<!-- Generator: Adobe Illustrator 26.0.2, SVG Export Plug-In . SVG Version: 6.00 Build 0)  -->
<svg version="1.1" id="Layer_1" xmlns="http://www.w3.org/2000/svg" xmlns:xlink="http://www.w3.org/1999/xlink" x="0px" y="0px"
	 viewBox="0 0 200 200" style="enable-background:new 0 0 200 200;" xml:space="preserve">
	 <style type="text/css">
	     .primary{fill:#000000;}
	 </style>
<g>
	<g>
		<path id="path2" class="primary" d="M106.1,48.1l27.2,34.1c2.7,3.5,0.3,8.8-4.2,8.8h-9.1c-2.9,0-5.5,1.9-5.5,4.9v54.3c0,2.9-2.1,5.3-5.1,5.3H95
			c-2.8,0-5.3-2.4-5.3-5.3V95.9c0-2.9-2.3-4.9-5.2-4.9h-9.1c-4.4,0-6.9-5.3-4.1-8.7l26.4-34.1C99.8,45.5,103.9,45.4,106.1,48.1z"/>
	</g>
	<g>
		<path id="path3" class="primary" d="M85,188.4l-72.6-72.6c-8.8-8.8-8.8-23.1,0-31.9L85,11.2c8.8-8.8,23.1-8.8,31.9,0l72.6,72.6
			c8.8,8.8,8.8,23.1,0,31.9l-72.6,72.6c-4.4,4.4-10.2,6.6-16,6.6C95.2,195,89.4,192.8,85,188.4z M91.5,17.7L18.9,90.3
			c-5.2,5.2-5.2,13.7,0,18.9l72.6,72.6c5.2,5.2,13.7,5.2,18.9,0l72.6-72.6c5.2-5.2,5.2-13.7,0-18.9l-72.6-72.6
			c-2.6-2.6-6-3.9-9.5-3.9C97.5,13.8,94.1,15.1,91.5,17.7z"/>
	</g>
</g>
</svg>
