<?xml version="1.0" encoding="utf-8"?>
<!-- Generator: Adobe Illustrator 26.0.0, SVG Export Plug-In . SVG Version: 6.00 Build 0)  -->
<svg version="1.1" id="Layer_1" xmlns="http://www.w3.org/2000/svg" xmlns:xlink="http://www.w3.org/1999/xlink" x="0px" y="0px"
	 viewBox="0 0 200 200" style="enable-background:new 0 0 200 200;" xml:space="preserve">
<g>
	<circle id="circle1" class="primary" cx="69.6" cy="128.98" r="13.16"/>
	<path id="path1" class="primary" d="M75.18,146.21H64.02c-6.7,0-12.13,5.43-12.13,12.13v29.51h35.42v-29.51C87.31,151.64,81.88,146.21,75.18,146.21z"/>
	<ellipse id="ellipse1" class="primary" cx="167.68" cy="128.98" rx="13.16" ry="13.16"/>
	<path id="path2" class="primary" d="M173.26,146.21H162.1c-6.7,0-12.13,5.43-12.13,12.13v29.51h35.42v-29.51C185.38,151.64,179.96,146.21,173.26,146.21z"/>
	<circle id="circle2" class="primary" cx="118.64" cy="103.26" r="18.91"/>
	<path id="path3" class="primary" d="M131.96,128.01h-26.63c-6.7,0-12.13,5.43-12.13,12.13v47.7h50.89v-47.71C144.08,133.44,138.65,128.01,131.96,128.01z"/>
	<path id="path4" class="primary" d="M116.14,65.16h-7.79c-1.13,0-1.69,1.37-0.9,2.16l10.29,10.29c0.5,0.5,1.3,0.5,1.79,0l10.29-10.29
		c0.8-0.79,0.23-2.16-0.89-2.16h-7.79V47.01c0-1.38-1.12-2.5-2.5-2.5h-27.2c-1.38,0-2.5,1.12-2.5,2.5c0,1.39,1.12,2.5,2.5,2.5h24.7
		L116.14,65.16L116.14,65.16z"/>
	<path id="path5" class="primary" d="M84.83,99.26v-74.9c0-2.88-2.35-5.23-5.23-5.23H67.82c-0.98-2.48-3.4-4.16-6.12-4.16h-5.26c-0.91-3.17-3.81-5.39-7.18-5.39
		c-3.38,0-6.28,2.22-7.19,5.39h-5.25c-2.73,0-5.15,1.68-6.13,4.16H18.93c-2.88,0-5.23,2.35-5.23,5.23v74.9
		c0,2.88,2.35,5.23,5.23,5.23H79.6C82.48,104.49,84.83,102.14,84.83,99.26z M49.48,14.44c1.88,0,3.41,1.53,3.41,3.42
		c0,1.88-1.53,3.41-3.41,3.41c-1.89,0-3.42-1.53-3.42-3.41C46.06,15.97,47.59,14.44,49.48,14.44z M79.49,99.15H19.04V25.01
		c0-0.3,0.24-0.54,0.54-0.54H30.4c0.37,0.97,1.31,1.66,2.41,1.66h32.9c1.08,0,2.01-0.67,2.39-1.66h11.39
		C79.49,24.47,79.49,99.15,79.49,99.15z"/>
	<path id="path6" class="primary" d="M25.7,38.69c0,1.51,1.23,2.74,2.75,2.74h41.64c1.51,0,2.74-1.23,2.74-2.74c0-1.52-1.23-2.75-2.74-2.75H28.45
		C26.93,35.94,25.7,37.17,25.7,38.69z"/>
	<path id="path7" class="primary" d="M70.09,51.72H28.45c-1.52,0-2.75,1.23-2.75,2.74c0,1.52,1.23,2.75,2.75,2.75h41.64c1.51,0,2.74-1.23,2.74-2.75
		C72.83,52.95,71.6,51.72,70.09,51.72z"/>
	<path id="path8" class="primary" d="M70.09,67.49H28.45c-1.52,0-2.75,1.24-2.75,2.75s1.23,2.75,2.75,2.75h41.64c1.51,0,2.74-1.24,2.74-2.75
		S71.6,67.49,70.09,67.49z"/>
	<path id="path9" class="primary" d="M70.09,83.27H28.45c-1.52,0-2.75,1.23-2.75,2.75c0,1.51,1.23,2.74,2.75,2.74h41.64c1.51,0,2.74-1.23,2.74-2.74
		C72.83,84.5,71.6,83.27,70.09,83.27z"/>
</g>
</svg>
