<?xml version="1.0" encoding="utf-8"?>
<!-- Generator: Adobe Illustrator 26.0.0, SVG Export Plug-In . SVG Version: 6.00 Build 0)  -->
<svg version="1.1" id="Layer_1" xmlns="http://www.w3.org/2000/svg" xmlns:xlink="http://www.w3.org/1999/xlink" x="0px" y="0px"
	 viewBox="0 0 200 200" style="enable-background:new 0 0 200 200;" xml:space="preserve">
<g>
	<path id="path1" class="primary" d="M62.41,188.6l-38.5-29.83c12.24-13.77,24.98-26.94,38.24-39.52c5.27-5.1,8.58-8.33,9.94-9.69
		c-4.25-0.68-16.4-3.48-36.46-8.41c-14.45-3.57-23.96-6.2-28.55-7.9l15.04-44.87c22.26,9.01,42.15,18.95,59.65,29.83
		c-4.08-27.7-6.12-50.31-6.12-67.81h45.38c0,12.41-2.29,35.18-6.88,68.32c3.4-1.36,10.71-4.67,21.92-9.94
		c15.3-6.97,29.4-12.92,42.32-17.85l13.51,46.14c-18.87,4.25-40.7,8.41-65.52,12.49l30.59,34.42c6.12,6.97,10.96,12.66,14.53,17.08
		l-39.01,25.75L98.1,129.96C87.73,148.32,75.83,167.87,62.41,188.6z"/>
</g>
</svg>
