<?xml version="1.0" encoding="utf-8"?>
<!-- Generator: Adobe Illustrator 26.0.2, SVG Export Plug-In . SVG Version: 6.00 Build 0)  -->
<svg version="1.1" id="Layer_1" xmlns="http://www.w3.org/2000/svg" xmlns:xlink="http://www.w3.org/1999/xlink" x="0px" y="0px"
	 viewBox="0 0 200 200" style="enable-background:new 0 0 200 200;" xml:space="preserve">
	 <style type="text/css">
	     .primary{fill:#000000;}
	 </style>
<g>
	<g>
		<path id="path1" class="primary" d="M68.6,45.2c0,2.7,2.2,5,5,5h75.5c2.7,0,5-2.2,5-5c0-2.7-2.2-5-5-5H73.6C70.9,40.2,68.6,42.4,68.6,45.2z"/>
	</g>
	<g>
		<path id="path2" class="primary" d="M68.6,77.1c0,2.7,2.2,5,5,5h75.5c2.7,0,5-2.2,5-5s-2.2-5-5-5H73.6C70.9,72.1,68.6,74.4,68.6,77.1z"/>
	</g>
	<g>
		<path id="path3" class="primary" d="M154.1,109.1c0,2.7-2.2,5-5,5h-39.7c-1.5-3.6-3.6-6.9-6-10h45.7C151.9,104.1,154.1,106.4,154.1,109.1z"/>
	</g>
	<g>
		<path id="path4" class="primary" d="M154.1,141.1c0,2.7-2.2,5-5,5h-37.9c1-3.2,1.7-6.5,1.9-10h36C151.9,136.1,154.1,138.3,154.1,141.1z"/>
	</g>
</g>
<g>
	<path id="path5" class="primary" d="M162.3,12.3H60.5c-10.4,0-18.8,8.4-18.8,18.8v63.6c-12,8.2-19.9,22.1-19.9,37.8c0,11,3.9,21.2,10.5,29.1
		c-0.2,0.2-0.5,0.5-0.7,0.7l-18.3,21.4c-2,2.4-1.8,6,0.6,8c1.1,0.9,2.4,1.4,3.7,1.4c1.6,0,3.2-0.7,4.3-2l18.3-21.4
		c0.1-0.1,0.2-0.2,0.2-0.4c7.6,5.6,17,8.9,27.1,8.9c8.1,0,15.7-2.1,22.3-5.8h72.3c10.4,0,18.8-8.4,18.8-18.8V31.1
		C181,20.7,172.6,12.3,162.3,12.3z M33.2,132.4c0-19,15.4-34.4,34.4-34.4c19,0,34.4,15.4,34.4,34.4s-15.4,34.4-34.4,34.4
		C48.6,166.9,33.2,151.4,33.2,132.4z M170.1,153.6c0,4.3-3.5,7.9-7.9,7.9h-59.3c3.7-4.5,6.6-9.7,8.3-15.4c1-3.2,1.7-6.5,1.9-10
		c0.1-1.2,0.2-2.4,0.2-3.7c0-6.5-1.4-12.7-3.9-18.3c-1.5-3.6-3.6-6.9-6-10c-8.4-10.6-21.4-17.5-36-17.5c-5.2,0-10.2,0.9-14.9,2.5
		V31.1c0-4.3,3.5-7.9,7.9-7.9h101.7c4.3,0,7.9,3.5,7.9,7.9V153.6z"/>
</g>
</svg>
