<?xml version="1.0" encoding="utf-8"?>
<!-- Generator: Adobe Illustrator 26.0.0, SVG Export Plug-In . SVG Version: 6.00 Build 0)  -->
<svg version="1.1" id="Layer_1" xmlns="http://www.w3.org/2000/svg" xmlns:xlink="http://www.w3.org/1999/xlink" x="0px" y="0px"
	 viewBox="0 0 200 200" style="enable-background:new 0 0 200 200;" xml:space="preserve">

	 <style type="text/css">
	     .primary{fill:#000000;}
	     .pinFill{fill:#FFFFFF;}
	 </style>
	 <g>
	 	<path id="pin" class="primary" d="M169.2,79.8c0-38.2-31-69.2-69.2-69.2s-69.2,31-69.2,69.2c0,14.1,4.3,27.3,11.5,38.2h0l0.1,0.2
	 		c1.6,2.4,3.3,4.6,5.2,6.8l52.4,68.2l52.4-68.2c1.9-2.2,3.6-4.4,5.2-6.8l0.1-0.2h0C165,107.1,169.2,94,169.2,79.8L169.2,79.8z"/>
	 	<path id="pinFill" class="pinFill" d="M100,143.5c-34.6,0-62.7-28.1-62.7-62.7S65.4,18.1,100,18.1s62.7,28.1,62.7,62.7
	 		S134.6,143.5,100,143.5L100,143.5z"/>
	 </g>
	 <g>
	 	<g>
	 		<path id="path1" class="primary" d="M87.79,54.49c0,1.21,0.98,2.19,2.2,2.19h33.28c1.21,0,2.19-0.98,2.19-2.19s-0.98-2.2-2.19-2.2H89.99
	 			C88.77,52.29,87.79,53.27,87.79,54.49z"/>
	 	</g>
	 	<g>
	 		<path id="path2" class="primary" d="M87.79,68.58c0,1.21,0.98,2.19,2.2,2.19h33.28c1.21,0,2.19-0.98,2.19-2.19s-0.98-2.2-2.19-2.2H89.99
	 			C88.77,66.38,87.79,67.36,87.79,68.58z"/>
	 	</g>
	 	<g>
	 		<path id="path3" class="primary" d="M125.46,82.67c0,1.2-0.98,2.19-2.19,2.19h-17.48c-0.68-1.58-1.57-3.05-2.63-4.39h20.11
	 			C124.48,80.47,125.46,81.45,125.46,82.67z"/>
	 	</g>
	 	<g>
	 		<path id="path4" class="primary" d="M125.46,96.76c0,1.2-0.98,2.19-2.19,2.19h-16.7c0.45-1.4,0.73-2.87,0.85-4.39h15.85
	 			C124.48,94.56,125.46,95.54,125.46,96.76z"/>
	 	</g>
	 </g>
	 <g>
	 	<path id="path5" class="primary" d="M129.03,40.01H84.21c-4.56,0-8.27,3.71-8.27,8.27v28.03c-5.3,3.63-8.78,9.73-8.78,16.63c0,4.86,1.73,9.33,4.61,12.82
	 		c-0.11,0.1-0.22,0.2-0.32,0.32l-8.05,9.41c-0.9,1.05-0.78,2.63,0.27,3.53c0.47,0.4,1.05,0.6,1.62,0.6c0.71,0,1.41-0.3,1.9-0.88
	 		l8.06-9.41c0.04-0.05,0.08-0.1,0.11-0.16c3.35,2.48,7.49,3.94,11.96,3.94c3.57,0,6.93-0.93,9.84-2.57h31.87
	 		c4.57,0,8.28-3.71,8.28-8.27V48.28C137.31,43.72,133.6,40.01,129.03,40.01z M72.16,92.94c0-8.36,6.8-15.16,15.16-15.16
	 		c8.37,0,15.17,6.8,15.17,15.16s-6.8,15.17-15.17,15.17C78.96,108.11,72.16,101.3,72.16,92.94z M132.5,102.27
	 		c0,1.91-1.56,3.46-3.47,3.46H102.9c1.63-1.98,2.89-4.28,3.67-6.78c0.45-1.4,0.73-2.87,0.85-4.39c0.05-0.53,0.07-1.07,0.07-1.62
	 		c0-2.87-0.6-5.61-1.7-8.08c-0.68-1.58-1.57-3.05-2.63-4.39c-3.7-4.68-9.42-7.69-15.84-7.69c-2.3,0-4.51,0.39-6.57,1.1v-25.6
	 		c0-1.91,1.55-3.46,3.46-3.46h44.82c1.91,0,3.47,1.55,3.47,3.46V102.27z"/>
	 </g>
	 </svg>
