<?xml version="1.0" encoding="utf-8"?>
<!-- Generator: Adobe Illustrator 26.0.2, SVG Export Plug-In . SVG Version: 6.00 Build 0)  -->
<svg version="1.1" id="Layer_1" xmlns="http://www.w3.org/2000/svg" xmlns:xlink="http://www.w3.org/1999/xlink" x="0px" y="0px"
	 viewBox="0 0 200 200" style="enable-background:new 0 0 200 200;" xml:space="preserve">
<g>
	<path id="number" class="primary" d="M36.2,191c-1.9,0-3.4-0.6-4.6-1.9c-1.2-1.3-1.8-2.8-1.8-4.5V17.4c0-1.9,0.6-3.4,1.8-4.6
		c1.2-1.2,2.7-1.8,4.6-1.8h78.5c14.8,0,26.8,2,36.3,6.2c9.4,4.1,16.4,10,21,17.6c4.5,7.6,6.8,16.7,6.8,27.1c0,6.2-1.2,11.6-3.5,16.3
		c-2.3,4.7-5.2,8.6-8.5,11.7c-3.3,3.1-6.5,5.3-9.4,6.7c6.5,3.1,12.3,8.2,17.4,15.2c5,7,7.6,15.3,7.6,24.7c0,11.3-2.5,21-7.6,29.2
		c-5,8.2-12.4,14.4-22.1,18.8c-9.7,4.4-21.6,6.5-35.6,6.5L36.2,191L36.2,191z M76,82.4h33.4c7,0,12.3-1.8,15.8-5.5
		c3.5-3.7,5.3-8.3,5.3-13.8c0-5.5-1.8-10-5.3-13.5c-3.5-3.5-8.8-5.3-15.8-5.3H76V82.4z M76,157.6h35.8c7.4,0,12.9-2.1,16.7-6.4
		c3.8-4.3,5.7-9.2,5.7-14.7c0-6-1.9-11.1-5.8-15.2c-3.9-4.1-9.4-6.2-16.6-6.2H76V157.6z"/>
</g>
</svg>
