<?xml version="1.0" encoding="utf-8"?>
<!-- Generator: Adobe Illustrator 26.0.2, SVG Export Plug-In . SVG Version: 6.00 Build 0)  -->
<svg version="1.1" id="Layer_1" xmlns="http://www.w3.org/2000/svg" xmlns:xlink="http://www.w3.org/1999/xlink" x="0px" y="0px"
	 viewBox="0 0 200 200" style="enable-background:new 0 0 200 200;" xml:space="preserve">
	 <style type="text/css">
	     .primary{fill:#000000;}
	 </style>
<g>
	<path id="path2" class="primary" d="M139.2,125.3h-77c-8.2,0-14.8,6.7-14.8,14.8c0,8.2,6.7,14.8,14.8,14.8h77c8.2,0,14.8-6.7,14.8-14.8
		C154.1,132,147.4,125.3,139.2,125.3z M139.2,148.1h-77c-4.4,0-7.9-3.5-7.9-7.9s3.5-7.9,7.9-7.9h77c4.4,0,7.9,3.5,7.9,7.9
		S143.6,148.1,139.2,148.1z"/>
	<path id="path3" class="primary" d="M189.6,151.6l-39.5-39.5c0.3-1.1,0.5-2.2,0.5-3.4c0-6.3-5.1-11.4-11.4-11.4H80.4l72.5-37.7c2-1,3-3.3,2.5-5.4
		c-0.5-2.2-2.5-3.7-4.7-3.7H72.4l0.6-4.7c0.6-4.7-3.1-8.9-7.9-8.9H49.3c-4.8,0-8.4,4.1-7.9,8.9l2.2,17.9c0.5,4,3.9,7,7.8,7H63
		c4,0,7.4-3,7.8-7l0.4-3.5h59.7L57.8,98.2l0,0l-1.3,0.7c-0.2,0.1-0.4,0.2-0.6,0.4c-0.6,0.4-1.2,0.9-1.7,1.4c-2.1,2.1-3.3,4.9-3.3,8
		c0,0.7,0.1,1.3,0.2,2l-40.9,40.9c-1,1-1,2.7,0,3.7c0.5,0.5,1.2,0.8,1.8,0.8c0.7,0,1.3-0.2,1.8-0.8l39.6-39.6
		c2.1,2.6,5.3,4.3,8.9,4.3h77c3.1,0,6-1.3,8.1-3.3c0,0,0,0,0,0l38.6,38.6c0.5,0.5,1.2,0.8,1.8,0.8c0.7,0,1.3-0.2,1.8-0.8
		C190.6,154.2,190.6,152.6,189.6,151.6z"/>
</g>
</svg>
