<?xml version="1.0" encoding="utf-8"?>
<!-- Generator: Adobe Illustrator 26.0.2, SVG Export Plug-In . SVG Version: 6.00 Build 0)  -->
<svg version="1.1" id="Layer_1" xmlns="http://www.w3.org/2000/svg" xmlns:xlink="http://www.w3.org/1999/xlink" x="0px" y="0px"
	 viewBox="0 0 200 200" style="enable-background:new 0 0 200 200;" xml:space="preserve">
	 <style type="text/css">
	     .primary{fill:#000000;}
	 </style>
<path id="path2" class="primary" d="M138,103.8c-1.7,0-3.1-1.2-3.4-2.9c-0.3-1.9,0.9-3.7,2.8-4l46.8-8.1c1.9-0.3,3.7,0.9,4,2.8
	c0.3,1.9-0.9,3.7-2.8,4l-46.8,8.1C138.4,103.8,138.2,103.8,138,103.8"/>
<path id="path3" class="primary" d="M133.4,93.9c-0.9,0-1.9-0.4-2.6-1.1c-1.3-1.4-1.2-3.6,0.2-4.9l31.1-28.5c1.4-1.3,3.6-1.2,4.9,0.2
	c1.3,1.4,1.2,3.6-0.2,4.9L135.8,93C135.1,93.6,134.2,93.9,133.4,93.9"/>
<path id="path4" class="primary" d="M171.6,133.1c-0.5,0-1-0.1-1.5-0.3L133.2,115c-1.7-0.8-2.5-2.9-1.6-4.7c0.8-1.7,2.9-2.5,4.7-1.6l36.9,17.7
	c1.7,0.8,2.5,2.9,1.6,4.7C174.2,132.3,172.9,133.1,171.6,133.1"/>
<path id="path5" class="primary" d="M123.7,90.9l1.5-17.8c0.4-5.1-4.6-9-9.5-7.3L72.8,81.1c-3.9-10.9-15.9-16.5-26.7-12.6l-4.9,1.7L27.6,59.8
	c-4.7-3.6-11.3,0.7-9.9,6.5l2.8,11.4c-6,2.2-9.2,8.9-7,15l16.4,45.8c2.2,6.1,8.9,9.3,15,7.1l38.1-13.7l29.8-1
	c2.9-0.1,5.5-1.9,6.6-4.6l3.7-9.2c1-2.6-0.9-5.5-3.8-5.4l-35.3,1.1l-0.3-0.9l33-11.8C120.7,98.6,123.4,95,123.7,90.9"/>
</svg>
