<?xml version="1.0" encoding="utf-8"?>
<!-- Generator: Adobe Illustrator 26.0.2, SVG Export Plug-In . SVG Version: 6.00 Build 0)  -->
<svg version="1.1" id="Layer_1" xmlns="http://www.w3.org/2000/svg" xmlns:xlink="http://www.w3.org/1999/xlink" x="0px" y="0px"
	 viewBox="0 0 200 200" style="enable-background:new 0 0 200 200;" xml:space="preserve">
	 <style type="text/css">
	     .primary{fill:#000000;}
	 </style>
<path id="path2" class="primary" d="M187.2,94.8c0-9.1-5.2-17-12.8-20.9c0.9-2.5,1.4-5.2,1.4-8c0-12.9-10.5-23.4-23.4-23.4c-2.4,0-4.7,0.4-6.9,1
	c-5.1-10.7-16-18.1-28.7-18.1c-3,0-5.8,0.4-8.6,1.2c-5.5-9.5-15.8-15.9-27.5-15.9c-14.2,0-26.3,9.4-30.3,22.2
	c-7.6,2.2-13.7,7.9-16.5,15.2C22.1,52.6,13.7,63.8,13.7,77c0,12.9,7.8,23.8,19,28.5c-0.4,2-0.7,4.1-0.7,6.3
	c0,17,13.8,30.9,30.9,30.9c6.8,0,13.1-2.2,18.2-5.9l10.8,14L87.5,192h26.9c0,0-4.1-31.9-4.8-38.5c6.9-6.9,10.9-10.9,13.3-13.2
	c5.7,5.2,13.1,8.3,21.4,8.3c17.6,0,31.8-14.2,31.8-31.8c0-0.7-0.1-1.4-0.1-2C182.7,110.6,187.2,103.3,187.2,94.8z M84.6,51.8
	l-6.3,6.7l-1.4-2.2L84.6,51.8z M84.5,61.2l-5.7,3.3l0.3-3.3C78.2,60.5,84.5,61.2,84.5,61.2z M67.6,54.6c4.1-1,8.2,1.6,9.2,5.7
	s-1.6,8.2-5.7,9.2s-8.2-1.6-9.2-5.7C60.9,59.7,63.5,55.6,67.6,54.6z M69.2,71.5c3.8,0,7.1,1.8,8.6,4.4H60.6
	C62.1,73.4,65.4,71.5,69.2,71.5z M70.2,105.4c-13.9,0-25.3-11.4-26.5-24.3c-0.1-1.3,0.9-2.4,2.2-2.4h47.7c1.8,0,3.3,1.6,3,3.5
	C94.8,94.7,83.7,105.4,70.2,105.4z M96.2,146.6l-9.7-14.7c2.5-3,4.5-6.5,5.8-10.3l8.2,13.9L96.2,146.6z M111,118.7l-4.3,13
	l-6.3-10.5C104.2,120.9,107.7,120.1,111,118.7z M106.8,148.6l7.5-21.4c1.1,3.1,2.6,6,4.5,8.5L106.8,148.6z"/>
</svg>
