<?xml version="1.0" encoding="utf-8"?>
<!-- Generator: Adobe Illustrator 26.0.0, SVG Export Plug-In . SVG Version: 6.00 Build 0)  -->
<svg version="1.1" id="Layer_1" xmlns="http://www.w3.org/2000/svg" xmlns:xlink="http://www.w3.org/1999/xlink" x="0px" y="0px"
	 viewBox="0 0 200 200" style="enable-background:new 0 0 200 200;" xml:space="preserve">
<path id="path" class="primary" d="M177.15,109.26c-3.9-1.95-11.23-2.69-19.94-3.6l-0.12,4.25c1.24,1.22,2.2,3.39,2.26,4.78
	c0.1,2.05-1.49,3.79-3.53,3.89c-2.05,0.1-3.79-1.49-3.89-3.53c-0.07-1.44,0.57-3.76,1.66-5.08l0.14-4.68
	c-3.92-0.42-8.05-0.92-12.23-1.59l-0.14,4.9c1.21,1.28,2.07,3.58,2.05,5.02c-0.03,2.05-1.72,3.69-3.77,3.66
	c-2.05-0.03-3.69-1.72-3.66-3.77c0.02-1.4,0.77-3.59,1.88-4.85l0.16-5.55c-4.14-0.77-8.27-1.74-12.24-3.02l-0.37,5.17
	c1.14,1.43,1.56,4.29,1.17,5.84c-0.5,1.99-2.52,3.2-4.51,2.7c-1.99-0.5-3.2-2.52-2.7-4.51c0.3-1.22,1.33-2.94,2.53-3.99l0.46-6.41
	c-3.04-1.16-5.95-2.53-8.66-4.17l-2.79,6.13c0.75,1.61,0.78,4.16,0.25,5.53c-0.73,1.91-2.88,2.88-4.8,2.14
	c-1.92-0.73-2.88-2.88-2.14-4.8c0.48-1.26,1.85-2.99,3.28-3.83l3.24-7.14c-1.93-1.41-3.64-3.05-5.15-4.86l-5.61,6.47
	c0.03,1.56-0.41,3.33-1.04,4.3c-1.12,1.72-3.42,2.21-5.14,1.1c-1.72-1.12-2.21-3.42-1.1-5.14c0.94-1.45,3.45-3.35,5.26-3.27
	l5.48-6.33c-1.13-1.69-2.12-3.48-3-5.33l-8.01,3.34c-0.28,1.81-2.12,4.06-3.54,4.82c-1.81,0.97-4.06,0.29-5.03-1.52
	c-0.97-1.81-0.28-4.06,1.53-5.03c0.99-0.53,2.65-0.89,4.12-0.83l9.55-3.99c-1.11-2.87-1.97-5.85-2.63-8.82l-9.19,2.62
	c-0.69,1.49-2.05,2.99-3.16,3.58c-1.81,0.97-4.06,0.28-5.03-1.53c-0.97-1.81-0.29-4.06,1.53-5.03c1.44-0.77,4.31-1.21,5.92-0.45
	l9.24-2.64c-0.57-3.26-0.93-6.45-1.14-9.4l-9.37,1.43c-1.12,1.44-3.77,2.53-5.36,2.53c-2.05,0-3.71-1.66-3.71-3.72
	c0-2.05,1.66-3.71,3.71-3.71c1.26,0,3.19,0.57,4.5,1.49l10.04-1.53c-0.27-7.19,0.25-12.28,0.25-12.28s-26.81,4.37-71.41,0.29
	c2.62,20.11-10.49,50.42-10.49,90.35c0,5.81,0,8.58,0,9.82l-0.1,0l0.39,20.35h10.49v-11.62l4.37,0.08v11.39h10.49v-11.19l4.37,0.08
	v10.97h10.49v-10.77l4.37,0.08v10.9l10.55-1.15l-0.03-9.56h26.66v9.56l10.49,1.08v-6.22c0.01,0,0.02,0,0.03,0
	c0.36,0.03,0.74,0.05,1.12,0.06c0.52,0.02,1.04,0.04,1.61,0.04c0.81,0,1.6-0.01,2.4-0.02v6.28h11.15v-6.59c0.02,0,0.04,0,0.06,0
	c1.56-0.07,3.09-0.16,4.61-0.25v6.99h10.49v-7.84c0.05,0,0.1-0.01,0.14-0.02c1.5-0.15,2.97-0.31,4.41-0.47
	c0.03,0,0.07-0.01,0.11-0.01v8.04h10.49v-9.43c1.58-0.24,3.12-0.49,4.61-0.74c0.02,0,0.04-0.01,0.05-0.01v9.59l10.49-1.98v-9.58
	c0.74-0.15,1.47-0.31,2.17-0.46c0.01,0,0.02,0,0.03-0.01c0.69-0.15,1.37-0.3,2.02-0.45v9.17l14.57-2.97v-10.05v-5.5v-5.57
	C185.89,131.71,187.64,114.51,177.15,109.26z"/>
</svg>
