<?xml version="1.0" encoding="utf-8"?>
<!-- Generator: Adobe Illustrator 26.0.2, SVG Export Plug-In . SVG Version: 6.00 Build 0)  -->
<svg version="1.1" id="Layer_1" xmlns="http://www.w3.org/2000/svg" xmlns:xlink="http://www.w3.org/1999/xlink" x="0px" y="0px"
	 viewBox="0 0 200 200" style="enable-background:new 0 0 200 200;" xml:space="preserve">
<polygon id="polygon1" points="96.9,45.3 96.9,23.2 30.5,23.2 30.5,45.3 47.7,45.3 47.7,72.4 30.5,72.4 30.5,94.5 40.3,94.5 
	40.3,170.7 84.6,170.7 84.6,94.5 96.9,94.5 96.9,72.4 77.2,72.4 77.2,45.3 "/>
<path id="path2" d="M129.9,170.1l22.5-48.6c6.5,0.1,10.2-3.8,12.6-9c2.8-6.1,1-13.2-3.5-17.6l-6.3,13.6l-13.5-6.2l5.7-12.4
	c-3.8,1.2-10.2,3.6-12.5,8.7c-2.4,5.3-0.3,11.8,1.3,15.5l-22.5,48.6c-3.8,1.1-10.3,3.7-12.8,8.9c-2.9,6.3-0.9,13.6,3.7,17.9l6-13
	l13.5,6.2l-5.2,11.4c6.5,0,9.9-3.7,12.1-8.5C133.4,180.2,134.2,174.9,129.9,170.1"/>
<path id="path3" d="M121.5,57.6c0,4.9-4,8.9-8.9,8.9c-4.9,0-8.9-4-8.9-8.9s4-8.9,8.9-8.9C117.5,48.7,121.5,52.7,121.5,57.6"/>
<path id="path4" d="M139.3,39.5c0,4.9-4,8.9-8.9,8.9c-4.9,0-8.9-4-8.9-8.9c0-4.9,4-8.9,8.9-8.9C135.3,30.5,139.3,34.5,139.3,39.5"/>
<path id="path5" d="M148.2,64.4c0,4.9-4,8.9-8.9,8.9s-8.9-4-8.9-8.9c0-4.9,4-8.9,8.9-8.9S148.2,59.5,148.2,64.4"/>
<path id="path6" d="M164.6,46c0,4.9-4,8.9-8.9,8.9s-8.9-4-8.9-8.9c0-4.9,4-8.9,8.9-8.9S164.6,41,164.6,46"/>
<path id="path7" d="M171.9,73.4c0,4.9-4,8.9-8.9,8.9s-8.9-4-8.9-8.9c0-4.9,4-8.9,8.9-8.9S171.9,68.4,171.9,73.4"/>
<path id="path8" d="M154,19.2c0,4.9-4,8.9-8.9,8.9s-8.9-4-8.9-8.9c0-4.9,4-8.9,8.9-8.9C150.1,10.3,154,14.3,154,19.2"/>
</svg>
