<?xml version="1.0" encoding="utf-8"?>
<!-- Generator: Adobe Illustrator 26.0.2, SVG Export Plug-In . SVG Version: 6.00 Build 0)  -->
<svg version="1.1" id="Layer_1" xmlns="http://www.w3.org/2000/svg" xmlns:xlink="http://www.w3.org/1999/xlink" x="0px" y="0px"
	 viewBox="0 0 200 200" style="enable-background:new 0 0 200 200;" xml:space="preserve">
<path id="path2" d="M24.9,145.3h155.7c0,0,23.7-13.9,2.7-44.1c0,0,1.2-25.9-12.2-27.6c0,0,3.8-29.7-20.6-29.7c0.3,0-3.8-6.3-4.1-6.7
	c-6.2-6-18.5-9.1-25.4-2.7c-2.7,2.6-4.5,6.2-5.7,9.8c-0.7,1.9-3.8,19.5-2.6,19.5c0,0-9.6-0.2-12,11.1c0,0-5-9.1-20.9-9.1
	c0,0,0.9-29.1-23.5-19.5c0,0-11-14.6-28.1-2.6S18.3,88.1,18.3,88.1S-11.4,120.1,24.9,145.3z"/>
</svg>
