<?xml version="1.0" encoding="utf-8"?>
<!-- Generator: Adobe Illustrator 26.0.2, SVG Export Plug-In . SVG Version: 6.00 Build 0)  -->
<svg version="1.1" id="Layer_1" xmlns="http://www.w3.org/2000/svg" xmlns:xlink="http://www.w3.org/1999/xlink" x="0px" y="0px"
	 viewBox="0 0 200 200" style="enable-background:new 0 0 200 200;" xml:space="preserve">
<g>
	<circle id="circle1" cx="158.8" cy="164" r="12"/>
	<circle id="circle2" cx="53" cy="164" r="12"/>
	<path id="path1" d="M185.5,134.5c-0.2-1.9-1.6-3.5-3.4-4l-21.5-5.1c-1.5-0.3-2.7-1.4-3.2-2.9l-7.3-20.6c-0.6-1.8-2.3-3-4.2-3h-31.6
		c-2.4,0-4.3,1.9-4.5,4.2V164h3.8v0c0.2,0,0.4,0,0.6,0l29,0v0c0-8.6,7-15.6,15.6-15.6c8.5,0,15.5,6.9,15.6,15.4l8.8,0
		c2.6,0,4.7-2.3,4.4-4.9L185.5,134.5z M147.5,126.1l-25.5,0c-1.5-0.2-2.7-1.5-2.7-3.1v-13.6c0-1.7,1.4-3.1,3.1-3.1h20.3
		c1.4,0,2.7,0.9,3,2.3l4,14.9C150.2,125,149,126.3,147.5,126.1z"/>
	<path id="path2" d="M151.3,47.3L61.6,94l-18.1,8.3v3.6h62V164H68.1c0-8.6-6.7-15.5-14.8-15.6h-0.1c-8.2,0-14.8,7-14.8,15.6H15.7
		c-2.4,0-4.3-2-4.3-4.5c0,0-0.1-13.1-0.1-15.6v-33.7c0-2.5,1.9-4.5,4.3-4.5h9.7c0.3-2.1,1.2-4.1,2.4-5.8v0h0c0.4-0.7,1-1.3,1.5-1.9
		c0.6-0.6,1.3-1.2,2.1-1.7c0.2-0.2,0.5-0.3,0.8-0.5l1.6-0.8l0,0L124.2,48H50.3l-0.5,4.4C49.2,57.3,45,61,40.1,61H25.8
		c-4.9,0-9.1-3.7-9.7-8.6l-2.7-22.1c-0.7-5.8,3.9-11,9.7-11h19.6c5.9,0,10.4,5.1,9.7,11l-0.7,5.8h96.8c2.8,0,5.1,1.9,5.8,4.6
		C155,43.3,153.7,46.1,151.3,47.3z"/>
</g>
</svg>
