<?xml version="1.0" encoding="utf-8"?>
<!-- Generator: Adobe Illustrator 26.0.2, SVG Export Plug-In . SVG Version: 6.00 Build 0)  -->
<svg version="1.1" id="Layer_1" xmlns="http://www.w3.org/2000/svg" xmlns:xlink="http://www.w3.org/1999/xlink" x="0px" y="0px"
	 viewBox="0 0 200 200" style="enable-background:new 0 0 200 200;" xml:space="preserve">
<path id="path2" d="M184.9,28.2c-12.6-1.5-26.9,6.2-36.4,12.8c-8.8,6.1-16.1,14.1-22.6,22.2c-7,8.7-13.4,18.2-18.7,27.9
	c-0.8-2.7-3.5-4.6-6.6-4.6c-3.2,0-5.8,1.9-6.6,4.6c-5.3-9.7-11.7-19.2-18.7-27.9C68.7,55.1,61.5,47.1,52.7,41
	c-9.6-6.7-23.8-14.3-36.4-12.8C-1,30.2,11.3,54,13.1,62c1.6,7.2,2,14.1,2,21.3c0,3.5,0,7.3,1.2,10.6c2.1,5.9,6.5,9.3,12.3,11.1
	c-3.9,1.1-7.9,2.9-9.5,6.3c-1.1,2.3-0.5,4.9-0.3,7.3c0.4,3.6,0.3,7.4,0.9,11c0.6,3.3,2,6.3,3.6,9.2l9.9,25.7
	c0.3,0.8,0.6,1.6,0.9,2.4c0.3,0.7,0.7,1.4,1.2,2.1c3.1,4.7,11.2,5.5,16.5,4.9c7.4-1,14.2-4.6,19.8-9.1c10.5-8.4,17.9-20.3,21.4-32.7
	c1.1,2.9,3.8,5.5,7,6c0.1,0.1,0.2,0.1,0.3,0.1c0.2,0,0.3,0,0.4,0c0,0,0.1,0,0.2,0c0.1,0,0.2,0,0.2-0.1c3.2-0.5,5.9-3.1,7-6
	c3.6,12.4,10.9,24.3,21.4,32.7c5.6,4.5,12.4,8.1,19.8,9.1c5.3,0.7,13.4-0.2,16.5-4.9c1.3-2,2.1-4.2,2.6-6.5l10.5-25.9
	c0.7-1.3,1.2-2.7,1.7-4.1v0c0.3-0.9,0.5-1.8,0.7-2.8c0.6-3.6,0.5-7.4,0.9-11c0.2-2.4,0.8-5-0.3-7.3c-1.6-3.4-5.7-5.1-9.5-6.3
	c5.9-1.8,10.3-5.2,12.3-11.1c1.2-3.4,1.2-7.1,1.2-10.6c0-7.3,0.4-14.2,2-21.3C189.9,54,202.2,30.2,184.9,28.2"/>
</svg>
