<?xml version="1.0" encoding="utf-8"?>
<!-- Generator: Adobe Illustrator 26.0.2, SVG Export Plug-In . SVG Version: 6.00 Build 0)  -->
<svg version="1.1" id="Layer_1" xmlns="http://www.w3.org/2000/svg" xmlns:xlink="http://www.w3.org/1999/xlink" x="0px" y="0px"
	 viewBox="0 0 200 200" style="enable-background:new 0 0 200 200;" xml:space="preserve">
<g>
	<path id="path1" d="M99.5,187c-15.4,0-28.6-2.5-39.8-7.6c-11.1-5.1-19.8-12.5-25.9-22.3s-9.5-22-10.2-36.6
		c-0.2-6.7-0.2-13.9-0.2-21.6s0.1-15,0.2-22.1c0.6-14.2,4.1-26.3,10.3-36.3c6.2-10,14.9-17.5,26-22.6c11.1-5.1,24.3-7.6,39.5-7.6
		c10.8,0,20.8,1.3,29.9,4.1c9.2,2.7,17.2,6.6,24,11.8s12.2,11.4,16.1,18.7c3.8,7.3,5.9,15.5,6,24.7c0.1,1.5-0.3,2.7-1.3,3.7
		c-1.1,1-2.3,1.5-3.8,1.5h-33.1c-2.1,0-3.8-0.4-4.9-1.3c-1.1-0.9-2.1-2.6-2.9-5c-2.3-8.7-6-14.6-11.2-17.8s-11.5-4.8-19-4.8
		c-9,0-16.1,2.5-21.4,7.5s-8.1,13.3-8.6,24.9c-0.5,13.4-0.5,27.2,0,41.2c0.5,11.6,3.3,19.9,8.6,24.9c5.2,5,12.4,7.5,21.4,7.5
		c7.5,0,13.9-1.6,19.1-4.9c5.2-3.3,8.9-9.2,11-17.7c0.6-2.4,1.6-4.1,2.8-5c1.2-0.9,2.9-1.3,5-1.3h33.1c1.5,0,2.7,0.5,3.8,1.5
		c1.1,1,1.5,2.2,1.3,3.7c-0.2,9.2-2.2,17.4-6,24.7c-3.8,7.3-9.2,13.5-16.1,18.7c-6.9,5.2-14.9,9.1-24,11.8
		C120.3,185.7,110.3,187,99.5,187z"/>
</g>
</svg>
