<?xml version="1.0" encoding="utf-8"?>
<!-- Generator: Adobe Illustrator 26.0.0, SVG Export Plug-In . SVG Version: 6.00 Build 0)  -->
<svg version="1.1" id="Layer_1" xmlns="http://www.w3.org/2000/svg" xmlns:xlink="http://www.w3.org/1999/xlink" x="0px" y="0px"
	 viewBox="0 0 200 200" style="enable-background:new 0 0 200 200;" xml:space="preserve">
	 <style type="text/css">
	     .primary{fill:#000000;}
	 </style>
<path id="path" class="primary" d="M145.59,10.61H54.41c-11.87,0-21.5,9.63-21.5,21.5v139.56c0,11.87,9.63,21.5,21.5,21.5h91.18c11.87,0,21.5-9.63,21.5-21.5
	V32.11C167.09,20.24,157.46,10.61,145.59,10.61z M76.95,175.27H52.69v-24.25h24.25V175.27z M76.95,138.49H52.69v-24.25h24.25V138.49
	z M76.95,101.72H52.69V77.47h24.25V101.72z M112.13,175.27H87.87v-24.25h24.25V175.27z M112.13,138.49H87.87v-24.25h24.25V138.49z
	 M112.13,101.72H87.87V77.47h24.25V101.72z M147.31,175.27h-24.25v-24.25h24.25V175.27z M147.31,138.49h-24.25v-24.25h24.25V138.49z
	 M147.31,101.72h-24.25V77.47h24.25V101.72z M147.31,64.04H52.69V30.93h94.61V64.04z"/>
</svg>
