<?xml version="1.0" encoding="utf-8"?>
<!-- Generator: Adobe Illustrator 26.0.0, SVG Export Plug-In . SVG Version: 6.00 Build 0)  -->
<svg version="1.1" id="Layer_1" xmlns="http://www.w3.org/2000/svg" xmlns:xlink="http://www.w3.org/1999/xlink" x="0px" y="0px"
	 viewBox="0 0 200 200" style="enable-background:new 0 0 200 200;" xml:space="preserve">
<path id="path1" class="primary" d="M18.54,62.53v120.78h162.91V62.53H18.54z M167.51,169.97H32.99V76.07h134.52V169.97z"/>
<g>
	<path id="path2" class="primary" d="M52.74,41.26h-0.99c-2.61,0-4.72-2.11-4.72-4.72V18.3c0-2.61,2.11-4.72,4.72-4.72h0.99c2.61,0,4.72,2.11,4.72,4.72v18.24
		C57.47,39.15,55.35,41.26,52.74,41.26z"/>
	<path id="path3" class="primary" d="M147.04,41.26h-0.99c-2.61,0-4.72-2.11-4.72-4.72V18.3c0-2.61,2.11-4.72,4.72-4.72h0.99c2.61,0,4.72,2.11,4.72,4.72v18.24
		C151.76,39.15,149.65,41.26,147.04,41.26z"/>
	<path id="path4" class="primary" d="M157.68,27.22v8.33c0,6.15-4.99,11.13-11.13,11.13s-11.13-4.99-11.13-11.13v-8.33H63.39v8.33
		c0,6.15-4.99,11.13-11.13,11.13h0c-6.15,0-11.13-4.99-11.13-11.13v-8.33H18.54v24.62h162.91V27.22H157.68z"/>
</g>
<g>
	<path id="path5" class="primary" d="M47.04,153.94c-0.66,0-1.21-0.22-1.66-0.67c-0.45-0.45-0.67-0.97-0.67-1.57v-6.38c0-0.42,0.12-1.06,0.36-1.93
		c0.24-0.87,0.87-1.69,1.89-2.47l9.34-9.16c4.79-3.65,8.73-6.75,11.81-9.3c3.08-2.54,5.37-4.81,6.87-6.78
		c1.5-1.98,2.25-3.83,2.25-5.57c0-2.04-0.52-3.73-1.57-5.08c-1.05-1.35-2.86-2.02-5.44-2.02c-1.74,0-3.17,0.37-4.31,1.12
		c-1.14,0.75-2.02,1.72-2.65,2.92c-0.63,1.2-1.06,2.43-1.3,3.68c-0.24,0.78-0.64,1.32-1.21,1.62c-0.57,0.3-1.18,0.45-1.84,0.45
		H47.67c-0.54,0-0.99-0.18-1.35-0.54c-0.36-0.36-0.54-0.81-0.54-1.35c0.06-2.87,0.67-5.58,1.84-8.13c1.17-2.54,2.81-4.78,4.94-6.69
		c2.13-1.92,4.67-3.43,7.64-4.54c2.96-1.11,6.3-1.66,10.02-1.66c5.09,0,9.42,0.82,12.98,2.47c3.56,1.65,6.27,3.92,8.13,6.83
		c1.86,2.91,2.79,6.3,2.79,10.2c0,2.94-0.64,5.68-1.93,8.22c-1.29,2.55-3.11,4.97-5.48,7.28c-2.37,2.31-5.17,4.69-8.4,7.14
		l-8.27,8.35h23.09c0.66,0,1.21,0.21,1.66,0.63c0.45,0.42,0.67,0.96,0.67,1.62v9.07c0,0.6-0.22,1.12-0.67,1.57
		c-0.45,0.45-1,0.67-1.66,0.67H47.04z"/>
	<path id="path6" class="primary" d="M129.15,154.84c-5.33,0-10-0.96-14.01-2.87c-4.01-1.92-7.14-4.57-9.39-7.95c-2.25-3.38-3.37-7.26-3.37-11.63
		c0-1.86,0.28-3.7,0.85-5.53c0.57-1.83,1.27-3.56,2.11-5.21c0.84-1.65,1.68-3.11,2.52-4.4c0.84-1.29,1.53-2.32,2.07-3.1l15.81-21.29
		c0.3-0.3,0.69-0.67,1.17-1.12c0.48-0.45,1.17-0.67,2.07-0.67h11.95c0.54,0,0.99,0.2,1.35,0.58c0.36,0.39,0.54,0.85,0.54,1.39
		c0,0.24-0.03,0.46-0.09,0.67c-0.06,0.21-0.15,0.37-0.27,0.49l-12.13,16.53c0.36-0.12,0.79-0.19,1.3-0.23
		c0.51-0.03,0.97-0.04,1.39-0.04c2.69,0.12,5.36,0.72,8,1.8c2.63,1.08,5.03,2.55,7.19,4.4c2.16,1.86,3.88,4.09,5.17,6.69
		c1.29,2.61,1.93,5.5,1.93,8.67c0,4.19-1.08,8.01-3.23,11.45c-2.16,3.44-5.2,6.2-9.12,8.27
		C139.02,153.8,134.42,154.84,129.15,154.84z M128.97,141.9c1.74,0,3.35-0.37,4.85-1.12c1.5-0.75,2.71-1.84,3.64-3.28
		c0.93-1.44,1.39-3.17,1.39-5.21c0-2.1-0.45-3.85-1.35-5.26c-0.9-1.41-2.1-2.47-3.59-3.19c-1.5-0.72-3.14-1.08-4.94-1.08
		c-1.8,0-3.46,0.36-4.99,1.08c-1.53,0.72-2.74,1.78-3.64,3.19c-0.9,1.41-1.35,3.16-1.35,5.26c0,2.04,0.46,3.77,1.39,5.21
		c0.93,1.44,2.14,2.53,3.64,3.28C125.53,141.53,127.18,141.9,128.97,141.9z"/>
</g>
</svg>
