<?xml version="1.0" encoding="utf-8"?>
<!-- Generator: Adobe Illustrator 26.0.2, SVG Export Plug-In . SVG Version: 6.00 Build 0)  -->
<svg version="1.1" id="Layer_1" xmlns="http://www.w3.org/2000/svg" xmlns:xlink="http://www.w3.org/1999/xlink" x="0px" y="0px"
	 viewBox="0 0 200 200" style="enable-background:new 0 0 200 200;" xml:space="preserve">
<style type="text/css">
	.st0{fill:#FFFFFF;}
</style>
<circle id="circle" cx="100.1" cy="98.6" r="92.4"/>
<path id="path1" class="st0" d="M110.3,98.6L150.9,58c2.8-2.8,2.8-7.4,0-10.2c-2.8-2.8-7.4-2.8-10.2,0l-40.6,40.6L59.5,47.8
	c-2.8-2.8-7.4-2.8-10.2,0c-2.8,2.8-2.8,7.4,0,10.2l40.6,40.6l-40.6,40.6c-2.8,2.8-2.8,7.4,0,10.2c1.4,1.4,3.3,2.1,5.1,2.1
	s3.7-0.7,5.1-2.1l40.6-40.6l40.6,40.6c1.4,1.4,3.3,2.1,5.1,2.1c1.9,0,3.7-0.7,5.1-2.1c2.8-2.8,2.8-7.4,0-10.2L110.3,98.6z"/>
</svg>
