<?xml version="1.0" encoding="utf-8"?>
<!-- Generator: Adobe Illustrator 26.0.2, SVG Export Plug-In . SVG Version: 6.00 Build 0)  -->
<svg version="1.1" id="Layer_1" xmlns="http://www.w3.org/2000/svg" xmlns:xlink="http://www.w3.org/1999/xlink" x="0px" y="0px"
	 viewBox="0 0 200 200" style="enable-background:new 0 0 200 200;" xml:space="preserve">
<g>
	<path id="path1" d="M169.1,86.9v-8.4H117v-24c1.3-0.8,3.2-1.7,5.5-1.3c4.1,0.8,8.4,5.8,12.2,14.2c0.9,2.1,3.5,3.1,5.6,2.1
		c2.1-1,3.1-3.5,2.1-5.6c-5.1-11.4-11.3-17.8-18.5-19c-6.5-1.2-12,2.4-14.2,4.7c-0.8,0.8-1.2,1.9-1.2,3v32h-9.7v-6
		c0-1.3-1-2.4-2.4-2.4c-1.3,0-2.4,1.1-2.4,2.4v6H84v-6c0-1.3-1-2.4-2.4-2.4s-2.4,1.1-2.4,2.4v6h-10v-6c0-1.3-1.1-2.4-2.4-2.4
		c-1.4,0-2.4,1.1-2.4,2.4v6H54.3v-6c0-1.3-1-2.4-2.4-2.4c-1.3,0-2.4,1.1-2.4,2.4v6h-10v-6c0-1.3-1-2.4-2.4-2.4
		c-1.4,0-2.4,1.1-2.4,2.4v6.4c-2.3,0.3-4.4,1-6.3,2l-5.2-7.6c-0.8-1-2.3-1.4-3.4-0.6c-1,0.8-1.4,2.3-0.6,3.4l5.1,7.4
		c-1.9,1.4-3.6,3.2-4.9,5.2l-7.5-5.4c-1-0.8-2.6-0.5-3.4,0.6c-0.8,1-0.5,2.5,0.6,3.3l8.1,5.8c-1,2.4-1.6,4.9-1.7,7.5H6.6
		c-1.4,0-2.4,1-2.4,2.4c0,1.4,1,2.4,2.4,2.4h9c0.3,2,0.8,3.9,1.6,5.7l-7.5,5.4c-1,0.8-1.3,2.3-0.5,3.4c0.5,0.7,1.2,1,2,1
		c0.5,0,1-0.2,1.4-0.5l7.1-5.1c1.5,2.1,3.4,4.1,5.6,5.6l-4.9,7.2c-0.8,1.1-0.5,2.6,0.6,3.4c0.4,0.3,0.9,0.4,1.4,0.4
		c0.8,0,1.5-0.3,2-1l5.1-7.6c1.7,0.8,3.5,1.3,5.4,1.6v7.6c0,1.3,1,2.4,2.4,2.4c1.4,0,2.4-1.1,2.4-2.4v-7.3h10v7.3
		c0,1.3,1.1,2.4,2.4,2.4c1.4,0,2.4-1.1,2.4-2.4v-7.3h10.1v7.3c0,1.3,1,2.4,2.4,2.4c1.3,0,2.4-1.1,2.4-2.4v-7.3h10v7.3
		c0,1.3,1,2.4,2.4,2.4s2.4-1.1,2.4-2.4v-7.3h10v7.3c0,1.3,1.1,2.4,2.4,2.4c1.4,0,2.4-1.1,2.4-2.4v-7.3h9.7v8.3H190V86.9H169.1z
		 M108.5,121.4h-70c-7.6,0-13.8-6.2-13.8-13.8s6.2-13.8,13.8-13.8h70V121.4z M184.3,133h-15.2V92.6h15.2V133z"/>
</g>
</svg>
