<?xml version="1.0" encoding="utf-8"?>
<!-- Generator: Adobe Illustrator 26.0.2, SVG Export Plug-In . SVG Version: 6.00 Build 0)  -->
<svg version="1.1" id="Layer_1" xmlns="http://www.w3.org/2000/svg" xmlns:xlink="http://www.w3.org/1999/xlink" x="0px" y="0px"
	 viewBox="0 0 200 200" style="enable-background:new 0 0 200 200;" xml:space="preserve">
<g>
	<g>
		<path id="path1" d="M158.9,190.2H44.8c-10,0-18.1-8.1-18.1-18.1V28.7c0-10,8.1-18.1,18.1-18.1h114.1c10,0,18.1,8.1,18.1,18.1V172
			C177,182,168.9,190.2,158.9,190.2z M44.8,20c-4.8,0-8.7,3.9-8.7,8.7V172c0,4.8,3.9,8.7,8.7,8.7h114.1c4.8,0,8.7-3.9,8.7-8.7V28.7
			c0-4.8-3.9-8.7-8.7-8.7C158.9,20,44.8,20,44.8,20z"/>
	</g>
	<g>
		<g>
			<path id="path2" d="M97.1,53.1c0,3,2.5,5.5,5.6,5.5h48.6c3,0,5.5-2.5,5.5-5.5c0-3-2.5-5.6-5.5-5.6h-48.6
				C99.5,47.6,97.1,50,97.1,53.1z"/>
		</g>
	</g>
	<g>
		<path id="path3" d="M77.5,70.2H54.4c-4.8,0-8.7-3.9-8.7-8.7V44.7c0-4.8,3.9-8.7,8.7-8.7h23.1c4.8,0,8.7,3.9,8.7,8.7v16.8
			C86.2,66.3,82.3,70.2,77.5,70.2z M54.4,43.6c-0.6,0-1.2,0.5-1.2,1.2v16.8c0,0.6,0.5,1.2,1.2,1.2h23.1c0.6,0,1.2-0.5,1.2-1.2V44.7
			c0-0.6-0.5-1.2-1.2-1.2H54.4z"/>
	</g>
	<g>
		<g>
			<path id="path4" d="M97.1,100.4c0,3,2.5,5.5,5.6,5.5h48.6c3,0,5.5-2.5,5.5-5.5s-2.5-5.6-5.5-5.6h-48.6
				C99.5,94.8,97.1,97.3,97.1,100.4z"/>
		</g>
	</g>
	<g>
		<path id="path5" d="M77.5,117.4H54.4c-4.8,0-8.7-3.9-8.7-8.7V91.9c0-4.8,3.9-8.7,8.7-8.7h23.1c4.8,0,8.7,3.9,8.7,8.7v16.8
			C86.2,113.5,82.3,117.4,77.5,117.4z M54.4,90.8c-0.6,0-1.2,0.5-1.2,1.2v16.8c0,0.6,0.5,1.2,1.2,1.2h23.1c0.6,0,1.2-0.5,1.2-1.2V92
			c0-0.6-0.5-1.2-1.2-1.2H54.4z"/>
	</g>
	<g>
		<g>
			<path id="path6" d="M97.1,147.6c0,3,2.5,5.5,5.6,5.5h48.6c3,0,5.5-2.5,5.5-5.5c0-3-2.5-5.6-5.5-5.6h-48.6
				C99.5,142,97.1,144.5,97.1,147.6z"/>
		</g>
	</g>
	<g>
		<path id="path7" d="M77.5,164.7H54.4c-4.8,0-8.7-3.9-8.7-8.7v-16.8c0-4.8,3.9-8.7,8.7-8.7h23.1c4.8,0,8.7,3.9,8.7,8.7v16.8
			C86.2,160.7,82.3,164.7,77.5,164.7z M54.4,138c-0.6,0-1.2,0.5-1.2,1.2V156c0,0.6,0.5,1.2,1.2,1.2h23.1c0.6,0,1.2-0.5,1.2-1.2
			v-16.8c0-0.6-0.5-1.2-1.2-1.2L54.4,138L54.4,138z"/>
	</g>
</g>
</svg>
