<?xml version="1.0" encoding="utf-8"?>
<!-- Generator: Adobe Illustrator 26.0.2, SVG Export Plug-In . SVG Version: 6.00 Build 0)  -->
<svg version="1.1" id="Layer_1" xmlns="http://www.w3.org/2000/svg" xmlns:xlink="http://www.w3.org/1999/xlink" x="0px" y="0px"
	 viewBox="0 0 200 200" style="enable-background:new 0 0 200 200;" xml:space="preserve">
	 <style type="text/css">
			 .primary{fill:#000000;}
	 </style>
<g>
	<path id="path2" class="primary" d="M168.6,189h-134V10.3h134V189z M43.2,180.5H160V18.8H43.2V180.5z"/>
	<path id="path3" class="primary" d="M98.8,68.2V39.5c0-2.8-2.9-5.1-5.7-5.1c-2.8,0-5.7,2.3-5.7,5.1v28.8H58.6c-2.8,0-5.1,2.9-5.1,5.7
		c0,2.8,2.3,5.7,5.1,5.7h28.8v29.1c0,2.8,2.7,5.1,5.5,5.1c1.4,0,3.1-0.6,4-1.5s1.9-2.2,1.9-3.6v-29h29.1c1.4,0,2.7-0.8,3.6-1.7
		c0.9-0.9,1.5-2.7,1.5-4.1c0-2.8-2.3-5.6-5.1-5.6H98.8z"/>
	<path id="path4" class="primary" d="M140.8,112.5h-20.7c-2.4,0-4.3-1.9-4.3-4.3c0-2.4,1.9-4.3,4.3-4.3h20.7c2.4,0,4.3,1.9,4.3,4.3
		C145.1,110.5,143.2,112.5,140.8,112.5"/>
	<path id="path5" class="primary" d="M140.8,133.9H61.4c-2.4,0-4.3-1.9-4.3-4.3s1.9-4.3,4.3-4.3h79.4c2.4,0,4.3,1.9,4.3,4.3
		C145.1,131.9,143.2,133.9,140.8,133.9"/>
	<path id="path6" class="primary" d="M140.8,157.4H61.4c-2.4,0-4.3-1.9-4.3-4.3s1.9-4.3,4.3-4.3h79.4c2.4,0,4.3,1.9,4.3,4.3S143.2,157.4,140.8,157.4
		"/>
</g>
</svg>
