<?xml version="1.0" encoding="utf-8"?>
<!-- Generator: Adobe Illustrator 26.0.0, SVG Export Plug-In . SVG Version: 6.00 Build 0)  -->
<svg version="1.1" id="Layer_1" xmlns="http://www.w3.org/2000/svg" xmlns:xlink="http://www.w3.org/1999/xlink" x="0px" y="0px"
	 viewBox="0 0 200 200" style="enable-background:new 0 0 200 200;" xml:space="preserve">
	 <style type="text/css">
			 .primary{fill:#000000;}
	 </style>
<path id="path1" class="primary" d="M166.59,177.14V36.29c0-5.42-4.42-9.84-9.84-9.84H134.6c-1.84-4.66-6.39-7.82-11.51-7.82h-9.89
	c-1.71-5.96-7.16-10.14-13.5-10.14c-6.36,0-11.81,4.17-13.52,10.14h-9.87c-5.13,0-9.68,3.16-11.53,7.82H42.66
	c-5.42,0-9.84,4.42-9.84,9.84v140.85c0,5.42,4.42,9.84,9.84,9.84h114.09C162.17,186.97,166.59,182.55,166.59,177.14z M100.11,17.63
	c3.54,0,6.41,2.88,6.41,6.43c0,3.54-2.88,6.41-6.41,6.41c-3.55,0-6.43-2.88-6.43-6.41C93.68,20.51,96.56,17.63,100.11,17.63z
	 M156.55,176.93H42.87V37.51c0-0.56,0.45-1.02,1.02-1.02h20.35c0.7,1.82,2.46,3.12,4.53,3.12h61.87c2.03,0,3.78-1.26,4.49-3.12
	h21.42C156.55,36.49,156.55,176.93,156.55,176.93z"/>
<path id="path2" class="primary" d="M55.39,63.23c0,2.84,2.31,5.15,5.17,5.15h78.31c2.84,0,5.15-2.31,5.15-5.15c0-2.86-2.31-5.17-5.15-5.17H60.57
	C57.71,58.06,55.39,60.38,55.39,63.23z"/>
<path id="path3" class="primary" d="M138.87,87.74H60.57c-2.86,0-5.17,2.31-5.17,5.15c0,2.86,2.31,5.17,5.17,5.17h78.31c2.84,0,5.15-2.31,5.15-5.17
	C144.03,90.05,141.71,87.74,138.87,87.74z"/>
<path id="path4" class="primary" d="M138.87,117.39H60.57c-2.86,0-5.17,2.33-5.17,5.17s2.31,5.17,5.17,5.17h78.31c2.84,0,5.15-2.33,5.15-5.17
	S141.71,117.39,138.87,117.39z"/>
<path id="path5" class="primary" d="M138.87,147.07H60.57c-2.86,0-5.17,2.31-5.17,5.17c0,2.84,2.31,5.15,5.17,5.15h78.31c2.84,0,5.15-2.31,5.15-5.15
	C144.03,149.38,141.71,147.07,138.87,147.07z"/>
</svg>
