<?xml version="1.0" encoding="utf-8"?>
<!-- Generator: Adobe Illustrator 26.0.2, SVG Export Plug-In . SVG Version: 6.00 Build 0)  -->
<svg version="1.1" id="Layer_1" xmlns="http://www.w3.org/2000/svg" xmlns:xlink="http://www.w3.org/1999/xlink" x="0px" y="0px"
	 viewBox="0 0 200 200" style="enable-background:new 0 0 200 200;" xml:space="preserve">
	 <style type="text/css">
			 .primary{fill:#000000;}
	 </style>
<path id="path1" class="primary" d="M184.6,28.8H65.5c-1.8,0-3.2,1.4-3.2,3.2v8c0,1.8,1.6,3.3,3.4,3.2c0.4,0,0.9-0.1,1.3-0.1c1.7-0.1,3-1.5,3-3.2
	v-0.2c0-1.8,1.4-3.2,3.2-3.2h6.4c1.8,0,3.2,1.4,3.2,3.2v1.5c0,1.5,1.1,2.8,2.6,3.1c0.4,0.1,0.8,0.2,1.2,0.3c2,0.4,3.9-1.1,3.9-3.1
	v-1.8c0-1.8,1.4-3.2,3.2-3.2h9c1.8,0,3.2,1.4,3.2,3.2v10.3c0,1.1,0.6,2.2,1.6,2.7c3.1,1.8,6.1,3.8,8.8,6.1c0.6,0.5,1.3,0.7,2,0.7h10
	c1.8,0,3.2,1.4,3.2,3.2v12c0,0.6,0.2,1.2,0.5,1.7c2.9,4.7,5.4,9.7,7.2,15v-0.5c0-1.8,1.4-3.2,3.2-3.2h11.5c1.8,0,3.2,1.4,3.2,3.2
	v11.5c0,1.8-1.4,3.2-3.2,3.2H146c-1.8,0-3.3,1.6-3.2,3.4c0,0.4,0.1,0.9,0.1,1.3c0.1,1.7,1.5,3,3.2,3h7.8c1.8,0,3.2,1.4,3.2,3.2V128
	c0,1.8-1.4,3.2-3.2,3.2h-10.3c-1.5,0-2.7,1-3.1,2.4c-0.1,0.4-0.2,0.8-0.3,1.2c-0.6,2,0.9,4.1,3,4.1h41.3c1.8,0,3.2-1.4,3.2-3.2V31.9
	C187.8,30.2,186.4,28.8,184.6,28.8 M128.3,51.8h-11.5c-1.8,0-3.2-1.4-3.2-3.2v-9c0-1.8,1.4-3.2,3.2-3.2h11.5c1.8,0,3.2,1.4,3.2,3.2
	v9C131.5,50.4,130.1,51.8,128.3,51.8 M153.9,80h-11.5c-1.8,0-3.2-1.4-3.2-3.2V62.7c0-1.8,1.4-3.2,3.2-3.2h11.5
	c1.8,0,3.2,1.4,3.2,3.2v14.1C157.1,78.5,155.7,80,153.9,80 M153.9,51.8h-11.5c-1.8,0-3.2-1.4-3.2-3.2v-9c0-1.8,1.4-3.2,3.2-3.2h11.5
	c1.8,0,3.2,1.4,3.2,3.2v9C157.1,50.4,155.7,51.8,153.9,51.8 M176.9,131.2h-9c-1.8,0-3.2-1.4-3.2-3.2v-11.5c0-1.8,1.4-3.2,3.2-3.2h9
	c1.8,0,3.2,1.4,3.2,3.2V128C180.1,129.8,178.7,131.2,176.9,131.2 M176.9,105.6h-9c-1.8,0-3.2-1.4-3.2-3.2V90.8
	c0-1.8,1.4-3.2,3.2-3.2h9c1.8,0,3.2,1.4,3.2,3.2v11.5C180.1,104.1,178.7,105.6,176.9,105.6 M176.9,80h-9c-1.8,0-3.2-1.4-3.2-3.2
	V62.7c0-1.8,1.4-3.2,3.2-3.2h9c1.8,0,3.2,1.4,3.2,3.2v14.1C180.1,78.5,178.7,80,176.9,80 M176.9,51.8h-9c-1.8,0-3.2-1.4-3.2-3.2v-9
	c0-1.8,1.4-3.2,3.2-3.2h9c1.8,0,3.2,1.4,3.2,3.2v9C180.1,50.4,178.7,51.8,176.9,51.8"/>
<path id="path2" class="primary" d="M71.2,55.5C38.5,55.5,12,82,12,114.7S38.5,174,71.2,174s59.3-26.5,59.3-59.3S104,55.5,71.2,55.5 M71.2,166.5
	c-28.6,0-51.7-23.2-51.7-51.7S42.6,63,71.2,63S123,86.1,123,114.7C123,143.3,99.8,166.5,71.2,166.5"/>
<path id="path3" class="primary" d="M90.5,118.8l-16.4-2.2l-2.4-31.9c-0.1-0.9-1.4-0.9-1.5,0l-4,30c-1.5,1.2-3.3,3.7-2.3,7c0.6,2.1,2.2,3.8,4.3,4.4
	c2.2,0.7,4.2,0.2,5.8-1l16.6-3.6C92.1,121.2,92,119,90.5,118.8"/>
</svg>
