<?xml version="1.0" encoding="utf-8"?>
<!-- Generator: Adobe Illustrator 26.0.0, SVG Export Plug-In . SVG Version: 6.00 Build 0)  -->
<svg version="1.1" id="Layer_1" xmlns="http://www.w3.org/2000/svg" xmlns:xlink="http://www.w3.org/1999/xlink" x="0px" y="0px"
	 viewBox="0 0 200 200" style="enable-background:new 0 0 200 200;" xml:space="preserve">
<g>
	<path id="path1" class="primary" d="M100,82.98c10.62,0,19.57,5.1,22.34,12.07c0.31,0.77,1.05,1.27,1.88,1.27h0.95c1.58,0,2.62-1.41,2.19-2.8l-25.3-82.06
		c-0.63-2.03-3.5-2.03-4.13,0l-25.3,82.06c-0.43,1.39,0.61,2.8,2.06,2.8h1c0.88,0,1.66-0.53,1.99-1.34
		C80.49,88.05,89.42,82.98,100,82.98z"/>
	<path id="path2" class="secondary" d="M100,117.02c-10.62,0-19.57-5.1-22.34-12.07c-0.31-0.77-1.05-1.27-1.88-1.27h-0.95c-1.58,0-2.62,1.41-2.19,2.8l25.3,82.06
		c0.63,2.03,3.5,2.03,4.13,0l25.3-82.06c0.43-1.39-0.61-2.8-2.06-2.8h-1c-0.88,0-1.66,0.53-1.99,1.34
		C119.51,111.95,110.58,117.02,100,117.02z"/>
</g>
</svg>
