<?xml version="1.0" encoding="utf-8"?>
<!-- Generator: Adobe Illustrator 26.0.2, SVG Export Plug-In . SVG Version: 6.00 Build 0)  -->
<svg version="1.1" id="Layer_1" xmlns="http://www.w3.org/2000/svg" xmlns:xlink="http://www.w3.org/1999/xlink" x="0px" y="0px"
	 viewBox="0 0 200 200" style="enable-background:new 0 0 200 200;" xml:space="preserve">
	 <style type="text/css">
			 .primary{fill:#000000;}
	 </style>
<g>
	<path class="primary" id="path2" d="M11.3,77.1c0,0-3.3,0.5-2.8,2.6c0.5,2.2,5.2,2.6,5.2,2.6s5,5,15.9-1.7c0,0,2.2-2.8,2.2,0.9
		c-0.2,3.6,2.2,7.3,5,10.7l0.9-2.8c0,0,3.5,7.4,8.1,11.4c4.8,4-1-3.3,2.2-2.9c3.3,0.3,8.8,8.6,8.8,8.6l1.9-1.7c0,0,9,4.3,13.1,10.2
		c4.3,5.9,11.4,28.7,7.4,40.1c-3.8,11.4-6.4,6.7-6.6,12.1c0,0,13.1,3.6,15.9,0.3c0,0,0.5-1,0.7-4.8c0,0,4.1-13.3,3.5-21.3
		c0,0-2.8-22,2.2-25.9s31.5-6.9,39.2-4.3c8,2.6,21.3,17.5,20.2,23c-1,5.4-3.1,15-8.1,16.8c-5,1.7-3.1,6.7-3.1,6.7s10,2.8,13.1,0.5
		c3.1-2.1,4.1-10.9,6-14.7c2.1-3.8,6.4-15.6,1.9-22c-4.5-6.4-3.5-16.4-0.7-18.8c2.8-2.4,1-9.3,0.7-14.5c0,0,4,14.2,1.4,19h2.9
		c0,0,2.1,5-0.9,9.9l3.6,0.2c0,0,3.3,9.2,7.1,12.8l1.2-3.6c0,0,7.3,4.8,8.3,9.2c0,0,3.3-14.3-1-23.5l2.9,1.4c0,0-4.3-5.5-6.7-13
		l2.8,0.9c0,0-4.5-4-7.6-13.1l2.8-0.5c0,0-7.8-4.3-10.9-15.6l2.8,0.3c0,0-7.6-5.9-16.2-9.2l2.6-2.1c0,0-20-11.4-43-8.5
		C93.2,55.7,73,48.4,73,48.4l1.6-0.5c0,0-8-0.3-14.5-4.7H63c0,0-23.9-8-32.5-5.2c0,0-9-2.2-10.2-5.9c0,0-4.7,4.8,2.1,11.4
		c0,0-7.8,9.9-5.2,12.3c2.6,2.4,2.4,4.8,1.6,6.6C18,64.5,14.2,75.6,11.3,77.1L11.3,77.1z"/>
	<path class="primary" id="path3" d="M63,109.6c0,0,11.2,10.2,11.9,17.3c0,0-0.3,16.6-2.9,20.7c-2.4,4.1-10,9.9-12.1,11.1c0,0-11.9,1-13-1.7
		s-0.9-7.3,3.3-6.7c4.1,0.7,11.6-4,12.4-9.5C63.7,135,63.1,115.9,63,109.6L63,109.6z"/>
	<path class="primary" id="path4" d="M146.3,121.6c0,0,7.1,9,6.7,12.8c-0.3,3.8-5.5,14.2-5.5,14.2s-11.1,1-10.4-4c0,0-0.7-4.5,4.7-5
		C147.3,139.2,146.3,121.6,146.3,121.6L146.3,121.6z"/>
	<path class="primary" id="path5" d="M21,43.8L18,48.6c0,0-2.8-2.2-2.9-9.7C15.1,38.9,16.8,42.1,21,43.8L21,43.8z"/>
</g>
</svg>
