<?xml version="1.0" encoding="utf-8"?>
<!-- Generator: Adobe Illustrator 26.0.2, SVG Export Plug-In . SVG Version: 6.00 Build 0)  -->
<svg version="1.1" id="Layer_1" xmlns="http://www.w3.org/2000/svg" xmlns:xlink="http://www.w3.org/1999/xlink" x="0px" y="0px"
	 viewBox="0 0 200 200" style="enable-background:new 0 0 200 200;" xml:space="preserve">
	 <style type="text/css">
			 .primary{fill:#000000;}
	 </style>
<path class="primary" id="path2" d="M106.5,14.3c4.3,11.9,1.2,16-6,22.2c-0.6,2.5-2.1,4.9-4.1,7c-5.1,5.5-14.4,9-19.7,10.7c-3.3,1-4.7,1.2-6,2.5
	c0.2,1,0.6,1.2,2,1.2c4.1-3.7,7-3.7,10.5-5.5c1.4-0.8,2.5-0.4,2,1.6c-1.2,4.9-4.1,10-10,10c-1.2,0.2-1,2.1-3.5,3.9
	c0.6,1.6,2.5,5.7,3.9,9c1.4,3.5,3.1,5.9,7,6.8c7,0.6,12.9,1.6,20.9,1.8c5.3,0.2,11.3,3.1,14.8,2.1c6.8-1.8,15.4-3.3,22.1-3.3
	c6.2-0.2,7.4-0.6,11.5,3.9c3.9,4.3,8.2,6.6,11.5,9c3.5,2.5,3.7,6.2,3.3,14.2c-1.2,12.3-3.9,18.1,3.9,31.4c4.3,3.5,4.3,4.1,4.3,8.6
	c0.4,3.1,0.2,8.2,1.6,8.2c1.4,0.6-0.2,5.5,0.6,9.2c0.4,3.3,1.8,9.6,2.3,12.5c0.4,2-1.2,0.8-1,2c-0.2,1.8-0.2,3.3-4.1,3.3
	c-2.1-0.2-2.9-0.6-3.3-2.1c0.6-0.8,1.2-2,2.3-2.3c1-0.8,0.2-4.9-0.4-7.4c-1.8-11.9-2.1-14.2-6.8-21.1c-2.1-3.5-11.5-11.3-19.9-22.1
	c-0.6,4.9,5.5,9.2,7.6,11.7c2.3,2.7,4.7,2,3.1,7.4c-1.4,5.1-2.5,12.7-5.5,21.3c-1,4.3-1.4,7.8-1.4,11.3l-1.2,0.2
	c-0.2,2.3-0.6,2.7-3.5,3.5c-3.1-0.2-4.3-0.2-5.1-1.4c1.2-1.6,1.8-2.9,3.3-3.3c2.7-6.8,3.9-16.4,4.1-21.1c0.2-7.8-0.4-9.6-3.7-11.9
	c-5.3-3.3-9.6-6.2-12.9-11.5c-5.5,1.8-8,1.6-15.6,0.4c-3.1-0.8-7.6,0.2-11.7-0.4c-0.4,10-2.3,19.1-2.9,24.8c0.2,4.7-0.8,6.8,0.2,10
	c0.2,2.7,0.8,5.3,2,7.8l-1,0.2c0.4,2-0.4,2.5-2.1,3.1c-1.8,0.2-2.9-0.2-3.5-1l2-2.7c-0.2-5.1-2-9.8-2.5-12.3
	c-2.3-10-0.4-16-2.1-19.1c-1.4-2.5-1-9-2.3-10.5c-2.1,1.2-1.4,10.3-3.9,19.1l-3.1,14.6c-1,2.3-0.8,5.3-0.2,8.6l-1.2,0.4
	c0,1.2-0.4,2.3-2.3,2.9c-1.6,0.2-3.3,0-3.9-1.4c0.6-1,1.4-1.8,2.3-2c1.4-4.3,0.8-8.8,0.8-13.3c-1-3.1-0.8-7.8-0.2-12.7
	c0.6-5.1-0.6-15.4-2.3-20.9c-3.5-4.7-9.2-4.7-9.4-9.2c-8-4.9-12.9-8.8-16.6-16.4c-3.5-6.2-4.5-12.9-1.8-18.9c1-2.3,0.2-8,0.8-10.1
	c1-2.9,0.2-6.6,1.2-8.8l-0.4-3.3c-0.8-2.1-1.4-2.3-2.9-3.1c-6.2-0.4-9-4.5-10.1-9.2c-0.8-2.1,0.4-2.9,2.3-2c3.5,1.8,6.2,1.8,10,5.1
	c1.4,0.4,1.8-0.4,1.8-1.4c0.2-1.6-9-3.1-18.5-8.2c-7-3.5-12.3-8.2-9.8-16.4c-0.8-1.2-1.6-3.1-1.2-3.9c0.4,0.2,0.8,2.3,1.6,1.8
	c-1-3.1-2.7-6-5.5-7.6c0,0,1,0,1.6,0c-1-4.9,0.2-9.8,2.1-11.5c-0.2,2.9-2.9,8.4,1.4,10.9c2.3-1.8,2.3-5.7,4.1-6.4
	c-0.6,4.7-1,8.4,0.2,11.7l1.8-2.9c1.2-1.4,2.7-5.3,3.3-5.5c0.4,1.4-1.4,6-3.9,10.7c-0.8,1.8,2.9,10,7.2,13.7
	c-0.6-1.2-0.4-3.5,0.4-3.5c0.6,4.7,2.9,6.8,7.4,9.2c2.7,1.4,5.3,2.5,5.7-0.6c-0.6-4.1-0.6-11.7,0.4-11.9c0.6,0.6,0.2,4.9,0.6,8.8
	c0.6,4.7,2.1,6.4,4.9,9.2c1,0.8,1.2-0.4,3.1,1.2c0.6,0.6,2.9,0.8,3.5,0.2c1.4-0.8,2.7-0.6,4.1-1c9-9.4,5.1-13.3,7.8-16.4
	c-0.2,4.3,1,8.4-2.3,13.3c1.6-1,2.7-0.4,4.1-0.8c6.8-2.1,8.4-3.3,9.2-9c0.6,0.2,0.8,2.5,0.4,4.3c2.5-1.8,4.3-4.1,5.5-6
	c2.7-4.9,3.5-7.6,3.5-13.3c0.4-11.5-4.7-13.7-3.9-13.7c0.8-0.2,2.1,1.2,2.7,1.4c0-0.8-0.4-1.6-0.6-2.3c0.8-0.4,2.3,2.1,2.9,4.7
	c2.1,3.5,2.5,6.4,2.3,12.3l1.2,3.1l1.4-4.5l0.4,4.9l3.7-4.1C108.9,21.9,105.1,14.9,106.5,14.3L106.5,14.3z M31.2,43.6
	c-2.5-2.3-4.7-5.7-5.7-10.1C24.7,37.7,26.5,41.2,31.2,43.6z"/>
</svg>
