<?xml version="1.0" encoding="utf-8"?>
<!-- Generator: Adobe Illustrator 26.0.2, SVG Export Plug-In . SVG Version: 6.00 Build 0)  -->
<svg version="1.1" id="Layer_1" xmlns="http://www.w3.org/2000/svg" xmlns:xlink="http://www.w3.org/1999/xlink" x="0px" y="0px"
	 viewBox="0 0 200 200" style="enable-background:new 0 0 200 200;" xml:space="preserve">
<path id="path2" class="primary" d="M43.7,149.9H188v-102H43.7l-37.4,51L43.7,149.9z M87.6,80c-2-2-2-5.1,0-7.1c1-1,2.2-1.4,3.5-1.4
	c1.2,0,2.6,0.4,3.5,1.4L115,93.2l20.3-20.3c1-1,2.2-1.4,3.5-1.4c1.2,0,2.6,0.4,3.5,1.4c2,2,2,5.1,0,7.1l-20.5,20.1l20.3,20.3
	c2,2,2,5.1,0,7.1c-2,2-5.1,2-7.1,0l-20.3-20.3l-20.1,20.3c-2,2-5.1,2-7.1,0c-2-2-2-5.1,0-7.1l20.3-20.3L87.6,80z"/>
</svg>
