<?xml version="1.0" encoding="utf-8"?>
<!-- Generator: Adobe Illustrator 26.0.2, SVG Export Plug-In . SVG Version: 6.00 Build 0)  -->
<svg version="1.1" id="Layer_1" xmlns="http://www.w3.org/2000/svg" xmlns:xlink="http://www.w3.org/1999/xlink" x="0px" y="0px"
	 viewBox="0 0 200 200" style="enable-background:new 0 0 200 200;" xml:space="preserve">
<g>
	<path id="path2" class="primary" d="M189.1,100.8c0,5.5-2,10.7-6.2,14.9l-67.9,68.1c-8.2,8.2-21.7,8.2-29.9,0L17,115.7c-8.2-8.2-8.2-21.7,0-29.9
		l67.9-68.1c8.2-8.2,21.7-8.2,29.9,0l68.1,68.1C187.1,89.9,189.1,95.3,189.1,100.8z M19.3,100.8c0,3.3,1.3,6.4,3.6,8.9l68.1,68.1
		c4.9,4.9,12.9,4.9,17.8,0l67.9-68.3c4.9-4.9,4.9-12.9,0-17.7l-68.1-68.1c-4.9-4.9-12.9-4.9-17.8,0L23,91.9
		C20.6,94.4,19.3,97.5,19.3,100.8z"/>
</g>
<path id="path3" class="primary" d="M149.2,86.2l-27.7-21.5c-2.7-2.2-7.1-0.2-7.1,3.5v7.5c0,0.5,0,2.4,0,4.9h-12.6c-26.2,0-47.7,20.2-47.7,45.2h19.1
	c0-14.4,12.7-26,28.4-26h12.6c0,2.4,0,4.2,0,4.7v7.5c0,3.6,4.4,5.6,7.1,3.5l27.9-22C151.5,91.3,151.5,87.9,149.2,86.2z"/>
</svg>
