<?xml version="1.0" encoding="utf-8"?>
<!-- Generator: Adobe Illustrator 26.0.0, SVG Export Plug-In . SVG Version: 6.00 Build 0)  -->
<svg version="1.1" id="Layer_1" xmlns="http://www.w3.org/2000/svg" xmlns:xlink="http://www.w3.org/1999/xlink" x="0px" y="0px"
	 viewBox="0 0 200 200" style="enable-background:new 0 0 200 200;" xml:space="preserve">
<g>
	<path id="path" class="primary" d="M91.6,189.2c-1.5,0-2.6-0.5-3.6-1.5c-0.9-1-1.4-2.1-1.4-3.5v-13.9c-10.2-1.2-18.6-3.7-25.4-7.6c-6.8-3.9-11.9-8.5-15.3-14
		c-3.4-5.4-5.3-11.2-5.5-17.2c0-1.1,0.4-2,1.3-2.9c0.9-0.9,1.9-1.3,3.1-1.3h24.9c1.8,0,3.3,0.3,4.3,1c1,0.7,1.9,1.5,2.7,2.6
		c1.1,2,2.5,3.9,4.5,5.7c1.9,1.8,4.4,3.3,7.5,4.5c3.1,1.1,7,1.7,11.6,1.7c7.7,0,13.4-1.2,17.3-3.6c3.9-2.4,5.8-5.6,5.8-9.7
		c0-3-1.1-5.5-3.2-7.3c-2.1-1.8-5.5-3.5-10.2-5c-4.7-1.5-10.9-3.1-18.7-4.7c-10-2.1-18.6-4.8-25.6-8.2c-7.1-3.4-12.4-7.8-16.1-13.3
		c-3.7-5.5-5.5-12.3-5.5-20.5c0-10.6,3.8-19.5,11.4-26.9c7.6-7.4,18-12,31.4-13.9V16c0-1.5,0.5-2.6,1.4-3.6c0.9-0.9,2.1-1.4,3.6-1.4
		H108c1.3,0,2.5,0.5,3.5,1.4c1,0.9,1.5,2.1,1.5,3.6v14.3c9.1,1.6,16.8,4.4,23,8.5c6.2,4.1,10.9,8.7,14.2,13.9
		c3.2,5.1,4.9,10.1,5,14.8c0,1.1-0.4,2-1.2,2.9c-0.8,0.9-1.8,1.3-3,1.3h-26.1c-1.5,0-2.7-0.3-3.8-0.8c-1.1-0.5-2-1.4-2.8-2.6
		c-0.8-2.9-2.9-5.4-6.3-7.6c-3.4-2.2-7.8-3.3-13.1-3.3c-5.8,0-10.3,1-13.6,3.1c-3.2,2-4.8,5.2-4.8,9.4c0,2.6,0.9,4.9,2.7,6.9
		c1.8,2,4.8,3.7,8.9,5.1c4.2,1.5,9.9,3,17.1,4.6c12,2.2,21.7,5,29.1,8.4c7.4,3.4,12.8,7.7,16.2,13.1c3.4,5.3,5.1,12,5.1,20.1
		c0,7.8-1.9,14.6-5.8,20.6c-3.9,5.9-9.3,10.8-16.3,14.5c-7,3.7-15.2,6.1-24.5,7.3v13.9c0,1.3-0.5,2.5-1.5,3.5c-1,1-2.1,1.5-3.5,1.5
		H91.6z"/>
</g>
</svg>
