<?xml version="1.0" encoding="utf-8"?>
<!-- Generator: Adobe Illustrator 26.0.2, SVG Export Plug-In . SVG Version: 6.00 Build 0)  -->
<svg version="1.1" id="Layer_1" xmlns="http://www.w3.org/2000/svg" xmlns:xlink="http://www.w3.org/1999/xlink" x="0px" y="0px"
	 viewBox="0 0 200 200" style="enable-background:new 0 0 200 200;" xml:space="preserve">
<g>
	<path id="path2" d="M105.3,88.4h34.3c2.8,0,5.1-2.3,5.1-5.1V80c0-2.8-2.3-5.1-5.1-5.1h-34.3c-2.8,0-5.1,2.3-5.1,5.1v3.3
		C100,86.1,102.3,88.4,105.3,88.4"/>
	<path id="path3" d="M128.3,71.8h-11.8V67c-2.5-0.3-4.4-1.3-6.1-3c-4.3-4.3-4.1-11.7-4.1-12v-1.6h32.2v1.6c0,0.3,0.2,7.5-4.1,12
		c-1.6,1.6-3.6,2.6-6.1,3C128.3,67,128.3,71.8,128.3,71.8z M119.9,68.4h5.1v-4.6h1.6c2.1,0,3.9-0.7,5.3-2.1c2.1-2.3,2.8-5.7,3.1-7.9
		h-25.3c0.2,2.1,0.8,5.6,3.1,7.9c1.3,1.3,3.1,2.1,5.3,2.1h1.6v4.6H119.9z"/>
	<path id="path4" d="M135,90.3h-25.3c-5.9,0-10,6.1-10,12v49.2c0,2.1,0.2,3.9,1.3,5.7c-1.3,0-2.8-0.2-3.8-0.7
		c-1.1-0.5-2-1.3-2.3-2.5l-2.5-7.2l0.2-0.2c1.1-0.5,1.6-1.8,1.1-3L79,111.2c-0.3-0.8-1.1-1.3-2-1.3l0.2-0.2L56.7,63.9
		c-0.5-1-1.1-1.8-2.1-2.1l-14-4.8l-2,7.9l12.5,3c1,0.2,2,0.8,2.5,1.8L72.5,112c-0.7,0.7-0.8,1.6-0.3,2.5l14.8,32.7
		c0.5,1,1.6,1.5,2.6,1.1l2.3,6.9c0.7,2.1,2.1,3.6,4.1,4.4c1.5,0.7,3.1,0.8,4.9,0.8c1,0,2-0.5,3-0.5c1.8,1.3,3.9,1.6,6.2,1.6h25.3
		c5.9,0,11.5-4.1,11.5-10.2v-49.2C146.5,96.3,141.1,90.3,135,90.3"/>
</g>
<path id="path5" d="M99.7,11.4c-48.6,0-88.3,39.6-88.3,88.3c0,48.6,39.6,88.3,88.3,88.3S188,148.3,188,99.7
	C188,51,148.4,11.4,99.7,11.4z M21.4,99.7c0-43.2,35.1-78.5,78.5-78.5c19.9,0,37.9,7.4,51.9,19.7L41.1,151.6
	C28.8,137.6,21.4,119.6,21.4,99.7z M99.7,178c-19.9,0-37.9-7.4-51.9-19.7L158.5,47.8c12.1,13.8,19.7,32,19.7,51.9
	C178.2,142.9,143,178,99.7,178z"/>
</svg>
