<?xml version="1.0" encoding="utf-8"?>
<!-- Generator: Adobe Illustrator 26.0.2, SVG Export Plug-In . SVG Version: 6.00 Build 0)  -->
<svg version="1.1" id="Layer_1" xmlns="http://www.w3.org/2000/svg" xmlns:xlink="http://www.w3.org/1999/xlink" x="0px" y="0px"
	 viewBox="0 0 200 200" style="enable-background:new 0 0 200 200;" xml:space="preserve">
<g>
	<path id="path2" class="primary" d="M111.2,83.5V19.1c0-6-4.8-10.8-10.8-10.8h-4.6c-6,0-10.8,4.8-10.8,10.8v64.4H73.6c-5.8,0-9.3,6.2-6.4,11.2
		l27.4,48c2.3,3.9,8.1,3.9,10.4,0l27.6-48c2.9-5-0.6-11.2-6.4-11.2H111.2z"/>
	<path id="path3" class="primary" d="M173.3,189H30.2c-7.9,0-14.5-6.4-14.5-14.5v-72.9c0-4.8,3.7-8.5,8.5-8.5c4.8,0,8.5,3.7,8.5,8.5v61.7
		c0,4.8,3.9,8.7,8.7,8.7h116.3c4.8,0,8.7-3.9,8.7-8.7v-61.7c0-4.8,3.7-8.5,8.5-8.5c4.8,0,8.5,3.7,8.5,8.5v76.8
		C183.9,184.4,179.2,189,173.3,189"/>
</g>
</svg>
