<?xml version="1.0" encoding="utf-8"?>
<!-- Generator: Adobe Illustrator 26.0.2, SVG Export Plug-In . SVG Version: 6.00 Build 0)  -->
<svg version="1.1" id="Layer_1" xmlns="http://www.w3.org/2000/svg" xmlns:xlink="http://www.w3.org/1999/xlink" x="0px" y="0px"
	 viewBox="0 0 200 200" style="enable-background:new 0 0 200 200;" xml:space="preserve">
<path id="path2" d="M99.8,8.8C49.4,8.8,8.7,49.5,8.7,99.9S49.4,191,99.8,191s91.1-40.7,91.1-91.1C190.9,49.7,150.2,8.8,99.8,8.8z
	 M34.9,54.5c8.2-11.5,21.4-21,33.3-25.5c20.3-7.4,38.5-8.9,62.7,0c19,7.1,39.2,24.4,42,45.4c1.7,13.6-9.5,13.4-9.5,13.4h-41.5
	c-4.3-8-12.5-13.4-22.1-13.4s-18,5.4-22.1,13.4H41.2c-8.4-0.4-15.4-4.5-14.1-13.9C27.8,66.8,30.8,60.3,34.9,54.5z M83.1,167.2
	c0,0-0.9,8.9-15.2,4.1c-8-2.6-15.1-7.8-21.2-13.4c-7.3-6.7-13.9-15.1-17.5-24.2c-2-4.8,0.9-10.6,6.5-10.6h40.9c0,0,6.5,0.2,6.5,9.9
	C83.1,142.7,83.1,167.2,83.1,167.2z M99.8,120.5c-8.2,0-14.9-6.7-14.9-14.9s6.7-14.9,14.9-14.9s14.9,6.7,14.9,14.9
	S108,120.5,99.8,120.5z M170.4,133.6c-3.5,9.1-10.2,17.5-17.5,24.2c-6.3,5.6-13.2,10.8-21.2,13.4c-14.3,4.8-15.2-4.1-15.2-4.1
	s0-24.5,0-34.2c0-9.7,6.5-9.9,6.5-9.9h40.9C169.5,123,172.5,128.7,170.4,133.6z"/>
</svg>
