<?xml version="1.0" encoding="utf-8"?>
<!-- Generator: Adobe Illustrator 26.0.2, SVG Export Plug-In . SVG Version: 6.00 Build 0)  -->
<svg version="1.1" id="Layer_1" xmlns="http://www.w3.org/2000/svg" xmlns:xlink="http://www.w3.org/1999/xlink" x="0px" y="0px"
	 viewBox="0 0 200 200" style="enable-background:new 0 0 200 200;" xml:space="preserve">
<g>
	<path id="path2" class="primary" d="M80,57.5c0-2-1.7-3.7-3.7-3.7H16.8c-2,0-3.7,1.7-3.7,3.7s1.7,3.7,3.7,3.7h59.4C78.3,60.9,80,59.4,80,57.5z"/>
	<path id="path3" class="primary" d="M184.3,53.8h-59.4c-2,0-3.7,1.7-3.7,3.7s1.7,3.7,3.7,3.7h59.4c2,0,3.7-1.7,3.7-3.7S186.3,53.8,184.3,53.8z"/>
	<path id="path4" class="primary" d="M154.6,70.4h-35.8c-4.1-5.6-10.8-9.3-18.3-9.3c-7.5,0-14.1,3.7-18.3,9.3H46.6c-4,0-7.1,3.2-7.1,7.1v16.9
		c0,4,3.2,7.1,7.1,7.1s7.1-3.2,7.1-7.1v-9.6h24.4c0.7,11.8,10.5,21.2,22.4,21.2s21.7-9.5,22.4-21.2h24.4v9.6c0,4,3.2,7.1,7.1,7.1
		s7.1-3.2,7.1-7.1V77.5C161.9,73.5,158.6,70.4,154.6,70.4z"/>
	<path id="path5" class="primary" d="M74.3,90.6c-25.6,15.1-24.9,62.7-24.9,62.7h9.5c0-39.3,20.4-53.6,20.4-53.6L74.3,90.6z"/>
	<path id="path6" class="primary" d="M126.8,90.6l-4.8,9.1c0,0,20.4,14.3,20.4,53.6h9.5C151.8,153.4,152.3,105.7,126.8,90.6z"/>
	<path id="path7" class="primary" d="M78.6,139.1h44.1v-27.4H78.6V139.1z M84,117h33.2v16.6H84V117z"/>
	<path id="path8" class="primary" d="M100.6,119.5c-3.2,0-5.8,2.7-5.8,5.8c0,3.2,2.7,5.8,5.8,5.8c3.2,0,5.8-2.7,5.8-5.8
		C106.4,122.2,103.9,119.5,100.6,119.5z"/>
</g>
</svg>
