<?xml version="1.0" encoding="utf-8"?>
<!-- Generator: Adobe Illustrator 26.0.2, SVG Export Plug-In . SVG Version: 6.00 Build 0)  -->
<svg version="1.1" id="Layer_1" xmlns="http://www.w3.org/2000/svg" xmlns:xlink="http://www.w3.org/1999/xlink" x="0px" y="0px"
	 viewBox="0 0 200 200" style="enable-background:new 0 0 200 200;" xml:space="preserve">
<path id="path2" class="primary" d="M137.6,139.3c-0.9,0.5-1.4,0.6-2,0.9c0.2,1.4,0.5,2.6,0.5,4c0,0.5-0.2,1.2-0.5,1.5c-0.5,0.2-1.2,0-1.5-0.3
	c-1.7-1.5-3.1-3.1-4.8-4.8c-0.6,2.2-1.2,4.5-2,6.9c-3.1-1.9-4-4.9-5.7-7.7c-1.7,1.4-2.5,0.2-3.2-1.2c-0.8-1.2-1.4-2.6-1.9-3.4
	c-1.5-0.5-2.6-0.6-3.4-1.2c-3.6-2.6-6.8-5.6-8.3-10c-0.2-0.3-0.5-0.6-1.1-1.7c-0.8,2.3-1.4,4-1.9,5.7c-1.5,5.9-2.9,11.9-4.5,17.6
	c-0.6,2.3-1.9,2.5-3.2,0.6c-1.2-1.7-2-3.6-2.9-5.1c-0.2,0.8-0.5,1.9-0.9,2.8c-0.9,2-2.2,2.2-3.6,0.5c-1.2-1.7-2.2-3.7-3.1-5.6
	c-0.5,0.8-1.1,2.2-1.9,3.2c-0.6,0.8-1.5,1.5-2.5,1.4c-0.6,0-1.1-1.4-1.5-2.2c-0.5-0.9-0.6-2-1.1-3.1c-2.6,2.3-3.7,2.2-4.9-1.1
	c-0.6-1.5-0.8-3.4-1.1-5.2c-0.5,0.3-0.8,0.6-1.1,0.8c-0.9,0.2-2,0.5-2.6,0.2c-0.5-0.3-0.8-1.4-0.8-2.3c-0.2-1.5,0.2-3.2,0-4.8
	c-0.3-2.9-1.1-5.6-3.7-7.6c-2.2-1.7-4-4-5.7-6.2c-0.8-1.1-1.1-2.6-1.2-3.9c-0.3-2.5-0.9-4.6-2.8-6.5c-1.2-1.2-1.7-3.2-2.3-4.9
	c-0.3-0.6-0.3-1.2-0.5-1.9c-1.1-3.7-2.6-4.6-6.3-3.7c-3.6,0.8-6.9,2-10.5,2.3c-3.9,0.3-7.7,0.2-11.4,0.2c-2.9-0.2-6-0.9-9.1-0.9
	c-1.5,0-3.1-0.9-4.5-1.5c0-0.3,0-0.5,0-0.8c0.5-0.3,1.1-0.6,1.5-0.9c11.3-4.3,22.5-8.8,33.8-13.1c8.5-3.2,17-6.2,25.6-9.1
	c6.9-2.3,14-4.3,21.1-6.2c5.6-1.4,11.3-2.2,17-1.1c2.9,0.5,5.9,1.4,8.5,2.8c5.6,2.6,11.1,4.8,17.4,5.1c5.9,0.3,11.4-0.8,16.8-2.5
	c6.2-1.9,12.3-3.4,18.7-1.1c2.6,0.9,5.2,2.3,7.4,4c2,1.7,4,2.9,6.5,4c2,0.8,3.9,2,5.6,3.4c0.6,0.5,0.9,1.9,0.9,2.6
	c0,0.5-1.5,0.9-2.3,0.9c-8.5,0-17.1-0.2-25.6-0.3c-1.7,0-3.4-0.3-4.9-0.9c-4.9-1.7-9.9-1.7-15-0.6c-6.9,1.7-13.9,3.1-20.4,6.2
	c-2.3,1.1-2.2,1.1-0.8,3.2c2.3,3.9,4.3,7.9,6.5,11.7c4,7.3,4.8,15.1,5.6,23.2c0.2,2.3,0.2,4.8,0.8,6.9c0.5,2,1.5,3.9,2.5,5.9
	C136.1,136.5,136.8,137.9,137.6,139.3z"/>
</svg>
