<?xml version="1.0" encoding="utf-8"?>
<!-- Generator: Adobe Illustrator 26.0.2, SVG Export Plug-In . SVG Version: 6.00 Build 0)  -->
<svg version="1.1" id="Layer_1" xmlns="http://www.w3.org/2000/svg" xmlns:xlink="http://www.w3.org/1999/xlink" x="0px" y="0px"
	 viewBox="0 0 200 200" style="enable-background:new 0 0 200 200;" xml:space="preserve">
<g>
	<path id="path2" class="primary" d="M144.7,9.5H54.9c-5.5,0-9.8,4.3-9.8,9.8v161.9c0,5.5,4.3,9.8,9.8,9.8h89.8c5.5,0,9.8-4.3,9.8-9.8V19.3
		C154.5,13.8,150.2,9.5,144.7,9.5z M81.1,16.7h37.4c1.9,0,3.4,1.5,3.4,3.4H77.7C77.7,18.2,79.2,16.7,81.1,16.7z M98.3,186.5
		c-4.5,0-8.3-3.8-8.3-8.3s3.8-8.3,8.3-8.3c4.5,0,8.3,3.8,8.3,8.3C106.6,182.9,102.8,186.5,98.3,186.5z M142.1,164.6H57.6V26.3h84.3
		v138.3H142.1z"/>
	<rect id="rect1" class="primary" x="68.5" y="87.2" width="13.2" height="14.2"/>
	<rect id="rect2" class="primary" x="68.5" y="110.1" width="13.2" height="14.2"/>
	<rect id="rect3" class="primary" x="68.5" y="64.4" width="13.2" height="14.2"/>
	<rect id="rect4" class="primary" x="68.5" y="132.9" width="13.2" height="14.2"/>
	<rect id="rect5" class="primary" x="87.4" y="87.2" width="43.2" height="14.2"/>
	<rect id="rect6" class="primary" x="87.4" y="110.1" width="43.2" height="14.2"/>
	<rect id="rect7" class="primary" x="87.4" y="64.4" width="43.2" height="14.2"/>
	<rect id="rect8" class="primary" x="87.4" y="132.9" width="43.2" height="14.2"/>
	<rect id="rect9" class="primary" x="68.5" y="49.9" width="62.3" height="7.2"/>
</g>
</svg>
