<?xml version="1.0" encoding="utf-8"?>
<!-- Generator: Adobe Illustrator 26.0.0, SVG Export Plug-In . SVG Version: 6.00 Build 0)  -->
<svg version="1.1" id="Layer_1" xmlns="http://www.w3.org/2000/svg" xmlns:xlink="http://www.w3.org/1999/xlink" x="0px" y="0px"
	 viewBox="0 0 200 200" style="enable-background:new 0 0 200 200;" xml:space="preserve">
<g>
	<path id="path1" class="primary" d="M189.5,97.9c-0.4-0.5-9.4-16.9-24.7-28.2c-20.6-15.1-43-23.1-64.7-23.1s-44.2,8-64.7,23.1C19.9,81,10.9,97.4,10.5,97.9
		l-3.2,4l3.2,4c0.4,0.5,9.4,11.7,24.7,23c20.6,15.1,43,23.1,64.7,23.1s44.2-8,64.7-23.1c15.4-11.3,24.4-22.6,24.7-23l3.2-4
		L189.5,97.9z M64.3,131c-8.2-3.7-15.4-8.2-21-12.3c-8.7-6.4-15.3-12.8-19-16.8c3.7-4,10.3-10.5,19-16.8c5.6-4.1,12.8-8.6,21-12.3
		c-6.5,7.9-10.4,18.1-10.4,29.1S57.8,123.1,64.3,131z M100,135.9c-18.7,0-34-15.2-34-34c0-18.7,15.2-34,34-34c18.7,0,34,15.2,34,34
		C134,120.6,118.7,135.9,100,135.9z M156.7,118.7c-5.6,4.1-12.8,8.6-21,12.3c6.5-7.9,10.4-18.1,10.4-29.1s-3.9-21.2-10.4-29.1
		c8.2,3.7,15.4,8.2,21,12.3c8.7,6.4,15.3,12.8,19,16.8C172,105.9,165.5,112.4,156.7,118.7z"/>
	<path id="path2" class="primary" d="M87.5,89c-6.9,6.9-6.9,18.1,0,25c6.9,6.9,18.1,6.9,25,0c6.9-6.9,6.9-18.1,0-25S94.4,82.1,87.5,89z M112,101
		c-1.4,1.4-5.2,0-8.4-3.2c-3.2-3.2-4.6-6.9-3.2-8.4c1.4-1.4,5.2,0,8.4,3.2C112,95.8,113.5,99.6,112,101z"/>
</g>
</svg>
