<?xml version="1.0" encoding="utf-8"?>
<!-- Generator: Adobe Illustrator 26.0.2, SVG Export Plug-In . SVG Version: 6.00 Build 0)  -->
<svg version="1.1" id="Layer_1" xmlns="http://www.w3.org/2000/svg" xmlns:xlink="http://www.w3.org/1999/xlink" x="0px" y="0px"
	 viewBox="0 0 200 200" style="enable-background:new 0 0 200 200;" xml:space="preserve">
<g>
	<path id="path2" d="M139,44.5c-3.4-15.3-12.8-25.7-28.3-29.4V8.8H90.4V15c-12.8,3.8-23,14.2-26.4,29.4h-9.4v15.3H149V44.5
		C149,44.5,139,44.5,139,44.5z"/>
	<rect id="rect1" x="51.7" y="174.8" width="99.6" height="14.2"/>
	<path id="path3" d="M139,82.8V69.9H64.9v12.8H49.6v40.9h15.3v40.9H139v-40.9h15.3V82.8H139z M101.5,123.7
		c-11.3,0-20.4-9.2-20.4-20.4s9.1-20.6,20.4-20.6s20.6,9.2,20.6,20.6S112.8,123.7,101.5,123.7"/>
</g>
</svg>
