<?xml version="1.0" encoding="utf-8"?>
<!-- Generator: Adobe Illustrator 26.0.2, SVG Export Plug-In . SVG Version: 6.00 Build 0)  -->
<svg version="1.1" id="Layer_1" xmlns="http://www.w3.org/2000/svg" xmlns:xlink="http://www.w3.org/1999/xlink" x="0px" y="0px"
	 viewBox="0 0 200 200" style="enable-background:new 0 0 200 200;" xml:space="preserve">
<path id="path2" d="M180.5,98.6c0-0.2,0-0.3,0.2-0.3c1.5-3.5,3.5-6.8,4.8-10.3c1.3-3.5,1.8-7.2,2-10.8c0.2-4.5-2.7-8.6-6.5-10.8
	c-9.5-5.2-21.8,2.7-26.9,10.3c-1.5,2.2-2.7,4.7-4,7c-0.2-0.2-0.5-0.3-0.7-0.7c-4.5-4.8-9.3-9-14.6-12.8c-8.5-6-18.1-10.6-28.3-13.8
	c0.7-0.7,0.8-1.7,0.5-3.2c-0.5-2.7-2-4.8-4-6.5c-2-1.3-4.2-2.2-6.7-2C88.9,45,82,47.2,75.9,51.4c-0.8,0.5-1.2,1-1.5,1.7
	c-21.5,2.7-52.9,20-61.2,33.1c-10.3,16.5,4.3,30.9,17.3,39.2c12.8,8.1,28.3,15.8,43.7,17.6c0.2,0.7,0.5,1.3,1.3,2
	c6.3,4.3,13.3,6.7,21,7c2.3,0.2,4.3-0.7,6.3-2c2.2-1.7,3.7-3.8,4.2-6.7c0.3-1.5,0-2.5-0.7-3.2c15-4.2,28.4-12.1,40.4-23.8
	c1.2-1.2,2.3-2.3,3.5-3.5c0.3,0.7,0.5,1,0.7,1.5c2.8,6.3,7,11.5,13.1,14.8c6,3.2,14,4.7,19.5-0.2c2.8-2.5,3.7-5.5,4-9.1
	c0.2-2.3,0-4.8-0.7-7.2c-1.3-4.8-4.2-9.1-6-14C180.5,98.8,180.5,98.6,180.5,98.6z"/>
</svg>
