<?xml version="1.0" encoding="utf-8"?>
<!-- Generator: Adobe Illustrator 26.0.2, SVG Export Plug-In . SVG Version: 6.00 Build 0)  -->
<svg version="1.1" id="Layer_1" xmlns="http://www.w3.org/2000/svg" xmlns:xlink="http://www.w3.org/1999/xlink" x="0px" y="0px"
	 viewBox="0 0 200 200" style="enable-background:new 0 0 200 200;" xml:space="preserve">
<g>
	<path id="path2" d="M165.1,192H37.2V11.4h127.9V192z M45.2,184h111.7V19.4H45.2V184z"/>
	
		<rect id="rect1" x="40.1" y="89.7" transform="matrix(0.5235 -0.852 0.852 0.5235 -33.8757 135.2588)" width="127.9" height="16.4"/>
	<polygon id="polygon1" points="56.8,175.8 68.8,166.6 68,162.6 64.8,164.4 65.6,160.2 61.8,163.8 60.6,158.2 	"/>
	<path id="path3" d="M147.7,42.4l-14-8.6l3-4.8c1-1.8,3.8-1.8,6.4-0.4l5.2,3.2c2.4,1.6,3.6,4.2,2.6,5.8L147.7,42.4z"/>
</g>
</svg>
