<?xml version="1.0" encoding="utf-8"?>
<!-- Generator: Adobe Illustrator 26.0.0, SVG Export Plug-In . SVG Version: 6.00 Build 0)  -->
<svg version="1.1" id="Layer_1" xmlns="http://www.w3.org/2000/svg" xmlns:xlink="http://www.w3.org/1999/xlink" x="0px" y="0px"
	 viewBox="0 0 200 200" style="enable-background:new 0 0 200 200;" xml:space="preserve">
<path  id="path" class="primary" d="M190.6,95H169c-2.5-34.2-29.8-61.5-64-64V9.4H95V31c-34.2,2.5-61.5,29.8-64,64H9.4V105H31
	c2.5,34.2,29.8,61.5,64,64v21.5H105V169c34.2-2.5,61.5-29.8,64-64h21.5V95z M158.9,95H140c-2.3-18.2-16.8-32.7-35-35V41.1
	C133.7,43.5,156.5,66.3,158.9,95z M95,95H70.1C72.3,82.3,82.3,72.3,95,70.1V95z M95,105v24.8c-12.7-2.1-22.7-12.2-24.8-24.8H95z
	 M105,105h24.8c-2.1,12.7-12.2,22.7-24.8,24.8V105z M105,95V70.1c12.7,2.1,22.7,12.2,24.8,24.8H105z M95,41.1V60
	c-18.2,2.3-32.7,16.8-35,35H41.1C43.5,66.3,66.3,43.5,95,41.1z M41.1,105H60c2.3,18.2,16.8,32.7,35,35v18.9
	C66.3,156.5,43.5,133.7,41.1,105z M105,158.9V140c18.2-2.3,32.7-16.8,35-35h18.9C156.5,133.7,133.7,156.5,105,158.9z"/>
</svg>
