<?xml version="1.0" encoding="utf-8"?>
<!-- Generator: Adobe Illustrator 26.0.2, SVG Export Plug-In . SVG Version: 6.00 Build 0)  -->
<svg version="1.1" id="Layer_1" xmlns="http://www.w3.org/2000/svg" xmlns:xlink="http://www.w3.org/1999/xlink" x="0px" y="0px"
	 viewBox="0 0 200 200" style="enable-background:new 0 0 200 200;" xml:space="preserve">
<g>
	<path id="path2" d="M120,71.5h55.8c4.7,0,8.3-3.7,8.3-8.3v-5.3c0-4.7-3.7-8.3-8.3-8.3H120c-4.7,0-8.3,3.7-8.3,8.3v5.3
		C111.4,67.6,115.3,71.5,120,71.5z"/>
	<path id="path3" d="M138.2,36.8v7.7h19.3v-7.7c3.9-0.6,7.1-2.2,9.7-4.9c6.9-7.1,6.7-18.9,6.7-19.5V9.8h-52.4v2.6
		c0,0.6-0.2,12.4,6.7,19.5C130.9,34.6,134.4,36.2,138.2,36.8z M168.3,15.3c-0.4,3.4-1.4,9.1-5.1,12.8c-2.2,2.2-5.1,3.4-8.7,3.4h-2.8
		V39h-8.3v-7.5h-2.8c-3.7,0-6.5-1-8.7-3.4c-3.4-3.7-4.7-9.3-5.1-12.8H168.3z"/>
	<path id="path4" d="M168.3,76.6h-41c-9.7,0-16.2,7.9-16.2,17.7v80.2c0,3.4,0.2,6.5,2,9.1c-2.2,0-4.5-0.2-6.1-1
		c-1.8-0.8-3.2-2-3.9-4.1l-4.1-11.6l0.2-0.2c1.8-0.8,2.6-3,1.8-4.9l-23.9-53c-0.6-1.2-1.8-2-3.2-2l0.4-0.2L41,31.7
		c-0.6-1.6-2-2.8-3.7-3.4l-22.7-7.7l-3.2,12.8l20.3,4.9c1.6,0.4,3.2,1.4,3.9,3L66.2,110c-1,1-1.2,2.6-0.6,4.1l23.9,53
		c0.8,1.6,2.6,2.4,4.3,2l3.9,11.2c1.2,3.4,3.4,5.9,6.7,7.3c2.4,1,5.1,1.4,8.1,1.4c1.6,0,3.2-0.6,4.7-0.8c2.8,2,6.3,2.8,10.1,2.8h41
		c9.7,0,18.9-6.9,18.9-16.6V94.2C187.3,84.5,178,76.6,168.3,76.6z"/>
</g>
</svg>
