<?xml version="1.0" encoding="utf-8"?>
<!-- Generator: Adobe Illustrator 26.0.2, SVG Export Plug-In . SVG Version: 6.00 Build 0)  -->
<svg version="1.1" id="Layer_1" xmlns="http://www.w3.org/2000/svg" xmlns:xlink="http://www.w3.org/1999/xlink" x="0px" y="0px"
	 viewBox="0 0 200 200" style="enable-background:new 0 0 200 200;" xml:space="preserve">
<g>
	<path id="path2" class="primary" d="M107.3,125.9L107.3,125.9C107.4,126.1,107.4,126.1,107.3,125.9z"/>
	<path id="path3" class="primary" d="M138.6,41.6C138.6,41.6,138.8,41.8,138.6,41.6C139.4,41.6,139,41.6,138.6,41.6z"/>
	<path id="path4" class="primary" d="M191,100c5.3-11.9-0.2-25.9-12-31c-0.9-0.4-2-0.7-2.9-1.1L109.4,133c0,2.7,0.2,5.5,0.7,8.2l-9.7,4.2l6.7-19.5
		c0-0.2-0.2-0.2,0,0l31.4-84.1c-0.7,0-0.4,0,0,0c-5.1-10.8-16.1-18.2-28.8-18.2c-2.9,0-5.8,0.4-8.6,1.3C95.8,15.4,85.4,8.8,73.5,8.8
		c-14.4,0-26.4,9.5-30.5,22.4c-7.7,2.2-13.9,7.8-16.6,15.3c-11.9,4.4-20.2,15.7-20.2,29c0,13,7.8,24.1,19.2,28.6
		c-0.4,2-0.7,4.2-0.7,6.4c0,17.1,13.9,31,31,31c6.9,0,13.1-2.2,18.2-6l10.9,14l-4.4,41.6h27.2c0,0-4.2-32.1-4.7-38.9
		c0.2-0.2,0.2-0.2,0.4-0.4l-0.9-1.3c4.7-1.8,7.8-3.1,10-3.8c3.1,7.1,8.8,13,16.4,16.4c16.2,7.1,35-0.2,42.1-16.4
		c0.4-0.5,0.5-1.3,0.7-2c7.8-1.1,15-6,18.4-13.9c3.6-8.4,2-17.7-3.3-24.4C188.2,104.7,189.9,102.6,191,100z M89.2,145.4l-9.9-14.8
		c2.6-3.1,4.6-6.6,5.8-10.4l8.2,14L89.2,145.4z M104.2,117.3l-4.2,13.1l-6.6-10.6C97.2,119.7,100.9,118.8,104.2,117.3z"/>
</g>
</svg>
