<?xml version="1.0" encoding="utf-8"?>
<!-- Generator: Adobe Illustrator 26.0.2, SVG Export Plug-In . SVG Version: 6.00 Build 0)  -->
<svg version="1.1" id="Layer_1" xmlns="http://www.w3.org/2000/svg" xmlns:xlink="http://www.w3.org/1999/xlink" x="0px" y="0px"
	 viewBox="0 0 200 200" style="enable-background:new 0 0 200 200;" xml:space="preserve">
<g>
	<path id="path2" d="M169.6,159.3c13.6-16.1,21.9-36.8,21.9-59.6c0-50.9-41.4-92.4-92.3-92.4S7,48.7,7,99.7S48.4,192,99.3,192
		c22.7,0,43.6-8.3,59.6-21.9 M99.2,176.5c-42.4,0-76.9-34.5-76.9-76.9s34.5-76.9,76.9-76.9S176,57.3,176,99.7
		S141.6,176.5,99.2,176.5z"/>
	<path id="path3" d="M127.6,50.3c-3.7-2.1-8.3-0.8-10.5,2.7L104,75.8c-4.3-0.8-7.7-0.4-9.5,0L81.3,53c-2.1-3.7-6.8-4.8-10.5-2.7
		c-17.6,10.1-28.5,29-28.5,49.4c0,4.3,3.5,7.7,7.7,7.7h26.5c1,3.1,2.7,5.8,4.8,8.3l-13.2,22.8c-2.1,3.7-0.8,8.3,2.7,10.5
		c25,14.5,48.6,4.8,56.9,0c3.7-2.1,4.8-6.8,2.7-10.5l-13.6-23c2.1-2.3,3.7-5.2,4.8-8.3h26.5c4.3,0,7.7-3.5,7.7-7.7
		C156.1,79.3,145.2,60.5,127.6,50.3z M76.3,91.9h-18c1.7-9.3,6.6-17.8,13.7-23.8l9.1,15.7l0,0C79,86.1,77.3,89,76.3,91.9z
		 M99.2,90.9c4.8,0,8.7,3.9,8.7,8.7c0,4.8-3.9,8.7-8.7,8.7c-4.8,0-8.7-3.9-8.7-8.7C90.4,94.8,94.3,90.9,99.2,90.9z M85.4,139
		l9.1-15.7c1.9,0.4,5.4,0.8,9.5,0l9.1,15.7C103.4,142.2,93.5,141.9,85.4,139z M122,91.9c-1-3.1-2.7-5.8-4.8-8.3l0,0l9.1-15.7
		c7.2,6.2,12,14.7,13.7,23.8h-18V91.9z"/>
</g>
</svg>
