<?xml version="1.0" encoding="utf-8"?>
<!-- Generator: Adobe Illustrator 26.0.2, SVG Export Plug-In . SVG Version: 6.00 Build 0)  -->
<svg version="1.1" id="Layer_1" xmlns="http://www.w3.org/2000/svg" xmlns:xlink="http://www.w3.org/1999/xlink" x="0px" y="0px"
	 viewBox="0 0 200 200" style="enable-background:new 0 0 200 200;" xml:space="preserve">
<path id="path2" d="M131.8,82.7l-6.7-13.3c-0.6-1.3-2-2-3.3-2v-7.6h65c2,0,3.9-1.7,3.9-3.9c0-2-1.7-3.9-3.9-3.9h-65.2v-3.9
	c0-2-1.7-3.9-3.9-3.9c-2,0-3.9,1.7-3.9,3.9V52H49c-2,0-3.9,1.7-3.9,3.9c0,2,1.7,3.9,3.9,3.9h65.2v7.6h-3.9c-1.1,0-2,0.4-2.8,1.1
	L93.3,82.7H35.5c-1.5-2.6-3.7-4.6-6.3-5.9l-7.2-14.5c-0.9-1.9-3.1-2.6-5-1.9l-7.8,3.3c-1.9,0.7-2.8,2.8-2,4.8L11,80.1
	c-2.4,2.8-4.1,6.3-4.1,10.4c0,5.7,3.1,10.6,7.6,13.3v5.9c0,2,1.7,3.9,3.9,3.9h3.9c1.5,0,2.8-0.7,3.3-2l3.7-7.2
	c2.4-1.3,4.6-3.1,5.9-5.6c14.3,2.6,35.9,8,41.3,13.3l0.2,0.6c7.2,14.3,16.3,31.9,33.5,31.9h19.1v7.6H94.9c-2,0-3.9,1.7-3.9,3.9
	c0,2,1.7,3.9,3.9,3.9h38c0.2,0,0.2,0,0.4,0s0.2,0,0.4,0h29.8c0.2,0,0.4,0,0.6,0s0.4,0,0.6,0h7.8c1.5-0.2,13.9-2.2,18.2-9.6
	c1.1-1.9,0.4-4.3-1.5-5.2s-4.3-0.4-5.2,1.5c-1.9,3.3-9.3,5.2-12,5.7h-3.9v-7.8c13.3-1.3,23-9.1,23-18.9l0,0l0,0
	C190.7,113.1,164.8,84,131.8,82.7z M181.7,120.9h-29.3c-5.2,0-9.6-3.3-10.9-8.2l-6.7-22.2C158.9,92.9,176.8,111.8,181.7,120.9z
	 M137.2,151.7v-7.8h23v7.6h-23V151.7z"/>
</svg>
