<?xml version="1.0" encoding="utf-8"?>
<!-- Generator: Adobe Illustrator 26.0.2, SVG Export Plug-In . SVG Version: 6.00 Build 0)  -->
<svg version="1.1" id="Layer_1" xmlns="http://www.w3.org/2000/svg" xmlns:xlink="http://www.w3.org/1999/xlink" x="0px" y="0px"
	 viewBox="0 0 200 200" style="enable-background:new 0 0 200 200;" xml:space="preserve">
<style type="text/css">
	.st0{fill:#FFFFFF;}
</style>
<g>
	<path id="path2" class="primary" d="M101.7,146.3H58.3c-5.9,0-9.5-6.3-6.7-11.4l21.9-39.6L95,57.2c2.8-5.3,10.4-5.1,13.4,0l21.7,38.6l21.9,39.2
		c2.8,5.1-0.8,11.4-6.7,11.4C145.4,146.3,101.7,146.3,101.7,146.3z"/>
	<path id="path3" class="primary" d="M170.1,191H33.5V8.7h136.4V191H170.1z M42.2,182.3h119V17.4h-119V182.3z"/>
	<path id="path4" class="st0" d="M101.7,136.6c-4.3,0-7.1-3-7.1-7.3s3-7.3,7.1-7.3c4.3,0,7.1,3,7.1,7.3
		C109,133.5,106.2,136.6,101.7,136.6L101.7,136.6z M97.2,114.7l-1.8-36.1h12.8l-1.8,36.1C106.4,114.7,97.2,114.7,97.2,114.7z"/>
</g>
</svg>
