<?xml version="1.0" encoding="utf-8"?>
<!-- Generator: Adobe Illustrator 26.0.2, SVG Export Plug-In . SVG Version: 6.00 Build 0)  -->
<svg version="1.1" id="Layer_1" xmlns="http://www.w3.org/2000/svg" xmlns:xlink="http://www.w3.org/1999/xlink" x="0px" y="0px"
	 viewBox="0 0 200 200" style="enable-background:new 0 0 200 200;" xml:space="preserve">
<g>
	<path id="path2" d="M84.4,34.1c-4.5-1.4-9.3,0.7-11.5,4.8l-1.7,3.1c0.2,0,0.5,0,0.7,0c7.7,0.5,14.3,4.8,18.1,10.8l1.5-7.2
		C92.3,40.5,89.4,35.5,84.4,34.1z"/>
	<path id="path3" d="M69.6,46.9c-7.2-0.5-14.3,2.6-19.1,8.1L33.8,74.7c4-1.2,8.3-1.7,12.7-1.7c18.6,0,34.7,11,42.1,26.8l2.4-28
		C92.1,58.9,82.5,47.7,69.6,46.9z"/>
	<path id="path4" d="M46.5,80.8C25.2,80.8,8,98.1,8,119.5s17.2,38.7,38.5,38.7s38.7-17.4,38.7-38.7S67.9,80.8,46.5,80.8z
		 M46.5,149.9c-16.9,0-30.4-13.8-30.4-30.4c0-16.9,13.8-30.4,30.4-30.4C63.4,89,77,102.8,77,119.5C77.1,136.3,63.4,149.9,46.5,149.9
		z"/>
	<path id="path5" d="M127.9,42.1l-1.7-3.3c-2.2-4.1-7.1-6.2-11.5-4.8c-5,1.5-7.9,6.5-6.9,11.5l1.7,8.6
		C113.1,47.4,119.8,42.7,127.9,42.1z"/>
	<path id="path6" d="M152.3,73c4.5,0,8.6,0.7,12.7,1.7L148.3,55c-4.6-5.5-11.7-8.6-19.1-8.1c-12.9,0.9-22.5,12-21.3,24.9l2.4,28
		C117.7,84,133.7,73,152.3,73z"/>
	<path id="path7" d="M152.3,80.8c-21.3,0-38.7,17.4-38.7,38.7s17.4,38.7,38.7,38.7s38.7-17.4,38.7-38.7S173.6,80.8,152.3,80.8z
		 M152.3,149.9c-16.9,0-30.4-13.8-30.4-30.4c0-16.9,13.8-30.4,30.4-30.4c16.9,0,30.4,13.8,30.4,30.4
		C182.9,136.3,169.2,149.9,152.3,149.9z"/>
	<polygon id="polygon1" points="103.1,76.1 95.2,76.1 93.5,99.3 104.5,99.3 	"/>
	<rect id="rect1" x="93.5" y="103.6" width="11" height="11"/>
</g>
</svg>
