<?xml version="1.0" encoding="utf-8"?>
<!-- Generator: Adobe Illustrator 26.0.2, SVG Export Plug-In . SVG Version: 6.00 Build 0)  -->
<svg version="1.1" id="Layer_1" xmlns="http://www.w3.org/2000/svg" xmlns:xlink="http://www.w3.org/1999/xlink" x="0px" y="0px"
	 viewBox="0 0 200 200" style="enable-background:new 0 0 200 200;" xml:space="preserve">
<g>
	<polygon id="polygon1" class="primary" points="70.4,29.8 70.4,37.6 183.2,37.6 183.2,124.3 75.7,124.3 75.7,132.1 191.2,132.1 191.2,29.8 	"/>
	<polygon id="polygon2" class="primary" points="126.6,145.1 148.4,174 159.6,174 137.7,145.1 	"/>
	<polygon id="polygon3" class="primary" points="88.2,174 99.3,174 121.1,145.1 110,145.1 	"/>
	<circle id="circle1" class="primary" cx="43.1" cy="40.8" r="17.2"/>
	<path id="path2" class="primary" d="M115.1,70.4c0-3.7-2.9-6.6-6.6-6.6H64.6H54.4H25.9V109v12.1v46.2c0,3.7,2.9,6.6,6.6,6.6c3.7,0,6.6-2.9,6.6-6.6
		v-45.8h10.5V166c0,4.3,3.5,7.8,7.8,7.8s7.8-3.5,7.8-7.8v-44.9V109V77h43.3C112.1,77,115.1,74.1,115.1,70.4z"/>
	<path id="path3" class="primary" d="M7.2,78.2v40.2c0,3.9,3.1,7,7,7s7-3.1,7-7V64C13.4,64,7.2,70.2,7.2,78.2z"/>
</g>
</svg>
