<?xml version="1.0" encoding="utf-8"?>
<!-- Generator: Adobe Illustrator 26.0.0, SVG Export Plug-In . SVG Version: 6.00 Build 0)  -->
<svg version="1.1" id="Layer_1" xmlns="http://www.w3.org/2000/svg" xmlns:xlink="http://www.w3.org/1999/xlink" x="0px" y="0px"
	 viewBox="0 0 200 200" style="enable-background:new 0 0 200 200;" xml:space="preserve">
<path id="path" class="primary" d="M151.9,45.2L151.9,45.2c-0.1-10.9-4.9-20.7-12.4-27.6l-1.6-1.4c-6.5-5.4-14.9-8.6-24-8.6c-18.6,0-34.1,13.4-37.3,31
	c-0.7,0-1.3-0.1-2-0.1c-13.6,0-25.3,8.3-30.4,20.1c-1.1-0.2-2.2-0.2-3.3-0.2c-12.8,0-23.1,10.4-23.1,23.1
	c0,12.8,10.4,23.1,23.1,23.1h41.4l-18.8,41.1H86l-19.3,49.5l50.7-59.4H92l22.7-31.2h37.2c16.4,0,29.7-13.3,29.7-29.7
	S168.4,45.2,151.9,45.2z"/>
</svg>
