<?xml version="1.0" encoding="utf-8"?>
<!-- Generator: Adobe Illustrator 26.0.2, SVG Export Plug-In . SVG Version: 6.00 Build 0)  -->
<svg version="1.1" id="Layer_1" xmlns="http://www.w3.org/2000/svg" xmlns:xlink="http://www.w3.org/1999/xlink" x="0px" y="0px"
	 viewBox="0 0 200 200" style="enable-background:new 0 0 200 200;" xml:space="preserve">
<g>
	<polygon id="polygon1" class="primary" points="83.4,191 122.5,190.8 122.3,182.4 102.6,182.5 102.6,178.3 122.3,178.1 122.3,173.9 108.4,173.9 
		108.2,169.7 122.3,169.7 122.3,165.4 108.2,165.4 108.2,161.2 122.3,161.2 122.3,157 108.2,157 108.2,152.8 122.2,152.8
		122.2,148.5 102.4,148.5 102.4,144.3 122.2,144.3 122.2,139.9 108.2,140.1 108.2,135.8 122.2,135.7 122.2,131.4 108.1,131.6
		108.1,127.4 122.2,127.2 122.2,123 108.1,123 108.1,118.7 122.2,118.7 122,114.5 102.2,114.5 102.2,110.3 122,110.3 122,106
		108.1,106 108.1,101.8 122,101.8 122,97.6 107.9,97.6 107.9,93.4 122,93.2 122,88.9 107.9,89.1 107.9,84.9 122,84.7 121.8,80.5
		102.1,80.7 102.1,76.4 121.8,76.3 121.8,72 107.9,72 107.9,67.8 121.8,67.8 121.8,63.6 107.9,63.6 107.7,59.3 121.8,59.3
		121.8,55.1 107.7,55.1 107.7,50.9 121.8,50.9 121.8,46.6 102.1,46.6 101.9,42.4 121.6,42.2 121.6,38 107.7,38.2 107.7,34
		121.6,33.8 121.6,29.6 107.7,29.7 107.5,25.3 121.6,25.3 121.6,21.1 107.5,21.1 107.5,16.9 121.6,16.9 121.6,8.4 82.5,8.6 	"/>
</g>
</svg>
