<?xml version="1.0" encoding="utf-8"?>
<!-- Generator: Adobe Illustrator 26.0.2, SVG Export Plug-In . SVG Version: 6.00 Build 0)  -->
<svg version="1.1" id="Layer_1" xmlns="http://www.w3.org/2000/svg" xmlns:xlink="http://www.w3.org/1999/xlink" x="0px" y="0px"
	 viewBox="0 0 200 200" style="enable-background:new 0 0 200 200;" xml:space="preserve">
<g>
	<path id="path2" class="primary" d="M70.7,107.5"/>
	<g>
		<g>
			<path id="path3" class="primary" d="M134.1,27.8c0,0-1.1-2.1-3.9-3.7c-3.5-1.9-6-1.9-6-1.9s3.5-7.9,5.1-10c1.8-2.5,4.7-3,7.7-1.2
				c3.3,1.8,3.3,4.9,2.5,6.8"/>
		</g>
		<path id="path4" class="primary" d="M116.3,27.8c-12.4,0-22.4,10-22.4,22.4s10,22.4,22.4,22.4s22.4-10,22.4-22.4C138.9,37.8,128.7,27.8,116.3,27.8
			z M116.8,57.6c-4,0-7.2-3.2-7.2-7.2s3.2-7.2,7.2-7.2c4,0,7.2,3.2,7.2,7.2S120.8,57.6,116.8,57.6z"/>
		<path id="path5" class="primary" d="M154.6,111l-1.1-9.3c0,0-10,3-22.4,4.7c1.1-17,1.8-31.5,1.8-31.5s-3.9,2.1-6.7,3c-2.8,0.9-8.9,1.8-8.9,1.8
			s-0.5,14.7-1.1,21l-0.5,7.2c-6.8,0.2-13.5-0.5-19.1-2.3c-4.4-1.4-8.4-3.5-12.1-6l4.4-7.2c3.2-5.3,11-17.7,11-17.7
			s-4.6-3.3-6.7-5.6c-2.3-2.6-4.2-7-4.2-7s-7.5,12.4-16.5,27C64.4,80,60,71,60,71l-7.7,8.1c0,0,4.9,10,14.4,19.8
			c-10.9,17.9-21.7,35.6-21.9,35.9l-9.5,26.3l1.9,0.7l-1.9,5.6l5.1,1.6l2.8-5.1l1.9,0.7l1.1-1.6c0.2-0.2,13.1-21.2,18.9-31
			l13.5-22.8c3.9,2.6,8.2,4.9,13,6.5c7.4,2.5,15.4,3.3,23.3,3.2l-2.3,28c-0.9,11.4-2.5,36.1-2.5,36.3l-0.2,1.9l2.1,0.5l-0.5,5.8
			l5.1,1.6l1.8-5.8l2.1,0.5l7.5-26.5v-0.5c0-0.4,1.2-22.1,2.5-43.6C144.3,115,154.6,111,154.6,111z"/>
	</g>
</g>
</svg>
