<?xml version="1.0" encoding="utf-8"?>
<!-- Generator: Adobe Illustrator 26.0.2, SVG Export Plug-In . SVG Version: 6.00 Build 0)  -->
<svg version="1.1" id="Layer_1" xmlns="http://www.w3.org/2000/svg" xmlns:xlink="http://www.w3.org/1999/xlink" x="0px" y="0px"
	 viewBox="0 0 200 200" style="enable-background:new 0 0 200 200;" xml:space="preserve">
<g>
	<g>
		<g>
			<polygon id="polygon1" class="primary" points="155.7,21.5 179.5,45.9 171.7,53.7 160.4,42 155.7,46.8 167,58.2 161.9,63.2 154.5,55.8 150,60.3
				157.4,67.9 150.4,74.7 138.9,63.2 134.4,67.7 145.7,79.2 140.5,84.1 133.2,76.7 128.6,81.2 142.4,95.2 192.5,46.1 155.7,8.8
				105.3,58.2 111.6,64.8 			"/>
			<polygon id="polygon2" class="primary" points="84.7,121.9 93.3,130.7 87,136.8 74.3,124.1 69.8,128.6 82.3,141.6 77.1,146.5 68.5,137.7
				64,142.4 72.4,151 65.4,157.8 52.9,145 48.2,149.6 60.9,162.5 55.8,167.4 47.2,158.6 42.5,163.3 51.1,171.9 44.9,178.1
				20.9,153.9 74.3,101.5 67.7,95.2 8.2,153.7 44.7,191 104.4,132.5 89.5,117.3 			"/>
			<path id="path2" class="primary" d="M82.5,44.1L82.5,44.1L57.9,19.5L28.9,48.4L53.5,73l0,0l76.1,76.1l46.8,20.5L159,121L82.5,44.1z M48.8,57.4
				l-9-9l18.1-18.1l9,9L48.8,57.4z M158.4,157.6l-26.3-11.5l-3.5-3.5l15.4,1l-2.7-10.7l11.3,2.1l0.2-14.8l2.5,2.5l10.1,27.7
				L158.4,157.6z"/>
		</g>
	</g>
</g>
</svg>
