<?xml version="1.0" encoding="utf-8"?>
<!-- Generator: Adobe Illustrator 26.0.0, SVG Export Plug-In . SVG Version: 6.00 Build 0)  -->
<svg version="1.1" id="Layer_1" xmlns="http://www.w3.org/2000/svg" xmlns:xlink="http://www.w3.org/1999/xlink" x="0px" y="0px"
	 viewBox="0 0 200 200" style="enable-background:new 0 0 200 200;" xml:space="preserve">
<g>
	<path id="path1" class="primary" d="M96.5,126.3c-0.4,0-0.8-0.1-1-0.4c-0.3-0.3-0.4-0.6-0.4-1v-4c-3-0.3-5.4-1.1-7.4-2.2c-2-1.1-3.5-2.5-4.5-4.1
		c-1-1.6-1.5-3.3-1.6-5c0-0.3,0.1-0.6,0.4-0.8c0.2-0.2,0.5-0.4,0.9-0.4h7.3c0.5,0,1,0.1,1.2,0.3c0.3,0.2,0.5,0.4,0.8,0.8
		c0.3,0.6,0.7,1.1,1.3,1.7c0.6,0.5,1.3,1,2.2,1.3c0.9,0.3,2,0.5,3.4,0.5c2.2,0,3.9-0.3,5-1c1.1-0.7,1.7-1.6,1.7-2.8
		c0-0.9-0.3-1.6-0.9-2.1c-0.6-0.5-1.6-1-3-1.5c-1.4-0.4-3.2-0.9-5.5-1.4c-2.9-0.6-5.4-1.4-7.5-2.4c-2.1-1-3.6-2.3-4.7-3.9
		c-1.1-1.6-1.6-3.6-1.6-6c0-3.1,1.1-5.7,3.3-7.8c2.2-2.2,5.3-3.5,9.1-4v-4c0-0.4,0.1-0.8,0.4-1c0.3-0.3,0.6-0.4,1-0.4h4.8
		c0.4,0,0.7,0.1,1,0.4c0.3,0.3,0.4,0.6,0.4,1v4.2c2.7,0.5,4.9,1.3,6.7,2.5c1.8,1.2,3.2,2.5,4.1,4c0.9,1.5,1.4,2.9,1.5,4.3
		c0,0.3-0.1,0.6-0.3,0.8c-0.2,0.3-0.5,0.4-0.9,0.4h-7.6c-0.4,0-0.8-0.1-1.1-0.2c-0.3-0.2-0.6-0.4-0.8-0.8c-0.2-0.8-0.8-1.6-1.8-2.2
		c-1-0.6-2.3-1-3.8-1c-1.7,0-3,0.3-4,0.9c-0.9,0.6-1.4,1.5-1.4,2.7c0,0.8,0.3,1.4,0.8,2c0.5,0.6,1.4,1.1,2.6,1.5
		c1.2,0.4,2.9,0.9,5,1.3c3.5,0.7,6.3,1.5,8.5,2.5c2.2,1,3.7,2.3,4.7,3.8c1,1.6,1.5,3.5,1.5,5.9c0,2.3-0.6,4.3-1.7,6
		c-1.1,1.7-2.7,3.1-4.8,4.2c-2,1.1-4.4,1.8-7.2,2.1v4c0,0.4-0.1,0.7-0.4,1s-0.6,0.4-1,0.4H96.5z"/>
</g>
<path id="path2" class="primary" d="M93.7,60.6c-40.4,5.3-82.5-8.2-82.5-8.2v86.4c0,0,38.9,13.9,89.4,6.8c55.6-7.9,88.3-1.4,88.3-1.4V57.6
	C188.8,57.6,145.2,53.9,93.7,60.6z M15.5,134.2v-13.7c5.7,3.6,10.6,13.7,10.6,13.7H15.5z M15.5,75.8v-15l13.9,2.7
	C25.9,73.6,15.5,75.8,15.5,75.8z M98.3,134.2c-18.9,0-34.2-15.3-34.2-34.2c0-18.9,15.3-34.2,34.2-34.2c18.9,0,34.2,15.3,34.2,34.2
	C132.5,118.9,117.2,134.2,98.3,134.2z M182,138.8l-14.7-2.8c3.8-12.5,14.7-13.3,14.7-13.3V138.8z M182,77.2c0,0-8.7-6-11.7-16.3
	l11.7,1.6V77.2z"/>
</svg>
