<?xml version="1.0" encoding="utf-8"?>
<!-- Generator: Adobe Illustrator 26.0.2, SVG Export Plug-In . SVG Version: 6.00 Build 0)  -->
<svg version="1.1" id="Layer_1" xmlns="http://www.w3.org/2000/svg" xmlns:xlink="http://www.w3.org/1999/xlink" x="0px" y="0px"
	 viewBox="0 0 200 200" style="enable-background:new 0 0 200 200;" xml:space="preserve">
<path id="path2" d="M21.2,104.7v12.1c4-3.8,9.3-6.1,14.7-6.3c5.8-0.2,11.7,2.1,16.1,6.3c2.1,1.9,3.7,4.4,4.9,6.8h3.8L46,104.7H21.2z
	"/>
<path id="path3" d="M53.7,89.1c0,0,2.4-4.9,0-9.1H28.1L21,50.7c0,0-5.8-5.2-10,0l8.6,38.5H53.7z"/>
<path id="path4" d="M35.8,111.9c-11.2,0.3-21,10.5-20.6,21.7c0.3,11.7,9.8,20.8,21.7,20.6c11.4,0,20.6-10,20.5-21.7
	C57.3,121.1,47.4,111.5,35.8,111.9z"/>
<path id="path5" d="M67.7,56.4c1,1.2,3,1.2,4.2,0.2l19.6-18.4c1.2-1,1.2-3,0.2-4.2c-1-1.2-3-1.2-4.2-0.2L67.7,52.2
	C66.4,53.5,66.4,55.2,67.7,56.4L67.7,56.4z"/>
<path id="path6" d="M169.8,110.1c6.1-0.2,12.1,2.3,16.3,6.5c0.2-0.3,0.5-0.7,0.7-1c1.4-1.9,3-3.7,3.8-5.9c0.9-2.6,0.2-4.7-0.3-7.3
	c-0.5-2.4-0.9-4.9-1.4-7.5c-1.6-7.9-2.3-16.8-5.4-24.1c-2.3-5.4-5.9-7.3-11.5-8.2c-10.1-1.4-20.1-2.8-30.2-4.4
	c-13.3-1.9-24.7-3.8-37.8-5.6L86.5,69.7l15.4,35.1H62.8L49.5,90.7H11.2c-5.8,6.1,0,12.6,0,12.6H47l14.7,19.4c8,0,16.1,0,24.1,0
	c16.4,0,32.7,0,49.1,0c5.1,0,10.3,0,15.4,0C154,115.5,161.6,110.5,169.8,110.1z"/>
<path id="path7" d="M169.8,112c-11.2,0.3-21,10.5-20.6,21.7c0.3,11.7,9.8,20.8,21.7,20.6c11.4,0,20.6-10,20.5-21.7
	C191.3,121.1,181.3,111.7,169.8,112z"/>
<polygon id="polygon1" points="99.8,103.8 97.6,98.6 59.1,98.6 64.2,103.8 "/>
<polygon id="polygon2" points="75.2,56.6 84.3,56.6 89.9,62.2 96.2,56.1 90.9,50.8 91.4,40.3 87.8,44 87.6,47.5 85.8,45.8 
	79.7,52.1 80.8,53.1 78.7,53.1 "/>
</svg>
