<?xml version="1.0" encoding="utf-8"?>
<!-- Generator: Adobe Illustrator 26.0.0, SVG Export Plug-In . SVG Version: 6.00 Build 0)  -->
<svg version="1.1" id="Layer_1" xmlns="http://www.w3.org/2000/svg" xmlns:xlink="http://www.w3.org/1999/xlink" x="0px" y="0px"
	 viewBox="0 0 72 72" style="enable-background:new 0 0 72 72;" xml:space="preserve">
<path id="path1" class="primary" d="M42.91,14.6c-0.6-0.4-1.36-0.46-2.02-0.18L9.95,27.63c-0.26,0.11-0.43,0.36-0.43,0.64v15.06c0,0.38,0.31,0.7,0.7,0.7h32.95
	c0.38,0,0.7-0.32,0.7-0.7V16.38C43.87,15.67,43.51,15,42.91,14.6z M39.76,40.26c0,0.19-0.15,0.34-0.34,0.34h-3.11
	c-0.12,0-0.24-0.07-0.3-0.17l-2.63-4.79c-0.06-0.11-0.06-0.24,0-0.34s0.17-0.17,0.29-0.17h5.75c0.19,0,0.34,0.16,0.34,0.34V40.26z
	 M39.77,32.98c0,0.2-0.16,0.35-0.35,0.35h-5.75c-0.19,0-0.35-0.15-0.35-0.35V21.87c0-0.19,0.16-0.35,0.35-0.35h5.75
	c0.19,0,0.35,0.16,0.35,0.35V32.98z"/>
<g>
	<path id="path2" class="primary" d="M42.94,58.84H12.36c-1.32,0-2.52-0.73-3.12-1.91L6.08,50.7c-0.55-1.09-0.5-2.36,0.14-3.41c0.64-1.04,1.75-1.66,2.97-1.66
		h36.89c1.22,0,2.33,0.62,2.97,1.66c0.64,1.04,0.69,2.32,0.14,3.41l-3.16,6.23C45.46,58.11,44.26,58.84,42.94,58.84z M9.21,47.73
		c-0.49,0-0.92,0.24-1.18,0.66s-0.28,0.91-0.06,1.35l3.16,6.23c0.24,0.47,0.71,0.76,1.23,0.76h30.57c0.52,0,1-0.29,1.23-0.76
		l3.16-6.23c0.22-0.44,0.2-0.93-0.06-1.35c-0.26-0.42-0.69-0.66-1.18-0.66H9.21z"/>
</g>
<g>
	<path id="path3" class="primary" d="M66.4,47.47l-3.25-3.25l2.26-6.92c0.05-0.15,0.04-0.3-0.01-0.45l-1.12-3.23c-0.08-0.25-0.31-0.43-0.57-0.47
		s-0.52,0.08-0.67,0.3l-4.36,6.37c-1.38-1-3.43-0.88-4.65,0.34l-0.06,0.06h-8.7c-0.19,0-0.35,0.15-0.35,0.35v3.06
		c0,0.2,0.16,0.35,0.35,0.35h5c-0.43,0.6-0.67,1.33-0.67,2.09c0,0.96,0.37,1.86,1.04,2.53l7.32,7.32c0.67,0.67,1.57,1.04,2.53,1.04
		c0.95,0,1.85-0.37,2.52-1.04l3.39-3.39c0.68-0.68,1.05-1.57,1.05-2.53C67.45,49.05,67.08,48.15,66.4,47.47z M59.72,40.79l3.69-5.39
		L64,37.09l-1.97,6.01L59.72,40.79z"/>
</g>
</svg>
