<?xml version="1.0" encoding="utf-8"?>
<!-- Generator: Adobe Illustrator 26.0.0, SVG Export Plug-In . SVG Version: 6.00 Build 0)  -->
<svg version="1.1" id="Layer_1" xmlns="http://www.w3.org/2000/svg" xmlns:xlink="http://www.w3.org/1999/xlink" x="0px" y="0px"
	 viewBox="0 0 200 200" style="enable-background:new 0 0 200 200;" xml:space="preserve">
<g>
	<path id="path1" class="primary" d="M34,71.5h81.5c1.6,0,2.9-1.3,2.9-2.9s-1.3-2.9-2.9-2.9H34c-1.6,0-2.9,1.3-2.9,2.9S32.4,71.5,34,71.5z"/>
	<path id="path2" class="primary" d="M34,89h69.9c1.6,0,2.9-1.3,2.9-2.9s-1.3-2.9-2.9-2.9H34c-1.6,0-2.9,1.3-2.9,2.9S32.4,89,34,89z"/>
	<path id="path3" class="primary" d="M89.4,103.6c0-1.6-1.3-2.9-2.9-2.9H34c-1.6,0-2.9,1.3-2.9,2.9c0,1.6,1.3,2.9,2.9,2.9h52.4
		C88.1,106.5,89.4,105.2,89.4,103.6z"/>
	<path id="path4" class="primary" d="M80.6,118.1H34c-1.6,0-2.9,1.3-2.9,2.9s1.3,2.9,2.9,2.9h46.6c1.6,0,2.9-1.3,2.9-2.9S82.2,118.1,80.6,118.1z"/>
	<path id="path5" class="primary" d="M69,54.1h46.6c1.6,0,2.9-1.3,2.9-2.9c0-1.6-1.3-2.9-2.9-2.9H69c-1.6,0-2.9,1.3-2.9,2.9C66.1,52.8,67.4,54.1,69,54.1z"/>
	<path id="path6" class="primary" d="M74.8,135.6H34c-1.6,0-2.9,1.3-2.9,2.9c0,1.6,1.3,2.9,2.9,2.9h40.8c1.6,0,2.9-1.3,2.9-2.9
		C77.7,136.9,76.4,135.6,74.8,135.6z"/>
	<path id="path7" class="primary" d="M181.3,68.6l2.1-2.1c5.7-5.7,5.7-14.9,0-20.6c-5.7-5.7-14.9-5.7-20.6,0l-4.1,4.1l-5.3,5.3V33.7c0-1.6-1.3-2.9-2.9-2.9
		h-14.6V16.2c0-1.6-1.3-2.9-2.9-2.9H51.5c-0.8,0-1.5,0.3-2.1,0.9L14.5,49.1c-0.5,0.5-0.9,1.3-0.9,2.1v116.5c0,1.6,1.3,2.9,2.9,2.9
		h14.6v14.6c0,1.6,1.3,2.9,2.9,2.9h116.5c1.6,0,2.9-1.3,2.9-2.9V96.5l23.8-23.8l4.1,4.1l-22.7,22.5c-1.1,1.1-1.2,3,0,4.1
		c1.1,1.1,3,1.2,4.1,0c0,0,0,0,0,0l24.7-24.6c1.1-1.1,1.1-3,0-4.1c0,0,0,0,0,0L181.3,68.6z M115.4,126.2l-12.3-12.4l24.7-24.7
		l12.4,12.4L115.4,126.2z M110,129.1l-14.7,4.8l4.9-14.7L110,129.1z M144.3,97.4L132,85l28.8-28.8l12.4,12.4L144.3,97.4z M167,50
		c3.4-3.4,9-3.4,12.4,0c3.4,3.4,3.4,8.9,0,12.3l-2.1,2.1l-12.4-12.4L167,50z M147.6,36.6v24.6l-11.6,11.6V36.6H147.6z M48.6,23.2v25
		h-25L48.6,23.2z M19.5,54.1h32c1.6,0,2.9-1.3,2.9-2.9v-32h75.7v59.5L97,111.8l0,0c-0.3,0.3-0.6,0.7-0.7,1.1L88,137.6
		c-0.5,1.5,0.3,3.2,1.8,3.7c0.6,0.2,1.2,0.2,1.8,0l24.7-8.1c0.5-0.2,0.9-0.4,1.2-0.8l0,0l12.6-12.6v44.9H19.5V54.1z M147.6,182.2
		H36.9v-11.6H133c1.6,0,2.9-1.3,2.9-2.9V114l11.6-11.6V182.2z"/>
</g>
<g>
	<path id="path8" class="primary" d="M34,71.5h81.5c1.6,0,2.9-1.3,2.9-2.9s-1.3-2.9-2.9-2.9H34c-1.6,0-2.9,1.3-2.9,2.9S32.4,71.5,34,71.5z"/>
	<path id="path9" class="primary" d="M34,89h69.9c1.6,0,2.9-1.3,2.9-2.9s-1.3-2.9-2.9-2.9H34c-1.6,0-2.9,1.3-2.9,2.9S32.4,89,34,89z"/>
	<path id="path10" class="primary" d="M89.4,103.6c0-1.6-1.3-2.9-2.9-2.9H34c-1.6,0-2.9,1.3-2.9,2.9c0,1.6,1.3,2.9,2.9,2.9h52.4
		C88.1,106.5,89.4,105.2,89.4,103.6z"/>
	<path id="path11" class="primary" d="M80.6,118.1H34c-1.6,0-2.9,1.3-2.9,2.9s1.3,2.9,2.9,2.9h46.6c1.6,0,2.9-1.3,2.9-2.9S82.2,118.1,80.6,118.1z"/>
	<path id="path12" class="primary" d="M69,54.1h46.6c1.6,0,2.9-1.3,2.9-2.9c0-1.6-1.3-2.9-2.9-2.9H69c-1.6,0-2.9,1.3-2.9,2.9C66.1,52.8,67.4,54.1,69,54.1z"/>
	<path id="path13" class="primary" d="M74.8,135.6H34c-1.6,0-2.9,1.3-2.9,2.9c0,1.6,1.3,2.9,2.9,2.9h40.8c1.6,0,2.9-1.3,2.9-2.9
		C77.7,136.9,76.4,135.6,74.8,135.6z"/>
	<path id="path14" class="primary" d="M181.3,68.6l2.1-2.1c5.7-5.7,5.7-14.9,0-20.6c-5.7-5.7-14.9-5.7-20.6,0l-4.1,4.1l-5.3,5.3V33.7c0-1.6-1.3-2.9-2.9-2.9
		h-14.6V16.2c0-1.6-1.3-2.9-2.9-2.9H51.5c-0.8,0-1.5,0.3-2.1,0.9L14.5,49.1c-0.5,0.5-0.9,1.3-0.9,2.1v116.5c0,1.6,1.3,2.9,2.9,2.9
		h14.6v14.6c0,1.6,1.3,2.9,2.9,2.9h116.5c1.6,0,2.9-1.3,2.9-2.9V96.5l23.8-23.8l4.1,4.1l-22.7,22.5c-1.1,1.1-1.2,3,0,4.1
		c1.1,1.1,3,1.2,4.1,0c0,0,0,0,0,0l24.7-24.6c1.1-1.1,1.1-3,0-4.1c0,0,0,0,0,0L181.3,68.6z M115.4,126.2l-12.3-12.4l24.7-24.7
		l12.4,12.4L115.4,126.2z M110,129.1l-14.7,4.8l4.9-14.7L110,129.1z M144.3,97.4L132,85l28.8-28.8l12.4,12.4L144.3,97.4z M167,50
		c3.4-3.4,9-3.4,12.4,0c3.4,3.4,3.4,8.9,0,12.3l-2.1,2.1l-12.4-12.4L167,50z M147.6,36.6v24.6l-11.6,11.6V36.6H147.6z M48.6,23.2v25
		h-25L48.6,23.2z M19.5,54.1h32c1.6,0,2.9-1.3,2.9-2.9v-32h75.7v59.5L97,111.8l0,0c-0.3,0.3-0.6,0.7-0.7,1.1L88,137.6
		c-0.5,1.5,0.3,3.2,1.8,3.7c0.6,0.2,1.2,0.2,1.8,0l24.7-8.1c0.5-0.2,0.9-0.4,1.2-0.8l0,0l12.6-12.6v44.9H19.5V54.1z M147.6,182.2
		H36.9v-11.6H133c1.6,0,2.9-1.3,2.9-2.9V114l11.6-11.6V182.2z"/>
</g>
</svg>
