<?xml version="1.0" encoding="utf-8"?>
<!-- Generator: Adobe Illustrator 26.0.2, SVG Export Plug-In . SVG Version: 6.00 Build 0)  -->
<svg version="1.1" id="Layer_1" xmlns="http://www.w3.org/2000/svg" xmlns:xlink="http://www.w3.org/1999/xlink" x="0px" y="0px"
	 viewBox="0 0 200 200" style="enable-background:new 0 0 200 200;" xml:space="preserve">
<g>
	<path id="path2" d="M137.9,53.6H67.7c-2.9,0-5.1,2-5.1,4.7s2.2,4.7,5.1,4.7h70.3c2.9,0,5.1-2,5.1-4.7S140.8,53.6,137.9,53.6z"/>
	<path id="path3" d="M62.1,88.7c-28,0-50.6,22.7-50.6,50.6S34.2,190,62.1,190s50.6-22.7,50.6-50.6S90.1,88.7,62.1,88.7z M62.1,183.7
		c-24.3,0-44.3-19.8-44.3-44.3S37.6,95,62.1,95s44.1,20,44.1,44.3S86.5,183.7,62.1,183.7z"/>
	<path id="path4" d="M63.8,135.1l-2.7-32.3l-2.5,32.5c-1.4,0.8-2.5,2.5-2.5,4.3c0,2.7,2.2,4.9,4.9,4.9c2,0,3.9-1.2,4.5-3.1l20.2-1.8
		l-20.2-1.8C65.4,136.5,64.6,135.7,63.8,135.1z"/>
	<path id="path5" d="M137.9,81.1H72.6c8.4,1.4,15.9,4.7,22.7,9.4h42.7c2.9,0,5.1-2,5.1-4.7C143,83.2,140.8,81.1,137.9,81.1z"/>
	<path id="path6" d="M137.9,113.2H115c1.4,3.1,2.7,6.1,3.7,9.4h19.2c2.9,0,5.1-2,5.1-4.7C143,115.5,140.8,113.2,137.9,113.2z"/>
	<path id="path7" d="M137.9,145.3h-17.2c-0.4,3.3-0.8,6.3-1.6,9.4h18.8c2.9,0,5.1-2,5.1-4.7C143,147.5,140.8,145.3,137.9,145.3z"/>
	<path id="path8" d="M163.4,136.1h4.7c2.9,0,5.1-2,5.1-4.7c0-2.7-2.2-4.7-5.1-4.7h-4.7V136.1z"/>
	<path id="path9" d="M173.3,39.7c0-2.7-2.2-4.7-5.1-4.7h-4.7v9.4h4.7C171,44.2,173.3,42.1,173.3,39.7z"/>
	<path id="path10" d="M163.4,72h4.7c2.9,0,5.1-2,5.1-4.7c0-2.7-2.2-4.7-5.1-4.7h-4.7V72z"/>
	<path id="path11" d="M163.4,104h4.7c2.9,0,5.1-2,5.1-4.7c0-2.7-2.2-4.7-5.1-4.7h-4.7V104z"/>
	<path id="path12" d="M185.9,11.5H72.4v12.9h6.5V18h100.7v135.8h-19.4V30.1H46.4v52.3c2-0.6,4.3-1,6.5-1.4V36.4h100.7v136h-42.3
		c-1.6,2.2-3.3,4.5-5.1,6.5h53.9v-18.6h25.7V11.5z"/>
</g>
</svg>
