<?xml version="1.0" encoding="utf-8"?>
<!-- Generator: Adobe Illustrator 26.0.2, SVG Export Plug-In . SVG Version: 6.00 Build 0)  -->
<svg version="1.1" id="Layer_1" xmlns="http://www.w3.org/2000/svg" xmlns:xlink="http://www.w3.org/1999/xlink" x="0px" y="0px"
	 viewBox="0 0 200 200" style="enable-background:new 0 0 200 200;" xml:space="preserve">
<g>
	<path id="path2" class="primary" d="M193,91.5c0-8.4-4.8-15.7-11.8-19.2c0.8-2.4,1.3-4.7,1.3-7.4c0-12-9.7-21.5-21.5-21.5c-2.3,0-4.4,0.3-6.5,1
		c-4.7-9.9-14.9-16.8-26.5-16.8c-2.7,0-5.3,0.3-7.9,1.1C115.1,20,105.8,14,94.8,14c-11.6,0-21.6,6.8-26.3,16.6
		c7.3,1.5,13.7,5.5,18.4,11.1c1.3-0.2,2.6-0.3,3.9-0.3c10.5,0,20.4,5.3,26.3,13.7c0.8,0,1.5-0.2,2.3-0.2c13.9,0,25.2,11.3,25.2,25.2
		c0,1.1-0.2,2.3-0.3,3.6c5.8,4.7,9.2,11.8,9.2,19.5c0,7.4-3.2,14.4-8.7,19.2c-0.3,5.5-1.9,10.5-4.5,14.9c4,2.1,8.7,3.4,13.6,3.4
		c16.2,0,29.2-13.1,29.2-29.2c0-0.6,0-1.3-0.2-1.8C189,106.2,193,99.3,193,91.5z"/>
	<path id="path3" class="primary" d="M146.8,103.7c0-7.3-4.2-13.6-10.2-16.6c0.8-2.1,1.1-4,1.1-6.5c0-10.3-8.4-18.6-18.6-18.6H119c0,0,0,0-0.2,0
		c-1.8,0-3.7,0.3-5.3,0.8c-4-8.6-12.8-14.5-22.9-14.5c0,0,0,0-0.2,0c0,0,0,0-0.2,0c-2.3,0-4.5,0.3-6.6,1
		c-4.4-7.4-12.4-12.6-21.8-12.6l0,0c-0.2,0-0.2,0-0.3,0c-11.3,0-21,7.4-24.1,17.8c-6.1,1.8-11,6.3-13.2,12.1
		c-9.4,3.6-16,12.4-16,22.9c0,10.2,6.3,19.1,15.2,22.6c-0.3,1.6-0.6,3.4-0.6,5.2c0,13.6,11,24.6,24.6,24.6c5.3,0,10.5-1.8,14.5-4.8
		l8.6,11.1L67,180.9h21.5c0,0-3.4-25.5-3.7-30.7c5.5-5.5,8.7-8.7,10.7-10.7c4.5,4,10.5,6.6,17,6.6c0,0,0,0,0.2,0c0,0,0,0,0.2,0
		c3.6,0,6.9-0.8,10-2.1l0.2-0.2c4.8-2.3,8.7-5.8,11.5-10.3c0,0,0.2,0,0.2,0.2c2.3-3.7,3.6-8.1,3.6-12.8c0-0.6,0-1.1-0.2-1.6
		C143.4,116.3,146.8,110.3,146.8,103.7z M74.3,145l-7.8-11.8c3.4,1.6,7.1,2.4,11,2.6l0.2,0.3L74.3,145z M82.7,146.5l4.2-12.1
		c1.1-0.3,2.3-0.8,3.2-1.3c0.6,1.1,1.3,2.3,2.1,3.2L82.7,146.5z"/>
	<path id="path4" class="primary" d="M112.9,153.1c-2.9,0-5.8-0.5-8.7-1.3l-2.9,29.4h24.9c0,0-2.4-18.9-3.7-29.6
		C119.3,152.6,116.1,153.1,112.9,153.1z"/>
</g>
</svg>
