<?xml version="1.0" encoding="utf-8"?>
<!-- Generator: Adobe Illustrator 26.0.0, SVG Export Plug-In . SVG Version: 6.00 Build 0)  -->
<svg version="1.1" id="Layer_1" xmlns="http://www.w3.org/2000/svg" xmlns:xlink="http://www.w3.org/1999/xlink" x="0px" y="0px"
	 viewBox="0 0 200 200" style="enable-background:new 0 0 200 200;" xml:space="preserve">
<path id="path1" class="primary" d="M117.7,99H42.4c-2.8,0-5,2.2-5,5c0,2.8,2.2,5,5,5h75.3c2.7,0,5-2.2,5-5C122.7,101.2,120.4,99,117.7,99z"/>
<path id="path2" class="primary" d="M117.7,127.5H42.4c-2.8,0-5,2.2-5,5c0,2.7,2.2,5,5,5h75.3c2.7,0,5-2.2,5-5C122.7,129.8,120.4,127.5,117.7,127.5z"/>
<path id="path3" class="primary" d="M117.7,156.1H42.4c-2.8,0-5,2.2-5,5c0,2.7,2.2,5,5,5h75.3c2.7,0,5-2.2,5-5C122.7,158.3,120.4,156.1,117.7,156.1z"/>
<path id="path4" class="primary" d="M144.4,185V49.5c0-5.2-4.3-9.5-9.5-9.5h-21.3c-1.8-4.5-6.1-7.5-11.1-7.5H93c-1.6-5.7-6.9-9.8-13-9.8c-6.1,0-11.4,4-13,9.8
	h-9.5c-4.9,0-9.3,3-11.1,7.5H25.2c-5.2,0-9.5,4.3-9.5,9.5V185c0,5.2,4.3,9.5,9.5,9.5h109.7C140.1,194.4,144.4,190.2,144.4,185z
	 M80.4,31.6c3.4,0,6.2,2.8,6.2,6.2c0,3.4-2.8,6.2-6.2,6.2c-3.4,0-6.2-2.8-6.2-6.2C74.3,34.4,77,31.6,80.4,31.6z M134.7,184.8H25.4
	V50.7c0-0.5,0.4-1,1-1h19.6c0.7,1.8,2.4,3,4.4,3h59.5c2,0,3.6-1.2,4.3-3h20.6C134.7,49.7,134.7,184.8,134.7,184.8z"/>
<path id="path5" class="primary" d="M172.3,20.8H151c-1.8-4.5-6.1-7.5-11.1-7.5h-9.5c-1.6-5.7-6.9-9.8-13-9.8c-6.1,0-11.4,4-13,9.8h-9.5c-2.8,0-5.5,1-7.5,2.7
	c1-0.2,1.9-0.3,3-0.3c6,0,11.1,3.9,12.7,9.6h9.3c4,0,7.6,2,9.7,5.2h50v0.1v8.2v126.9h-18.6v9c0,0.2,0,0.4,0,0.6h18.9
	c5.2,0,9.5-4.3,9.5-9.5V30.3C181.7,25.1,177.5,20.8,172.3,20.8z M117.8,24.7c-3.4,0-6.2-2.8-6.2-6.2c0-3.4,2.8-6.2,6.2-6.2
	c3.4,0,6.2,2.8,6.2,6.2C124,21.9,121.2,24.7,117.8,24.7z"/>
<path id="path6" class="primary" d="M159.5,136.8h-11.3v9.9h11.3c2.7,0,5-2.2,5-5C164.5,139.1,162.3,136.8,159.5,136.8z"/>
<path id="path7" class="primary" d="M159.5,51.3h-11.3v9.9h11.3c2.7,0,5-2.2,5-5C164.5,53.5,162.3,51.3,159.5,51.3z"/>
<path id="path8" class="primary" d="M159.5,79.8h-11.3v9.9h11.3c2.7,0,5-2.2,5-5C164.5,82,162.3,79.8,159.5,79.8z"/>
<path id="path9" class="primary" d="M159.5,108.3h-11.3v9.9h11.3c2.7,0,5-2.2,5-5S162.3,108.3,159.5,108.3z"/>
</svg>
