<?xml version="1.0" encoding="utf-8"?>
<!-- Generator: Adobe Illustrator 26.0.2, SVG Export Plug-In . SVG Version: 6.00 Build 0)  -->
<svg version="1.1" id="Layer_1" xmlns="http://www.w3.org/2000/svg" xmlns:xlink="http://www.w3.org/1999/xlink" x="0px" y="0px"
	 viewBox="0 0 200 200" style="enable-background:new 0 0 200 200;" xml:space="preserve">
<g>
	<path id="path2" class="primary" d="M61.3,105.2c4.8,0,9.4-1.2,13.3-3.2C64.7,97.1,58,87,58,75.3s6.7-21.9,16.6-26.7c-4.1-1.9-8.5-3.2-13.3-3.2
		c-16.5,0-29.9,13.4-29.9,29.9C31.4,91.7,44.9,105.2,61.3,105.2z"/>
	<path id="path3" class="primary" d="M30.2,113.3c-11,0-20,9-20,20v15.2H33v-15.2c0-11,14.7-19.3,20-20H30.2z"/>
	<path id="path4" class="primary" d="M142,75.1c0,11.7-6.7,21.9-16.6,26.7c4.1,1.9,8.5,3.2,13.3,3.2c16.5,0,29.9-13.4,29.9-29.9
		s-13.4-29.9-29.9-29.9c-4.8,0-9.4,1.2-13.3,3.2C135.3,53.3,142,63.4,142,75.1z"/>
	<path id="path5" class="primary" d="M170,113.3h-22.8c5.3,0.7,20,9,20,20v15.2H190v-15.2C190,122.4,181,113.3,170,113.3z"/>
	<circle id="circle1" class="primary" cx="100.1" cy="75.1" r="29.9"/>
	<path id="path6" class="primary" d="M133,113.3H67.2c-11,0-20,9-20,20v15.2H153v-15.2C153,122.4,144,113.3,133,113.3z"/>
</g>
</svg>
