<?xml version="1.0" encoding="utf-8"?>
<!-- Generator: Adobe Illustrator 26.0.2, SVG Export Plug-In . SVG Version: 6.00 Build 0)  -->
<svg version="1.1" id="Layer_1" xmlns="http://www.w3.org/2000/svg" xmlns:xlink="http://www.w3.org/1999/xlink" x="0px" y="0px"
	 viewBox="0 0 200 200" style="enable-background:new 0 0 200 200;" xml:space="preserve">
<path id="path2" d="M134.8,166.7c-5.2,0.5-7.7-0.7-7.7-0.7s0.5-1-0.2-1.9c-0.7-0.9-2.6,0-7.2-2.4s-6.5-7-6.5-7s1,0.2,3.4,1.5
	c2.2,1.4,3.6,1,4.5,0.7c0.9-0.2-0.2-1.7,0.7-1.7c1,0,3.1,2.1,4.8,1.9c1.9,0,2.2-0.2,2.7-0.7c0.5-0.5,1.7-0.9,2.6-1.5
	c0.9-0.5,1.5-2.7-0.5-1.9c-2.1,0.7-4.3-1.5-7.4-2.9c-3.1-1.5-4.5-3.6-4.5-3.6s1.7,0,3.8-0.3c2.1-0.3,2.9-2.6,1.4-2.7
	c-1.5-0.2-4.6-1.9-7.2-3.8c-2.7-1.9-5.8-4.3-8.9-6.4c3.1-0.3,5.7,0.3,6.9,1.2c1.2,0.9,2.1,0.9,3.6-0.2c3.1,0,4.1-1.5,4.1-2.2
	c0-0.9-1.4-1-2.1-1c-0.7,0-1.7-0.7-3.3-1.4c-1.2-1.2-4-3.6-4-3.6s-0.3-2.6-1.9-4.5c-1.4-1.9-3.3-1.5-4.6-3.6
	c1.4,1.2,4.6,0.2,4.6,0.2s2.6,1.7,4.6,1.9c2.1,0.2,3.6,0,4.3-1c0.7-1,0-1.7-1.2-1.9c-0.2-0.7-1.2-0.7-2.4-1.5
	c-0.5-1.2-2.2-1.9-2.4-2.4c-0.3-0.3-1.7-2.2-3.6-3.1s-3.1-2.4-3.1-2.4s3.1,1.4,4.1,1.4s1.7,0.2,2.4-0.7c1,0,1.4-0.7,1.2-1.4
	c-0.2-0.7-1.2-0.5-1.5-1c-0.3-0.5-1.7-0.7-3.3-1.9c-1.7-1.2-1.9-3.3-1.9-3.3s5.3,0,5.8-0.3c0.5-0.3,0.5-1,0.5-1.7
	c0-0.9-0.3-1.4-1.7-1.4c-1.2,0-0.9-0.7-1.9-1.2c-0.9-0.5-1.4-0.3-2.1-1.2c-0.9-0.9-1.5-1.5-2.6-1.9c-1-0.5-1.7-1.4-2.7-3.1
	c0.9-0.5,0.7-1.4,0.7-1.4s1.9,0,2.6,0c0.9,0,1.9,0.2,2.7-0.9s0.2-2.4-0.9-2.6s-2.4-0.3-3.6-1.7c-1-1.4-2.4-2.1-3.3-2.9
	s-1.7-0.7-2.6-1.5s-1.5-2.6-1.5-2.6s2.9,1.4,4,1.5c1,0.2,1.2,0.3,3.6,1.4s3.4,0.7,3.6,0c0.3-0.7-0.3-1.4-1.2-2.1
	c-0.9-0.7-1.7-1.7-3.3-2.4c-1.5-0.7-2.2-2.4-2.2-2.4s0.5-0.3,1.7-0.2c1,0.2,2.2,0.2,2.4-0.7c0.3-0.9-0.2-1.4-1.5-2.1
	c-1.4-0.7-2.7-2.1-4.1-2.6c-1.4-0.7-1-1-3.3-2.6c-2.2-1.5-5.8-6-5.8-6s0.9,0.3,1.7,0.7c1,0.3,1.2,0,3.1-0.2c1.9-0.2,1.9-0.3,2.2-1.5
	c0.3-1.2-2.1-2.6-3.8-3.6c-1.7-1-1.7-1.9-2.4-3.4c-0.7-1.4-2.4-1.7-4-4.5c1.5,0.7,3.4,0.5,3.8-0.9c0.5-1.4-1.5-3.3-5-6.5
	c1.2,0.7,3.1,0.3,2.9-1.2c-0.2-1.5-5.8-3.3-6.2-5.3c-0.3-2.2-1.2-2.2-1.5-4.5c-0.3-2.2-2.6-2.9-2.6-6.5c0-3.6-1.2-7.6-2.1-7.6
	s-2.1,4-2.1,7.6c0,3.6-2.2,4.3-2.6,6.5c-0.3,2.2-1.2,2.2-1.5,4.5c-0.3,2.2-6.2,3.8-6.2,5.3c-0.2,1.5,1.7,1.9,2.9,1.2
	c-3.4,3.4-5.3,5.3-5,6.5c0.5,1.4,2.2,1.5,3.8,0.9c-1.4,2.7-3.3,3.1-4,4.5c-0.7,1.4-0.7,2.2-2.4,3.4c-1.7,1-4.1,2.4-3.8,3.6
	c0.3,1.2,0.2,1.4,2.2,1.5c1.9,0.2,2.1,0.5,3.1,0.2c1-0.3,1.7-0.7,1.7-0.7s-3.6,4.5-5.8,6c-2.2,1.5-2.1,1.9-3.3,2.6
	c-1.4,0.7-2.7,1.9-4.1,2.6s-1.7,1.2-1.5,2.1c0.3,0.9,1.4,0.9,2.4,0.7c1-0.2,1.7,0.2,1.7,0.2s-0.7,1.7-2.2,2.4
	c-1.5,0.7-2.4,1.7-3.3,2.4c-0.9,0.7-1.5,1.5-1.2,2.1c0.3,0.7,1.4,1,3.6,0c2.4-1,2.6-1.2,3.6-1.4c1-0.2,4-1.5,4-1.5s-0.7,1.7-1.5,2.6
	s-1.7,0.7-2.6,1.5c-0.9,0.9-2.2,1.5-3.3,2.9c-1,1.4-2.4,1.5-3.6,1.7c-1,0.2-1.7,1.5-0.9,2.6c0.9,1,1.9,0.9,2.7,0.9
	c0.9,0,2.6,0,2.6,0s-0.2,0.9,0.7,1.4c-0.9,1.9-1.7,2.6-2.7,3.1c-1,0.5-1.7,1-2.6,1.9c-0.9,0.9-1.2,0.7-2.1,1.2
	c-0.9,0.5-0.5,1-1.9,1.2c-1.2,0-1.5,0.5-1.7,1.4c0,0.9,0,1.4,0.5,1.7c0.5,0.3,5.8,0.3,5.8,0.3s-0.3,2.2-1.9,3.3
	c-1.7,1.2-2.9,1.2-3.3,1.9c-0.3,0.5-1.4,0.2-1.5,1c-0.2,0.7,0.2,1.4,1.2,1.4c0.9,0.7,1.4,0.7,2.4,0.7s4.1-1.4,4.1-1.4
	s-1.4,1.5-3.1,2.4c-1.9,0.9-3.3,2.6-3.6,3.1c-0.3,0.3-2.1,1.2-2.4,2.4c-1.2,0.9-2.2,0.9-2.4,1.5c-1.2,0.2-1.7,0.7-1.2,1.9
	c0.5,1.2,2.2,1.2,4.3,1c2.1-0.2,4.6-1.9,4.6-1.9s3.3,1,4.6-0.2c-1.4,2.1-3.3,1.7-4.6,3.6c-1.4,1.9-1.9,4.5-1.9,4.5s-2.9,2.4-4,3.6
	c-1.5,0.7-2.6,1.4-3.3,1.4c-0.7,0-2.1,0.2-2.1,1s1,2.4,4.1,2.2c1.5,1,2.4,1,3.6,0.2s3.8-1.4,6.9-1.2c-3.1,2.1-6.4,4.5-8.9,6.4
	c-2.7,1.9-5.7,3.6-7.2,3.8c-1.5,0.2-0.7,2.4,1.4,2.7c2.1,0.3,3.8,0.3,3.8,0.3s-1.4,2.1-4.5,3.6c-3.1,1.5-5.3,3.8-7.4,2.9
	c-2.1-0.7-1.4,1.4-0.5,1.9c0.9,0.5,2.1,0.9,2.6,1.5c0.5,0.5,0.9,0.5,2.7,0.7c1.9,0,4-1.9,4.8-1.9c1,0,0,1.4,0.7,1.7
	c0.9,0.2,2.2,0.5,4.5-0.7c2.2-1.4,3.4-1.5,3.4-1.5s-1.9,4.6-6.5,7s-6.5,1.5-7.2,2.4c-0.7,0.9-0.2,1.9-0.2,1.9s-2.6,1-7.7,0.7
	c-5.2-0.5-0.7,2.4-0.2,2.9c0.7,0.5,3.8,2.1,5.5,2.4c1.7,0.2,6,1,6,1s-2.7,2.4-2.2,3.6c0.3,1.2,4.3,0.3,6.7,0c2.4-0.3,6-0.3,8.8-2.7
	c-2.2,2.1-2.7,3.1-1.9,3.6c1,0.7,6.7,0.3,10.3-0.9c-1.5,2.1-1.4,2.7-0.3,3.4c1,0.7,8.9,0,8.9,0s-0.9,1.2-0.2,1.7
	c0.7,0.5,8.1-0.5,9.6-1.9l-0.3,9.1h10.8l-0.3-9.1c1.5,1.2,8.9,2.4,9.6,1.9s-0.2-1.7-0.2-1.7s8.1,0.7,8.9,0c1-0.7,1.2-1.4-0.3-3.4
	c3.6,1,9.3,1.4,10.3,0.9c1-0.7,0.5-1.7-1.9-3.6c2.7,2.4,6.4,2.4,8.8,2.7c2.4,0.3,6.4,1.2,6.7,0c0.3-1.2-2.2-3.6-2.2-3.6s4.3-0.7,6-1
	c1.7-0.2,4.8-1.9,5.5-2.4C135.7,169.1,140,166.2,134.8,166.7z"/>
<path id="path3" d="M180,127c-3.1,0.3-4.8-0.3-4.8-0.3s0.3-0.7,0-1.2c-0.3-0.5-1.5,0-4.5-1.5c-2.7-1.5-4-4.3-4-4.3s0.7,0.2,2.1,0.9
	c1.4,0.9,2.2,0.7,2.7,0.5c0.5-0.2-0.2-1,0.5-1c0.5,0,1.9,1.2,2.9,1.2c1.2,0,1.4,0,1.5-0.3c0.3-0.3,1-0.5,1.5-0.9
	c0.5-0.3,0.9-1.5-0.3-1.2c-1.2,0.5-2.6-0.9-4.5-1.9c-1.9-0.9-2.7-2.2-2.7-2.2s1,0,2.4-0.2c1.2-0.2,1.7-1.5,0.9-1.7
	c-1-0.2-2.7-1-4.5-2.2c-1.5-1.2-3.6-2.6-5.5-4c1.9-0.2,3.4,0.2,4.1,0.7c0.7,0.5,1.2,0.5,2.2-0.2c1.9,0,2.6-0.9,2.4-1.4
	c0-0.5-0.9-0.7-1.2-0.7c-0.3,0-1-0.3-2.1-0.9c-0.7-0.7-2.4-2.2-2.4-2.2s-0.2-1.5-1-2.7s-1.9-1-2.9-2.2c0.9,0.7,2.7,0.2,2.7,0.2
	s1.5,1,2.7,1.2c1.2,0.2,2.2,0,2.6-0.7c0.3-0.7,0-1-0.7-1.2c-0.2-0.3-0.9-0.3-1.5-0.9c-0.3-0.7-1.4-1.2-1.5-1.4
	c-0.2-0.3-1-1.4-2.2-1.9c-1.2-0.5-1.9-1.5-1.9-1.5s1.9,0.9,2.4,0.9c0.7,0,1,0,1.5-0.3c0.7,0,0.9-0.3,0.7-0.9c0-0.5-0.7-0.3-0.9-0.5
	c-0.2-0.3-1-0.3-2.1-1c-1-0.7-1.2-2.1-1.2-2.1s3.3,0,3.6-0.2c0.3-0.2,0.3-0.5,0.3-1c0-0.5-0.2-0.9-1-0.9s-0.5-0.3-1.2-0.7
	c-0.5-0.3-0.9-0.2-1.2-0.7c-0.5-0.5-0.9-0.9-1.5-1.2c-0.5-0.3-1-0.9-1.5-1.9c0.5-0.3,0.3-0.9,0.3-0.9s1,0,1.5,0
	c0.5,0,1.2,0.2,1.7-0.5c0.5-0.5,0.2-1.5-0.5-1.5c-0.7,0-1.5-0.2-2.2-1c-0.7-0.9-1.4-1.2-2.1-1.7c-0.5-0.5-1-0.3-1.5-1
	c-0.5-0.5-0.9-1.5-0.9-1.5s1.7,0.9,2.4,1c0.7,0.2,0.7,0.2,2.2,0.9c1.4,0.7,2.1,0.3,2.2,0c0.2-0.3-0.2-0.9-0.7-1.2
	c-0.5-0.5-1-1-2.1-1.4c-1-0.3-1.4-1.4-1.4-1.4s0.3-0.2,1,0c0.7,0.2,1.4,0.2,1.5-0.3c0.2-0.5-0.2-0.9-0.9-1.2
	c-0.9-0.3-1.7-1.2-2.4-1.5c-0.9-0.3-0.7-0.7-2.1-1.5c-1.4-0.9-3.6-3.6-3.6-3.6s0.5,0.2,1,0.5c0.5,0.2,0.7,0,1.9-0.2
	c1.2-0.2,1.2-0.2,1.4-0.9c0.2-0.7-1.2-1.5-2.2-2.2c-1-0.7-1-1.2-1.5-2.1c-0.3-0.9-1.5-1-2.4-2.7c1,0.5,2.1,0.3,2.4-0.5
	s-0.9-1.9-2.9-4c0.7,0.3,1.9,0.2,1.7-0.7c0-1-3.6-1.9-3.8-3.3c-0.2-1.4-0.7-1.4-0.9-2.7c-0.2-1.4-1.5-1.9-1.5-4
	c0-2.2-0.7-4.6-1.2-4.6c-0.5,0-1.2,2.4-1.2,4.6s-1.4,2.6-1.5,4c-0.2,1.4-0.7,1.4-0.9,2.7c-0.2,1.4-3.8,2.4-3.8,3.3
	c0,1,1,1.2,1.7,0.7c-2.1,2.1-3.3,3.3-2.9,4c0.3,0.9,1.4,1,2.4,0.5c-0.9,1.7-1.9,1.9-2.4,2.7c-0.3,0.9-0.5,1.4-1.5,2.1
	c-1,0.7-2.4,1.5-2.2,2.2c0.2,0.7,0.2,0.9,1.4,0.9c1.2,0.2,1.2,0.3,1.9,0.2c0.5-0.2,1-0.5,1-0.5s-2.2,2.7-3.6,3.6
	c-1.4,0.9-1.2,1.2-2.1,1.5c-0.9,0.3-1.7,1.2-2.4,1.5c-0.9,0.3-1,0.7-0.9,1.2c0.2,0.5,0.9,0.5,1.5,0.3c0.7-0.2,1,0,1,0
	s-0.5,1-1.4,1.4c-1,0.3-1.5,1-2.1,1.4c-0.5,0.5-0.9,0.9-0.7,1.2c0.2,0.3,0.9,0.7,2.2,0s1.5-0.7,2.2-0.9c0.7-0.2,2.4-1,2.4-1
	s-0.3,1-0.9,1.5c-0.5,0.5-1,0.5-1.5,1c-0.5,0.5-1.4,1-2.1,1.7c-0.7,0.9-1.5,1-2.2,1c-0.7,0-1,0.9-0.5,1.5c0.5,0.5,1.2,0.5,1.7,0.5
	s1.5,0,1.5,0s-0.2,0.5,0.3,0.9c-0.5,1-1,1.5-1.5,1.9c-0.5,0.3-1,0.7-1.5,1.2c-0.5,0.5-0.7,0.3-1.2,0.7c-0.5,0.3-0.3,0.7-1.2,0.7
	s-1,0.3-1,0.9c0,0.5,0,0.9,0.3,1c0.3,0.2,3.6,0.2,3.6,0.2s-0.2,1.4-1.2,2.1c-1,0.7-1.7,0.9-2.1,1c-0.2,0.3-0.9,0.2-0.9,0.5
	c0,0.5,0,0.9,0.7,0.9c0.5,0.3,0.9,0.3,1.5,0.3s2.4-0.9,2.4-0.9s-0.9,1-1.9,1.5c-1.2,0.5-2.1,1.5-2.2,1.9c-0.2,0.3-1.2,0.7-1.5,1.4
	c-0.7,0.5-1.4,0.5-1.5,0.9c-0.7,0.2-1,0.5-0.7,1.2c0.3,0.7,1.4,0.7,2.6,0.7c1.2-0.2,2.7-1.2,2.7-1.2s2.1,0.7,2.7-0.2
	c-0.9,1.2-2.1,1-2.9,2.2c-0.9,1.2-1,2.7-1,2.7s-1.7,1.4-2.4,2.2c-1,0.5-1.5,0.9-2.1,0.9c-0.3,0-1.2,0.2-1.2,0.7
	c0,0.5,0.5,1.4,2.4,1.4c0.9,0.7,1.5,0.5,2.2,0.2c0.7-0.5,2.2-0.9,4.1-0.7c-1.9,1.2-3.8,2.7-5.5,4c-1.5,1.2-3.4,2.2-4.5,2.2
	c-1,0.2-0.5,1.4,0.9,1.7c1.2,0.2,2.4,0.2,2.4,0.2s-0.9,1.2-2.7,2.2c-1.9,0.9-3.3,2.2-4.5,1.9c-1.2-0.5-0.9,0.9-0.3,1.2
	c0.5,0.3,1.2,0.5,1.5,0.9c0.3,0.3,0.5,0.3,1.5,0.3c1.2,0,2.4-1.2,2.9-1.2s0,0.9,0.5,1c0.5,0.2,1.4,0.3,2.7-0.5
	c1.4-0.9,2.1-0.9,2.1-0.9s-1.2,2.7-4,4.3c-2.7,1.5-4,1-4.5,1.5c-0.3,0.5,0,1.2,0,1.2s-1.5,0.7-4.8,0.3c-3.1-0.3-0.5,1.4-0.2,1.7
	c0.3,0.3,2.2,1.4,3.3,1.4c1,0.2,3.6,0.5,3.6,0.5s-1.5,1.4-1.4,2.2c0.2,0.7,2.6,0.2,4.1,0c1.5-0.2,3.8-0.2,5.3-1.7
	c-1.4,1.2-1.7,1.9-1,2.2c0.5,0.3,4,0.2,6.2-0.5c-1,1.2-0.9,1.7-0.2,2.1c0.5,0.3,5.5,0,5.5,0s-0.5,0.7-0.2,1c0.3,0.3,5-0.3,5.8-1.2
	l-0.2,5.5h6.7l-0.2-5.5c1,0.9,5.5,1.4,5.8,1.2c0.3-0.2-0.2-1-0.2-1s4.8,0.3,5.5,0c0.5-0.3,0.7-0.9-0.2-2.1c2.2,0.7,5.7,0.9,6.2,0.5
	c0.5-0.3,0.3-1-1-2.2c1.7,1.4,3.8,1.5,5.3,1.7c1.5,0.2,4,0.7,4.1,0c0.2-0.7-1.4-2.2-1.4-2.2s2.6-0.5,3.6-0.5c1-0.2,2.9-1.2,3.3-1.4
	C180.5,128.4,183.2,126.7,180,127z"/>
</svg>
