<?xml version="1.0" encoding="utf-8"?>
<!-- Generator: Adobe Illustrator 26.0.2, SVG Export Plug-In . SVG Version: 6.00 Build 0)  -->
<svg version="1.1" id="Layer_1" xmlns="http://www.w3.org/2000/svg" xmlns:xlink="http://www.w3.org/1999/xlink" x="0px" y="0px"
	 viewBox="0 0 200 200" style="enable-background:new 0 0 200 200;" xml:space="preserve">
<path id="path2" d="M143.6,36.8c0-0.4-0.4-0.6-0.7-0.6c-0.4,0-0.9,0-1.3,0c-1.3,0-2.7-0.1-4,1.2c-1,1-2.1,2.1-3.1,3.1
	c-2.7,2.7-5.4,5.5-7.9,8.5c-0.7,0.9-1.8,2.1-1,3.4c0.6,1.2,0.1,1.9-0.7,3.1l-0.1,0.3c-1.2,1.6-2.2,3.3-3.3,5.1
	c-2.8,4.6-4.8,9.7-6.6,14.9c0-1.3,0.1-2.5,0.3-3.9c0-0.6,0.1-1.2,0.1-1.8c1-12.8,4-23.7,8.9-33.7c0.9-1.8,1.5-2.5,3.1-2.5
	c1.5,0,2.4-1,3-1.9l2.7-3.6c1.9-2.7,4-5.5,6.1-8.2c1.9-2.5,4.3-5.5,3.4-9.4c0-0.3-0.3-0.4-0.4-0.6c-4.9-1.6-7,1.5-8.9,4.3
	c-0.3,0.4-0.6,0.9-1,1.3c-2.4,3.3-4.8,6.4-6.9,9.5l-0.3,0.4c-1.3,1.8-2.7,3.7-1.6,6.6c0,0.3-0.4,1-0.6,1.3
	c-7,11.9-10.6,25-11.2,40.2c0,0.6,0,0.7-0.9,1.3c-1,0.6-2.4,1-3.7,1.3c-1.9,0.6-4,1.2-5.7,2.7c0.4-2.5,1-3,3.7-4.8
	c1.3-0.9,2.2-2.1,3.1-3.4c0.1-0.3,0.4-0.6,0.6-1c0.6-0.9,1-1.8,1.8-2.4c0,0,0.1-0.1,0.3-0.1c0.3-0.1,0.9-0.6,0.9-1.2
	c0-0.4-0.1-0.7-0.4-1.2c-0.3-0.4-0.7-0.6-1.2-0.6c-0.7,0-1.3,0.4-1.6,0.9c-1.2,1.2-2.5,2.1-4.2,2.8c1.9-4.9,4.3-9.2,6.6-13.6
	c0.9-1.8,1.9-3.6,2.8-5.2c0.1-0.3,0-0.7-0.3-1c-0.3-0.1-0.7-0.1-1,0.1C102.5,62.9,97.6,75,96.7,87.5c-2.1-5.7-2.4-11.8-2.7-17.1
	c-0.1-1.6,0.4-2.7,1.8-3.3c1.6-0.7,2.8-2.1,3.7-3.9l0.4-0.9c0.9-1.9,1.8-3.9,3-5.8c0.1-0.3,0.1-0.6,0-0.9s-0.6-0.3-0.9-0.1
	c-2.5,1.3-4.9,3.3-7.6,5.8c0.1-2.8,0.9-5.7,1.6-8.5c0.6-2.1,1.2-4.2,1.5-6.4c0-0.3-0.1-0.7-0.4-0.7c-0.3-0.1-0.7,0-0.9,0.3
	c-1.6,1.9-2.4,4.3-3.1,6.9c-0.1,0.4-0.3,0.9-0.4,1.3c-0.4-1-1-2.1-1.5-3c-0.7-1.3-1.6-2.7-1.8-4.2c-0.1-0.6-0.4-0.9-0.6-1.2
	c-0.3-0.1-0.7-0.3-1.5-0.1c-0.6,0.1-0.9,0.4-1,0.9c-0.1,0.4-0.1,0.9,0.1,1.3c0.6,1.3,0.7,2.7,0.9,4.3v0.7c0.3,2.8,0.7,5.1,2.8,7.2
	c1,1,1,2.4,0.9,3.4c-0.3,1.8-0.3,3.6-0.3,5.2c0,2.1,0,4.2,0,6.4v1c-0.7-0.7-1.3-1.6-1.8-2.5v-0.1c-0.1-0.3-0.3-0.9-0.9-1
	c-0.6-0.1-1.2,0.3-1.5,0.4c-0.4,0.3-1,0.7-1,1.3c0,0.6,0.3,1,0.6,1.3c0.9,1,1.3,2.4,1.6,3.7c0.1,0.4,0.3,0.9,0.3,1.2
	c0.1,0.4,0.1,0.7,0.3,1.2c0.3,1.3,0.7,3,1.9,3.9c1.9,1.5,2.5,3.4,3.1,5.7c0.1,0.4,0.3,1,0.4,1.5c0.7,2.7,1.6,5.4,2.4,7.9l-1.5-1.8
	c-1.3-1.6-3.1-3.1-5.2-4.3c-0.1,0-0.3-0.1-0.3-0.1c-0.7-0.4-1.8-1-2.8-0.4c-1.2,0.7-0.9,1.9-0.6,2.7c0,0.1,0.1,0.4,0.1,0.6
	c0,0.6,0.3,1.2,0.6,1.8c2.8,6.3,7.2,11.3,12.7,15.1l-0.1,0.3c0.9,0.6,1.8,1.2,2.1,2.1c1.5,4.5,2.7,9.2,3.6,13.7
	c-5.7-6.9-12.2-12.7-19.7-17.3c-0.1-0.1-0.4-0.3-0.6-0.4c-1.3-0.9-3-1.9-4.9-1c-3.3,1.5-6,3.3-8.2,5.2l-0.1,0.1
	c-0.4,0.4-1.3,1.2-0.9,2.2c0.4,1.2,1.5,1.2,2.2,1.2c2.5,0.1,4.9-0.3,7.2-0.7c1.6-0.3,2.4,0,3.1,1.3c2.7,5.1,6,9.4,8.8,12.7
	c-0.4-0.3-0.9-0.4-1.5-0.3c-1.2,0.4-1,1.6-0.9,2.1c0,0.1,0,0.1,0,0.3c0,0.4,0.1,0.9,0.3,1.3c0,0.1,0.1,0.4,0.1,0.6l1.6,6.9
	c-0.7-1.5-1.6-3.1-2.7-4.5l-0.1-0.1c-0.3-0.4-1-1.5-2.2-1c-1.3,0.4-0.9,1.8-0.9,2.2v0.3c0.3,1.6,0.7,3.1,1.2,4.8
	c2.2,8.6,3.7,15.9,4.3,23.3c0-0.1-0.1-0.3-0.1-0.3c-3.3-6.6-6.9-10.4-11.9-12.5c-1.8-0.7-3.3-1.6-4.6-2.8c-3-2.7-6.1-4-9.5-4.2
	c-0.3,0-0.6,0.1-0.7,0.4c-0.1,0.3,0,0.6,0.1,0.9c4.2,3.4,8.5,7.6,11.5,13.3c-5.8-7.3-10-10.1-14-9.4c-0.4,0-0.6,0.4-0.6,0.7
	c0.1,1.2,0.9,1.6,1.5,2.1l0.3,0.1c8,6,12.5,14.5,13.7,26.4c0,0.3,0.1,1.3-0.1,1.5c-0.1,0.1-0.4,0.1-1,0.1c-1-0.1-1.8,0.1-2.2,0.6
	c-0.7,0.7-0.9,1.8-0.9,2.5c0,1.5,0,2.7,0.7,3.3c0.7,0.7,1.9,0.7,3.7,0.7h56.8c0.4,0,0.7-0.3,0.7-0.7v-17.7l0,0
	c0-1.3-0.1-2.5-0.1-3.9c-0.3-7.2-0.6-14.5-3-21.5c-0.1-0.3-0.1-0.6-0.1-0.9c-0.1-0.9-0.3-2.5-1.9-2.5c-1.8,0-1.8,1.8-1.9,2.7
	c0,0.1,0,0.4,0,0.6c-0.3,1.9-0.4,3.9-0.6,5.8c0-0.3-0.1-0.6-0.1-0.9v-0.3c-0.1-0.9-0.3-2.5-1.8-2.5l0,0c-1.8,0-1.9,1.8-1.9,2.5
	c0,0.1,0,0.3,0,0.4c-0.1,1.3-0.3,2.5-0.4,3.9c-0.1-0.3-0.4-0.7-0.7-1c-0.1-0.1-0.4-0.3-0.7-0.3s-0.4,0.3-0.6,0.6
	c0,0.1-0.1,0.4-0.1,0.6c-0.1-2.2-0.6-4.6-1.6-6.9c-0.1-0.3-0.3-0.4-0.6-0.4c-0.3,0-0.6,0.1-0.7,0.4c-0.7,1.2-0.9,2.7-1,4
	c-0.1,1.2-0.3,2.2-0.7,3.1c-0.1-0.4-0.3-0.9-0.6-1.2c-2.1-2.8-1.9-6-1.6-9.7c0.4-5.1,1.2-10.1,1.8-15.1l0.3-2.1
	c0.4-4,2.2-6.4,5.2-7.8c1.8-0.7,3.3-1.9,4.5-3.7c3.3-4.6,5.7-9.8,7.3-15.9v-0.1c0.3-0.7,0.6-2.2-0.6-3c-1.3-0.9-2.5,0.3-3.1,0.9
	l-0.6,0.6c-4.9,4.9-10.1,10-11.9,17.4v-3.1c0-5.2,0-10.4-0.4-15.8l-0.1-1.5c-0.3-3.4-0.6-6.9-0.3-10.3c0.6-6.1,2.5-12.5,5.4-18.8
	c0.3-0.7,0.7-1.5,1-2.2c2.4-5.2,4.6-10.3,10-13.4c2.4-1.5,4.2-3.6,6.1-5.8c0.9-1,1.9-2.2,2.8-3.3C142.3,42.6,144.1,40.2,143.6,36.8z
	 M119.8,184.1c0.6-2.5,1.2-5.1,1.8-7.6c0,2.7,0,5.4-0.3,7.9v0.1c0,0.4-0.1,1-0.3,1.2c-0.1,0-0.3,0.1-0.6,0c-0.3,0-0.4-0.1-0.6-0.3
	C119.5,185.1,119.6,184.5,119.8,184.1z M83.4,166c2.4,3.3,4,7.5,4.9,12.4c0.3,1.8,0.4,3.6,0.6,5.4v0.7c0,0.3,0,0.9-0.1,1.2
	c-0.1,0.1-0.4,0.1-0.6,0.1c-0.6,0-0.7-0.1-0.9-1.3l-0.1-1.5c-0.4-5.2-1-10.7-3.1-15.8C83.7,166.9,83.6,166.5,83.4,166z M107.9,81.2
	c0.4-0.3,0.7-0.7,1.2-1c0.1-0.1,0.4-0.3,0.6-0.6c0.4-0.4,0.7-0.7,0.9-0.7h0.1c0.1,0,0.1,0.1,0.1,1c0,0.3,0,0.6,0,0.9
	c0.1,4,0.3,7.9,0.3,11.9v0.4c0,0.7,0,1.2-0.3,1.6c-4.3,5.1-4.9,11.3-5.7,17.4l-0.1,0.9c0,0.1,0,0.1,0,0.3c-0.3-0.7-0.6-1.5-0.9-2.2
	c-1.3-3.3-2.5-6.4-3.6-9.5c-1.2-3.6-1-7.3-0.7-11.2c0-1.5,0.1-2.8,0.1-4.3c0-0.7,0.6-1.5,1.2-1.5C104.3,84.5,106.1,82.9,107.9,81.2z
	 M111.4,115.1c-0.3,5.4-0.4,10.9-1.2,16.4c-0.6-2.7-1.3-5.4-1.9-7.9c-0.3-1-0.1-1.8,0.3-2.2C109.8,119.4,110.7,117.3,111.4,115.1z
	 M103.8,142.1c2.5,0.4,3.4,2.8,3.4,4.8c0,3-0.7,6-1.8,9.2c-1.5-4-2.7-7.6-4.6-10.9c-0.1-0.3-0.3-0.4-0.3-0.7c-0.4-0.9-1-2.4-2.4-2.4
	c-0.1,0-0.4,0-0.6,0.1c-0.3,0.1-0.6,0.3-0.7,0.4c-1-2.5-2.4-5.4-4.3-8.2C95.6,138,98.8,141.2,103.8,142.1z"/>
</svg>
