<?xml version="1.0" encoding="utf-8"?>
<!-- Generator: Adobe Illustrator 26.0.0, SVG Export Plug-In . SVG Version: 6.00 Build 0)  -->
<svg version="1.1" id="Layer_1" xmlns="http://www.w3.org/2000/svg" xmlns:xlink="http://www.w3.org/1999/xlink" x="0px" y="0px"
	 viewBox="0 0 200 200" style="enable-background:new 0 0 200 200;" xml:space="preserve">
 <style type="text/css">
     .st0{fill:none;stroke:#000000;stroke-width:8.4003;stroke-miterlimit:10;}
 </style>
<path id="path1" class="primary" d="M50.4,114.9H17.8c-5,0-9.1-4.1-9.1-9.1V94.2c0-5,4.1-9.1,9.1-9.1h32.6c5,0,9.1,4.1,9.1,9.1v11.6
	C59.5,110.8,55.4,114.9,50.4,114.9z"/>
<path id="path2" class="primary" d="M182.2,36.8h-32.6c-5,0-9.1-4.1-9.1-9.1V16.1c0-5,4.1-9.1,9.1-9.1h32.6c5,0,9.1,4.1,9.1,9.1v11.6
	C191.3,32.7,187.2,36.8,182.2,36.8z"/>
<path id="path3" class="primary" d="M182.2,114.9h-32.6c-5,0-9.1-4.1-9.1-9.1V94.2c0-5,4.1-9.1,9.1-9.1h32.6c5,0,9.1,4.1,9.1,9.1v11.6
	C191.3,110.8,187.2,114.9,182.2,114.9z"/>
<path id="path4" class="primary" d="M182.2,193h-32.6c-5,0-9.1-4.1-9.1-9.1v-11.6c0-5,4.1-9.1,9.1-9.1h32.6c5,0,9.1,4.1,9.1,9.1v11.6
	C191.3,188.9,187.2,193,182.2,193z"/>
<polyline id="polyline1" class="st0" points="132.3,21.9 100.8,21.9 100.8,178.1 132.3,178.1 "/>
<line id="line1" class="st0" x1="66.5" y1="100" x2="132.3" y2="100"/>
</svg>
