<?xml version="1.0" encoding="utf-8"?>
<!-- Generator: Adobe Illustrator 26.0.2, SVG Export Plug-In . SVG Version: 6.00 Build 0)  -->
<svg version="1.1" id="Layer_1" xmlns="http://www.w3.org/2000/svg" xmlns:xlink="http://www.w3.org/1999/xlink" x="0px" y="0px"
	 viewBox="0 0 200 200" style="enable-background:new 0 0 200 200;" xml:space="preserve">
<path id="path1" class="primary" d="M50.4,114.9H17.8c-5,0-9.1-4.1-9.1-9.1V94.2c0-5,4.1-9.1,9.1-9.1h32.6c5,0,9.1,4.1,9.1,9.1v11.6
	C59.5,110.8,55.4,114.9,50.4,114.9z"/>
<path id="path2" class="primary" d="M182.2,36.8h-32.6c-5,0-9.1-4.1-9.1-9.1V16.1c0-5,4.1-9.1,9.1-9.1h32.6c5,0,9.1,4.1,9.1,9.1v11.6
	C191.3,32.7,187.2,36.8,182.2,36.8z"/>
<path id="path3" class="primary" d="M182.2,114.9h-32.6c-5,0-9.1-4.1-9.1-9.1V94.2c0-5,4.1-9.1,9.1-9.1h32.6c5,0,9.1,4.1,9.1,9.1v11.6
	C191.3,110.8,187.2,114.9,182.2,114.9z"/>
<path id="path4" class="primary" d="M182.2,193h-32.6c-5,0-9.1-4.1-9.1-9.1v-11.6c0-5,4.1-9.1,9.1-9.1h32.6c5,0,9.1,4.1,9.1,9.1v11.6
	C191.3,188.9,187.2,193,182.2,193z"/>
<rect id="rect5" class="primary" x="95" y="16" width="10" height="167"/>
<rect id="rect4" class="primary" x="104.9" y="16" width="28" height="10"/>
<rect id="rect3" class="primary" x="104.9" y="95" width="28" height="10"/>
<rect id="rect2" class="primary" x="104.9" y="173" width="28" height="10"/>
<rect id="rect1" class="primary" x="67.1" y="95" width="28" height="10"/>
</svg>
