<?xml version="1.0" encoding="utf-8"?>
<!-- Generator: Adobe Illustrator 26.0.0, SVG Export Plug-In . SVG Version: 6.00 Build 0)  -->
<svg version="1.1" id="Layer_1" xmlns="http://www.w3.org/2000/svg" xmlns:xlink="http://www.w3.org/1999/xlink" x="0px" y="0px"
	 viewBox="0 0 200 200" style="enable-background:new 0 0 200 200;" xml:space="preserve">
<g>
	<g>
		<path id="path1" class="primary" d="M188.7,66.4c-1.2,6.5-3.7,12.5-7.2,18l-52,80.1c-4.5,7-10.3,12.8-17.1,17.4c-6.5,4.4-13.8,7.5-21.5,9
			c-7.7,1.6-15.5,1.6-23.2,0c-4-0.8-7.8-2-11.5-3.6c-3.7-1.6-7.3-3.6-10.7-5.9c-6.8-4.7-12.5-10.6-16.9-17.6
			c-4.3-6.8-7.2-14.2-8.7-22.2c-1.5-8-1.5-16.1-0.1-24c1.5-8.2,4.6-16,9.2-23l49-78.3c1.2-1.8,2.9-3,5-3.4c0.5-0.1,1-0.2,1.5-0.2
			c1.5,0,3,0.5,4.3,1.4L89,14c1.7,1.2,2.9,3,3.3,5.2c0.4,2.1,0,4.3-1.2,6.1l-49,78.3c-3.4,5.2-5.6,11-6.8,17.1
			c-1.1,5.9-1.1,11.9,0,17.8c1.1,5.9,3.3,11.4,6.4,16.4c3.3,5.2,7.5,9.6,12.4,13.1c5,3.4,10.5,5.8,16.4,7c5.7,1.1,11.5,1.1,17.1-0.1
			c5.7-1.2,11-3.4,15.9-6.6c4.9-3.3,9.2-7.6,12.6-12.7l0.1-0.1c0-0.1,0-0.1,0.1-0.1l51.8-80c0,0,0.1-0.1,0.1-0.1c0,0,0,0,0-0.1
			l0.1-0.1c4.6-7.2,6.3-15.8,4.7-24.3c-0.8-4.2-2.3-8.1-4.5-11.6c-2.3-3.7-5.2-6.8-8.7-9.2c-6.9-4.8-15.3-6.6-23.5-4.9
			c-8.2,1.6-15.3,6.4-20,13.5l-0.1,0.1l0,0.2c0,0,0,0.1-0.1,0.1l-41.3,63.5c-2.8,4.2-3.7,9.4-2.8,14.4c1,5,3.7,9.3,7.8,12.1
			c8.4,5.8,19.8,3.4,25.5-5.3l33.3-51.8c1.2-1.8,2.9-3,5-3.4c2.1-0.4,4.1,0,5.9,1.2l0.2,0.1c1.7,1.2,2.9,3,3.3,5.1
			c0.4,2.1,0,4.3-1.2,6.1l-33.2,51.8c-5.1,7.9-12.8,13.2-21.8,15c-9,1.8-18.1-0.1-25.7-5.4c-7.6-5.2-12.7-13.2-14.5-22.5
			c-0.9-4.5-0.9-9.1,0-13.6c0.9-4.7,2.6-9.1,5.2-13l41.3-63.5c3.6-5.5,8.1-10.1,13.4-13.7c5.1-3.5,10.8-5.9,16.8-7.1
			c6-1.2,12.2-1.2,18.2,0c6.2,1.3,12.1,3.8,17.4,7.5c5.3,3.7,9.8,8.4,13.2,13.8c3.3,5.3,5.6,11.2,6.8,17.4
			C189.9,53.8,189.9,60.1,188.7,66.4z"/>
	</g>
</g>
</svg>
