<?xml version="1.0" encoding="utf-8"?>
<!-- Generator: Adobe Illustrator 26.0.0, SVG Export Plug-In . SVG Version: 6.00 Build 0)  -->
<svg version="1.1" id="Layer_1" xmlns="http://www.w3.org/2000/svg" xmlns:xlink="http://www.w3.org/1999/xlink" x="0px" y="0px"
	 viewBox="0 0 200 200" style="enable-background:new 0 0 200 200;" xml:space="preserve">
<g>
	<path id="path1" class="primary" d="M56.7,162.8l81.1-110.4c-3.2-1.9-6.6-4.5-10-7.9L46.6,155C49.8,158.3,53.4,160.9,56.7,162.8z"/>
	<path id="path2" class="primary" d="M59.6,164.5c3.9,2,6.8,3,6.8,3L45.9,179c-6.8,2.4-9.5-5.4-9.5-5.4l5-25.8c0.9,1.7,1.9,3.2,3,4.7l81.1-110.3
		c-2.5-2.8-5-6.2-7.4-10.1L37.1,144.4l-8.6,48.4L73,168.6l80.3-110.9c-2.4-0.2-6.9-0.9-12.5-3.7L59.6,164.5z"/>
	<path id="path3" class="primary" d="M136,7.2l-13.3,18.4c1.8,5.4,9.3,21.9,34.8,26.1l13.9-19.2C171.5,32.5,162.9,8.5,136,7.2z M139.2,11.9
		c19.4,4.1,27.1,19.4,27.1,19.4C146.7,28,139.2,11.9,139.2,11.9z"/>
</g>
</svg>
