<?xml version="1.0" encoding="utf-8"?>
<!-- Generator: Adobe Illustrator 26.0.2, SVG Export Plug-In . SVG Version: 6.00 Build 0)  -->
<svg version="1.1" id="Layer_1" xmlns="http://www.w3.org/2000/svg" xmlns:xlink="http://www.w3.org/1999/xlink" x="0px" y="0px"
	 viewBox="0 0 200 200" style="enable-background:new 0 0 200 200;" xml:space="preserve">
<g>
	<path id="path2" class="primary" d="M192,85.6c0-39.9-41.3-72.4-92.2-72.4C49,13.2,7.5,45.6,7.5,85.6s41.5,72.6,92.3,72.6c10.5,0,20.4-1.4,29.9-4
		l-1.2,0.6c0,0,4.4,23.9,32,26.1c-9.5-16.6-6.3-33.2-5.3-37.4C177.6,130.3,192,109.3,192,85.6z M99.8,150.2
		c-46.7,0-84.4-28.9-84.4-64.7c0-35.6,38-64.7,84.4-64.7c46.7,0,84.4,29.1,84.4,64.7C184.3,121.4,146.5,150.2,99.8,150.2z"/>
	<polygon id="polygon1" class="primary" points="121,70 106.4,67.8 99.8,54.5 93.3,67.8 78.7,70 89.2,80.2 86.8,94.9 99.8,87.9 112.9,94.9
		110.5,80.2 	"/>
	<polygon id="polygon2" class="primary" points="147.7,84 141.2,70.7 134.7,84 120,86 130.5,96.5 128.1,110.9 141.2,104 154.2,110.9 151.9,96.5
		162.3,86 	"/>
	<polygon id="polygon3" class="primary" points="65,84 58.5,70.7 52,84 37.4,86 47.8,96.5 45.5,110.9 58.5,104 71.6,110.9 69.2,96.5 79.7,86 	"/>
</g>
</svg>
