<?xml version="1.0" encoding="utf-8"?>
<!-- Generator: Adobe Illustrator 26.0.2, SVG Export Plug-In . SVG Version: 6.00 Build 0)  -->
<svg version="1.1" id="Layer_1" xmlns="http://www.w3.org/2000/svg" xmlns:xlink="http://www.w3.org/1999/xlink" x="0px" y="0px"
	 viewBox="0 0 200 200" style="enable-background:new 0 0 200 200;" xml:space="preserve">
<g>
	<path id="path2" class="primary" d="M36.7,143.2c-0.8,0.2-1.3,0.4-2.1,0.6c-0.4,0.2-1,0.4-1.3-0.2c-0.4-0.6,0.4-0.8,0.6-1c1.5-1,2.9-1.9,4.4-2.9
		c2.9-1.7,5-4.2,7.1-6.7c1-1.2,2.1-2.5,3.1-3.6c0.6-0.6,1-1.2,0.4-2.1c-0.4-0.8,0-1.5,0.6-2.3c1.7-1.9,3.3-4,5.4-5.6
		c0.6-0.4,0.6-0.8,0-1.2c-0.6-0.6-0.6-1.3,0-2.1c0.8-1.2,2.1-1.7,3.1-2.5c0.4-0.2,0.8-0.6,1-1c0.8-2.5,2.9-3.6,4.6-5
		c0.8-0.6,1.3-1,1.5-1.9c0.2-0.4,0.4-1.2,0.8-1.3c2.1-1.3,3.3-3.6,5.2-5c1.7-1.2,3.3-2.7,5-3.8c2.5-1.7,4.4-4.4,7.1-6
		c1.7-1,3.5-1.3,5.2-1.3c3.1,0,6.3,0,9.4,0.2c1,0,1.2-0.4,1-1.3c-0.6-2.1-1.2-4.2-1.3-6.3c-0.2-1.9-1-3.6-1.2-5.4s-1.2-3.5-0.8-5.2
		c0.2-0.4-0.2-0.8-0.4-1c-0.8-1-1.3-2.1-1.2-3.6c0.2-0.6-0.2-1-0.4-1.3c-0.6-1.2-0.8-2.1-0.2-3.5c0.2-0.6,0-0.8-0.2-1.2
		c-1.3-1.9-1.3-2.3,0.2-4c0.2-0.4,0.2-0.6,0.2-1c-0.2-0.6-0.4-1.2-0.2-1.5c0-1.3-0.6-1.7-1.7-2.1c-0.8-0.2-1.5-0.4-2.1-1
		c-0.6-0.6-0.8-1.2,0-1.5c0.8-0.4,0.6-0.6,0-1c-0.8-0.6-1.5-1.2-2.1-2.1c-0.4-0.6-0.8-1.3-0.2-2.1c0.2-0.4,0.2-0.6-0.2-0.8
		c-0.4-0.4-0.8-0.8-1.2-1.2c-1.3-1.5-1.2-2.5,1-3.3c-0.6-0.4-1.2-0.8-1.5-1.2c-0.4-0.4-0.8-0.6-1.2-1c-0.4-0.4-0.8-1-0.6-1.7
		c0.2-0.8,1-0.8,1.5-0.8c0.2,0,0.4,0,0.8,0c-1-1-2.1-1.5-2.7-2.7c-0.8-1.5-0.4-2.1,1.2-2.1c1.7,0,3.3,0,5.2,0
		c-0.8-1-1.7-1.5-2.3-2.3c-0.4-0.4-1-0.8-1.3-1.3c-0.8-1.2-0.4-2.1,1.2-2.3c1,0,1.9,0,2.9,0c0.4,0,0.8,0.2,1,0
		c0.2-0.4-0.2-0.6-0.4-1c-0.4-0.6-1-1.3-1.2-1.9c-0.8-1.7-0.2-2.7,1.7-2.7c1,0,1.7,0.4,2.9,0.6c-0.6-0.8-1-1.3-1.3-1.9
		c-0.4-1.2,0-1.7,1.2-2.1c0.4,0,0.8-0.2,1.2-0.2c1,0,1.5,0,1.5-1.3c0-0.6,0.4-1,1.2-1c0.4,0,0.8,0,1.2,0.2c2.5,1.2,5.2,1,7.9,1.3
		c2.5,0.4,4.4,1.7,6.1,3.3c4.2,3.8,7.3,8.3,9.8,13.3c1.5,2.9,3.1,6,4.2,9c0.2,0.6,0.4,1,0.4,1.5c0.2,1,0.6,1.7,1.2,2.5
		c1,1,1.5,2.3,1.9,3.5c1.3,4.4,2.9,8.8,5.2,12.9c1.2,2.1,2.5,3.1,5,2.9c5-0.2,9.4-1.9,13.4-4.6c1.2-0.8,2.3-1.3,3.5-2.1
		c1.3-0.8,2.5-1.7,3.5-3.3c-1-0.4-1.7-0.8-2.1-1.7c-0.4-1-0.2-1.3,0.8-1.2c2.1,0.4,3.6-0.6,5.2-1.9c1.7-1.5,3.5-2.7,6-2.5
		c2.9,0.2,5.6,1,7.9,2.7c0.6,0.4,1.2,0.8,1.9,1c1.3,0.4,2.5,1.2,3.5,2.3c0.2,0.2,0.6,0.6,0.6,1c0.2,0.4,0.4,0.8,0,1.2
		c-0.4,0.4-0.8,0-1-0.2c-1.2-0.6-2.7-0.6-4-0.8c1.2,0.6,2.3,1,3.5,1.5c0.4,0.2,0.8,0.4,0.8,0.8c0,0.6-0.6,0.6-1,0.6
		c-3.1-0.4-5.8,0.6-8.1,2.5c-0.8,0.6-1.7,0.8-2.7,1c-6,1.5-9.6,5.4-11.9,10.9c-2.3,5.6-3.3,11.3-3.6,17.3c0,0.6,0.2,1,0.6,1.3
		c2.5,2.7,5,5.6,7.9,8.1c1.5,1.3,3.5,2.3,5.2,3.5c1.9,1.3,3.6,2.9,4,5.4c0.2,0.8,0.6,1.3,1.2,1.7c2.9,2.3,5.6,4.8,8.5,7.1
		c1.5,1.3,2.7,2.9,3.5,4.8c1.5,3.6,3.1,7.5,4.2,11.3c0.4,1.3,0.4,2.7-0.6,4c-0.6,0.6-0.6,1.5-0.6,2.3c-0.2,2.1-0.2,4-0.2,6.1
		c0,0.2,0,0.6,0,0.8c-0.2,0.6-0.4,1-1,1s-1-0.4-1-1c0-1.2-0.4-2.3-1.2-3.6c-0.2,1.7-0.4,3.1-0.6,4.6c-0.2,0.8-0.4,1.5-0.6,2.1
		c-0.2,0.6-0.2,1.3-1,1.3c-0.8,0-1-0.6-1.2-1.2c-0.8-1.7-1.5-3.5-2.3-5.2c-0.2-0.4-0.2-0.8-0.8-1c-0.2,0.6,0,1,0,1.5
		c0,2.5,0.2,5,0.2,7.3c0,1.3-0.8,1.7-1.9,1c-1-0.6-1.7-1.3-2.1-2.5c-0.6-1.9-1.3-3.8-1.7-5.8c-0.2,0-0.2,0-0.4,0c0,1.9,0,3.8,0,5.8
		c0,0.8,0,1.5-0.2,2.1c-0.4,1-0.8,1.7-1.7,1.9c-1.2,0.2-1.5-0.8-1.9-1.5c-0.6-1.3-1.2-2.9-1.3-4.4c0-0.4,0-1-0.6-1.5
		c-0.2,1.5-0.2,3.1-0.4,4.4c0,0.6,0,1.2-0.4,1.5c-0.4,0.8-0.8,1.2-1.7,1.2s-1.3-0.6-1.5-1.3c-0.6-1.7-1.3-3.5-2.1-5.4
		c-0.6,1.3-1,2.3-1.3,3.5c-0.2,0.6-0.4,1.5-1.3,1.3c-1,0-1.3-0.8-1.5-1.5c-0.4-1.2-0.6-2.3-0.8-3.5c0-0.4-0.2-0.8-0.6-0.8
		s-0.6,0.4-0.6,0.8c-0.4,0.6-0.6,1.5-1.5,1.3s-1.3-1-1.3-1.7c-0.4-1.5-0.6-3.1-0.8-4.4c0-0.2,0-0.6-0.4-0.6s-0.4,0.2-0.6,0.4
		c-0.4,0.6-0.8,1-1.5,1c-0.8-0.2-1-0.8-1.2-1.5c-0.6-1.7-1.2-3.5-1.3-5.2c-0.2-0.6-0.4-1-1.2-1.2c-0.6,0-1.3-0.2-1.7-0.8
		c-0.2-0.2-0.6-0.4-1-0.4c-1.2,0-2.3-0.2-3.5-1c-1-0.6-2.1-0.8-3.3-1c-1.9-0.4-3.5-1.5-5.2-1.9c-0.2,0-0.6-0.2-0.8-0.4
		c-1.5-1.9-4.2-1.7-6.1-3.1c-1.5-1.2-3.6-1.3-5-2.9c-0.6-0.6-1.3-0.6-1.9-0.6c-0.8,0.2-0.6,1-0.6,1.3c-0.4,1.9-1.2,3.3-3.1,3.6
		c-1.5,0.4-2.3,2.1-3.5,3.1c-0.2,0.2-0.4,0.6-0.8,0.8c-0.8,0.6-1.5,1-2.3,0c-0.6-0.6-0.8-0.2-1.2,0.2c-1.3,1.3-2.9,2.7-4.2,4
		c-0.6,0.6-1.2,1-1.9,0.2c-0.4-0.4-0.8-0.2-1,0c-1.2,0.8-2.3,1.5-3.6,2.3c-1,0.6-1.9,1.2-2.9,0c-0.4-0.6-0.8,0-1.2,0.2
		c-2.1,1.3-4.2,2.9-6.3,4c-1.5,0.8-2.1,0.8-2.9-1c-0.4-0.8-0.6-0.8-1.2-0.2c-1.5,1.3-3.1,2.7-4.8,3.8c-0.8,0.6-1.7,0.8-2.7,1
		c-0.6,0-1,0-1.2-0.6c-0.4-1-0.8-0.6-1.2-0.2c-1.3,1-2.7,1.9-4,3.1c-0.8,0.6-1.5,1.2-2.5,1.5c-1.2,0.4-2.1,0-2.3-1.3
		c-0.2-1.2-0.6-1-1.2-0.6c-2.7,1.7-5.4,3.3-7.9,5c-0.4,0.2-0.8,0.6-1.3,0.8c-1.5,0.8-1.5,0.8-2.5-0.8c-0.2-0.4-0.6-0.4-1-0.2
		c-1.9,1-3.6,1.9-4.8,3.8c-1.9,3.1-4.4,5.6-7.1,7.9c-2.1,1.7-3.5,4-4.6,6.3c-1.5,3.1-3.3,6.3-4.8,9.6c-1.2,2.5-2.9,4.4-4.6,6.3
		c-1.5,1.7-3.3,3.5-4.8,5.2c-0.2,0.2-0.4,0.4-0.8,0.6c-0.2,0.2-0.6,0.4-1,0.2c-0.4-0.2-0.2-0.6-0.2-1c0.6-1.3,1.5-2.5,2.3-3.6
		c3.5-4.8,6.1-10.2,8.6-15.6c0,0,0-0.2,0-0.4c-1.5,1.2-3.3,1.9-4.8,2.7c-1.5,0.6-2.1,2.1-2.9,3.5c-1,1.9-1.9,3.8-3.1,5.6
		c-1.9,3.3-4.8,5.8-7.7,8.1c0,0-0.2,0.2-0.4,0.2c-0.6,0.2-1.2,0.8-1.5,0.2s-0.2-1.2,0.2-1.5c1.9-2.1,3.5-4.4,5-6.9
		c0.8-1.3,1.7-2.5,2.5-3.8c0.2-0.4,0.6-1,0.6-1.5c-1.7,0.6-3.3,1-5.2,1.2c-1.5,0.2-3.1,0.2-4.6-0.8c-0.4-0.2-0.8-0.6-0.8-1.2
		c0.2-0.6,0.6-0.4,1-0.6c2.3-0.4,4.6-1,6.7-1.7c2.3-1,4-2.7,5.8-4.2c4.2-3.8,8.3-8.1,12.1-12.1c3.1-3.3,6.3-6.1,9.4-9.2
		c2.9-2.7,5.6-5.4,8.6-7.7c0.4-0.2,0.8-0.4,0.8-1c-1,0.2-1.7,0.6-2.5,1.2c-4,3.5-7.9,7.1-11.9,10.8c-2.1,1.9-4,3.8-6.1,5.6
		c-2.3,1.9-5.2,2.5-8.1,2.9c-0.6,0-1.3-0.2-1.9-0.4c-0.2,0-0.6-0.2-0.6-0.6c0-0.4,0.4-0.4,0.6-0.6c0,0,0,0,0.2,0
		c3.8,0,6.1-2.5,8.5-5c3.1-3.1,6.1-6.1,9.2-9.2c0.4-0.4,0.6-0.6,0.8-1C36.7,143.4,36.7,143.4,36.7,143.2z"/>
</g>
</svg>
