<?xml version="1.0" encoding="utf-8"?>
<!-- Generator: Adobe Illustrator 26.0.2, SVG Export Plug-In . SVG Version: 6.00 Build 0)  -->
<svg version="1.1" id="Layer_1" xmlns="http://www.w3.org/2000/svg" xmlns:xlink="http://www.w3.org/1999/xlink" x="0px" y="0px"
	 viewBox="0 0 200 200" style="enable-background:new 0 0 200 200;" xml:space="preserve">
<g>
	<path id="path2" class="primary" d="M9.8,91.2v35.2c0,2.8,1.2,5,3,5h4.9h25.8c3.1-7.5,10.4-12.7,19-12.7s15.8,5.2,19,12.7h37.1V91.2H9.8z"/>
	<path id="path3" class="primary" d="M62.2,124.6c-8.2,0-14.8,6.6-14.8,14.8s6.6,14.8,14.8,14.8S77,147.6,77,139.4C77.2,131.2,70.5,124.6,62.2,124.6
		z"/>
	<path id="path4" class="primary" d="M156.4,125.3c-8.2,0-14.8,6.6-14.8,14.8s6.6,14.8,14.8,14.8c8.2,0,14.8-6.6,14.8-14.8l0,0
		C171.3,131.9,164.5,125.3,156.4,125.3z"/>
	<path id="path5" class="primary" d="M188.7,88l-20-0.2h0.2l-12.2-25.8c-2.1-3.3-6.1-5.6-10.4-5.4h-23v30.8v3.8v40.2h13.6
		c3.3-7.5,10.8-12.7,19.7-12.7c8.7,0,16.2,5.2,19.7,12.7h11.3c2.1,0,3.5-1.4,3.5-3.3V91.2C191,90,190.1,88.6,188.7,88z M129.4,87.5
		V63.1h16c3,0,5.4,1.9,6.3,4.7l9.2,19.7H129.4z"/>
	<path id="path6" class="primary" d="M108.7,56.7H19.4c-5.4,0-9.6,4.4-9.6,9.7v20h108.4v-20l0,0C118.4,61.1,114.1,56.7,108.7,56.7z"/>
</g>
</svg>
