<?xml version="1.0" encoding="utf-8"?>
<!-- Generator: Adobe Illustrator 26.0.0, SVG Export Plug-In . SVG Version: 6.00 Build 0)  -->
<svg version="1.1" id="Layer_1" xmlns="http://www.w3.org/2000/svg" xmlns:xlink="http://www.w3.org/1999/xlink" x="0px" y="0px"
	 viewBox="0 0 200 200" style="enable-background:new 0 0 200 200;" xml:space="preserve">
<g>
	<path id="path1" class="primary" d="M100.3,96.6l78.6-33.2C165.1,33.7,135,13,100,13c-29.8,0-56.1,15-71.8,37.9L100.3,96.6z"/>
	<path id="path2" class="primary" d="M180.1,66.1L180.1,66.1C180.1,66.2,180.1,66.1,180.1,66.1z"/>
	<path id="path3" class="primary" d="M113.6,97.5l73.3,3c0-0.2,0-0.3,0-0.5c0-10.9-2-21.4-5.7-31L113.6,97.5z"/>
	<path id="path4" class="primary" d="M26.5,53.4l0.3-0.4C26.7,53.2,26.6,53.3,26.5,53.4z"/>
	<path id="path5" class="primary" d="M101.9,103.1l-36.5,76.7C76,184.4,87.7,187,100,187c45.8,0,83.4-35.5,86.7-80.4L101.9,103.1z"/>
	<path id="path6" class="primary" d="M62.6,178.5l-0.4-0.2C62.3,178.4,62.5,178.5,62.6,178.5z"/>
	<path id="path7" class="primary" d="M96.1,101.1L25,56C17.4,68.9,13,84,13,100c0,33.6,19,62.7,46.9,77.2L96.1,101.1z"/>
</g>
</svg>
