<?xml version="1.0" encoding="utf-8"?>
<!-- Generator: Adobe Illustrator 26.0.0, SVG Export Plug-In . SVG Version: 6.00 Build 0)  -->
<svg version="1.1" id="Layer_1" xmlns="http://www.w3.org/2000/svg" xmlns:xlink="http://www.w3.org/1999/xlink" x="0px" y="0px"
	 viewBox="0 0 200 200" style="enable-background:new 0 0 200 200;" xml:space="preserve">
	 <style type="text/css">
	     .primary{fill:#000000;}
	     .pinFill{fill:#FFFFFF;}
	 </style>
<g>
	<path id="pin" class="primary" d="M169.2,79.8c0-38.2-31-69.2-69.2-69.2s-69.2,31-69.2,69.2c0,14.1,4.3,27.3,11.5,38.2l0,0l0.1,0.2
		c1.6,2.4,3.3,4.6,5.2,6.8l52.4,68.2l52.4-68.2c1.9-2.2,3.6-4.4,5.2-6.8l0.1-0.2l0,0C165,107.1,169.2,94,169.2,79.8L169.2,79.8z"/>
	<path id="pinFill" class="pinFill" d="M100,143.5c-34.6,0-62.7-28.1-62.7-62.7S65.4,18.1,100,18.1s62.7,28.1,62.7,62.7
		S134.6,143.5,100,143.5L100,143.5z"/>
</g>
<g>
	<path id="path2" class="primary" d="M121.5,98.2c1-0.3,2.1-0.5,3.2-0.5c4.9,0,9,3.6,9.8,8.3h10.1V91h-23.1V98.2z"/>
	<path id="path3" class="primary" d="M148.8,51c-0.2-2.3-2.3-4-4.6-3.8c-2.2,0.2-3.9,2.2-3.8,4.4l-4.2,1.7l-0.4-1L70.3,78.6l-5-2.2l-14.1,1.1l0.7,9.1l-8,10.2
		c-0.2,0.3-0.3,0.6-0.2,1s0.4,0.6,0.7,0.7l21.6,6.9c-1,1.6-1.6,3.4-1.6,5.5c0,5.5,4.5,10,10,10c4.5,0,8.4-3,9.6-7.2h29.4
		c1.2,4.1,5.1,7.2,9.6,7.2c5.5,0,10-4.5,10-10s-4.5-10-10-10c-4.4,0-8.1,2.8-9.5,6.8H97.7L107.8,86h19.5c0.9,0,1.6-0.7,1.6-1.6
		c0-0.9-0.7-1.6-1.6-1.6h-20.6c-0.6,0-1.2,0.4-1.5,0.9l-11.2,24H83.9c-1.3-3.9-5.1-6.8-9.5-6.8c-2.7,0-5.1,1.1-6.9,2.8L46.5,97
		l5.6-7.2l0.5,6l28.1-2.1L79.9,85l-4.6-3.1l62.4-25.1l-0.4-1l4.2-1.7c0.9,1,2.2,1.6,3.6,1.4C147.3,55.4,149,53.4,148.8,51z
		 M55.6,89.6l-0.7-9.4l9.2-0.7l10,5.9l0.1,2.8L55.6,89.6z"/>
</g>
</svg>
