<?xml version="1.0" encoding="utf-8"?>
<!-- Generator: Adobe Illustrator 26.0.0, SVG Export Plug-In . SVG Version: 6.00 Build 0)  -->
<svg version="1.1" id="Layer_1" xmlns="http://www.w3.org/2000/svg" xmlns:xlink="http://www.w3.org/1999/xlink" x="0px" y="0px"
	 viewBox="0 0 200 200" style="enable-background:new 0 0 200 200;" xml:space="preserve">
	 <style type="text/css">
	     .primary{fill:#000000;}
	     .pinFill{fill:#FFFFFF;}
	 </style>
	 <g>
	 	<path id="pin" class="primary" d="M169.2,79.8c0-38.2-31-69.2-69.2-69.2s-69.2,31-69.2,69.2c0,14.1,4.3,27.3,11.5,38.2h0l0.1,0.2
	 		c1.6,2.4,3.3,4.6,5.2,6.8l52.4,68.2l52.4-68.2c1.9-2.2,3.6-4.4,5.2-6.8l0.1-0.2h0C165,107.1,169.2,94,169.2,79.8L169.2,79.8z"/>
	 	<path id="pinFill" class="pinFill" d="M100,143.5c-34.6,0-62.7-28.1-62.7-62.7S65.4,18.1,100,18.1s62.7,28.1,62.7,62.7
	 		S134.6,143.5,100,143.5L100,143.5z"/>
	 </g>
<path id="path2" class="primary" d="M134.9,113.2V37.8h-7.4h-0.1H72.7h-5.4h-2.2v75.4h-3.6v9.2h32.2v-7.2v-2.1v-18h12.8v18v2.1v7.2h32.2v-9.2H134.9z M72.7,49.3
	h12v15.9h-12V49.3z M72.7,70.7h12V87h-12V70.7z M72.7,92.5h12v16.3h-12V92.5z M115.5,49.3h11.9v15.9h-11.9V49.3z M115.5,70.7h11.9
	V87h-11.9V70.7z M115.5,92.5h11.9v16.3h-11.9V92.5z M93.7,49.3h12.8v15.9H93.7V49.3z M93.7,87V70.7h12.8V87H93.7z"/>
</svg>
