<?xml version="1.0" encoding="utf-8"?>
<!-- Generator: Adobe Illustrator 26.0.0, SVG Export Plug-In . SVG Version: 6.00 Build 0)  -->
<svg version="1.1" id="Layer_1" xmlns="http://www.w3.org/2000/svg" xmlns:xlink="http://www.w3.org/1999/xlink" x="0px" y="0px"
	 viewBox="0 0 200 200" style="enable-background:new 0 0 200 200;" xml:space="preserve">
	 <style type="text/css">
	     .primary{fill:#000000;}
	     .pinFill{fill:#FFFFFF;}
	 </style>
	 <g>
	 	<path id="pin" class="primary" d="M169.2,79.8c0-38.2-31-69.2-69.2-69.2s-69.2,31-69.2,69.2c0,14.1,4.3,27.3,11.5,38.2h0l0.1,0.2
	 		c1.6,2.4,3.3,4.6,5.2,6.8l52.4,68.2l52.4-68.2c1.9-2.2,3.6-4.4,5.2-6.8l0.1-0.2h0C165,107.1,169.2,94,169.2,79.8L169.2,79.8z"/>
	 	<path id="pinFill" class="pinFill" d="M100,143.5c-34.6,0-62.7-28.1-62.7-62.7S65.4,18.1,100,18.1s62.7,28.1,62.7,62.7
	 		S134.6,143.5,100,143.5L100,143.5z"/>
	 </g>
<g>
	<path id="path2" class="primary" d="M100.1,103.5H78.7c-2.9,0-4.7-3.1-3.3-5.6l10.8-19.5l10.6-18.8c1.4-2.6,5.1-2.5,6.6,0l10.7,19l10.8,19.3
		c1.4,2.5-0.4,5.6-3.3,5.6H100.1z"/>
	<path id="path3" class="primary" d="M133.8,125.5H66.5V35.7h67.2V125.5z M70.8,121.2h58.6V40H70.8V121.2z"/>
	<path id="path4" class="pinFill" d="M100.1,98.7c-2.1,0-3.5-1.5-3.5-3.6c0-2.1,1.5-3.6,3.5-3.6c2.1,0,3.5,1.5,3.5,3.6
		C103.7,97.2,102.3,98.7,100.1,98.7L100.1,98.7z M97.9,87.9L97,70.1h6.3l-0.9,17.8H97.9z"/>
</g>
</svg>
