<?xml version="1.0" encoding="utf-8"?>
<!-- Generator: Adobe Illustrator 26.0.0, SVG Export Plug-In . SVG Version: 6.00 Build 0)  -->
<svg version="1.1" id="Layer_1" xmlns="http://www.w3.org/2000/svg" xmlns:xlink="http://www.w3.org/1999/xlink" x="0px" y="0px"
	 viewBox="0 0 200 200" style="enable-background:new 0 0 200 200;" xml:space="preserve">
	 <style type="text/css">
	     .primary{fill:#000000;}
	     .pinFill{fill:#FFFFFF;}
	 </style>
	 <g>
	 	<path id="pin" class="primary" d="M169.2,79.8c0-38.2-31-69.2-69.2-69.2s-69.2,31-69.2,69.2c0,14.1,4.3,27.3,11.5,38.2h0l0.1,0.2
	 		c1.6,2.4,3.3,4.6,5.2,6.8l52.4,68.2l52.4-68.2c1.9-2.2,3.6-4.4,5.2-6.8l0.1-0.2h0C165,107.1,169.2,94,169.2,79.8L169.2,79.8z"/>
	 	<path id="pinFill" class="pinFill" d="M100,143.5c-34.6,0-62.7-28.1-62.7-62.7S65.4,18.1,100,18.1s62.7,28.1,62.7,62.7
	 		S134.6,143.5,100,143.5L100,143.5z"/>
	 </g>
<path id="path2" class="primary" d="M149.4,83.1c0-0.1,0-0.2,0.1-0.2c0.9-2.1,2.1-4.1,2.9-6.2c0.8-2.1,1.1-4.3,1.2-6.5c0.1-2.7-1.6-5.2-3.9-6.5
	c-5.7-3.1-13.1,1.6-16.2,6.2c-0.9,1.3-1.6,2.8-2.4,4.2c-0.1-0.1-0.3-0.2-0.4-0.4c-2.7-2.9-5.6-5.4-8.8-7.7c-5.1-3.6-10.9-6.4-17-8.3
	c0.4-0.4,0.5-1,0.3-1.9c-0.3-1.6-1.2-2.9-2.4-3.9c-1.2-0.8-2.5-1.3-4-1.2c-4.5,0.2-8.6,1.5-12.3,4c-0.5,0.3-0.7,0.6-0.9,1
	c-12.9,1.6-31.8,12-36.8,19.9c-6.2,9.9,2.6,18.6,10.4,23.6c7.7,4.9,17,9.5,26.3,10.6c0.1,0.4,0.3,0.8,0.8,1.2c3.8,2.6,8,4,12.6,4.2
	c1.4,0.1,2.6-0.4,3.8-1.2c1.3-1,2.2-2.3,2.5-4c0.2-0.9,0-1.5-0.4-1.9c9-2.5,17.1-7.3,24.3-14.3c0.7-0.7,1.4-1.4,2.1-2.1
	c0.2,0.4,0.3,0.6,0.4,0.9c1.7,3.8,4.2,6.9,7.9,8.9c3.6,1.9,8.4,2.8,11.7-0.1c1.7-1.5,2.2-3.3,2.4-5.5c0.1-1.4,0-2.9-0.4-4.3
	c-0.8-2.9-2.5-5.5-3.6-8.4C149.4,83.2,149.4,83.1,149.4,83.1z"/>
</svg>
