<?xml version="1.0" encoding="utf-8"?>
<!-- Generator: Adobe Illustrator 26.0.0, SVG Export Plug-In . SVG Version: 6.00 Build 0)  -->
<svg version="1.1" id="Layer_1" xmlns="http://www.w3.org/2000/svg" xmlns:xlink="http://www.w3.org/1999/xlink" x="0px" y="0px"
	 viewBox="0 0 200 200" style="enable-background:new 0 0 200 200;" xml:space="preserve">
	 <style type="text/css">
	     .primary{fill:#000000;}
	     .pinFill{fill:#FFFFFF;}
	 </style>
	 <g>
	 	<path id="pin" class="primary" d="M169.2,79.8c0-38.2-31-69.2-69.2-69.2s-69.2,31-69.2,69.2c0,14.1,4.3,27.3,11.5,38.2h0l0.1,0.2
	 		c1.6,2.4,3.3,4.6,5.2,6.8l52.4,68.2l52.4-68.2c1.9-2.2,3.6-4.4,5.2-6.8l0.1-0.2h0C165,107.1,169.2,94,169.2,79.8L169.2,79.8z"/>
	 	<path id="pinFill" class="pinFill" d="M100,143.5c-34.6,0-62.7-28.1-62.7-62.7S65.4,18.1,100,18.1s62.7,28.1,62.7,62.7
	 		S134.6,143.5,100,143.5L100,143.5z"/>
	 </g>
<polygon id="polygon1" class="primary" points="100.02,55.7 100.02,44.28 65.76,44.28 65.76,55.7 74.64,55.7 74.64,69.66 65.76,69.66 65.76,81.08 70.83,81.08
	70.83,120.42 93.68,120.42 93.68,81.08 100.02,81.08 100.02,69.66 89.87,69.66 89.87,55.7 "/>
<path id="path2" class="primary" d="M117.07,120.1l11.59-25.07c3.35,0.06,5.24-1.94,6.5-4.66c1.45-3.15,0.51-6.82-1.83-9.1l-3.25,7.04l-6.97-3.22l2.96-6.41
	c-1.98,0.62-5.24,1.88-6.46,4.51c-1.26,2.72-0.15,6.11,0.68,7.98l-11.59,25.07c-1.96,0.58-5.34,1.9-6.6,4.62
	c-1.5,3.24-0.48,7.03,1.89,9.23l3.11-6.72l6.97,3.22l-2.71,5.86c3.38,0,5.1-1.89,6.27-4.41
	C118.89,125.31,119.29,122.61,117.07,120.1"/>
<path id="path3" class="primary" d="M112.73,62.04c0,2.54-2.06,4.6-4.6,4.6c-2.54,0-4.6-2.06-4.6-4.6c0-2.54,2.06-4.6,4.6-4.6
	C110.67,57.44,112.73,59.5,112.73,62.04"/>
<path id="path4" class="primary" d="M121.93,52.67c0,2.54-2.06,4.6-4.6,4.6c-2.54,0-4.6-2.06-4.6-4.6c0-2.54,2.06-4.6,4.6-4.6
	C119.87,48.07,121.93,50.13,121.93,52.67"/>
<path id="path5" class="primary" d="M126.53,65.57c0,2.54-2.06,4.6-4.6,4.6c-2.54,0-4.6-2.06-4.6-4.6c0-2.54,2.06-4.6,4.6-4.6
	C124.47,60.97,126.53,63.03,126.53,65.57"/>
<path id="path6" class="primary" d="M134.97,56.03c0,2.54-2.06,4.6-4.6,4.6s-4.6-2.06-4.6-4.6c0-2.54,2.06-4.6,4.6-4.6S134.97,53.49,134.97,56.03"/>
<path id="path7" class="primary" d="M138.72,70.17c0,2.54-2.06,4.6-4.6,4.6s-4.6-2.06-4.6-4.6c0-2.54,2.06-4.6,4.6-4.6S138.72,67.63,138.72,70.17"/>
<path id="path8" class="primary" d="M129.52,42.2c0,2.54-2.06,4.6-4.6,4.6c-2.54,0-4.6-2.06-4.6-4.6c0-2.54,2.06-4.6,4.6-4.6
	C127.47,37.6,129.52,39.66,129.52,42.2"/>
</svg>
