<?xml version="1.0" encoding="utf-8"?>
<!-- Generator: Adobe Illustrator 26.0.0, SVG Export Plug-In . SVG Version: 6.00 Build 0)  -->
<svg version="1.1" id="Layer_1" xmlns="http://www.w3.org/2000/svg" xmlns:xlink="http://www.w3.org/1999/xlink" x="0px" y="0px"
	 viewBox="0 0 200 200" style="enable-background:new 0 0 200 200;" xml:space="preserve">
	 <style type="text/css">
	     .primary{fill:#000000;}
	     .pinFill{fill:#FFFFFF;}
	 </style>
	 <g>
	 	<path id="pin" class="primary" d="M169.2,79.8c0-38.2-31-69.2-69.2-69.2s-69.2,31-69.2,69.2c0,14.1,4.3,27.3,11.5,38.2h0l0.1,0.2
	 		c1.6,2.4,3.3,4.6,5.2,6.8l52.4,68.2l52.4-68.2c1.9-2.2,3.6-4.4,5.2-6.8l0.1-0.2h0C165,107.1,169.2,94,169.2,79.8L169.2,79.8z"/>
	 	<path id="pinFill" class="pinFill" d="M100,143.5c-34.6,0-62.7-28.1-62.7-62.7S65.4,18.1,100,18.1s62.7,28.1,62.7,62.7
	 		S134.6,143.5,100,143.5L100,143.5z"/>
	 </g>
<path id="path2" class="primary" d="M93.6,80c-2.2,0.1-4.6,0.2-7.1,0.2c-12.4,0-22.4-2-22.4-4.5s10-4.5,22.4-4.5c1.2,0,2.3,0,3.4,0.1l-1.5-3.5
	c-0.6,0-1.3,0-1.9,0c-16.3,0-29.5,3.1-29.5,6.9c0,0,0,17.8,0,17.9c0,4.3,0.4,8.9-1.8,12.8c-1.6,2.9-4.6,5.1-6.6,7.8l14.2-2.7v4.2
	l8.9-6.3l6.1,12.7l13-12.7l6.6,6.3l6.9-8.1c0,0,0.2,0.1,0.5,0.3L93.6,80z"/>
<g>
	<path id="path3" class="primary" d="M120.1,69.2h22.1c1.9,0,3.3-1.4,3.3-3.3v-2.2c0-1.9-1.4-3.3-3.3-3.3h-22.1c-1.9,0-3.3,1.4-3.3,3.3v2.2
		C116.8,67.8,118.4,69.2,120.1,69.2z"/>
	<path id="path4" class="primary" d="M127.4,55.6v3h7.7v-3c1.6-0.1,2.9-0.9,3.9-1.9c2.6-2.7,2.6-7.5,2.6-7.7v-1h-20.7v1c0,0.1-0.1,4.9,2.6,7.7
		C124.5,54.8,125.8,55.5,127.4,55.6z M139.7,47.1c-0.1,1.3-0.6,3.6-2,5.1c-0.9,0.9-2,1.3-3.5,1.3H133v3h-3v-3h-1.2
		c-1.4,0-2.6-0.4-3.5-1.3c-1.4-1.4-1.9-3.8-2-5.1H139.7z"/>
	<path id="path5" class="primary" d="M139.4,70.5H123c-3.9,0-6.5,3.9-6.5,7.7V110c0,1.3,0.1,2.6,0.9,3.6c-0.9,0-1.7-0.1-2.5-0.4c-0.7-0.3-1.3-0.9-1.4-1.6
		l-1.6-4.6h0.1c0.7-0.3,1-1.2,0.7-1.9l-9.5-21c-0.3-0.6-0.7-0.9-1.3-0.9h0.1L88.9,53.6c-0.3-0.6-0.7-1.2-1.4-1.4l-9-3l-1.3,5.1
		l8.1,2c0.7,0.1,1.3,0.6,1.6,1.2L99,84.7c-0.4,0.4-0.4,1-0.3,1.6l9.5,21c0.3,0.7,1,1,1.7,0.7l1.6,4.5c0.4,1.3,1.3,2.3,2.6,2.9
		c1,0.4,2,0.6,3.2,0.6c0.6,0,1.3-0.3,1.9-0.4c1.2,0.9,2.5,1,4.1,1h16.1c3.9,0,7.4-2.6,7.4-6.5V78.2
		C146.8,74.4,143.3,70.5,139.4,70.5z"/>
</g>
</svg>
