<?xml version="1.0" encoding="utf-8"?>
<!-- Generator: Adobe Illustrator 26.0.0, SVG Export Plug-In . SVG Version: 6.00 Build 0)  -->
<svg version="1.1" id="Layer_1" xmlns="http://www.w3.org/2000/svg" xmlns:xlink="http://www.w3.org/1999/xlink" x="0px" y="0px"
	 viewBox="0 0 200 200" style="enable-background:new 0 0 200 200;" xml:space="preserve">
	 <style type="text/css">
	     .primary{fill:#000000;}
	     .pinFill{fill:#FFFFFF;}
	 </style>
	 <g>
	 	<path id="pin" class="primary" d="M169.2,79.8c0-38.2-31-69.2-69.2-69.2s-69.2,31-69.2,69.2c0,14.1,4.3,27.3,11.5,38.2h0l0.1,0.2
	 		c1.6,2.4,3.3,4.6,5.2,6.8l52.4,68.2l52.4-68.2c1.9-2.2,3.6-4.4,5.2-6.8l0.1-0.2h0C165,107.1,169.2,94,169.2,79.8L169.2,79.8z"/>
	 	<path id="pinFill" class="pinFill" d="M100,143.5c-34.6,0-62.7-28.1-62.7-62.7S65.4,18.1,100,18.1s62.7,28.1,62.7,62.7
	 		S134.6,143.5,100,143.5L100,143.5z"/>
	 </g>
<g>
	<path id="path2" class="primary" d="M133.6,96.3H96.4c-3.3,0-6.3,1.5-8.4,3.8H67c-1.2,0-2.1,0.9-2.1,2.1c0,1.1,0.9,2.1,2.1,2.1h18.6c-0.3,1.1-0.5,2.2-0.5,3.4
		v4.5H59.9V55.8c0-0.2,0.2-0.4,0.4-0.4h8.2c0.3,0.7,1,1.3,1.8,1.3h25c0.8,0,1.5-0.5,1.8-1.3h8.7c0,0,0,2,0,5.2
		c-2.1,1.3-3.8,3.1-5.1,5.2c-0.2-0.9-1-1.6-2-1.6H67c-1.2,0-2.1,0.9-2.1,2.1c0,1.1,0.9,2.1,2.1,2.1h31.7c0.3,0,0.5-0.1,0.8-0.2
		c-0.9,2-1.4,4.3-1.4,6.6c0,0.5,0,0.9,0.1,1.3H67c-1.2,0-2.1,0.9-2.1,2.1c0,1.2,0.9,2.1,2.1,2.1h31.7c0.1,0,0.2,0,0.3,0
		c2.3,6.6,8.6,11.4,16,11.4c9.3,0,16.9-7.6,16.9-16.9c0-9.3-7.6-16.9-16.9-16.9c-1.8,0-3.5,0.3-5.1,0.8v-3.4c0-2.2-1.8-4-4-4h-9
		c-0.7-1.9-2.6-3.2-4.7-3.2h-4c-0.7-2.4-2.9-4.1-5.5-4.1c-2.6,0-4.8,1.7-5.5,4.1h-4c-2.1,0-3.9,1.3-4.7,3.2h-8.9c-2.2,0-4,1.8-4,4
		v57c0,2.2,1.8,4,4,4h25.3h20.8h39v-8.6C144.9,101.4,139.8,96.3,133.6,96.3z M83,47.7c1.4,0,2.6,1.2,2.6,2.6c0,1.4-1.2,2.6-2.6,2.6
		c-1.4,0-2.6-1.2-2.6-2.6C80.4,48.9,81.6,47.7,83,47.7z"/>
	<path id="path3" class="primary" d="M67,88.1c-1.2,0-2.1,0.9-2.1,2.1s0.9,2.1,2.1,2.1h31.7c1.1,0,2.1-0.9,2.1-2.1s-0.9-2.1-2.1-2.1H67z"/>
</g>
</svg>
