<?xml version="1.0" encoding="utf-8"?>
<!-- Generator: Adobe Illustrator 26.0.0, SVG Export Plug-In . SVG Version: 6.00 Build 0)  -->
<svg version="1.1" id="Layer_1" xmlns="http://www.w3.org/2000/svg" xmlns:xlink="http://www.w3.org/1999/xlink" x="0px" y="0px"
	 viewBox="0 0 200 200" style="enable-background:new 0 0 200 200;" xml:space="preserve">
	 <style type="text/css">
	     .primary{fill:#000000;}
	     .pinFill{fill:#FFFFFF;}
	 </style>
	 <g>
	 	<path id="pin" class="primary" d="M169.2,79.8c0-38.2-31-69.2-69.2-69.2s-69.2,31-69.2,69.2c0,14.1,4.3,27.3,11.5,38.2h0l0.1,0.2
	 		c1.6,2.4,3.3,4.6,5.2,6.8l52.4,68.2l52.4-68.2c1.9-2.2,3.6-4.4,5.2-6.8l0.1-0.2h0C165,107.1,169.2,94,169.2,79.8L169.2,79.8z"/>
	 	<path id="pinFill" class="pinFill" d="M100,143.5c-34.6,0-62.7-28.1-62.7-62.7S65.4,18.1,100,18.1s62.7,28.1,62.7,62.7
	 		S134.6,143.5,100,143.5L100,143.5z"/>
	 </g>
<g>
	<path id="path2" class="primary" d="M104.7,69.5v-31c0-2.9-2.3-5.2-5.2-5.2h-2.2c-2.9,0-5.2,2.3-5.2,5.2v31h-5.5c-2.8,0-4.5,3-3.1,5.4L96.7,98
		c1.1,1.9,3.9,1.9,5,0l13.3-23.1c1.4-2.4-0.3-5.4-3.1-5.4H104.7z"/>
	<path id="path3" class="primary" d="M134.6,120.3H65.7c-3.8,0-7-3.1-7-7V78.2c0-2.3,1.8-4.1,4.1-4.1c2.3,0,4.1,1.8,4.1,4.1v29.7c0,2.3,1.9,4.2,4.2,4.2h56
		c2.3,0,4.2-1.9,4.2-4.2V78.2c0-2.3,1.8-4.1,4.1-4.1c2.3,0,4.1,1.8,4.1,4.1v37C139.7,118.1,137.4,120.3,134.6,120.3"/>
</g>
</svg>
