<?xml version="1.0" encoding="utf-8"?>
<!-- Generator: Adobe Illustrator 26.0.0, SVG Export Plug-In . SVG Version: 6.00 Build 0)  -->
<svg version="1.1" id="Layer_1" xmlns="http://www.w3.org/2000/svg" xmlns:xlink="http://www.w3.org/1999/xlink" x="0px" y="0px"
	 viewBox="0 0 200 200" style="enable-background:new 0 0 200 200;" xml:space="preserve">
	 <style type="text/css">
	     .primary{fill:#000000;}
	     .pinFill{fill:#FFFFFF;}
	 </style>
	 <g>
	 	<path id="pin" class="primary" d="M169.2,79.8c0-38.2-31-69.2-69.2-69.2s-69.2,31-69.2,69.2c0,14.1,4.3,27.3,11.5,38.2h0l0.1,0.2
	 		c1.6,2.4,3.3,4.6,5.2,6.8l52.4,68.2l52.4-68.2c1.9-2.2,3.6-4.4,5.2-6.8l0.1-0.2h0C165,107.1,169.2,94,169.2,79.8L169.2,79.8z"/>
	 	<path id="pinFill" class="pinFill" d="M100,143.5c-34.6,0-62.7-28.1-62.7-62.7S65.4,18.1,100,18.1s62.7,28.1,62.7,62.7
	 		S134.6,143.5,100,143.5L100,143.5z"/>
	 </g>
<path id="path2" class="primary" d="M130.9,36.1H69.2c-2.3,0-4.1,1.8-4.1,4.1c0,2.1,1.5,3.8,3.5,4.1v6.6c0,1.4,1.2,2.6,2.6,2.6c1.4,0,2.6-1.2,2.6-2.6v-6.5H75
	c0.1,0.1,0.1,0.1,0.2,0.2l20.7,16.6v53.1v5.2v13.8c0,2.3,1.8,4.1,4.1,4.1s4.1-1.8,4.1-4.1v-20.1V108V61.2l20.7-16.6
	c0.1-0.1,0.1-0.1,0.2-0.2h1.2v6.5c0,1.4,1.2,2.6,2.6,2.6c1.5,0,2.6-1.2,2.6-2.6v-6.6c2-0.3,3.5-2,3.5-4.1
	C135,37.9,133.2,36.1,130.9,36.1z M83.4,44.4h12.5v10L83.4,44.4z M104.2,54.4v-10h12.5L104.2,54.4z"/>
</svg>
