<?xml version="1.0" encoding="utf-8"?>
<!-- Generator: Adobe Illustrator 26.0.0, SVG Export Plug-In . SVG Version: 6.00 Build 0)  -->
<svg version="1.1" id="Layer_1" xmlns="http://www.w3.org/2000/svg" xmlns:xlink="http://www.w3.org/1999/xlink" x="0px" y="0px"
	 viewBox="0 0 200 200" style="enable-background:new 0 0 200 200;" xml:space="preserve">
	 <style type="text/css">
	     .primary{fill:#000000;}
	     .pinFill{fill:#FFFFFF;}
	 </style>
	 <g>
	 	<path id="pin" class="primary" d="M169.2,79.8c0-38.2-31-69.2-69.2-69.2s-69.2,31-69.2,69.2c0,14.1,4.3,27.3,11.5,38.2h0l0.1,0.2
	 		c1.6,2.4,3.3,4.6,5.2,6.8l52.4,68.2l52.4-68.2c1.9-2.2,3.6-4.4,5.2-6.8l0.1-0.2h0C165,107.1,169.2,94,169.2,79.8L169.2,79.8z"/>
	 	<path id="pinFill" class="pinFill" d="M100,143.5c-34.6,0-62.7-28.1-62.7-62.7S65.4,18.1,100,18.1s62.7,28.1,62.7,62.7
	 		S134.6,143.5,100,143.5L100,143.5z"/>
	 </g>
<g>
	<path id="path2" class="primary" d="M105.6,96L105.6,96C105.7,96.1,105.7,96.1,105.6,96z"/>
	<path id="path3" class="primary" d="M122.8,49.8C122.8,49.8,122.9,49.9,122.8,49.8C123.2,49.8,123,49.8,122.8,49.8z"/>
	<path id="path4" class="primary" d="M151.5,81.8c2.9-6.5-0.1-14.2-6.6-17c-0.5-0.2-1.1-0.4-1.6-0.6l-36.5,35.7c0,1.5,0.1,3,0.4,4.5l-5.3,2.3l3.7-10.7
		c0-0.1-0.1-0.1,0,0l17.2-46.1c-0.4,0-0.2,0,0,0c-2.8-5.9-8.8-10-15.8-10c-1.6,0-3.2,0.2-4.7,0.7c-3-5.2-8.7-8.8-15.2-8.8
		c-7.9,0-14.5,5.2-16.7,12.3c-4.2,1.2-7.6,4.3-9.1,8.4c-6.5,2.4-11.1,8.6-11.1,15.9c0,7.1,4.3,13.2,10.5,15.7
		c-0.2,1.1-0.4,2.3-0.4,3.5c0,9.4,7.6,17,17,17c3.8,0,7.2-1.2,10-3.3l6,7.7l-2.4,22.8h14.9c0,0-2.3-17.6-2.6-21.3
		c0.1-0.1,0.1-0.1,0.2-0.2l-0.5-0.7c2.6-1,4.3-1.7,5.5-2.1c1.7,3.9,4.8,7.1,9,9c8.9,3.9,19.2-0.1,23.1-9c0.2-0.3,0.3-0.7,0.4-1.1
		c4.3-0.6,8.2-3.3,10.1-7.6c2-4.6,1.1-9.7-1.8-13.4C150,84.4,150.9,83.2,151.5,81.8z M95.7,106.7l-5.4-8.1c1.4-1.7,2.5-3.6,3.2-5.7
		l4.5,7.7L95.7,106.7z M103.9,91.3l-2.3,7.2L98,92.7C100.1,92.6,102.1,92.1,103.9,91.3z"/>
</g>
</svg>
