<?xml version="1.0" encoding="utf-8"?>
<!-- Generator: Adobe Illustrator 26.0.0, SVG Export Plug-In . SVG Version: 6.00 Build 0)  -->
<svg version="1.1" id="Layer_1" xmlns="http://www.w3.org/2000/svg" xmlns:xlink="http://www.w3.org/1999/xlink" x="0px" y="0px"
	 viewBox="0 0 200 200" style="enable-background:new 0 0 200 200;" xml:space="preserve">
<style type="text/css">
    .primary{fill:#000000;}
    .pinFill{fill:#FFFFFF;}
</style>
<g>
	<path id="pin" class="primary" d="M169.2,79.8c0-38.2-31-69.2-69.2-69.2s-69.2,31-69.2,69.2c0,14.1,4.3,27.3,11.5,38.2h0l0.1,0.2
		c1.6,2.4,3.3,4.6,5.2,6.8l52.4,68.2l52.4-68.2c1.9-2.2,3.6-4.4,5.2-6.8l0.1-0.2h0C165,107.1,169.2,94,169.2,79.8L169.2,79.8z"/>
	<path id="pinFill" class="pinFill" d="M100,143.5c-34.6,0-62.7-28.1-62.7-62.7S65.4,18.1,100,18.1s62.7,28.1,62.7,62.7
		S134.6,143.5,100,143.5L100,143.5z"/>
</g>
<g>
	<g>
		<path id="path2" class="primary" d="M102.37,53.98l13.98,17.57c1.41,1.82,0.14,4.54-2.18,4.54h-4.68c-1.5,0-2.81,1-2.81,2.5v27.92c0,1.5-1.09,2.72-2.63,2.72
			H96.7c-1.45,0-2.72-1.23-2.72-2.72V78.59c0-1.5-1.18-2.5-2.68-2.5h-4.68c-2.27,0-3.54-2.72-2.13-4.49L98.1,54.07
			C99.15,52.62,101.28,52.58,102.37,53.98z"/>
	</g>
	<g>
		<path id="path3" class="primary" d="M91.54,126.17L54.16,88.79c-4.53-4.53-4.53-11.89,0-16.42l37.38-37.38c4.53-4.53,11.89-4.53,16.42,0l37.38,37.38
			c4.53,4.53,4.53,11.89,0,16.42l-37.38,37.38c-2.26,2.26-5.24,3.4-8.21,3.4C96.78,129.57,93.8,128.44,91.54,126.17z M94.88,38.33
			L57.5,75.71c-2.69,2.69-2.69,7.06,0,9.75l37.38,37.38c2.69,2.69,7.06,2.68,9.74,0L142,85.46c2.69-2.69,2.69-7.06,0-9.75
			l-37.38-37.38c-1.34-1.34-3.11-2.01-4.87-2.01C97.99,36.31,96.22,36.99,94.88,38.33z"/>
	</g>
</g>
</svg>
