<?xml version="1.0" encoding="utf-8"?>
<!-- Generator: Adobe Illustrator 26.0.0, SVG Export Plug-In . SVG Version: 6.00 Build 0)  -->
<svg version="1.1" id="Layer_1" xmlns="http://www.w3.org/2000/svg" xmlns:xlink="http://www.w3.org/1999/xlink" x="0px" y="0px"
	 viewBox="0 0 200 200" style="enable-background:new 0 0 200 200;" xml:space="preserve">
<style type="text/css">
    .primary{fill:#000000;}
    .pinFill{fill:#FFFFFF;}
</style>
<g>
	<path id="pin" class="primary" d="M169.2,79.8c0-38.2-31-69.2-69.2-69.2s-69.2,31-69.2,69.2c0,14.1,4.3,27.3,11.5,38.2h0l0.1,0.2
		c1.6,2.4,3.3,4.6,5.2,6.8l52.4,68.2l52.4-68.2c1.9-2.2,3.6-4.4,5.2-6.8l0.1-0.2h0C165,107.1,169.2,94,169.2,79.8L169.2,79.8z"/>
	<path id="pinFill" class="pinFill" d="M100,143.5c-34.6,0-62.7-28.1-62.7-62.7S65.4,18.1,100,18.1s62.7,28.1,62.7,62.7
		S134.6,143.5,100,143.5L100,143.5z"/>
</g>
<g>
	<path id="number" class="primary" d="M116.35,77.03c-3.15-1.49-6.74-2.4-10.78-2.73l-1.19-0.1l17.19-17.69c0.33-0.33,0.63-0.73,0.89-1.19s0.4-0.99,0.4-1.59
		v-5.96c0-0.73-0.23-1.32-0.7-1.79c-0.46-0.46-1.06-0.7-1.79-0.7H77.75c-0.73,0-1.31,0.23-1.74,0.7c-0.43,0.46-0.65,1.06-0.65,1.79
		v6.56c0,0.66,0.21,1.23,0.65,1.69c0.43,0.46,1.01,0.7,1.74,0.7h28.42L88.38,74.1c-0.33,0.33-0.65,0.75-0.94,1.24
		c-0.3,0.5-0.45,1.08-0.45,1.74v4.17c0,0.73,0.23,1.31,0.7,1.74c0.46,0.43,1.06,0.65,1.79,0.65h10.23c3.91,0,6.96,0.78,9.14,2.33
		c2.19,1.56,3.28,4.09,3.28,7.6c0,3.51-1.18,6.21-3.53,8.1s-5.51,2.83-9.49,2.83c-1.99,0-3.88-0.21-5.66-0.65
		c-1.79-0.43-3.36-1.17-4.72-2.23c-1.36-1.06-2.33-2.48-2.93-4.27c-0.33-0.79-0.73-1.32-1.19-1.59c-0.46-0.26-1.03-0.4-1.69-0.4
		h-8.94c-0.6,0-1.11,0.18-1.54,0.55s-0.65,0.84-0.65,1.44c0.07,2.12,0.66,4.26,1.79,6.41c1.13,2.15,2.8,4.14,5.02,5.96
		c2.22,1.82,5.02,3.3,8.4,4.42c3.38,1.12,7.39,1.69,12.02,1.69c5.3,0,10-0.86,14.11-2.58s7.34-4.19,9.69-7.4
		c2.35-3.21,3.53-7.07,3.53-11.58c0-4.31-0.88-7.88-2.63-10.73C121.95,80.69,119.5,78.52,116.35,77.03z"/>
</g>
</svg>
