<?xml version="1.0" encoding="utf-8"?>
<!-- Generator: Adobe Illustrator 26.0.0, SVG Export Plug-In . SVG Version: 6.00 Build 0)  -->
<svg version="1.1" id="Layer_1" xmlns="http://www.w3.org/2000/svg" xmlns:xlink="http://www.w3.org/1999/xlink" x="0px" y="0px"
	 viewBox="0 0 200 200" style="enable-background:new 0 0 200 200;" xml:space="preserve">
	 <style type="text/css">
	     .primary{fill:#000000;}
	     .pinFill{fill:#FFFFFF;}
	 </style>
	 <g>
	 	<path id="pin" class="primary" d="M169.2,79.8c0-38.2-31-69.2-69.2-69.2s-69.2,31-69.2,69.2c0,14.1,4.3,27.3,11.5,38.2h0l0.1,0.2
	 		c1.6,2.4,3.3,4.6,5.2,6.8l52.4,68.2l52.4-68.2c1.9-2.2,3.6-4.4,5.2-6.8l0.1-0.2h0C165,107.1,169.2,94,169.2,79.8L169.2,79.8z"/>
	 	<path id="pinFill" class="pinFill" d="M100,143.5c-34.6,0-62.7-28.1-62.7-62.7S65.4,18.1,100,18.1s62.7,28.1,62.7,62.7
	 		S134.6,143.5,100,143.5L100,143.5z"/>
	 </g>
<path id="path2" class="primary" d="M147.6,79c0-5-2.9-9.3-7-11.4c0.5-1.4,0.8-2.8,0.8-4.4c0-7.1-5.8-12.8-12.8-12.8c-1.3,0-2.6,0.2-3.8,0.6
	C122,45.1,116,41,109,41c-1.6,0-3.2,0.2-4.7,0.7c-3-5.2-8.6-8.7-15.1-8.7c-7.8,0-14.4,5.1-16.6,12.2c-4.2,1.2-7.5,4.3-9.1,8.3
	c-6.4,2.4-11,8.6-11,15.8c0,7,4.3,13.1,10.4,15.6c-0.2,1.1-0.4,2.3-0.4,3.5c0,9.3,7.6,16.9,16.9,16.9c3.7,0,7.2-1.2,10-3.3l5.9,7.7
	L93,132.3h14.8c0,0-2.3-17.5-2.6-21.1c3.8-3.8,6-6,7.3-7.3c3.1,2.8,7.2,4.6,11.7,4.6c9.6,0,17.4-7.8,17.4-17.4c0-0.4,0-0.8-0.1-1.1
	C145.2,87.7,147.6,83.6,147.6,79 M105.9,92.1l-2.3,7.1l-3.4-5.8C102.2,93.3,104.1,92.8,105.9,92.1 M97.8,107.4l-5.3-8.1
	c1.4-1.6,2.5-3.6,3.2-5.6l4.5,7.6L97.8,107.4z M103.6,108.5l4.1-11.7c0.6,1.7,1.4,3.3,2.5,4.7L103.6,108.5z"/>
</svg>
