<?xml version="1.0" encoding="utf-8"?>
<!-- Generator: Adobe Illustrator 26.0.0, SVG Export Plug-In . SVG Version: 6.00 Build 0)  -->
<svg version="1.1" id="Layer_1" xmlns="http://www.w3.org/2000/svg" xmlns:xlink="http://www.w3.org/1999/xlink" x="0px" y="0px"
	 viewBox="0 0 200 200" style="enable-background:new 0 0 200 200;" xml:space="preserve">
	 <style type="text/css">
	     .primary{fill:#000000;}
	     .pinFill{fill:#FFFFFF;}
	 </style>
	 <g>
	 	<path id="pin" class="primary" d="M169.2,79.8c0-38.2-31-69.2-69.2-69.2s-69.2,31-69.2,69.2c0,14.1,4.3,27.3,11.5,38.2h0l0.1,0.2
	 		c1.6,2.4,3.3,4.6,5.2,6.8l52.4,68.2l52.4-68.2c1.9-2.2,3.6-4.4,5.2-6.8l0.1-0.2h0C165,107.1,169.2,94,169.2,79.8L169.2,79.8z"/>
	 	<path id="pinFill" class="pinFill" d="M100,143.5c-34.6,0-62.7-28.1-62.7-62.7S65.4,18.1,100,18.1s62.7,28.1,62.7,62.7
	 		S134.6,143.5,100,143.5L100,143.5z"/>
	 </g>
<path id="path2" class="primary" d="M140.6,83c0-12.7,0-24.5,0-24.5c0-5.2-17.8-9.4-39.8-9.4S61,53.2,61,58.4c0,0,0,24.1,0,24.1c0,5.8,0.5,12.1-2.4,17.3
	c-2.2,3.9-6.2,6.9-8.9,10.5l19.1-3.6v5.6l12.1-8.5l8.3,17.1l17.5-17.1l8.9,8.6l9.3-11c0,0,15.3,8.1,24,9.8
	C148.9,111.3,140.6,95.7,140.6,83z M100.8,65.9c-16.8,0-30.3-2.7-30.3-6.1c0-3.3,13.6-6.1,30.3-6.1s30.3,2.7,30.3,6.1
	C131.1,63.2,117.6,65.9,100.8,65.9z"/>
</svg>
