<?xml version="1.0" encoding="utf-8"?>
<!-- Generator: Adobe Illustrator 26.0.0, SVG Export Plug-In . SVG Version: 6.00 Build 0)  -->
<svg version="1.1" id="Layer_1" xmlns="http://www.w3.org/2000/svg" xmlns:xlink="http://www.w3.org/1999/xlink" x="0px" y="0px"
	 viewBox="0 0 200 200" style="enable-background:new 0 0 200 200;" xml:space="preserve">
	 <style type="text/css">
	     .primary{fill:#000000;}
	     .pinFill{fill:#FFFFFF;}
	 </style>
	 <g>
	 	<path id="pin" class="primary" d="M169.2,79.8c0-38.2-31-69.2-69.2-69.2s-69.2,31-69.2,69.2c0,14.1,4.3,27.3,11.5,38.2h0l0.1,0.2
	 		c1.6,2.4,3.3,4.6,5.2,6.8l52.4,68.2l52.4-68.2c1.9-2.2,3.6-4.4,5.2-6.8l0.1-0.2h0C165,107.1,169.2,94,169.2,79.8L169.2,79.8z"/>
	 	<path id="pinFill" class="pinFill" d="M100,143.5c-34.6,0-62.7-28.1-62.7-62.7S65.4,18.1,100,18.1s62.7,28.1,62.7,62.7
	 		S134.6,143.5,100,143.5L100,143.5z"/>
	 </g>
<g>
	<path id="path2" class="primary" d="M76.4,117.6c-1.1,0-2-0.3-2.7-1c-0.7-0.7-1.1-1.4-1.2-2.3L61.7,50.8c-0.1-0.2-0.1-0.3-0.1-0.4c0-0.1,0-0.2,0-0.2
		c0-0.5,0.2-1,0.6-1.4c0.4-0.4,0.9-0.6,1.4-0.6H76c1.9,0,2.9,0.7,3.1,2.2L85.6,89l7.2-22.9c0.2-0.5,0.5-1.1,1-1.7
		c0.5-0.6,1.2-0.9,2.3-0.9h7.2c1.1,0,1.9,0.3,2.4,0.9c0.5,0.6,0.8,1.2,0.9,1.7l7.2,22.9l6.5-38.8c0.2-1.5,1.2-2.2,3.1-2.2h12.3
		c0.6,0,1.1,0.2,1.5,0.6c0.4,0.4,0.6,0.9,0.6,1.4c0,0.1,0,0.1,0,0.2c0,0.1,0,0.2,0,0.4l-10.8,63.6c-0.1,0.9-0.5,1.6-1.2,2.3
		c-0.7,0.7-1.6,1-2.7,1h-9.5c-1.1,0-2-0.3-2.6-0.9c-0.6-0.6-1-1.2-1.2-1.7L99.6,86.6L89.5,115c-0.2,0.5-0.6,1.1-1.1,1.7
		c-0.6,0.6-1.4,0.9-2.5,0.9H76.4z"/>
</g>
</svg>
