<?xml version="1.0" encoding="utf-8"?>
<!-- Generator: Adobe Illustrator 26.0.0, SVG Export Plug-In . SVG Version: 6.00 Build 0)  -->
<svg version="1.1" id="Layer_1" xmlns="http://www.w3.org/2000/svg" xmlns:xlink="http://www.w3.org/1999/xlink" x="0px" y="0px"
	 viewBox="0 0 200 200" style="enable-background:new 0 0 200 200;" xml:space="preserve">
	 <style type="text/css">
	     .primary{fill:#000000;}
	     .pinFill{fill:#FFFFFF;}
	 </style>
	 <g>
	 	<path id="pin" class="primary" d="M169.2,79.8c0-38.2-31-69.2-69.2-69.2s-69.2,31-69.2,69.2c0,14.1,4.3,27.3,11.5,38.2h0l0.1,0.2
	 		c1.6,2.4,3.3,4.6,5.2,6.8l52.4,68.2l52.4-68.2c1.9-2.2,3.6-4.4,5.2-6.8l0.1-0.2h0C165,107.1,169.2,94,169.2,79.8L169.2,79.8z"/>
	 	<path id="pinFill" class="pinFill" d="M100,143.5c-34.6,0-62.7-28.1-62.7-62.7S65.4,18.1,100,18.1s62.7,28.1,62.7,62.7
	 		S134.6,143.5,100,143.5L100,143.5z"/>
	 </g>
<g>
	<path id="path2" class="primary" d="M99.2,86.3c-16.7,0-25.9-2.2-30.9-4.6v14.3c0,16.2,13.1,29.3,29.3,29.3h5.8c15.7,0,28.4-12.7,28.4-28.4V80.3
		C118.8,87,99.2,86.3,99.2,86.3z"/>
	<path id="path3" class="primary" d="M129.2,66.4c0-11.6-7.8-21.5-18.8-25.6c0,0.1,0,0.2-0.1,0.2c-1.9,5.3-2.9,10.4-3.5,12c-0.4,1.1-1.5,4.2-2.7,4.2H93.4
		c-1.2,0-2.4-3.1-2.8-4.3l-3-10.8v-0.7C76.7,45.6,69,55.2,69,66.6c0,0-6.2,1.5-6.2,3.3c0,1.8,5.8,9.3,36.2,9.3c0,0,26.3,1,38.2-9.5
		C139.2,66.3,129.2,66.4,129.2,66.4z"/>
	<path id="path4" class="primary" d="M92.7,47.4c0.3,0.9,1.1,1.6,2.1,1.6h8.1c0.9,0,1.7-0.6,2-1.5c0.4-1.2,1.2-3.4,2.6-7.3c0.4-1.1-0.2-2.5-1.3-2.8
		c-6-1.9-11.3-0.9-14.3,0c-1.2,0.3-1.8,1.6-1.5,2.8L92.7,47.4z"/>
</g>
</svg>
