<?xml version="1.0" encoding="utf-8"?>
<!-- Generator: Adobe Illustrator 26.0.0, SVG Export Plug-In . SVG Version: 6.00 Build 0)  -->
<svg version="1.1" id="Layer_1" xmlns="http://www.w3.org/2000/svg" xmlns:xlink="http://www.w3.org/1999/xlink" x="0px" y="0px"
	 viewBox="0 0 200 200" style="enable-background:new 0 0 200 200;" xml:space="preserve">
	 <style type="text/css">
	     .primary{fill:#000000;}
	     .pinFill{fill:#FFFFFF;}
	 </style>
	 <g>
	 	<path id="pin" class="primary" d="M169.2,79.8c0-38.2-31-69.2-69.2-69.2s-69.2,31-69.2,69.2c0,14.1,4.3,27.3,11.5,38.2h0l0.1,0.2
	 		c1.6,2.4,3.3,4.6,5.2,6.8l52.4,68.2l52.4-68.2c1.9-2.2,3.6-4.4,5.2-6.8l0.1-0.2h0C165,107.1,169.2,94,169.2,79.8L169.2,79.8z"/>
	 	<path id="pinFill" class="pinFill" d="M100,143.5c-34.6,0-62.7-28.1-62.7-62.7S65.4,18.1,100,18.1s62.7,28.1,62.7,62.7
	 		S134.6,143.5,100,143.5L100,143.5z"/>
	 </g>
<path id="path1" class="primary" d="M139.66,46.59H79.01c-0.9,0-1.63,0.73-1.63,1.62v4.05c0,0.94,0.8,1.69,1.74,1.62c0.22-0.02,0.44-0.03,0.66-0.04
	c0.85-0.05,1.51-0.76,1.51-1.62v-0.1c0-0.9,0.73-1.62,1.63-1.62h3.27c0.9,0,1.62,0.73,1.62,1.62v0.78c0,0.78,0.56,1.43,1.32,1.58
	c0.21,0.04,0.41,0.08,0.62,0.13c1.02,0.22,1.97-0.54,1.97-1.58v-0.92c0-0.9,0.73-1.62,1.63-1.62h4.57c0.9,0,1.62,0.73,1.62,1.62
	v5.25c0,0.58,0.31,1.1,0.81,1.4c1.58,0.92,3.09,1.96,4.5,3.11c0.29,0.23,0.64,0.36,1,0.36h5.1c0.9,0,1.62,0.73,1.62,1.62v6.12
	c0,0.3,0.09,0.59,0.25,0.85c1.5,2.37,2.73,4.93,3.66,7.62V78.2c0-0.9,0.73-1.62,1.63-1.62h5.88c0.9,0,1.62,0.73,1.62,1.62v5.88
	c0,0.9-0.73,1.62-1.62,1.62h-4.02c-0.94,0-1.69,0.8-1.62,1.74c0.02,0.22,0.03,0.44,0.05,0.66c0.05,0.85,0.77,1.51,1.62,1.51h3.97
	c0.9,0,1.62,0.73,1.62,1.62v5.88c0,0.9-0.73,1.62-1.62,1.62h-5.22c-0.74,0-1.38,0.51-1.58,1.23c-0.05,0.2-0.11,0.4-0.17,0.61
	c-0.3,1.04,0.47,2.08,1.55,2.08h21.05c0.9,0,1.62-0.73,1.62-1.62V48.21C141.28,47.31,140.55,46.59,139.66,46.59 M110.97,58.32h-5.88
	c-0.9,0-1.63-0.73-1.63-1.63v-4.57c0-0.9,0.73-1.62,1.63-1.62h5.88c0.9,0,1.62,0.73,1.62,1.62v4.57
	C112.59,57.59,111.87,58.32,110.97,58.32 M124.01,72.67h-5.88c-0.9,0-1.63-0.73-1.63-1.62v-7.18c0-0.9,0.73-1.62,1.63-1.62h5.88
	c0.9,0,1.62,0.73,1.62,1.62v7.18C125.63,71.94,124.91,72.67,124.01,72.67 M124.01,58.32h-5.88c-0.9,0-1.63-0.73-1.63-1.63v-4.57
	c0-0.9,0.73-1.62,1.63-1.62h5.88c0.9,0,1.62,0.73,1.62,1.62v4.57C125.63,57.59,124.91,58.32,124.01,58.32 M135.74,98.74h-4.57
	c-0.9,0-1.63-0.73-1.63-1.62v-5.88c0-0.9,0.73-1.62,1.63-1.62h4.57c0.9,0,1.62,0.73,1.62,1.62v5.88
	C137.37,98.02,136.64,98.74,135.74,98.74 M135.74,85.71h-4.57c-0.9,0-1.63-0.73-1.63-1.62V78.2c0-0.9,0.73-1.62,1.63-1.62h4.57
	c0.9,0,1.62,0.73,1.62,1.62v5.88C137.37,84.98,136.64,85.71,135.74,85.71 M135.74,72.67h-4.57c-0.9,0-1.63-0.73-1.63-1.62v-7.18
	c0-0.9,0.73-1.62,1.63-1.62h4.57c0.9,0,1.62,0.73,1.62,1.62v7.18C137.37,71.94,136.64,72.67,135.74,72.67 M135.74,58.32h-4.57
	c-0.9,0-1.63-0.73-1.63-1.63v-4.57c0-0.9,0.73-1.62,1.63-1.62h4.57c0.9,0,1.62,0.73,1.62,1.62v4.57
	C137.37,57.59,136.64,58.32,135.74,58.32"/>
<path id="path2" class="primary" d="M81.9,60.19c-16.67,0-30.18,13.51-30.18,30.18c0,16.67,13.51,30.18,30.18,30.18s30.18-13.51,30.18-30.18
	C112.08,73.7,98.57,60.19,81.9,60.19 M81.9,116.71c-14.55,0-26.35-11.8-26.35-26.35c0-14.55,11.8-26.35,26.35-26.35
	s26.35,11.8,26.35,26.35C108.25,104.92,96.45,116.71,81.9,116.71"/>
<path id="path3" class="primary" d="M91.72,92.46l-8.34-1.12l-1.21-16.26c-0.03-0.46-0.71-0.48-0.77-0.02l-2.06,15.29c-0.77,0.62-1.67,1.9-1.18,3.59
	c0.3,1.05,1.14,1.91,2.19,2.23c1.12,0.34,2.16,0.08,2.96-0.5l8.47-1.85C92.52,93.64,92.48,92.56,91.72,92.46"/>
</svg>
