<?xml version="1.0" encoding="utf-8"?>
<!-- Generator: Adobe Illustrator 26.0.0, SVG Export Plug-In . SVG Version: 6.00 Build 0)  -->
<svg version="1.1" id="Layer_1" xmlns="http://www.w3.org/2000/svg" xmlns:xlink="http://www.w3.org/1999/xlink" x="0px" y="0px"
	 viewBox="0 0 200 200" style="enable-background:new 0 0 200 200;" xml:space="preserve">
	 <style type="text/css">
	     .primary{fill:#000000;}
	     .pinFill{fill:#FFFFFF;}
	 </style>
	 <g>
	 	<path id="pin" class="primary" d="M169.2,79.8c0-38.2-31-69.2-69.2-69.2s-69.2,31-69.2,69.2c0,14.1,4.3,27.3,11.5,38.2h0l0.1,0.2
	 		c1.6,2.4,3.3,4.6,5.2,6.8l52.4,68.2l52.4-68.2c1.9-2.2,3.6-4.4,5.2-6.8l0.1-0.2h0C165,107.1,169.2,94,169.2,79.8L169.2,79.8z"/>
	 	<path id="pinFill" class="pinFill" d="M100,143.5c-34.6,0-62.7-28.1-62.7-62.7S65.4,18.1,100,18.1s62.7,28.1,62.7,62.7
	 		S134.6,143.5,100,143.5L100,143.5z"/>
	 </g>
<g>
	<polygon id="polygon1" class="primary" points="95.9,89.9 95.9,92.7 104.2,86.4 104.2,83.7 	"/>
	<polygon id="polygon2" class="primary" points="95.9,77.8 95.9,80.5 104.2,74.3 104.2,71.5 	"/>
	<path id="path2" class="primary" d="M130.9,36.1H69.2c-2.3,0-4.1,1.8-4.1,4.1c0,2.1,1.5,3.8,3.5,4.1v6.6c0,1.4,1.2,2.6,2.6,2.6c1.4,0,2.6-1.2,2.6-2.6v-6.5H75
		c0.1,0.1,0.1,0.1,0.2,0.2l20.7,16.6v7.3l8.2-6.3v-1l20.7-16.6c0.1-0.1,0.1-0.1,0.2-0.2h1.2v6.5c0,1.4,1.2,2.6,2.6,2.6
		c1.5,0,2.6-1.2,2.6-2.6v-6.6c2-0.3,3.5-2,3.5-4.1C135,37.9,133.2,36.1,130.9,36.1z M95.9,54.4l-12.5-10h12.5V54.4z M104.2,54.4v-10
		h12.5L104.2,54.4z"/>
	<path id="path3" class="primary" d="M106.7,61.6L90.5,73.9c-1.2,0.9-1.4,2.5-0.5,3.7c0.5,0.7,1.3,1,2.1,1c0.6,0,1.1-0.2,1.6-0.5l16.1-12.3
		c1.2-0.9,1.4-2.5,0.5-3.7C109.5,61,107.8,60.8,106.7,61.6z"/>
	<path id="path4" class="primary" d="M106.7,73.8L90.5,86c-1.2,0.9-1.4,2.5-0.5,3.7c0.5,0.7,1.3,1,2.1,1c0.6,0,1.1-0.2,1.6-0.5L109.8,78
		c1.2-0.9,1.4-2.5,0.5-3.7C109.5,73.1,107.8,72.9,106.7,73.8z"/>
	<path id="path5" class="primary" d="M106.7,85.9L90.5,98.2c-1.2,0.9-1.4,2.5-0.5,3.7c0.5,0.7,1.3,1,2.1,1c0.6,0,1.1-0.2,1.6-0.5l16.1-12.3
		c1.2-0.9,1.4-2.5,0.5-3.7C109.5,85.3,107.8,85.1,106.7,85.9z"/>
	<path id="path6" class="primary" d="M106.7,98.1l-16.1,12.3c-1.2,0.9-1.4,2.5-0.5,3.7c0.5,0.7,1.3,1,2.1,1c0.6,0,1.1-0.2,1.6-0.5l16.1-12.3
		c1.2-0.9,1.4-2.5,0.5-3.7C109.5,97.4,107.8,97.2,106.7,98.1z"/>
	<path id="path7" class="primary" d="M95.9,133.3c0,2.3,1.8,4.1,4.1,4.1s4.1-1.8,4.1-4.1V108l-8.2,6.3V133.3z"/>
	<polygon id="polygon3" class="primary" points="95.9,102.1 95.9,104.8 104.2,98.6 104.2,95.8 	"/>
</g>
</svg>
