<?xml version="1.0" encoding="utf-8"?>
<!-- Generator: Adobe Illustrator 26.0.0, SVG Export Plug-In . SVG Version: 6.00 Build 0)  -->
<svg version="1.1" id="Layer_1" xmlns="http://www.w3.org/2000/svg" xmlns:xlink="http://www.w3.org/1999/xlink" x="0px" y="0px"
	 viewBox="0 0 200 200" style="enable-background:new 0 0 200 200;" xml:space="preserve">
	 <style type="text/css">
	     .primary{fill:#000000;}
	     .pinFill{fill:#FFFFFF;}
	 </style>
	 <g>
	 	<path id="pin" class="primary" d="M169.2,79.8c0-38.2-31-69.2-69.2-69.2s-69.2,31-69.2,69.2c0,14.1,4.3,27.3,11.5,38.2h0l0.1,0.2
	 		c1.6,2.4,3.3,4.6,5.2,6.8l52.4,68.2l52.4-68.2c1.9-2.2,3.6-4.4,5.2-6.8l0.1-0.2h0C165,107.1,169.2,94,169.2,79.8L169.2,79.8z"/>
	 	<path id="pinFill" class="pinFill" d="M100,143.5c-34.6,0-62.7-28.1-62.7-62.7S65.4,18.1,100,18.1s62.7,28.1,62.7,62.7
	 		S134.6,143.5,100,143.5L100,143.5z"/>
	 </g>
<g>
	<g>
		<g>
			<g>
				<path id="path2" class="primary" d="M146,59l-11.7,18.4l-18.4-11.7l8.5-1.9c-4.9-8.7-14.1-14.2-24.2-14.2c-13.2,0-24.6,9.3-27.2,22.2l-12.5-2.6
					c3.8-18.7,20.5-32.4,39.7-32.4c16.1,0,30.5,9.4,37,24L146,59z"/>
			</g>
		</g>
	</g>
	<g>
		<g>
			<g>
				<path id="path3" class="primary" d="M138.9,99.3c-5.2,17.2-20.8,28.7-38.8,28.7c-16.1,0-30.5-9.4-37-24.1l-8.9,2l11.7-18.4l18.4,11.7l-8.5,1.9
					c4.9,8.7,14.1,14.2,24.2,14.2c12.3,0,23-7.9,26.6-19.7L138.9,99.3z"/>
			</g>
		</g>
	</g>
</g>
</svg>
