<?xml version="1.0" encoding="utf-8"?>
<!-- Generator: Adobe Illustrator 26.0.0, SVG Export Plug-In . SVG Version: 6.00 Build 0)  -->
<svg version="1.1" id="Layer_1" xmlns="http://www.w3.org/2000/svg" xmlns:xlink="http://www.w3.org/1999/xlink" x="0px" y="0px"
	 viewBox="0 0 200 200" style="enable-background:new 0 0 200 200;" xml:space="preserve">
	 <style type="text/css">
	     .primary{fill:#000000;}
	     .pinFill{fill:#FFFFFF;}
	 </style>
	 <g>
	 	<path id="pin" class="primary" d="M169.2,79.8c0-38.2-31-69.2-69.2-69.2s-69.2,31-69.2,69.2c0,14.1,4.3,27.3,11.5,38.2h0l0.1,0.2
	 		c1.6,2.4,3.3,4.6,5.2,6.8l52.4,68.2l52.4-68.2c1.9-2.2,3.6-4.4,5.2-6.8l0.1-0.2h0C165,107.1,169.2,94,169.2,79.8L169.2,79.8z"/>
	 	<path id="pinFill" class="pinFill" d="M100,143.5c-34.6,0-62.7-28.1-62.7-62.7S65.4,18.1,100,18.1s62.7,28.1,62.7,62.7
	 		S134.6,143.5,100,143.5L100,143.5z"/>
	 </g>
<path id="path2" class="primary" d="M140.6,88c0-12.7,0-24.5,0-24.5c0-4.9-15.5-8.8-35.5-9.3c-0.5,1.6-0.9,3.1-1.2,4.6c15.3,0.3,27.3,2.9,27.3,6.1
	c0,3.4-13.5,6.1-30.3,6.1s-30.3-2.7-30.3-6.1c0-2.9,10.4-5.4,24.2-6c0.3-1.7,0.7-3.2,1.1-4.7C76.2,54.7,61,58.6,61,63.4v24.1
	c0,5.8,0.5,12.1-2.4,17.3c-2.2,3.9-6.2,6.9-8.9,10.5l19.1-3.6v5.6l12.1-8.5l8.3,17.1l17.5-17.1l8.9,8.6l9.3-11c0,0,15.3,8.1,24,9.8
	C148.9,116.3,140.6,100.7,140.6,88z"/>
<path id="path3" class="primary" d="M95.8,67.2h4.9c0,0,0.5-21.5,12.7-27.1h-1.6C111.8,40.1,96.9,41.1,95.8,67.2z"/>
<path id="path4" class="primary" d="M115.6,30.8c-2.5,2.3-2.8,6.2-0.5,8.7c2.3,2.5,6.2,2.8,8.7,0.5c2.5-2.3,4.3-12.1,4.3-12.1S118.1,28.5,115.6,30.8z"/>
<path id="path5" class="primary" d="M114.6,29.4c-2.1-2.1-5.4-4.3-5.4-4.3s-2.4,6.9-1.6,9.3c0.7,2.2,2.9,3.4,5.1,3c-1.4-2.5-0.9-5.6,1.3-7.6
	C114.1,29.7,114.3,29.6,114.6,29.4z"/>
</svg>
