<?xml version="1.0" encoding="utf-8"?>
<!-- Generator: Adobe Illustrator 26.0.0, SVG Export Plug-In . SVG Version: 6.00 Build 0)  -->
<svg version="1.1" id="Layer_1" xmlns="http://www.w3.org/2000/svg" xmlns:xlink="http://www.w3.org/1999/xlink" x="0px" y="0px"
	 viewBox="0 0 200 200" style="enable-background:new 0 0 200 200;" xml:space="preserve">
	 <style type="text/css">
	     .primary{fill:#000000;}
	     .pinFill{fill:#FFFFFF;}
	 </style>
	 <g>
	 	<path id="pin" class="primary" d="M169.2,79.8c0-38.2-31-69.2-69.2-69.2s-69.2,31-69.2,69.2c0,14.1,4.3,27.3,11.5,38.2h0l0.1,0.2
	 		c1.6,2.4,3.3,4.6,5.2,6.8l52.4,68.2l52.4-68.2c1.9-2.2,3.6-4.4,5.2-6.8l0.1-0.2h0C165,107.1,169.2,94,169.2,79.8L169.2,79.8z"/>
	 	<path id="pinFill" class="pinFill" d="M100,143.5c-34.6,0-62.7-28.1-62.7-62.7S65.4,18.1,100,18.1s62.7,28.1,62.7,62.7
	 		S134.6,143.5,100,143.5L100,143.5z"/>
	 </g>
<g>
	<path id="path2" class="primary" d="M115,35.7H67.2c-1.9,0-3.4,1.6-3.4,3.4v83.3c0,1.9,1.6,3.4,3.4,3.4h47.7c1.9,0,3.4-1.6,3.4-3.4V39.3
		C118.4,37.3,116.9,35.7,115,35.7z M81.2,38.8H101c0.5,0,0.8,0.4,0.8,0.8s-0.4,0.8-0.8,0.8H81.2c-0.5,0-0.8-0.4-0.8-0.8
		C80.4,39.2,80.8,38.8,81.2,38.8z M91.2,123.1c-2.3,0-4.2-1.9-4.2-4.2c0-2.3,1.9-4.2,4.2-4.2s4.2,1.9,4.2,4.2
		C95.2,121.2,93.4,123.1,91.2,123.1z M111.9,112.5H70.3V43.6h41.7V112.5z"/>
	<g>
		<rect id="rect" class="primary" x="127.5" y="50.2" transform="matrix(0.9999 -1.173891e-02 1.173891e-02 0.9999 -0.975 1.553)" width="8.6" height="67.3"/>
		<polygon id="polygon" class="primary" points="130.9,35.9 128.2,43.3 129.7,44.9 130.6,43.2 131.4,45.3 132.1,42.6 134.2,44.8 		"/>
		<path id="path3" class="primary" d="M127.9,120.8l8.6-0.1l0,3c0.1,1.1-1.2,1.9-2.7,2l-3.2,0c-1.5,0-2.8-0.9-2.8-1.9L127.9,120.8z"/>
	</g>
</g>
</svg>
