<?xml version="1.0" encoding="utf-8"?>
<!-- Generator: Adobe Illustrator 26.0.0, SVG Export Plug-In . SVG Version: 6.00 Build 0)  -->
<svg version="1.1" id="Layer_1" xmlns="http://www.w3.org/2000/svg" xmlns:xlink="http://www.w3.org/1999/xlink" x="0px" y="0px"
	 viewBox="0 0 200 200" style="enable-background:new 0 0 200 200;" xml:space="preserve">
	 <style type="text/css">
	     .primary{fill:#000000;}
	     .pinFill{fill:#FFFFFF;}
	 </style>
	 <g>
	 	<path id="pin" class="primary" d="M169.2,79.8c0-38.2-31-69.2-69.2-69.2s-69.2,31-69.2,69.2c0,14.1,4.3,27.3,11.5,38.2h0l0.1,0.2
	 		c1.6,2.4,3.3,4.6,5.2,6.8l52.4,68.2l52.4-68.2c1.9-2.2,3.6-4.4,5.2-6.8l0.1-0.2h0C165,107.1,169.2,94,169.2,79.8L169.2,79.8z"/>
	 	<path id="pinFill" class="pinFill" d="M100,143.5c-34.6,0-62.7-28.1-62.7-62.7S65.4,18.1,100,18.1s62.7,28.1,62.7,62.7
	 		S134.6,143.5,100,143.5L100,143.5z"/>
	 </g>
<path id="path2" class="primary" d="M141.6,91.7c-4.2-4.2-11.4-4.5-16-3.7l-15.7-15.7L128.2,54l2.4-0.6l5.3-8.6l-2.7-2.7l-8.6,5.4l-0.5,2.2L105.6,68L94.1,56.5
	c0.8-4.6,0-11.2-4.2-15.4c-4.1-4.1-10.6-4.7-15.2-4l10.9,10.9L74.8,58.7L63,46.8c-2.5,5.6-1.6,13,3.3,17.9c4.2,4.2,9.9,6,15.8,3.9
	l11.5,11.5l-4.1,4.1l-2-2c-1.1-1.1-3-1.1-4.2,0c-0.9,0.8-1.1,2.1-0.7,3.1c-1.4-0.2-2.8,0.3-3.8,1.3l-19.6,19.6c-3,3-3,7.8,0,10.8
	l1.6,1.6c1.5,1.5,3.4,2.2,5.4,2.2c2,0,3.9-0.7,5.4-2.2L91.4,99c1.1-1.1,1.5-2.6,1.2-4c1,0.3,2.1,0,2.9-0.8c0.6-0.5,0.9-1.3,0.9-2.1
	c0-0.8-0.3-1.5-0.9-2.1l-1.6-1.6l4.1-4.1l15.7,15.7c-2.1,5.9-0.5,11.7,3.7,15.9c3.9,3.9,9.4,5.3,14.1,4.6l-9.2-9.2l12.1-12.1
	l10.5,10.5C147.4,104.4,146.6,96.7,141.6,91.7z"/>
</svg>
