<?xml version="1.0" encoding="utf-8"?>
<!-- Generator: Adobe Illustrator 26.0.0, SVG Export Plug-In . SVG Version: 6.00 Build 0)  -->
<svg version="1.1" id="Layer_1" xmlns="http://www.w3.org/2000/svg" xmlns:xlink="http://www.w3.org/1999/xlink" x="0px" y="0px"
	 viewBox="0 0 200 200" style="enable-background:new 0 0 200 200;" xml:space="preserve">
	 <style type="text/css">
	     .primary{fill:#000000;}
	     .pinFill{fill:#FFFFFF;}
	 </style>
	 <g>
	 	<path id="pin" class="primary" d="M169.2,79.8c0-38.2-31-69.2-69.2-69.2s-69.2,31-69.2,69.2c0,14.1,4.3,27.3,11.5,38.2h0l0.1,0.2
	 		c1.6,2.4,3.3,4.6,5.2,6.8l52.4,68.2l52.4-68.2c1.9-2.2,3.6-4.4,5.2-6.8l0.1-0.2h0C165,107.1,169.2,94,169.2,79.8L169.2,79.8z"/>
	 	<path id="pinFill" class="pinFill" d="M100,143.5c-34.6,0-62.7-28.1-62.7-62.7S65.4,18.1,100,18.1s62.7,28.1,62.7,62.7
	 		S134.6,143.5,100,143.5L100,143.5z"/>
	 </g>
<path id="path2" class="primary" d="M149.2,101.1V82c0-13.2-11.4-23.9-25.3-23.9H115c-2.1-3.8-5.6-6.8-9.8-8.1v-6.8h2c1.8,0,3.3-1.5,3.3-3.3
	c0-1.8-1.5-3.3-3.3-3.3H93c-1.8,0-3.3,1.5-3.3,3.3c0,1.8,1.5,3.3,3.3,3.3h2V50c-4.2,1.3-7.8,4.3-9.8,8.1h-8.9
	c-14,0-25.3,10.7-25.3,23.9v19.1c-2.1,0.5-3.7,2.4-3.7,4.6c0,2.6,2.1,4.8,4.8,4.8h14.2c2.6,0,4.8-2.1,4.8-4.8c0-2.3-1.6-4.2-3.7-4.6
	V82c0-4.2,4.1-7.6,9.1-7.6h8.9c2.9,5.3,8.5,8.9,14.9,8.9c6.4,0,12-3.6,14.9-8.9h8.9c5,0,9.1,3.4,9.1,7.6v19.1
	c-2.1,0.5-3.7,2.4-3.7,4.6c0,2.6,2.1,4.8,4.8,4.8h14.2c2.6,0,4.8-2.1,4.8-4.8C153,103.5,151.4,101.6,149.2,101.1z"/>
</svg>
