<?xml version="1.0" encoding="utf-8"?>
<!-- Generator: Adobe Illustrator 26.0.0, SVG Export Plug-In . SVG Version: 6.00 Build 0)  -->
<svg version="1.1" id="Layer_1" xmlns="http://www.w3.org/2000/svg" xmlns:xlink="http://www.w3.org/1999/xlink" x="0px" y="0px"
	 viewBox="0 0 200 200" style="enable-background:new 0 0 200 200;" xml:space="preserve">
	 <style type="text/css">
	     .primary{fill:#000000;}
	     .pinFill{fill:#FFFFFF;}
	 </style>
	 <g>
	 	<path id="pin" class="primary" d="M169.2,79.8c0-38.2-31-69.2-69.2-69.2s-69.2,31-69.2,69.2c0,14.1,4.3,27.3,11.5,38.2h0l0.1,0.2
	 		c1.6,2.4,3.3,4.6,5.2,6.8l52.4,68.2l52.4-68.2c1.9-2.2,3.6-4.4,5.2-6.8l0.1-0.2h0C165,107.1,169.2,94,169.2,79.8L169.2,79.8z"/>
	 	<path id="pinFill" class="pinFill" d="M100,143.5c-34.6,0-62.7-28.1-62.7-62.7S65.4,18.1,100,18.1s62.7,28.1,62.7,62.7
	 		S134.6,143.5,100,143.5L100,143.5z"/>
	 </g>
<g>
	<path id="path2" class="primary" d="M92.5,95.2c-0.6,0-1.1-0.2-1.5-0.6c-0.4-0.4-0.6-0.9-0.6-1.5c0-0.4,0-0.9,0-1.3c0-0.4,0-0.8,0-1.2c0.4-2.5,1.3-4.8,2.5-6.9
		c1.3-2.1,2.7-3.9,4.4-5.7c1.7-1.7,3.3-3.4,4.9-4.9c1.6-1.5,2.9-3,4.1-4.5c1.1-1.5,1.7-3,1.8-4.5c0.1-1.6-0.2-2.9-0.9-4
		s-1.8-1.9-3.1-2.5c-1.3-0.6-2.8-0.9-4.3-0.9c-2.9,0-5.2,0.7-6.8,2.1c-1.7,1.4-2.8,3.4-3.6,6.1c-0.2,0.8-0.6,1.4-1.1,1.9
		c-0.5,0.5-1.3,0.7-2.3,0.7H72.8c-0.7,0-1.3-0.3-1.8-0.8c-0.5-0.5-0.8-1.2-0.8-2.1c0.1-2.9,0.8-5.7,2.1-8.4c1.3-2.7,3.3-5.2,5.8-7.5
		c2.6-2.3,5.7-4.1,9.6-5.4c3.8-1.3,8.3-2,13.3-2c5.4,0,9.9,0.6,13.5,1.9s6.4,3,8.4,5.1c2.1,2.1,3.5,4.3,4.4,6.6
		c0.9,2.3,1.3,4.5,1.2,6.5c-0.1,2.6-0.7,4.9-1.6,7c-0.9,2.1-2.1,4-3.5,5.8c-1.4,1.8-2.9,3.5-4.4,5.1c-1.6,1.6-3,3.2-4.3,4.9
		s-2.3,3.3-2.9,5.1c-0.1,0.5-0.3,1-0.4,1.5c-0.1,0.5-0.3,1-0.3,1.5c-0.4,0.9-0.9,1.6-1.4,2.1c-0.5,0.5-1.1,0.7-2,0.7H92.5z
		 M92.7,118.2c-0.8,0-1.4-0.3-1.9-0.8c-0.5-0.5-0.8-1.2-0.8-1.9v-12.3c0-0.7,0.3-1.4,0.8-1.9c0.5-0.5,1.2-0.8,1.9-0.8h13.8
		c0.8,0,1.5,0.3,2,0.8c0.5,0.5,0.8,1.2,0.8,1.9v12.3c0,0.7-0.3,1.4-0.8,1.9c-0.5,0.5-1.2,0.8-2,0.8H92.7z"/>
</g>
</svg>
