<?xml version="1.0" encoding="utf-8"?>
<!-- Generator: Adobe Illustrator 26.0.0, SVG Export Plug-In . SVG Version: 6.00 Build 0)  -->
<svg version="1.1" id="Layer_1" xmlns="http://www.w3.org/2000/svg" xmlns:xlink="http://www.w3.org/1999/xlink" x="0px" y="0px"
	 viewBox="0 0 200 200" style="enable-background:new 0 0 200 200;" xml:space="preserve">
	 <style type="text/css">
	     .primary{fill:#000000;}
	     .pinFill{fill:#FFFFFF;}
	 </style>
	 <g>
	 	<path id="pin" class="primary" d="M169.2,79.8c0-38.2-31-69.2-69.2-69.2s-69.2,31-69.2,69.2c0,14.1,4.3,27.3,11.5,38.2h0l0.1,0.2
	 		c1.6,2.4,3.3,4.6,5.2,6.8l52.4,68.2l52.4-68.2c1.9-2.2,3.6-4.4,5.2-6.8l0.1-0.2h0C165,107.1,169.2,94,169.2,79.8L169.2,79.8z"/>
	 	<path id="pinFill" class="pinFill" d="M100,143.5c-34.6,0-62.7-28.1-62.7-62.7S65.4,18.1,100,18.1s62.7,28.1,62.7,62.7
	 		S134.6,143.5,100,143.5L100,143.5z"/>
	 </g>
<path id="path2" class="primary" d="M89.9,70.3V43.1c0-3.4-2.8-6.2-5.9-7.1v-6.6c0-1.2-1-2.2-2.2-2.2c-1.2,0-2.2,1-2.2,2.2v6.7c-3,1-5.9,3.7-5.9,7v27.2
	c0,3.3,2.9,6.1,5.9,7v59c1.4,0.5,2.9,1,4.4,1.4V77.4C87.1,76.5,89.9,73.7,89.9,70.3"/>
<path id="path3" class="primary" d="M134.5,85.6l-6.1-26.5c-0.7-3.2-3.4-5.4-6.5-5.7c-0.8-3.7-1.3-6-1.4-6.1c-0.3-1.2-1.4-1.9-2.6-1.7c-1.2,0.3-1.9,1.4-1.7,2.6
	c0,0.1,0.5,2.3,1.3,6c-2.9,1.5-4.5,4.9-3.7,8.2l6.1,26.5c0.8,3.3,3.6,5.5,6.8,5.7c2.9,12.7,5.8,25.5,7.9,34.7c0,0,0,0,0,0
	c1.3-0.9,2.6-1.8,3.9-2.8c-2.1-9-4.8-21-7.5-32.9C133.7,92,135.2,88.8,134.5,85.6"/>
<path id="path4" class="primary" d="M99.9,80.5c-9.3,16.3-10,47.4-9.9,58.5c3.3,0.5,6.7,0.8,10.2,0.8c0,0,0,0,0.1,0C99,125.7,96.1,87.1,99.9,80.5"/>
<path id="path5" class="primary" d="M110.2,91c4.1,11.8,10.1,36.8,12,44.8c2.5-0.9,4.9-2,7.2-3.3C126.7,123.9,117.9,97.1,110.2,91"/>
<path id="path6" class="primary" d="M141.9,75.2c3.3,11.8,4,33.2,4.1,44.3c2.8-3.1,5.2-6.4,7.4-10C151.9,101.5,148.1,84.6,141.9,75.2"/>
<path id="path7" class="primary" d="M66.8,67c-6.1,19.5-7.1,47-7.3,57.6c3.5,3.1,7.4,5.7,11.5,7.9C68.9,123.7,61.9,92.7,66.8,67"/>
<path id="path8" class="primary" d="M49.2,83.6c1.7,4-0.8,18.8-2.2,26.2c1.6,2.7,3.5,5.3,5.5,7.7C52.9,107.9,53.3,86.3,49.2,83.6"/>
</svg>
