<?xml version="1.0" encoding="utf-8"?>
<!-- Generator: Adobe Illustrator 26.0.2, SVG Export Plug-In . SVG Version: 6.00 Build 0)  -->
<svg version="1.1" id="Layer_1" xmlns="http://www.w3.org/2000/svg" xmlns:xlink="http://www.w3.org/1999/xlink" x="0px" y="0px"
	 viewBox="0 0 200 200" style="enable-background:new 0 0 200 200;" xml:space="preserve">
	 <style type="text/css">
	     .primary{fill:#000000;}
	     .pinFill{fill:#FFFFFF;}
	 </style>
	 <g>
	 	<path id="pin" class="primary" d="M169.2,79.8c0-38.2-31-69.2-69.2-69.2s-69.2,31-69.2,69.2c0,14.1,4.3,27.3,11.5,38.2h0l0.1,0.2
	 		c1.6,2.4,3.3,4.6,5.2,6.8l52.4,68.2l52.4-68.2c1.9-2.2,3.6-4.4,5.2-6.8l0.1-0.2h0C165,107.1,169.2,94,169.2,79.8L169.2,79.8z"/>
	 	<path id="pinFill" class="pinFill" d="M100,143.5c-34.6,0-62.7-28.1-62.7-62.7S65.4,18.1,100,18.1s62.7,28.1,62.7,62.7
	 		S134.6,143.5,100,143.5L100,143.5z"/>
	 </g>
<path id="path" class="primary" d="M142.8,82.7c-2.1-1-5.9-1.4-10.6-1.9l-0.1,2.3c0.7,0.6,1.2,1.8,1.2,2.5c0.1,1.1-0.8,2-1.9,2.1
	c-1.1,0.1-2-0.8-2.1-1.9c0-0.8,0.3-2,0.9-2.7l0.1-2.5c-2.1-0.2-4.3-0.5-6.5-0.8l-0.1,2.6c0.6,0.7,1.1,1.9,1.1,2.7c0,1.1-0.9,2-2,1.9
	c-1.1,0-2-0.9-1.9-2c0-0.7,0.4-1.9,1-2.6l0.1-2.9c-2.2-0.4-4.4-0.9-6.5-1.6l-0.2,2.7c0.6,0.8,0.8,2.3,0.6,3.1
	c-0.3,1.1-1.3,1.7-2.4,1.4c-1.1-0.3-1.7-1.3-1.4-2.4c0.2-0.6,0.7-1.6,1.3-2.1l0.2-3.4c-1.6-0.6-3.2-1.3-4.6-2.2l-1.5,3.2
	c0.4,0.9,0.4,2.2,0.1,2.9c-0.4,1-1.5,1.5-2.5,1.1c-1-0.4-1.5-1.5-1.1-2.5c0.3-0.7,1-1.6,1.7-2l1.7-3.8c-1-0.7-1.9-1.6-2.7-2.6
	l-3,3.4c0,0.8-0.2,1.8-0.6,2.3c-0.6,0.9-1.8,1.2-2.7,0.6c-0.9-0.6-1.2-1.8-0.6-2.7c0.5-0.8,1.8-1.8,2.8-1.7l2.9-3.4
	c-0.6-0.9-1.1-1.8-1.6-2.8l-4.2,1.8c-0.1,1-1.1,2.2-1.9,2.6c-1,0.5-2.2,0.2-2.7-0.8s-0.1-2.2,0.8-2.7c0.5-0.3,1.4-0.5,2.2-0.4
	l5.1-2.1c-0.6-1.5-1-3.1-1.4-4.7L95.2,62c-0.4,0.8-1.1,1.6-1.7,1.9c-1,0.5-2.2,0.1-2.7-0.8c-0.5-1-0.2-2.2,0.8-2.7
	c0.8-0.4,2.3-0.6,3.1-0.2l4.9-1.4c-0.3-1.7-0.5-3.4-0.6-5l-5,0.8c-0.6,0.8-2,1.3-2.8,1.3c-1.1,0-2-0.9-2-2c0-1.1,0.9-2,2-2
	c0.7,0,1.7,0.3,2.4,0.8L99,52c-0.1-3.8,0.1-6.5,0.1-6.5s-14.2,2.3-37.8,0.2c1.4,10.7-5.6,26.7-5.6,47.9c0,3.1,0,4.5,0,5.2h-0.1
	l0.2,10.8h5.6v-6.2l2.3,0v6h5.6v-5.9l2.3,0v5.8h5.6v-5.7l2.3,0v5.8l5.6-0.6l0-5.1h14.1v5.1l5.6,0.6v-3.3c0,0,0,0,0,0
	c0.2,0,0.4,0,0.6,0c0.3,0,0.6,0,0.9,0c0.4,0,0.8,0,1.3,0v3.3h5.9V106c0,0,0,0,0,0c0.8,0,1.6-0.1,2.4-0.1v3.7h5.6v-4.2
	c0,0,0.1,0,0.1,0c0.8-0.1,1.6-0.2,2.3-0.2c0,0,0,0,0.1,0v4.3h5.6v-5c0.8-0.1,1.7-0.3,2.4-0.4c0,0,0,0,0,0v5.1l5.6-1v-5.1
	c0.4-0.1,0.8-0.2,1.1-0.2c0,0,0,0,0,0c0.4-0.1,0.7-0.2,1.1-0.2v4.9l7.7-1.6v-5.3v-2.9v-3C147.4,94.6,148.3,85.4,142.8,82.7z"/>
</svg>
