<?xml version="1.0" encoding="utf-8"?>
<!-- Generator: Adobe Illustrator 26.0.0, SVG Export Plug-In . SVG Version: 6.00 Build 0)  -->
<svg version="1.1" id="Layer_1" xmlns="http://www.w3.org/2000/svg" xmlns:xlink="http://www.w3.org/1999/xlink" x="0px" y="0px"
	 viewBox="0 0 200 200" style="enable-background:new 0 0 200 200;" xml:space="preserve">
	 <style type="text/css">
	     .primary{fill:#000000;}
	     .pinFill{fill:#FFFFFF;}
	 </style>
	 <g>
	 	<path id="pin" class="primary" d="M169.2,79.8c0-38.2-31-69.2-69.2-69.2s-69.2,31-69.2,69.2c0,14.1,4.3,27.3,11.5,38.2h0l0.1,0.2
	 		c1.6,2.4,3.3,4.6,5.2,6.8l52.4,68.2l52.4-68.2c1.9-2.2,3.6-4.4,5.2-6.8l0.1-0.2h0C165,107.1,169.2,94,169.2,79.8L169.2,79.8z"/>
	 	<path id="pinFill" class="pinFill" d="M100,143.5c-34.6,0-62.7-28.1-62.7-62.7S65.4,18.1,100,18.1s62.7,28.1,62.7,62.7
	 		S134.6,143.5,100,143.5L100,143.5z"/>
	 </g>
<g>
	<path id="path2" class="primary" d="M131.05,122.23h-62.1V39.37h62.1V122.23z M72.92,118.27h54.16V43.33H72.92V118.27z"/>
	<path id="path3" class="primary" d="M98.68,66.25V52.91c0-1.31-1.33-2.38-2.64-2.38c-1.31,0-2.64,1.06-2.64,2.38v13.34H80.06c-1.31,0-2.38,1.33-2.38,2.64
		c0,1.31,1.06,2.64,2.38,2.64h13.33v13.47c0,1.31,1.24,2.38,2.55,2.38c0.66,0,1.43-0.27,1.86-0.7c0.43-0.43,0.88-1.02,0.88-1.68
		V71.54h13.49c0.66,0,1.25-0.36,1.68-0.8c0.43-0.43,0.7-1.24,0.7-1.9c0-1.31-1.06-2.59-2.38-2.59H98.68z"/>
	<path id="path4" class="primary" d="M118.18,86.75h-9.59c-1.1,0-1.98-0.89-1.98-1.98c0-1.09,0.89-1.98,1.98-1.98h9.59c1.1,0,1.98,0.89,1.98,1.98
		C120.17,85.86,119.28,86.75,118.18,86.75"/>
	<path id="path5" class="primary" d="M118.18,96.67H81.37c-1.09,0-1.98-0.89-1.98-1.98c0-1.09,0.89-1.98,1.98-1.98h36.82c1.1,0,1.98,0.89,1.98,1.98
		C120.17,95.78,119.28,96.67,118.18,96.67"/>
	<path id="path6" class="primary" d="M118.18,107.58H81.37c-1.09,0-1.98-0.89-1.98-1.98s0.89-1.98,1.98-1.98h36.82c1.1,0,1.98,0.89,1.98,1.98
		S119.28,107.58,118.18,107.58"/>
</g>
</svg>
