<?xml version="1.0" encoding="utf-8"?>
<!-- Generator: Adobe Illustrator 26.0.0, SVG Export Plug-In . SVG Version: 6.00 Build 0)  -->
<svg version="1.1" id="Layer_1" xmlns="http://www.w3.org/2000/svg" xmlns:xlink="http://www.w3.org/1999/xlink" x="0px" y="0px"
	 viewBox="0 0 200 200" style="enable-background:new 0 0 200 200;" xml:space="preserve">
	 <style type="text/css">
	     .primary{fill:#000000;}
	     .pinFill{fill:#FFFFFF;}
	 </style>
	 <g>
	 	<path id="pin" class="primary" d="M169.2,79.8c0-38.2-31-69.2-69.2-69.2s-69.2,31-69.2,69.2c0,14.1,4.3,27.3,11.5,38.2h0l0.1,0.2
	 		c1.6,2.4,3.3,4.6,5.2,6.8l52.4,68.2l52.4-68.2c1.9-2.2,3.6-4.4,5.2-6.8l0.1-0.2h0C165,107.1,169.2,94,169.2,79.8L169.2,79.8z"/>
	 	<path id="pinFill" class="pinFill" d="M100,143.5c-34.6,0-62.7-28.1-62.7-62.7S65.4,18.1,100,18.1s62.7,28.1,62.7,62.7
	 		S134.6,143.5,100,143.5L100,143.5z"/>
	 </g>
<g>
	<g>
		<g>
			<polygon id="polygon1" class="primary" points="124.1,40 135.7,51.9 131.9,55.7 126.4,50 124.1,52.3 129.6,57.9 127.1,60.3 123.5,56.7 121.3,58.9 124.9,62.6
				121.5,65.9 115.9,60.3 113.7,62.5 119.2,68.1 116.7,70.5 113.1,66.9 110.9,69.1 117.6,75.9 142,52 124.1,33.8 99.5,57.9
				102.6,61.1 			"/>
			<polygon id="polygon2" class="primary" points="89.5,88.9 93.7,93.2 90.6,96.2 84.4,90 82.2,92.2 88.3,98.5 85.8,100.9 81.6,96.6 79.4,98.9 83.5,103.1
				80.1,106.4 74,100.2 71.7,102.4 77.9,108.7 75.4,111.1 71.2,106.8 68.9,109.1 73.1,113.3 70.1,116.3 58.4,104.5 84.4,79
				81.2,75.9 52.2,104.4 70,122.6 99.1,94.1 91.8,86.7 			"/>
			<path id="path2" class="primary" d="M88.4,51L88.4,51L76.4,39L62.3,53.1l12,12l0,0l37.1,37.1l22.8,10l-8.5-23.7L88.4,51z M72,57.5l-4.4-4.4l8.8-8.8l4.4,4.4
				L72,57.5z M125.4,106.3l-12.8-5.6l-1.7-1.7l7.5,0.5l-1.3-5.2l5.5,1l0.1-7.2l1.2,1.2l4.9,13.5L125.4,106.3z"/>
		</g>
	</g>
</g>
</svg>
