<?xml version="1.0" encoding="utf-8"?>
<!-- Generator: Adobe Illustrator 26.0.0, SVG Export Plug-In . SVG Version: 6.00 Build 0)  -->
<svg version="1.1" id="Layer_1" xmlns="http://www.w3.org/2000/svg" xmlns:xlink="http://www.w3.org/1999/xlink" x="0px" y="0px"
	 viewBox="0 0 200 200" style="enable-background:new 0 0 200 200;" xml:space="preserve">
	 <style type="text/css">
	     .primary{fill:#000000;}
	     .pinFill{fill:#FFFFFF;}
	 </style>
	 <g>
	 	<path id="pin" class="primary" d="M169.2,79.8c0-38.2-31-69.2-69.2-69.2s-69.2,31-69.2,69.2c0,14.1,4.3,27.3,11.5,38.2h0l0.1,0.2
	 		c1.6,2.4,3.3,4.6,5.2,6.8l52.4,68.2l52.4-68.2c1.9-2.2,3.6-4.4,5.2-6.8l0.1-0.2h0C165,107.1,169.2,94,169.2,79.8L169.2,79.8z"/>
	 	<path id="pinFill" class="pinFill" d="M100,143.5c-34.6,0-62.7-28.1-62.7-62.7S65.4,18.1,100,18.1s62.7,28.1,62.7,62.7
	 		S134.6,143.5,100,143.5L100,143.5z"/>
	 </g>
<g>
	<g>
		<g>
			<g>
				<path id="path2" class="primary" d="M84.9,53.8c0,1.4,1.3,2.6,2.8,2.6h38.8c1.5,0,2.8-1.2,2.8-2.6s-1.3-2.6-2.8-2.6H87.7C86.1,51.3,84.9,52.4,84.9,53.8z"/>
			</g>
		</g>
	</g>
	<path id="path3" class="primary" d="M84.6,126.6c-15.4,0-28-12.6-28-28s12.6-28,28-28s28,12.6,28,28S100,126.6,84.6,126.6z M84.6,74.2
		c-13.5,0-24.4,10.9-24.4,24.4S71.2,123,84.6,123S109,112.1,109,98.6S98.1,74.2,84.6,74.2z"/>
	<g>
		<path id="path4" class="primary" d="M97.8,98.6l-11.2,1c-0.4,1-1.4,1.7-2.5,1.7c-1.5,0-2.7-1.2-2.7-2.7c0-1,0.5-1.9,1.3-2.3l1.4-17.9l1.4,17.9
			c0.5,0.3,0.9,0.8,1.1,1.3L97.8,98.6z"/>
	</g>
	<path id="path5" class="primary" d="M76,38.3v28.9c1.2-0.3,2.4-0.6,3.6-0.8V41.9H135v75h-23.4c-0.9,1.3-1.8,2.5-2.8,3.6h29.8V38.3H76z"/>
	<path id="path6" class="primary" d="M126.5,66.5H90.4c4.6,0.8,8.8,2.6,12.5,5.1h23.5c1.5,0,2.8-1.2,2.8-2.6C129.3,67.7,128,66.5,126.5,66.5z"/>
	<path id="path7" class="primary" d="M126.5,84.2h-12.6c0.8,1.6,1.5,3.4,2,5.1h10.6c1.5,0,2.8-1.2,2.8-2.6S128,84.2,126.5,84.2z"/>
	<path id="path8" class="primary" d="M126.5,101.9h-9.4c-0.2,1.8-0.5,3.5-0.9,5.1h10.4c1.5,0,2.8-1.2,2.8-2.6C129.3,103.1,128,101.9,126.5,101.9z"/>
</g>
</svg>
