<?xml version="1.0" encoding="utf-8"?>
<!-- Generator: Adobe Illustrator 26.0.0, SVG Export Plug-In . SVG Version: 6.00 Build 0)  -->
<svg version="1.1" id="Layer_1" xmlns="http://www.w3.org/2000/svg" xmlns:xlink="http://www.w3.org/1999/xlink" x="0px" y="0px"
	 viewBox="0 0 200 200" style="enable-background:new 0 0 200 200;" xml:space="preserve">
	 <style type="text/css">
	     .primary{fill:#000000;}
	     .pinFill{fill:#FFFFFF;}
	 </style>
	 <g>
	 	<path id="pin" class="primary" d="M169.2,79.8c0-38.2-31-69.2-69.2-69.2s-69.2,31-69.2,69.2c0,14.1,4.3,27.3,11.5,38.2h0l0.1,0.2
	 		c1.6,2.4,3.3,4.6,5.2,6.8l52.4,68.2l52.4-68.2c1.9-2.2,3.6-4.4,5.2-6.8l0.1-0.2h0C165,107.1,169.2,94,169.2,79.8L169.2,79.8z"/>
	 	<path id="pinFill" class="pinFill" d="M100,143.5c-34.6,0-62.7-28.1-62.7-62.7S65.4,18.1,100,18.1s62.7,28.1,62.7,62.7
	 		S134.6,143.5,100,143.5L100,143.5z"/>
	 </g>
<g>
	<path id="path2" class="primary" d="M78.2,85.5c2.7,0,5.3-0.7,7.5-1.8c-5.6-2.8-9.4-8.5-9.4-15.1s3.8-12.4,9.4-15.1c-2.3-1.1-4.8-1.8-7.5-1.8
		c-9.3,0-16.9,7.6-16.9,16.9C61.3,77.9,68.9,85.5,78.2,85.5z"/>
	<path id="path3" class="primary" d="M60.6,90.1c-6.2,0-11.3,5.1-11.3,11.3v8.6h12.9v-8.6c0-6.2,8.3-10.9,11.3-11.3H60.6z"/>
	<path id="path4" class="primary" d="M123.8,68.5c0,6.6-3.8,12.4-9.4,15.1c2.3,1.1,4.8,1.8,7.5,1.8c9.3,0,16.9-7.6,16.9-16.9c0-9.3-7.6-16.9-16.9-16.9
		c-2.7,0-5.3,0.7-7.5,1.8C120,56.2,123.8,61.9,123.8,68.5z"/>
	<path id="path5" class="primary" d="M139.6,90.1h-12.9c3,0.4,11.3,5.1,11.3,11.3v8.6h12.9v-8.6C150.9,95.2,145.8,90.1,139.6,90.1z"/>
	<circle id="circle1" class="primary" cx="100.1" cy="68.5" r="16.9"/>
	<path id="path6" class="primary" d="M118.7,90.1H81.5c-6.2,0-11.3,5.1-11.3,11.3v8.6H130v-8.6C130,95.2,124.9,90.1,118.7,90.1z"/>
</g>
</svg>
