<?xml version="1.0" encoding="utf-8"?>
<!-- Generator: Adobe Illustrator 26.0.0, SVG Export Plug-In . SVG Version: 6.00 Build 0)  -->
<svg version="1.1" id="Layer_1" xmlns="http://www.w3.org/2000/svg" xmlns:xlink="http://www.w3.org/1999/xlink" x="0px" y="0px"
	 viewBox="0 0 200 200" style="enable-background:new 0 0 200 200;" xml:space="preserve">
	 <style type="text/css">
	     .primary{fill:#000000;}
	     .pinFill{fill:#FFFFFF;}
	 </style>
	 <g>
	 	<path id="pin" class="primary" d="M169.2,79.8c0-38.2-31-69.2-69.2-69.2s-69.2,31-69.2,69.2c0,14.1,4.3,27.3,11.5,38.2h0l0.1,0.2
	 		c1.6,2.4,3.3,4.6,5.2,6.8l52.4,68.2l52.4-68.2c1.9-2.2,3.6-4.4,5.2-6.8l0.1-0.2h0C165,107.1,169.2,94,169.2,79.8L169.2,79.8z"/>
	 	<path id="pinFill" class="pinFill" d="M100,143.5c-34.6,0-62.7-28.1-62.7-62.7S65.4,18.1,100,18.1s62.7,28.1,62.7,62.7
	 		S134.6,143.5,100,143.5L100,143.5z"/>
	 </g>
<g>
	<path id="path2" class="primary" d="M47.8,76.5v20.2c0,1.6,0.7,2.9,1.7,2.9h2.8h14.8c1.8-4.3,6-7.3,10.9-7.3s9.1,3,10.9,7.3h21.3V76.5H47.8z"/>
	<path id="path3" class="primary" d="M77.9,95.7c-4.7,0-8.5,3.8-8.5,8.5c0,4.7,3.8,8.5,8.5,8.5c4.7,0,8.5-3.8,8.5-8.5C86.5,99.5,82.7,95.7,77.9,95.7z"/>
	<path id="path4" class="primary" d="M132,96.1c-4.7,0-8.5,3.8-8.5,8.5c0,4.7,3.8,8.5,8.5,8.5c4.7,0,8.5-3.8,8.5-8.5v0C140.6,99.9,136.7,96.1,132,96.1z"/>
	<path id="path5" class="primary" d="M150.6,74.7l-11.5-0.1l0.1,0l-7-14.8c-1.2-1.9-3.5-3.2-6-3.1H113v17.7v2.2v23.1h7.8c1.9-4.3,6.2-7.3,11.3-7.3
		c5,0,9.3,3,11.3,7.3h6.5c1.2,0,2-0.8,2-1.9V76.5C151.9,75.8,151.4,75,150.6,74.7z M116.5,74.4v-14l9.2,0c1.7,0,3.1,1.1,3.6,2.7
		l5.3,11.3L116.5,74.4z"/>
	<path id="path6" class="primary" d="M104.6,56.7H53.3c-3.1,0-5.5,2.5-5.5,5.6v11.5h62.3V62.3c0,0,0,0,0,0C110.2,59.2,107.7,56.7,104.6,56.7z"/>
</g>
</svg>
