<?xml version="1.0" encoding="utf-8"?>
<!-- Generator: Adobe Illustrator 26.0.2, SVG Export Plug-In . SVG Version: 6.00 Build 0)  -->
<svg version="1.1" id="Layer_1" xmlns="http://www.w3.org/2000/svg" xmlns:xlink="http://www.w3.org/1999/xlink" x="0px" y="0px"
	 viewBox="0 0 200 200" style="enable-background:new 0 0 200 200;" xml:space="preserve">
	 <style type="text/css">
	     .primary{fill:#000000;}
	     .pinFill{fill:#FFFFFF;}
	 </style>
	 <g>
	 	<path id="pin" class="primary" d="M169.2,79.8c0-38.2-31-69.2-69.2-69.2s-69.2,31-69.2,69.2c0,14.1,4.3,27.3,11.5,38.2h0l0.1,0.2
	 		c1.6,2.4,3.3,4.6,5.2,6.8l52.4,68.2l52.4-68.2c1.9-2.2,3.6-4.4,5.2-6.8l0.1-0.2h0C165,107.1,169.2,94,169.2,79.8L169.2,79.8z"/>
	 	<path id="pinFill" class="pinFill" d="M100,143.5c-34.6,0-62.7-28.1-62.7-62.7S65.4,18.1,100,18.1s62.7,28.1,62.7,62.7
	 		S134.6,143.5,100,143.5L100,143.5z"/>
	 </g>
<g>
	<path id="path1" class="primary" d="M150.4,80.3c0-14.9-6.5-28.3-16.9-37.5l0.1-0.1c-8.8-7.7-20.5-12.5-33.2-12.5C86.6,30.2,74,35.8,65,44.8
		C55.9,54,50.3,66.5,50.3,80.3c0,26.7,21,48.6,47.4,50v-0.1c0.9,0.1,1.8,0.1,2.7,0.1c14.9,0,28.3-6.5,37.4-16.9l0,0
		c0.1-0.1,0.1-0.1,0.1-0.2c0.2-0.3,0.4-0.5,0.7-0.8c0.3-0.3,0.5-0.7,0.8-1c0.2-0.3,0.4-0.5,0.6-0.8c0.3-0.3,0.5-0.7,0.8-1
		c0.2-0.3,0.4-0.6,0.7-0.9c0.2-0.3,0.4-0.6,0.7-0.9c0.2-0.3,0.4-0.7,0.7-1c0.2-0.3,0.3-0.5,0.5-0.8c0.3-0.4,0.5-0.8,0.7-1.3
		c0.1-0.2,0.2-0.4,0.4-0.7c0.3-0.5,0.5-1,0.8-1.5c0.1-0.2,0.2-0.3,0.2-0.4c0.3-0.5,0.5-1.2,0.8-1.7c0.1-0.1,0.1-0.2,0.1-0.2
		c2.4-5.4,3.8-11.2,4.1-17.4h-0.1C150.4,82,150.4,81.1,150.4,80.3z M121.2,101.1c-5.3,5.3-12.6,8.6-20.8,8.6
		C84.1,109.6,71,96.5,71,80.3c0-8.1,3.3-15.4,8.6-20.8c5.3-5.3,12.6-8.6,20.8-8.6c16.3,0,29.4,13.1,29.4,29.4
		C129.8,88.4,126.5,95.7,121.2,101.1z"/>
	<path id="path2" class="primary" d="M100.4,52.7c-15.2,0-27.5,12.4-27.5,27.6s12.4,27.6,27.5,27.6c15.2,0,27.6-12.4,27.6-27.6
		S115.6,52.7,100.4,52.7z M100.4,105.1c-13.7,0-24.8-11.1-24.8-24.9s11.1-24.9,24.8-24.9c13.7,0,24.9,11.1,24.9,24.9
		C125.3,93.9,114.1,105.1,100.4,105.1z"/>
	<path id="path3" class="primary" d="M112.8,80.3c0-6.8-5.5-12.4-12.4-12.4S88,73.5,88,80.3s5.5,12.4,12.4,12.4C107.2,92.6,112.8,87.1,112.8,80.3z
		 M100.4,89.9c-5.3,0-9.7-4.3-9.7-9.7s4.3-9.7,9.7-9.7s9.7,4.3,9.7,9.7S105.7,89.9,100.4,89.9z"/>
	<path id="path4" class="primary" d="M100.3,66.4c2,0,3.6-1.6,3.6-3.6c0-2-1.6-3.6-3.6-3.6c-2,0-3.6,1.6-3.6,3.6C96.7,64.8,98.4,66.4,100.3,66.4z"/>
	<path id="path5" class="primary" d="M83.8,71.4c-2,0-3.6,1.6-3.6,3.6c0,2,1.6,3.6,3.6,3.6c2,0,3.6-1.6,3.6-3.6C87.4,73,85.8,71.4,83.8,71.4z"/>
	<path id="path6" class="primary" d="M90,91c-2,0-3.6,1.6-3.6,3.6c0,2,1.6,3.6,3.6,3.6c2,0,3.6-1.6,3.6-3.6C93.6,92.6,92.1,91,90,91z"/>
	<path id="path7" class="primary" d="M110.7,91c-2,0-3.6,1.6-3.6,3.6c0,2,1.6,3.6,3.6,3.6c2,0,3.6-1.6,3.6-3.6C114.4,92.6,112.7,91,110.7,91z"/>
	<path id="path8" class="primary" d="M113.4,75c0,2,1.6,3.6,3.6,3.6c2,0,3.6-1.6,3.6-3.6c0-2-1.6-3.6-3.6-3.6C115,71.4,113.4,73,113.4,75z"/>
</g>
</svg>
