<?xml version="1.0" encoding="utf-8"?>
<!-- Generator: Adobe Illustrator 26.0.0, SVG Export Plug-In . SVG Version: 6.00 Build 0)  -->
<svg version="1.1" id="Layer_1" xmlns="http://www.w3.org/2000/svg" xmlns:xlink="http://www.w3.org/1999/xlink" x="0px" y="0px"
	 viewBox="0 0 200 200" style="enable-background:new 0 0 200 200;" xml:space="preserve">
	 <style type="text/css">
	     .primary{fill:#000000;}
	     .pinFill{fill:#FFFFFF;}
	 </style>
	 <g>
	 	<path id="pin" class="primary" d="M169.2,79.8c0-38.2-31-69.2-69.2-69.2s-69.2,31-69.2,69.2c0,14.1,4.3,27.3,11.5,38.2h0l0.1,0.2
	 		c1.6,2.4,3.3,4.6,5.2,6.8l52.4,68.2l52.4-68.2c1.9-2.2,3.6-4.4,5.2-6.8l0.1-0.2h0C165,107.1,169.2,94,169.2,79.8L169.2,79.8z"/>
	 	<path id="pinFill" class="pinFill" d="M100,143.5c-34.6,0-62.7-28.1-62.7-62.7S65.4,18.1,100,18.1s62.7,28.1,62.7,62.7
	 		S134.6,143.5,100,143.5L100,143.5z"/>
	 </g>
<g>
	<path id="path2" class="primary" d="M120,50.7c-1.8-8.1-6.8-13.6-15-15.6v-3.3H94.2v3.3c-6.8,2-12.2,7.5-14,15.6h-5v8.1h50.1v-8.1H120z"/>
	<rect id="rect1" class="primary" x="73.7" y="119.8" width="52.8" height="7.5"/>
	<path id="path3" class="primary" d="M120,71v-6.8H80.7V71h-8.1v21.7h8.1v21.7H120V92.7h8.1V71H120z M100.1,92.7c-6,0-10.8-4.9-10.8-10.8S94.1,71,100.1,71
		S111,75.9,111,81.9S106.1,92.7,100.1,92.7"/>
</g>
</svg>
