<?xml version="1.0" encoding="utf-8"?>
<!-- Generator: Adobe Illustrator 26.0.0, SVG Export Plug-In . SVG Version: 6.00 Build 0)  -->
<svg version="1.1" id="Layer_1" xmlns="http://www.w3.org/2000/svg" xmlns:xlink="http://www.w3.org/1999/xlink" x="0px" y="0px"
	 viewBox="0 0 200 200" style="enable-background:new 0 0 200 200;" xml:space="preserve">
	 <style type="text/css">
	     .primary{fill:#000000;}
	     .pinFill{fill:#FFFFFF;}
	 </style>
	 <g>
	 	<path id="pin" class="primary" d="M169.2,79.8c0-38.2-31-69.2-69.2-69.2s-69.2,31-69.2,69.2c0,14.1,4.3,27.3,11.5,38.2h0l0.1,0.2
	 		c1.6,2.4,3.3,4.6,5.2,6.8l52.4,68.2l52.4-68.2c1.9-2.2,3.6-4.4,5.2-6.8l0.1-0.2h0C165,107.1,169.2,94,169.2,79.8L169.2,79.8z"/>
	 	<path id="pinFill" class="pinFill" d="M100,143.5c-34.6,0-62.7-28.1-62.7-62.7S65.4,18.1,100,18.1s62.7,28.1,62.7,62.7
	 		S134.6,143.5,100,143.5L100,143.5z"/>
	 </g>
<g>
	<path id="path2" class="primary" d="M130.9,36.1H69.2c-2.3,0-4.1,1.8-4.1,4.1c0,2.1,1.5,3.8,3.5,4.1v6.5c0,1.5,1.2,2.6,2.6,2.6s2.6-1.2,2.6-2.6v-6.5H75
		c0.1,0.1,0.1,0.1,0.2,0.2l20.7,16.6v7.1H93v-1.1c0-0.7-0.6-1.3-1.3-1.3h-7.4c-0.7,0-1.3,0.6-1.3,1.3v5h10v-2.8h2.9v9.5H93v-5.9H83
		v8.4c0,0.7,0.6,1.3,1.3,1.3h7.4c0.7,0,1.3-0.6,1.3-1.3v-1.5h2.9v53.6c0,2.3,1.8,4.1,4.1,4.1c2.3,0,4.1-1.9,4.1-4.1V79.7h3v1.5
		c0,0.7,0.6,1.3,1.3,1.3h7.5c0.7,0,1.3-0.6,1.3-1.3v-8.4h-10v5.9h-3v-9.5h3V72h10v-5c0-0.7-0.6-1.3-1.3-1.3h-7.5
		c-0.7,0-1.3,0.6-1.3,1.3v1.1h-3v-7.1l20.7-16.6c0.1,0,0.1-0.1,0.2-0.2h1.2v6.5c0,1.5,1.2,2.6,2.6,2.6s2.6-1.2,2.6-2.6v-6.5
		c2-0.3,3.5-2,3.5-4.1C135,37.9,133.2,36.1,130.9,36.1z M95.9,54.4l-12.5-10h12.5V54.4z M104.2,54.4v-10h12.5L104.2,54.4z"/>
</g>
</svg>
