<?xml version="1.0" encoding="utf-8"?>
<!-- Generator: Adobe Illustrator 26.0.0, SVG Export Plug-In . SVG Version: 6.00 Build 0)  -->
<svg version="1.1" id="Layer_1" xmlns="http://www.w3.org/2000/svg" xmlns:xlink="http://www.w3.org/1999/xlink" x="0px" y="0px"
	 viewBox="0 0 200 200" style="enable-background:new 0 0 200 200;" xml:space="preserve">
	 <style type="text/css">
	     .primary{fill:#000000;}
	     .pinFill{fill:#FFFFFF;}
	 </style>
	 <g>
	 	<path id="pin" class="primary" d="M169.2,79.8c0-38.2-31-69.2-69.2-69.2s-69.2,31-69.2,69.2c0,14.1,4.3,27.3,11.5,38.2h0l0.1,0.2
	 		c1.6,2.4,3.3,4.6,5.2,6.8l52.4,68.2l52.4-68.2c1.9-2.2,3.6-4.4,5.2-6.8l0.1-0.2h0C165,107.1,169.2,94,169.2,79.8L169.2,79.8z"/>
	 	<path id="pinFill" class="pinFill" d="M100,143.5c-34.6,0-62.7-28.1-62.7-62.7S65.4,18.1,100,18.1s62.7,28.1,62.7,62.7
	 		S134.6,143.5,100,143.5L100,143.5z"/>
	 </g>
<path id="path2" class="primary" d="M139.7,35.8H93.1c-1.9,0-3.4,1.3-3.4,2.8v14.3H106c1.9,0,3.5,1.6,3.5,3.5v6.3h26.4c1,0,1.9,0.9,1.9,1.9s-0.8,1.9-1.9,1.9
	h-26.4v11.2h26.4c1,0,1.9,0.9,1.9,1.9c0,1-0.8,1.9-1.9,1.9h-26.4v11.2h26.4c1,0,1.9,0.9,1.9,1.9c0,1-0.8,1.9-1.9,1.9h-26.4v11.8
	h30.2c1.9,0,3.4-1.3,3.4-2.8V38.6C143.1,37.1,141.5,35.8,139.7,35.8z M135.9,51.4h-39c-1,0-1.9-0.8-1.9-1.9c0-1.1,0.8-1.9,1.9-1.9
	h39c1,0,1.9,0.9,1.9,1.9C137.7,50.5,136.9,51.4,135.9,51.4z"/>
<g>
	<path id="path3" class="primary" d="M104.3,55.1h-39c-1.6,0-2.8,1.3-2.8,2.8v68c0,1.6,1.3,2.8,2.8,2.8h39c1.6,0,2.8-1.3,2.8-2.8V58
		C107.1,56.4,105.8,55.1,104.3,55.1z M76.7,57.6h16.1c0.4,0,0.7,0.3,0.7,0.7c0,0.4-0.3,0.7-0.7,0.7H76.7c-0.4,0-0.7-0.3-0.7-0.7
		S76.3,57.6,76.7,57.6z M84.8,126.5c-1.9,0-3.4-1.5-3.4-3.4c0-1.9,1.5-3.4,3.4-3.4c1.9,0,3.4,1.5,3.4,3.4
		C88.1,125,86.6,126.5,84.8,126.5z M101.8,117.8h-34V61.6h34V117.8z"/>
</g>
</svg>
