<?xml version="1.0" encoding="utf-8"?>
<!-- Generator: Adobe Illustrator 26.0.0, SVG Export Plug-In . SVG Version: 6.00 Build 0)  -->
<svg version="1.1" id="Layer_1" xmlns="http://www.w3.org/2000/svg" xmlns:xlink="http://www.w3.org/1999/xlink" x="0px" y="0px"
	 viewBox="0 0 200 200" style="enable-background:new 0 0 200 200;" xml:space="preserve">
	 <style type="text/css">
	     .primary{fill:#000000;}
	     .pinFill{fill:#FFFFFF;}
	 </style>
	 <g>
	 	<path id="pin" class="primary" d="M169.2,79.8c0-38.2-31-69.2-69.2-69.2s-69.2,31-69.2,69.2c0,14.1,4.3,27.3,11.5,38.2h0l0.1,0.2
	 		c1.6,2.4,3.3,4.6,5.2,6.8l52.4,68.2l52.4-68.2c1.9-2.2,3.6-4.4,5.2-6.8l0.1-0.2h0C165,107.1,169.2,94,169.2,79.8L169.2,79.8z"/>
	 	<path id="pinFill" class="pinFill" d="M100,143.5c-34.6,0-62.7-28.1-62.7-62.7S65.4,18.1,100,18.1s62.7,28.1,62.7,62.7
	 		S134.6,143.5,100,143.5L100,143.5z"/>
	 </g>
<path id="path2" class="primary" d="M122.4,77.9c0-4-2.3-7.5-5.7-9.2c0.4-1.1,0.6-2.3,0.6-3.5c0-5.7-4.6-10.3-10.3-10.3c-1.1,0-2.1,0.2-3.1,0.5
	c-2.3-4.7-7.1-8-12.7-8c-1.3,0-2.6,0.2-3.8,0.5c-2.4-4.2-7-7-12.2-7c-6.3,0-11.6,4.1-13.4,9.8c-3.4,1-6.1,3.5-7.3,6.7
	c-5.2,1.9-8.9,6.9-8.9,12.8c0,5.7,3.5,10.5,8.4,12.6c-0.2,0.9-0.3,1.8-0.3,2.8C53.9,92.9,60,99,67.6,99c3,0,5.8-1,8-2.6l4.8,6.2
	l-2,18.2h11.9c0,0-1.8-14.1-2.1-17c3.1-3.1,4.8-4.8,5.9-5.9c2.5,2.3,5.8,3.7,9.5,3.7c1.5,0,3-0.3,4.4-0.7l-8.5-17.5
	c-0.4-0.8-1.1-1.4-2-1.7l-3.2-0.9c-1.7-0.5-2.6-2.2-2.2-3.9l1.1-3.9c0.5-1.6,2.1-2.6,3.8-2.2l9.4,2.2c1,0.2,1.8,0.9,2.2,1.8
	l7.8,18.5c0.8-1.8,1.3-3.8,1.3-5.8c0-0.3,0-0.6,0-0.9C120.4,84.8,122.4,81.6,122.4,77.9 M82.2,100.7l-4.3-6.5c1.1-1.3,2-2.9,2.5-4.5
	l3.6,6.2L82.2,100.7z M88.8,88.4l-1.9,5.7l-2.8-4.7C85.8,89.4,87.3,89,88.8,88.4 M92.2,95.9l-5.3,5.7l3.3-9.5
	C90.7,93.5,91.4,94.8,92.2,95.9"/>
<path id="path3" class="primary" d="M125.7,88.1h15.3c1.3,0,2.3-1,2.3-2.3v-1.5c0-1.3-1-2.3-2.3-2.3h-15.3c-1.3,0-2.3,1-2.3,2.3v1.5
	C123.4,87.1,124.5,88.1,125.7,88.1"/>
<path id="path4" class="primary" d="M136,80.8h-5.3v-2.1c-1.1-0.1-2-0.6-2.7-1.3c-1.9-1.9-1.8-5.2-1.8-5.3l0-0.7h14.3l0,0.7c0,0.1,0,3.4-1.8,5.3
	c-0.7,0.7-1.6,1.2-2.7,1.3V80.8z M132.3,79.3h2.3v-2.1h0.8c1,0,1.8-0.3,2.4-0.9c1-1,1.3-2.6,1.4-3.5h-11.3c0.1,0.9,0.4,2.5,1.4,3.5
	c0.6,0.6,1.4,0.9,2.4,0.9h0.8V79.3z"/>
<path id="path5" class="primary" d="M139,89h-11.3c-2.7,0-4.5,2.7-4.5,5.3v22c0,0.9,0.1,1.8,0.6,2.5c-0.6,0-1.2-0.1-1.7-0.3c-0.5-0.2-0.9-0.6-1-1.1l-1.1-3.2
	l0.1,0c0.5-0.2,0.7-0.8,0.5-1.3L114,98.4c-0.2-0.4-0.5-0.6-0.9-0.6l0.1,0l-9.1-20.5c-0.2-0.4-0.5-0.8-1-1l-6.2-2.1L96,77.7l5.6,1.4
	c0.5,0.1,0.9,0.4,1.1,0.8l8.4,18.9c-0.3,0.3-0.3,0.7-0.2,1.1l6.6,14.5c0.2,0.5,0.7,0.7,1.2,0.5l1.1,3.1c0.3,0.9,0.9,1.6,1.8,2
	c0.7,0.3,1.4,0.4,2.2,0.4c0.4,0,0.9-0.2,1.3-0.3c0.8,0.6,1.7,0.7,2.8,0.7H139c2.7,0,5.1-1.8,5.1-4.5v-22C144.1,91.7,141.7,89,139,89
	"/>
</svg>
