<?xml version="1.0" encoding="utf-8"?>
<!-- Generator: Adobe Illustrator 26.0.0, SVG Export Plug-In . SVG Version: 6.00 Build 0)  -->
<svg version="1.1" id="Layer_1" xmlns="http://www.w3.org/2000/svg" xmlns:xlink="http://www.w3.org/1999/xlink" x="0px" y="0px"
	 viewBox="0 0 200 200" style="enable-background:new 0 0 200 200;" xml:space="preserve">
	 <style type="text/css">
	     .primary{fill:#000000;}
	     .pinFill{fill:#FFFFFF;}
	 </style>
	 <g>
	 	<path id="pin" class="primary" d="M169.2,79.8c0-38.2-31-69.2-69.2-69.2s-69.2,31-69.2,69.2c0,14.1,4.3,27.3,11.5,38.2h0l0.1,0.2
	 		c1.6,2.4,3.3,4.6,5.2,6.8l52.4,68.2l52.4-68.2c1.9-2.2,3.6-4.4,5.2-6.8l0.1-0.2h0C165,107.1,169.2,94,169.2,79.8L169.2,79.8z"/>
	 	<path id="pinFill" class="pinFill" d="M100,143.5c-34.6,0-62.7-28.1-62.7-62.7S65.4,18.1,100,18.1s62.7,28.1,62.7,62.7
	 		S134.6,143.5,100,143.5L100,143.5z"/>
	 </g>
<g>
	<g>
		<g>
			<path id="path2" class="primary" d="M102.6,66c-1,0-1.9,0.8-1.9,1.9c0,1,0.8,1.9,1.9,1.9c1,0,1.9-0.8,1.9-1.9C104.5,66.8,103.7,66,102.6,66z"/>
		</g>
	</g>
	<g>
		<g>
			<path id="path3" class="primary" d="M95.2,66c-1,0-1.9,0.8-1.9,1.9c0,1,0.8,1.9,1.9,1.9s1.9-0.8,1.9-1.9C97.1,66.8,96.2,66,95.2,66z"/>
		</g>
	</g>
	<g>
		<g>
			<path id="path4" class="primary" d="M90.9,51.1h-2.5c-3.4,0-6.2,2.8-6.2,6.2v0.8c0,3.6,2.9,6.2,6.2,6.2c1.5,0,2.3-0.5,4.5-1.2c2.5-0.8,4.2-3.2,4.2-5.9
				C97.1,53.9,94.3,51.1,90.9,51.1z M91.7,59.6C91.7,59.6,91.7,59.6,91.7,59.6l-2.5,0.8c-1.6,0.5-3.2-0.7-3.2-2.3v-0.8h0
				c0-1.4,1.1-2.5,2.5-2.5h2.5c1.4,0,2.5,1.1,2.5,2.5C93.4,58.3,92.7,59.3,91.7,59.6z"/>
		</g>
	</g>
	<g>
		<g>
			<path id="path5" class="primary" d="M109.5,51.1H107c-3.4,0-6.2,2.8-6.2,6.2c0,2.7,1.7,5,4.2,5.9l2.5,0.8c4,1.3,8.1-1.6,8.1-5.9v-0.8
				C115.6,53.9,112.9,51.1,109.5,51.1z M111.9,58.1c0,1.7-1.6,2.9-3.2,2.3c0,0,0,0,0,0l-2.5-0.8c-1-0.3-1.7-1.3-1.7-2.3
				c0-1.4,1.1-2.5,2.5-2.5h2.5c1.4,0,2.5,1.1,2.5,2.5V58.1z"/>
		</g>
	</g>
	<g>
		<g>
			<path id="path6" class="primary" d="M131.9,103.6c-2.5-0.5-5.6,0.3-7.4,2.9l-11.4-4.9l11.4-4.9c1.4,1.9,3.6,3,6,3c4.1,0,7.4-3.3,7.4-7.4
				c0-2.7-1.5-5.2-3.8-6.4c0.6-4.4-2.9-8.4-7.4-8.4c-5,0-8.4,4.8-7.2,9.2l-20.7,8.9l-20.7-8.9c1.3-4.7-2.4-9.2-7.2-9.2
				c-4.5,0-8,4-7.4,8.4c-5.8,3.3-4.8,12.4,2.3,13.7c2.5,0.5,5.6-0.3,7.4-2.9l11.4,4.9l-11.4,4.9c-1.4-1.9-3.6-3-6-3
				c-4.1,0-7.4,3.3-7.4,7.4c0,2.7,1.5,5.2,3.8,6.4c-0.6,4.4,2.9,8.4,7.4,8.4c4.9,0,8.4-4.7,7.2-9.2l20.7-8.9l20.7,8.9
				c-1.3,4.7,2.4,9.2,7.2,9.2c4.5,0,8-4,7.4-8.4C139.9,114.1,138.9,105,131.9,103.6z M73.3,92.6c-1-0.4-2.1,0.1-2.5,1
				c-0.8,2.1-2.7,2.5-4.1,2.3c-4-0.8-4-6.2-0.3-7.2c1.1-0.3,1.6-1.5,1.2-2.5c-1-2.5,0.9-5.1,3.4-5.1c2.7,0,4.7,2.9,3.1,5.5
				c-0.6,1-0.2,2.2,0.9,2.7l19.1,8.2l-4.7,2L73.3,92.6z M75.1,113.9c-1,0.4-1.4,1.7-0.9,2.7c1.6,2.7-0.5,5.5-3.1,5.5
				c-2.6,0-4.4-2.6-3.4-5.1c0.4-1-0.2-2.2-1.2-2.5c-1.6-0.4-2.7-1.9-2.7-3.6c0-2,1.7-3.7,3.7-3.7c1.5,0,2.9,0.9,3.4,2.4
				c0.4,1,1.5,1.4,2.5,1l49.5-21.2c1-0.4,1.4-1.7,0.9-2.7c-1.6-2.7,0.5-5.5,3.1-5.5c2.6,0,4.4,2.6,3.4,5.1c-0.4,1,0.2,2.2,1.2,2.5
				c1.6,0.4,2.7,1.9,2.7,3.6c0,2-1.7,3.7-3.7,3.7c-1.5,0-2.9-0.9-3.4-2.4c-0.4-1-1.5-1.4-2.5-1l-17,7.3L75.1,113.9z M131.4,114.5
				c-0.5,0.1-0.9,0.5-1.2,1c-0.2,0.5-0.3,1-0.1,1.5c1,2.5-0.9,5.1-3.4,5.1c-2.7,0-4.7-2.9-3.1-5.5c0.6-1,0.2-2.2-0.9-2.7l-19.1-8.2
				l4.7-2l16.2,7c1,0.4,2.1-0.1,2.5-1c0.8-2.1,2.7-2.5,4.1-2.3C135.2,108,135.2,113.5,131.4,114.5z"/>
		</g>
	</g>
	<g>
		<g>
			<path id="path7" class="primary" d="M123.1,51.1c0-13.4-10.8-20.4-24.1-20.4c-13.4,0-24.1,7.1-24.1,20.4c0,2.9,0.5,7.3,1.6,10.3c-1,1.3-1.6,2.9-1.6,4.5
				c0,4.9,4.8,8.5,9.5,7.1l1.2,0c0.3,0.3,0.4,0.7,0.4,1.2v5.8c0,3.1,2.5,5.6,5.6,5.6h14.9c3.1,0,5.6-2.5,5.6-5.6v-6
				c0-0.4,0.1-0.7,0.4-1l1.4,0c4.7,1.3,9.3-2.3,9.3-7.2c0-1.6-0.6-3.2-1.6-4.5C122.5,58.4,123.1,54.1,123.1,51.1z M118.1,63.2
				c0.8,0.7,1.2,1.7,1.2,2.7c0,2.5-2.4,4.3-4.8,3.5c-0.2-0.1-0.4-0.1-0.5-0.1c-2,0.1-2.6-0.2-3.4,0.3c-1.5,1-2.4,2.6-2.4,4.4v6
				c0,1-0.8,1.9-1.9,1.9h-1.9v-6.7c0-1-0.8-1.9-1.9-1.9c-1,0-1.9,0.8-1.9,1.9v6.7h-3.7v-6.7c0-1-0.8-1.9-1.9-1.9
				c-1,0-1.9,0.8-1.9,1.9v6.7h-1.9c-1,0-1.9-0.8-1.9-1.9v-5.8c0-2.8-2.2-4.9-3.5-4.9c0,0-2.2,0-2.2,0c-0.8,0-1.4,0.6-2.9,0.1
				c0,0-0.1,0-0.1,0c-1.5-0.5-2.5-1.9-2.5-3.5c0-1,0.4-2,1.2-2.7c0.6-0.5,0.8-1.4,0.5-2.1c-1.1-2.4-1.7-7-1.7-10
				c0-12.3,10.5-16.7,20.4-16.7c9.9,0,20.4,4.4,20.4,16.7c0,3-0.6,7.6-1.7,10C117.3,61.9,117.5,62.7,118.1,63.2z"/>
		</g>
	</g>
</g>
</svg>
