<?xml version="1.0" encoding="utf-8"?>
<!-- Generator: Adobe Illustrator 26.0.0, SVG Export Plug-In . SVG Version: 6.00 Build 0)  -->
<svg version="1.1" id="Layer_1" xmlns="http://www.w3.org/2000/svg" xmlns:xlink="http://www.w3.org/1999/xlink" x="0px" y="0px"
	 viewBox="0 0 200 200" style="enable-background:new 0 0 200 200;" xml:space="preserve">
	 <style type="text/css">
	     .primary{fill:#000000;}
	     .pinFill{fill:#FFFFFF;}
	 </style>
	 <g>
	 	<path id="pin" class="primary" d="M169.2,79.8c0-38.2-31-69.2-69.2-69.2s-69.2,31-69.2,69.2c0,14.1,4.3,27.3,11.5,38.2h0l0.1,0.2
	 		c1.6,2.4,3.3,4.6,5.2,6.8l52.4,68.2l52.4-68.2c1.9-2.2,3.6-4.4,5.2-6.8l0.1-0.2h0C165,107.1,169.2,94,169.2,79.8L169.2,79.8z"/>
	 	<path id="pinFill" class="pinFill" d="M100,143.5c-34.6,0-62.7-28.1-62.7-62.7S65.4,18.1,100,18.1s62.7,28.1,62.7,62.7
	 		S134.6,143.5,100,143.5L100,143.5z"/>
	 </g>
<g>
	<path id="path2" class="primary" d="M71.1,64.3c-9.3,0-16.9,7.5-16.9,16.9s16.9,27.3,16.9,27.3S88,90.5,88,81.2S80.4,64.3,71.1,64.3z M71.1,84.9
		c-3.5,0-6.3-2.8-6.3-6.3c0-3.5,2.8-6.3,6.3-6.3c3.5,0,6.3,2.8,6.3,6.3C77.4,82.1,74.6,84.9,71.1,84.9z"/>
	<path id="path3" class="primary" d="M131.9,41.5c-5.6,0-10.2,4.6-10.2,10.2s10.2,16.6,10.2,16.6s10.2-10.9,10.2-16.6S137.6,41.5,131.9,41.5z M131.9,54
		c-2.1,0-3.8-1.7-3.8-3.8c0-2.1,1.7-3.8,3.8-3.8c2.1,0,3.8,1.7,3.8,3.8C135.7,52.3,134,54,131.9,54z"/>
</g>
<path id="path4" class="primary" d="M67.6,124.3l21.8,9.5c0,0,14.7-11.9,18.6-20.7s1.9-11.7,1.5-20.1c-0.4-8.4,3.9-14.2,29.4-18.8c0,0-6.3-2.1-6.3-2.1
	c-1.1-0.4-11.1,1.8-14.4,2.9c-4,1.3-7.9,3-11.3,5.4c-2.1,1.5-4.1,3.2-5.7,5.2c-2.3,3-2.4,6.9-3.2,10.4c-0.8,3.7-2.1,7.5-5,10
	C87.9,110.7,67.6,124.3,67.6,124.3z"/>
</svg>
