<?xml version="1.0" encoding="utf-8"?>
<!-- Generator: Adobe Illustrator 26.0.0, SVG Export Plug-In . SVG Version: 6.00 Build 0)  -->
<svg version="1.1" id="Layer_1" xmlns="http://www.w3.org/2000/svg" xmlns:xlink="http://www.w3.org/1999/xlink" x="0px" y="0px"
	 viewBox="0 0 200 200" style="enable-background:new 0 0 200 200;" xml:space="preserve">
	 <style type="text/css">
	     .primary{fill:#000000;}
	     .pinFill{fill:#FFFFFF;}
	 </style>
	 <g>
	 	<path id="pin" class="primary" d="M169.2,79.8c0-38.2-31-69.2-69.2-69.2s-69.2,31-69.2,69.2c0,14.1,4.3,27.3,11.5,38.2h0l0.1,0.2
	 		c1.6,2.4,3.3,4.6,5.2,6.8l52.4,68.2l52.4-68.2c1.9-2.2,3.6-4.4,5.2-6.8l0.1-0.2h0C165,107.1,169.2,94,169.2,79.8L169.2,79.8z"/>
	 	<path id="pinFill" class="pinFill" d="M100,143.5c-34.6,0-62.7-28.1-62.7-62.7S65.4,18.1,100,18.1s62.7,28.1,62.7,62.7
	 		S134.6,143.5,100,143.5L100,143.5z"/>
	 </g>
<path id="path2" class="primary" d="M123,116.6c-3,0.3-4.5-0.4-4.5-0.4s0.3-0.6-0.1-1.1c-0.4-0.5-1.5,0-4.2-1.4c-2.7-1.4-3.8-4.1-3.8-4.1s0.6,0.1,2,0.9
	c1.3,0.8,2.1,0.6,2.6,0.4c0.5-0.1-0.1-1,0.4-1c0.6,0,1.8,1.2,2.8,1.1c1.1,0,1.3-0.1,1.6-0.4c0.3-0.3,1-0.5,1.5-0.9
	c0.5-0.3,0.9-1.6-0.3-1.1c-1.2,0.4-2.5-0.9-4.3-1.7c-1.8-0.9-2.6-2.1-2.6-2.1s1,0,2.2-0.2c1.2-0.2,1.7-1.5,0.8-1.6
	c-0.9-0.1-2.7-1.1-4.2-2.2c-1.6-1.1-3.4-2.5-5.2-3.7c1.8-0.2,3.3,0.2,4,0.7c0.7,0.5,1.2,0.5,2.1-0.1c1.8,0,2.4-0.9,2.4-1.3
	c0-0.5-0.8-0.6-1.2-0.6c-0.4,0-1-0.4-1.9-0.8c-0.7-0.7-2.3-2.1-2.3-2.1s-0.2-1.5-1.1-2.6c-0.8-1.1-1.9-0.9-2.7-2.1
	c0.8,0.7,2.7,0.1,2.7,0.1s1.5,1,2.7,1.1c1.2,0.1,2.1,0,2.5-0.6c0.4-0.6,0-1-0.7-1.1c-0.1-0.4-0.7-0.4-1.4-0.9
	c-0.3-0.7-1.3-1.1-1.4-1.4c-0.2-0.2-1-1.3-2.1-1.8c-1.1-0.5-1.8-1.4-1.8-1.4s1.8,0.8,2.4,0.8c0.6,0,1,0.1,1.4-0.4
	c0.6,0,0.8-0.4,0.7-0.8c-0.1-0.4-0.7-0.3-0.9-0.6c-0.2-0.3-1-0.4-1.9-1.1c-1-0.7-1.1-1.9-1.1-1.9s3.1,0,3.4-0.2s0.3-0.6,0.3-1
	c0-0.5-0.2-0.8-1-0.8c-0.7,0-0.5-0.4-1.1-0.7c-0.5-0.3-0.8-0.2-1.2-0.7c-0.5-0.5-0.9-0.9-1.5-1.1c-0.6-0.3-1-0.8-1.6-1.8
	c0.5-0.3,0.4-0.8,0.4-0.8s1.1,0,1.5,0c0.5,0,1.1,0.1,1.6-0.5c0.5-0.6,0.1-1.4-0.5-1.5c-0.6-0.1-1.4-0.2-2.1-1
	c-0.6-0.8-1.4-1.2-1.9-1.7s-1-0.4-1.5-0.9c-0.5-0.5-0.9-1.5-0.9-1.5s1.7,0.8,2.3,0.9c0.6,0.1,0.7,0.2,2.1,0.8c1.4,0.6,2,0.4,2.1,0
	c0.2-0.4-0.2-0.8-0.7-1.2c-0.5-0.4-1-1-1.9-1.4c-0.9-0.4-1.3-1.4-1.3-1.4s0.3-0.2,1-0.1c0.6,0.1,1.3,0.1,1.4-0.4
	c0.2-0.5-0.1-0.8-0.9-1.2c-0.8-0.4-1.6-1.2-2.4-1.5c-0.8-0.4-0.6-0.6-1.9-1.5c-1.3-0.9-3.4-3.5-3.4-3.5s0.5,0.2,1,0.4
	c0.6,0.2,0.7,0,1.8-0.1c1.1-0.1,1.1-0.2,1.3-0.9c0.2-0.7-1.2-1.5-2.2-2.1c-1-0.6-1-1.1-1.4-2c-0.4-0.8-1.4-1-2.3-2.6
	c0.9,0.4,2,0.3,2.2-0.5c0.3-0.8-0.9-1.9-2.9-3.8c0.7,0.4,1.8,0.2,1.7-0.7c-0.1-0.9-3.4-1.9-3.6-3.1c-0.2-1.3-0.7-1.3-0.9-2.6
	c-0.2-1.3-1.5-1.7-1.5-3.8c0-2.1-0.7-4.4-1.2-4.4c-0.5,0-1.2,2.3-1.2,4.4c0,2.1-1.3,2.5-1.5,3.8c-0.2,1.3-0.7,1.3-0.9,2.6
	c-0.2,1.3-3.6,2.2-3.6,3.1c-0.1,0.9,1,1.1,1.7,0.7c-2,2-3.1,3.1-2.9,3.8c0.3,0.8,1.3,0.9,2.2,0.5c-0.8,1.6-1.9,1.8-2.3,2.6
	c-0.4,0.8-0.4,1.3-1.4,2c-1,0.6-2.4,1.4-2.2,2.1c0.2,0.7,0.1,0.8,1.3,0.9c1.1,0.1,1.2,0.3,1.8,0.1c0.6-0.2,1-0.4,1-0.4
	S80.3,56.1,79,57c-1.3,0.9-1.2,1.1-1.9,1.5c-0.8,0.4-1.6,1.1-2.4,1.5c-0.8,0.4-1,0.7-0.9,1.2c0.2,0.5,0.8,0.5,1.4,0.4
	c0.6-0.1,1,0.1,1,0.1s-0.4,1-1.3,1.4c-0.9,0.4-1.4,1-1.9,1.4c-0.5,0.4-0.9,0.9-0.7,1.2c0.2,0.4,0.8,0.6,2.1,0
	c1.4-0.6,1.5-0.7,2.1-0.8c0.6-0.1,2.3-0.9,2.3-0.9s-0.4,1-0.9,1.5c-0.5,0.5-1,0.4-1.5,0.9c-0.5,0.5-1.3,0.9-1.9,1.7
	c-0.6,0.8-1.4,0.9-2.1,1c-0.6,0.1-1,0.9-0.5,1.5c0.5,0.6,1.1,0.5,1.6,0.5c0.5,0,1.5,0,1.5,0s-0.1,0.5,0.4,0.8
	c-0.5,1.1-1,1.5-1.6,1.8c-0.6,0.3-1,0.6-1.5,1.1c-0.5,0.5-0.7,0.4-1.2,0.7c-0.5,0.3-0.3,0.6-1.1,0.7c-0.7,0-0.9,0.3-1,0.8
	c0,0.5,0,0.8,0.3,1c0.3,0.2,3.4,0.2,3.4,0.2s-0.2,1.3-1.1,1.9c-1,0.7-1.7,0.7-1.9,1.1c-0.2,0.3-0.8,0.1-0.9,0.6
	c-0.1,0.4,0.1,0.8,0.7,0.8c0.5,0.4,0.8,0.4,1.4,0.4c0.6,0,2.4-0.8,2.4-0.8s-0.8,0.9-1.8,1.4c-1.1,0.5-1.9,1.5-2.1,1.8
	c-0.2,0.2-1.2,0.7-1.4,1.4c-0.7,0.5-1.3,0.5-1.4,0.9c-0.7,0.1-1,0.4-0.7,1.1s1.3,0.7,2.5,0.6c1.2-0.1,2.7-1.1,2.7-1.1
	s1.9,0.6,2.7-0.1c-0.8,1.2-1.9,1-2.7,2.1c-0.8,1.1-1.1,2.6-1.1,2.6s-1.7,1.4-2.3,2.1c-0.9,0.4-1.5,0.8-1.9,0.8
	c-0.4,0-1.2,0.1-1.2,0.6c0,0.5,0.6,1.4,2.4,1.3c0.9,0.6,1.4,0.6,2.1,0.1c0.7-0.5,2.2-0.8,4-0.7c-1.8,1.2-3.7,2.6-5.2,3.7
	c-1.6,1.1-3.3,2.1-4.2,2.2c-0.9,0.1-0.4,1.4,0.8,1.6c1.2,0.2,2.2,0.2,2.2,0.2s-0.8,1.2-2.6,2.1c-1.8,0.9-3.1,2.2-4.3,1.7
	c-1.2-0.4-0.8,0.8-0.3,1.1c0.5,0.3,1.2,0.5,1.5,0.9c0.3,0.3,0.5,0.3,1.6,0.4c1.1,0,2.3-1.1,2.8-1.1c0.6,0,0,0.8,0.4,1
	c0.5,0.1,1.3,0.3,2.6-0.4c1.3-0.8,2-0.9,2-0.9s-1.1,2.7-3.8,4.1c-2.7,1.4-3.8,0.9-4.2,1.4c-0.4,0.5-0.1,1.1-0.1,1.1
	s-1.5,0.6-4.5,0.4c-3-0.3-0.4,1.4-0.1,1.7c0.4,0.3,2.2,1.2,3.2,1.4c1,0.1,3.5,0.6,3.5,0.6s-1.6,1.4-1.3,2.1c0.2,0.7,2.5,0.2,3.9,0
	c1.4-0.2,3.5-0.2,5.1-1.6c-1.3,1.2-1.6,1.8-1.1,2.1c0.6,0.4,3.9,0.2,6-0.5c-0.9,1.2-0.8,1.6-0.2,2c0.6,0.4,5.2,0,5.2,0
	s-0.5,0.7-0.1,1c0.4,0.3,4.7-0.3,5.6-1.1l-0.2,5.3h6.3l-0.2-5.3c0.9,0.7,5.2,1.4,5.6,1.1c0.4-0.3-0.1-1-0.1-1s4.7,0.4,5.2,0
	c0.6-0.4,0.7-0.8-0.2-2c2.1,0.6,5.4,0.8,6,0.5c0.6-0.4,0.3-1-1.1-2.1c1.6,1.4,3.7,1.4,5.1,1.6c1.4,0.2,3.7,0.7,3.9,0
	c0.2-0.7-1.3-2.1-1.3-2.1s2.5-0.4,3.5-0.6c1-0.1,2.8-1.1,3.2-1.4C123.5,118,126,116.3,123,116.6z"/>
<path id="path3" class="primary" d="M149.3,93.5c-1.8,0.2-2.8-0.2-2.8-0.2s0.2-0.4,0-0.7c-0.2-0.3-0.9,0-2.6-0.9c-1.6-0.9-2.3-2.5-2.3-2.5s0.4,0.1,1.2,0.5
	c0.8,0.5,1.3,0.4,1.6,0.3c0.3-0.1-0.1-0.6,0.3-0.6c0.3,0,1.1,0.7,1.7,0.7c0.7,0,0.8,0,0.9-0.2c0.2-0.2,0.6-0.3,0.9-0.5
	c0.3-0.2,0.5-0.9-0.2-0.7c-0.7,0.3-1.5-0.5-2.6-1.1c-1.1-0.5-1.6-1.3-1.6-1.3s0.6,0,1.4-0.1c0.7-0.1,1-0.9,0.5-1
	c-0.6-0.1-1.6-0.6-2.6-1.3c-0.9-0.7-2.1-1.5-3.2-2.3c1.1-0.1,2,0.1,2.4,0.4c0.4,0.3,0.7,0.3,1.3-0.1c1.1,0,1.5-0.5,1.4-0.8
	c0-0.3-0.5-0.4-0.7-0.4c-0.2,0-0.6-0.2-1.2-0.5c-0.4-0.4-1.4-1.3-1.4-1.3s-0.1-0.9-0.6-1.6c-0.5-0.7-1.1-0.6-1.7-1.3
	c0.5,0.4,1.6,0.1,1.6,0.1s0.9,0.6,1.6,0.7c0.7,0.1,1.3,0,1.5-0.4c0.2-0.4,0-0.6-0.4-0.7c-0.1-0.2-0.5-0.2-0.9-0.5
	c-0.2-0.4-0.8-0.7-0.9-0.8c-0.1-0.2-0.6-0.8-1.3-1.1c-0.7-0.3-1.1-0.9-1.1-0.9s1.1,0.5,1.4,0.5c0.4,0,0.6,0,0.9-0.2
	c0.4,0,0.5-0.2,0.4-0.5c0-0.3-0.4-0.2-0.5-0.3c-0.1-0.2-0.6-0.2-1.2-0.6c-0.6-0.4-0.7-1.2-0.7-1.2s1.9,0,2.1-0.1
	c0.2-0.1,0.2-0.3,0.2-0.6c0-0.3-0.1-0.5-0.6-0.5c-0.5,0-0.3-0.2-0.7-0.4c-0.3-0.2-0.5-0.1-0.7-0.4c-0.3-0.3-0.5-0.5-0.9-0.7
	c-0.3-0.2-0.6-0.5-0.9-1.1c0.3-0.2,0.2-0.5,0.2-0.5s0.6,0,0.9,0c0.3,0,0.7,0.1,1-0.3c0.3-0.3,0.1-0.9-0.3-0.9
	c-0.4,0-0.9-0.1-1.3-0.6c-0.4-0.5-0.8-0.7-1.2-1c-0.3-0.3-0.6-0.2-0.9-0.6c-0.3-0.3-0.5-0.9-0.5-0.9s1,0.5,1.4,0.6s0.4,0.1,1.3,0.5
	c0.8,0.4,1.2,0.2,1.3,0c0.1-0.2-0.1-0.5-0.4-0.7c-0.3-0.3-0.6-0.6-1.2-0.8c-0.6-0.2-0.8-0.8-0.8-0.8s0.2-0.1,0.6,0s0.8,0.1,0.9-0.2
	c0.1-0.3-0.1-0.5-0.5-0.7c-0.5-0.2-1-0.7-1.4-0.9c-0.5-0.2-0.4-0.4-1.2-0.9c-0.8-0.5-2.1-2.1-2.1-2.1s0.3,0.1,0.6,0.3
	c0.3,0.1,0.4,0,1.1-0.1c0.7-0.1,0.7-0.1,0.8-0.5s-0.7-0.9-1.3-1.3c-0.6-0.4-0.6-0.7-0.9-1.2c-0.2-0.5-0.9-0.6-1.4-1.6
	c0.6,0.3,1.2,0.2,1.4-0.3c0.2-0.5-0.5-1.1-1.7-2.3c0.4,0.2,1.1,0.1,1-0.4c0-0.6-2.1-1.1-2.2-1.9c-0.1-0.8-0.4-0.8-0.5-1.6
	c-0.1-0.8-0.9-1.1-0.9-2.3c0-1.3-0.4-2.7-0.7-2.7c-0.3,0-0.7,1.4-0.7,2.7c0,1.3-0.8,1.5-0.9,2.3c-0.1,0.8-0.4,0.8-0.5,1.6
	c-0.1,0.8-2.2,1.4-2.2,1.9c0,0.6,0.6,0.7,1,0.4c-1.2,1.2-1.9,1.9-1.7,2.3c0.2,0.5,0.8,0.6,1.4,0.3c-0.5,1-1.1,1.1-1.4,1.6
	c-0.2,0.5-0.3,0.8-0.9,1.2c-0.6,0.4-1.4,0.9-1.3,1.3c0.1,0.4,0.1,0.5,0.8,0.5c0.7,0.1,0.7,0.2,1.1,0.1c0.3-0.1,0.6-0.3,0.6-0.3
	s-1.3,1.6-2.1,2.1c-0.8,0.5-0.7,0.7-1.2,0.9s-1,0.7-1.4,0.9c-0.5,0.2-0.6,0.4-0.5,0.7c0.1,0.3,0.5,0.3,0.9,0.2c0.4-0.1,0.6,0,0.6,0
	s-0.3,0.6-0.8,0.8c-0.6,0.2-0.9,0.6-1.2,0.8c-0.3,0.3-0.5,0.5-0.4,0.7c0.1,0.2,0.5,0.4,1.3,0c0.8-0.4,0.9-0.4,1.3-0.5
	c0.4-0.1,1.4-0.6,1.4-0.6s-0.2,0.6-0.5,0.9c-0.3,0.3-0.6,0.3-0.9,0.6c-0.3,0.3-0.8,0.6-1.2,1c-0.4,0.5-0.9,0.6-1.3,0.6
	c-0.4,0-0.6,0.5-0.3,0.9c0.3,0.3,0.7,0.3,1,0.3c0.3,0,0.9,0,0.9,0s-0.1,0.3,0.2,0.5c-0.3,0.6-0.6,0.9-0.9,1.1
	c-0.3,0.2-0.6,0.4-0.9,0.7c-0.3,0.3-0.4,0.2-0.7,0.4c-0.3,0.2-0.2,0.4-0.7,0.4c-0.5,0-0.6,0.2-0.6,0.5c0,0.3,0,0.5,0.2,0.6
	c0.2,0.1,2.1,0.1,2.1,0.1s-0.1,0.8-0.7,1.2c-0.6,0.4-1,0.5-1.2,0.6c-0.1,0.2-0.5,0.1-0.5,0.3c0,0.3,0,0.5,0.4,0.5
	c0.3,0.2,0.5,0.2,0.9,0.2c0.4,0,1.4-0.5,1.4-0.5s-0.5,0.6-1.1,0.9c-0.7,0.3-1.2,0.9-1.3,1.1c-0.1,0.2-0.7,0.4-0.9,0.8
	c-0.4,0.3-0.8,0.3-0.9,0.5c-0.4,0.1-0.6,0.3-0.4,0.7c0.2,0.4,0.8,0.4,1.5,0.4c0.7-0.1,1.6-0.7,1.6-0.7s1.2,0.4,1.6-0.1
	c-0.5,0.7-1.2,0.6-1.7,1.3c-0.5,0.7-0.6,1.6-0.6,1.6s-1,0.8-1.4,1.3c-0.6,0.3-0.9,0.5-1.2,0.5c-0.2,0-0.7,0.1-0.7,0.4
	c0,0.3,0.3,0.8,1.4,0.8c0.5,0.4,0.9,0.3,1.3,0.1c0.4-0.3,1.3-0.5,2.4-0.4c-1.1,0.7-2.2,1.6-3.2,2.3c-0.9,0.7-2,1.3-2.6,1.3
	c-0.6,0.1-0.3,0.8,0.5,1c0.7,0.1,1.4,0.1,1.4,0.1s-0.5,0.7-1.6,1.3c-1.1,0.5-1.9,1.3-2.6,1.1c-0.7-0.3-0.5,0.5-0.2,0.7
	c0.3,0.2,0.7,0.3,0.9,0.5c0.2,0.2,0.3,0.2,0.9,0.2c0.7,0,1.4-0.7,1.7-0.7s0,0.5,0.3,0.6c0.3,0.1,0.8,0.2,1.6-0.3
	c0.8-0.5,1.2-0.5,1.2-0.5s-0.7,1.6-2.3,2.5c-1.6,0.9-2.3,0.6-2.6,0.9c-0.2,0.3,0,0.7,0,0.7s-0.9,0.4-2.8,0.2c-1.8-0.2-0.3,0.8-0.1,1
	c0.2,0.2,1.3,0.8,1.9,0.8c0.6,0.1,2.1,0.3,2.1,0.3s-0.9,0.8-0.8,1.3c0.1,0.4,1.5,0.1,2.4,0c0.9-0.1,2.2-0.1,3.1-1
	c-0.8,0.7-1,1.1-0.6,1.3c0.3,0.2,2.3,0.1,3.6-0.3c-0.6,0.7-0.5,1-0.1,1.2c0.3,0.2,3.2,0,3.2,0s-0.3,0.4-0.1,0.6
	c0.2,0.2,2.9-0.2,3.4-0.7l-0.1,3.2h3.9l-0.1-3.2c0.6,0.5,3.2,0.8,3.4,0.7s-0.1-0.6-0.1-0.6s2.8,0.2,3.2,0c0.3-0.2,0.4-0.5-0.1-1.2
	c1.3,0.4,3.3,0.5,3.6,0.3c0.3-0.2,0.2-0.6-0.6-1.3c1,0.8,2.2,0.9,3.1,1c0.9,0.1,2.3,0.4,2.4,0c0.1-0.4-0.8-1.3-0.8-1.3
	s1.5-0.3,2.1-0.3c0.6-0.1,1.7-0.7,1.9-0.8C149.6,94.3,151.2,93.3,149.3,93.5z"/>
</svg>
