<?xml version="1.0" encoding="utf-8"?>
<!-- Generator: Adobe Illustrator 26.0.0, SVG Export Plug-In . SVG Version: 6.00 Build 0)  -->
<svg version="1.1" id="Layer_1" xmlns="http://www.w3.org/2000/svg" xmlns:xlink="http://www.w3.org/1999/xlink" x="0px" y="0px"
	 viewBox="0 0 200 200" style="enable-background:new 0 0 200 200;" xml:space="preserve">
	 <style type="text/css">
	     .primary{fill:#000000;}
	     .pinFill{fill:#FFFFFF;}
	 </style>
	 <g>
	 	<path id="pin" class="primary" d="M169.2,79.8c0-38.2-31-69.2-69.2-69.2s-69.2,31-69.2,69.2c0,14.1,4.3,27.3,11.5,38.2h0l0.1,0.2
	 		c1.6,2.4,3.3,4.6,5.2,6.8l52.4,68.2l52.4-68.2c1.9-2.2,3.6-4.4,5.2-6.8l0.1-0.2h0C165,107.1,169.2,94,169.2,79.8L169.2,79.8z"/>
	 	<path id="pinFill" class="pinFill" d="M100,143.5c-34.6,0-62.7-28.1-62.7-62.7S65.4,18.1,100,18.1s62.7,28.1,62.7,62.7
	 		S134.6,143.5,100,143.5L100,143.5z"/>
	 </g>
<g>
	<g>
		<path id="path1" class="primary" d="M123.84,116.37H75.58c-4.23,0-7.67-3.44-7.67-7.67V48.04c0-4.23,3.44-7.67,7.67-7.67h48.26c4.23,0,7.67,3.44,7.67,7.67
			v60.65C131.51,112.93,128.07,116.37,123.84,116.37z M75.58,44.37c-2.03,0-3.67,1.65-3.67,3.67v60.65c0,2.03,1.65,3.67,3.67,3.67
			h48.26c2.03,0,3.67-1.65,3.67-3.67V48.04c0-2.03-1.65-3.67-3.67-3.67C123.84,44.37,75.58,44.37,75.58,44.37z"/>
	</g>
	<g>
		<g>
			<path id="path2" class="primary" d="M97.69,58.4c0,1.29,1.05,2.34,2.35,2.34h20.57c1.29,0,2.34-1.05,2.34-2.34s-1.05-2.35-2.34-2.35h-20.57
				C98.73,56.05,97.69,57.09,97.69,58.4z"/>
		</g>
	</g>
	<g>
		<path id="path3" class="primary" d="M89.4,65.63h-9.76c-2.04,0-3.7-1.66-3.7-3.7v-7.09c0-2.04,1.66-3.7,3.7-3.7h9.76c2.04,0,3.7,1.66,3.7,3.7v7.09
			C93.1,63.98,91.44,65.63,89.4,65.63z M79.64,54.35c-0.27,0-0.5,0.22-0.5,0.5v7.09c0,0.27,0.22,0.5,0.5,0.5h9.76
			c0.27,0,0.5-0.22,0.5-0.5v-7.09c0-0.27-0.22-0.5-0.5-0.5H79.64z"/>
	</g>
	<g>
		<g>
			<path id="path4" class="primary" d="M97.69,78.38c0,1.29,1.05,2.34,2.35,2.34h20.57c1.29,0,2.34-1.05,2.34-2.34s-1.05-2.35-2.34-2.35h-20.57
				C98.73,76.03,97.69,77.07,97.69,78.38z"/>
		</g>
	</g>
	<g>
		<path id="path5" class="primary" d="M89.4,85.61h-9.76c-2.04,0-3.7-1.66-3.7-3.7v-7.09c0-2.04,1.66-3.7,3.7-3.7h9.76c2.04,0,3.7,1.66,3.7,3.7v7.09
			C93.1,83.95,91.44,85.61,89.4,85.61z M79.64,74.33c-0.27,0-0.5,0.22-0.5,0.5v7.09c0,0.27,0.22,0.5,0.5,0.5h9.76
			c0.27,0,0.5-0.22,0.5-0.5v-7.09c0-0.27-0.22-0.5-0.5-0.5H79.64z"/>
	</g>
	<g>
		<g>
			<path id="path6" class="primary" d="M97.69,98.35c0,1.29,1.05,2.34,2.35,2.34h20.57c1.29,0,2.34-1.05,2.34-2.34c0-1.29-1.05-2.35-2.34-2.35h-20.57
				C98.73,96.01,97.69,97.05,97.69,98.35z"/>
		</g>
	</g>
	<g>
		<path id="path7" class="primary" d="M89.4,105.59h-9.76c-2.04,0-3.7-1.66-3.7-3.7V94.8c0-2.04,1.66-3.7,3.7-3.7h9.76c2.04,0,3.7,1.66,3.7,3.7v7.09
			C93.1,103.93,91.44,105.59,89.4,105.59z M79.64,94.31c-0.27,0-0.5,0.22-0.5,0.5v7.09c0,0.27,0.22,0.5,0.5,0.5h9.76
			c0.27,0,0.5-0.22,0.5-0.5v-7.1c0-0.27-0.22-0.5-0.5-0.5L79.64,94.31L79.64,94.31z"/>
	</g>
</g>
</svg>
