<?xml version="1.0" encoding="utf-8"?>
<!-- Generator: Adobe Illustrator 26.0.2, SVG Export Plug-In . SVG Version: 6.00 Build 0)  -->
<svg version="1.1" id="Layer_1" xmlns="http://www.w3.org/2000/svg" xmlns:xlink="http://www.w3.org/1999/xlink" x="0px" y="0px"
	 viewBox="0 0 200 200" style="enable-background:new 0 0 200 200;" xml:space="preserve">
	 <style type="text/css">
	     .primary{fill:#000000;}
	     .pinFill{fill:#FFFFFF;}
	 </style>
	 <g>
	 	<path id="pin" class="primary" d="M169.2,79.8c0-38.2-31-69.2-69.2-69.2s-69.2,31-69.2,69.2c0,14.1,4.3,27.3,11.5,38.2h0l0.1,0.2
	 		c1.6,2.4,3.3,4.6,5.2,6.8l52.4,68.2l52.4-68.2c1.9-2.2,3.6-4.4,5.2-6.8l0.1-0.2h0C165,107.1,169.2,94,169.2,79.8L169.2,79.8z"/>
	 	<path id="pinFill" class="pinFill" d="M100,143.5c-34.6,0-62.7-28.1-62.7-62.7S65.4,18.1,100,18.1s62.7,28.1,62.7,62.7
	 		S134.6,143.5,100,143.5L100,143.5z"/>
	 </g>
<path id="path" class="primary" d="M146.2,77.2h-5.5l2.2-5.3c0.6-1.5-0.1-3.3-1.6-3.9s-3.3,0.1-3.9,1.6l-3.1,7.5h-3.6l3.7-9c0.6-1.5-0.1-3.3-1.6-3.9
	l-9-3.7l2.7-2.5l7.5,3.1c0.4,0.2,0.7,0.2,1.2,0.2c1.2,0,2.3-0.7,2.7-1.8c0.6-1.5-0.1-3.3-1.6-3.9l-5.3-2.2l3.9-3.9
	c1.2-1.2,1.2-3.1,0-4.2c-1.2-1.2-3.1-1.2-4.2,0l-3.9,3.9l-2.2-5.3c-0.6-1.5-2.4-2.2-3.9-1.6c-1.5,0.6-2.2,2.4-1.6,3.9l3.2,7.6
	l-2.5,2.5l-3.7-9c-0.6-1.5-2.4-2.2-3.9-1.6l-9,3.7v-3.6l7.6-3.1c1.5-0.6,2.2-2.4,1.6-3.9c-0.6-1.5-2.4-2.2-3.9-1.6l-5.3,2.2V34
	c0-1.6-1.3-2.9-2.9-2.9s-2.9,1.3-2.9,2.9v5.5l-5.3-2.2c-1.5-0.6-3.3,0.1-3.9,1.6s0.1,3.3,1.6,3.9l7.5,3.1v3.6l-9-3.7
	c-1.5-0.6-3.3,0.1-3.9,1.6l-3.7,9L78,53.8l3.1-7.5c0.6-1.5-0.1-3.3-1.6-3.9s-3.3,0.1-3.9,1.6l-2.2,5.3l-3.9-3.9
	c-1.2-1.2-3.1-1.2-4.2,0c-1.2,1.2-1.2,3.1,0,4.2l3.9,3.9l-5.3,2.2c-1.5,0.6-2.2,2.4-1.6,3.9c0.5,1.2,1.6,1.8,2.7,1.8
	c0.4,0,0.8-0.1,1.2-0.2l7.6-3.2l2.6,2.6l-9,3.7c-0.7,0.3-1.3,0.9-1.6,1.6c-0.3,0.7-0.3,1.5,0,2.3l3.7,9h-3.6l-3.1-7.6
	c-0.6-1.5-2.4-2.2-3.9-1.6c-1.5,0.6-2.2,2.4-1.6,3.9l2.2,5.3h-5.4c-1.6,0-2.9,1.3-2.9,2.9c0,1.6,1.3,2.9,2.9,2.9h5.5l-2.2,5.3
	c-0.6,1.5,0.1,3.3,1.6,3.9c0.4,0.2,0.7,0.2,1.2,0.2c1.2,0,2.3-0.7,2.7-1.8l3.1-7.5h3.6l-3.7,9c-0.6,1.5,0.1,3.3,1.6,3.9l9,3.7
	l-2.7,2.6l-7.5-3.1c-1.5-0.6-3.3,0.1-3.9,1.6c-0.6,1.5,0.1,3.3,1.6,3.9l5.3,2.2l-3.9,3.9c-1.2,1.2-1.2,3.1,0,4.2
	c0.6,0.6,1.3,0.9,2.1,0.9c0.7,0,1.5-0.3,2.1-0.9l3.9-3.9l2.2,5.3c0.5,1.2,1.6,1.8,2.7,1.8c0.4,0,0.8-0.1,1.2-0.2
	c1.5-0.6,2.2-2.4,1.6-3.9l-3.2-7.6l2.6-2.6l3.7,9c0.6,1.5,2.4,2.2,3.9,1.6l9-3.7v3.6l-7.6,3.1c-1.5,0.6-2.2,2.4-1.6,3.9
	c0.6,1.5,2.4,2.2,3.9,1.6l5.3-2.2v5.5c0,1.6,1.3,2.9,2.9,2.9s2.9-1.3,2.9-2.9v-5.5l5.3,2.2c0.4,0.2,0.7,0.2,1.2,0.2
	c1.2,0,2.3-0.7,2.7-1.8c0.6-1.5-0.1-3.3-1.6-3.9l-7.5-3.1v-3.6l9,3.7c0.4,0.2,0.7,0.2,1.2,0.2c1.2,0,2.3-0.7,2.7-1.8l3.7-9l2.5,2.5
	l-3.1,7.5c-0.6,1.5,0.1,3.3,1.6,3.9c0.4,0.2,0.7,0.2,1.2,0.2c1.2,0,2.3-0.7,2.7-1.8l2.2-5.3l3.9,3.9c0.6,0.6,1.3,0.9,2.1,0.9
	s1.5-0.3,2.1-0.9c1.2-1.2,1.2-3.1,0-4.2l-3.9-3.9l5.3-2.2c1.5-0.6,2.2-2.4,1.6-3.9c-0.6-1.5-2.4-2.2-3.9-1.6l-7.5,3.2l-2.6-2.6
	l9-3.7c1.5-0.6,2.2-2.4,1.6-3.9l-3.7-9h3.6l3.1,7.6c0.5,1.2,1.6,1.8,2.7,1.8c0.4,0,0.8-0.1,1.2-0.2c1.5-0.6,2.2-2.4,1.6-3.9
	l-2.2-5.3h5.5c1.6,0,2.9-1.3,2.9-2.9C149.2,78.5,147.9,77.2,146.2,77.2z M127.8,68.7l-3.5,8.5h-17l12.1-12.1L127.8,68.7z
	 M111.5,52.4l3.5,8.5L103,73V56L111.5,52.4z M88.6,52.4l8.5,3.5v17L85.1,60.9L88.6,52.4z M72.3,68.7l8.5-3.5l12.1,12.1h-17
	L72.3,68.7z M72.3,91.6l3.5-8.5h17L80.8,95.2L72.3,91.6z M88.6,107.9l-3.5-8.5l12.1-12.1v17L88.6,107.9z M111.5,107.9l-8.5-3.5v-17
	l12.1,12.1L111.5,107.9z M127.8,91.6l-8.5,3.5l-12.1-12.1h17L127.8,91.6z"/>
</svg>
