<?xml version="1.0" encoding="utf-8"?>
<!-- Generator: Adobe Illustrator 26.0.0, SVG Export Plug-In . SVG Version: 6.00 Build 0)  -->
<svg version="1.1" id="Layer_1" xmlns="http://www.w3.org/2000/svg" xmlns:xlink="http://www.w3.org/1999/xlink" x="0px" y="0px"
	 viewBox="0 0 200 200" style="enable-background:new 0 0 200 200;" xml:space="preserve">
	 <style type="text/css">
	     .primary{fill:#000000;}
	     .pinFill{fill:#FFFFFF;}
	 </style>
	 <g>
	 	<path id="pin" class="primary" d="M169.2,79.8c0-38.2-31-69.2-69.2-69.2s-69.2,31-69.2,69.2c0,14.1,4.3,27.3,11.5,38.2h0l0.1,0.2
	 		c1.6,2.4,3.3,4.6,5.2,6.8l52.4,68.2l52.4-68.2c1.9-2.2,3.6-4.4,5.2-6.8l0.1-0.2h0C165,107.1,169.2,94,169.2,79.8L169.2,79.8z"/>
	 	<path id="pinFill" class="pinFill" d="M100,143.5c-34.6,0-62.7-28.1-62.7-62.7S65.4,18.1,100,18.1s62.7,28.1,62.7,62.7
	 		S134.6,143.5,100,143.5L100,143.5z"/>
	 </g>
<path id="path2" class="primary" d="M122.5,82.9c-3.7,0-6.7,3-6.7,6.7c0,0.8,0.2,1.5,0.4,2.2l8.3-8.7C123.8,83,123.2,82.9,122.5,82.9"/>
<path id="path3" class="primary" d="M134.6,71.1c0-1.4-0.8-2.8-2.2-2.8h-12.3L113,58H99.5v29.3h13c0.5-4.4,3.2-8.8,9.1-8.9c2.3,0,4,0.6,5.6,1.7l7.4-7.9V71.1z
	 M102.4,69.7v-8.8h9.6l5.9,8.8H102.4z"/>
<path id="path4" class="primary" d="M72.4,83.1c-3.7,0-6.7,3-6.7,6.7s3,6.7,6.7,6.7c3.7,0,6.7-3,6.7-6.7S76.1,83.1,72.4,83.1"/>
<path id="path5" class="primary" d="M83.5,87.3H96l0.3-13.2H48l-0.3,13.2h13.7c1.1-4.4,5.6-8.9,11-8.9C77.8,78.4,82.4,82.9,83.5,87.3"/>
<path id="path6" class="primary" d="M95.1,60.8c0-3.2-2.6-5.7-5.7-5.7H54c-3.2,0-5.7,2.6-5.7,5.7v4.7c0,3.2,2.6,5.7,5.7,5.7h35.4c3.2,0,5.7-2.6,5.7-5.7V60.8z"
	/>
<polygon id="polygon" class="primary" points="82.9,99.5 105.2,131.3 156.3,58.4 104.1,113 "/>
</svg>
