<?xml version="1.0" encoding="utf-8"?>
<!-- Generator: Adobe Illustrator 26.0.0, SVG Export Plug-In . SVG Version: 6.00 Build 0)  -->
<svg version="1.1" id="Layer_1" xmlns="http://www.w3.org/2000/svg" xmlns:xlink="http://www.w3.org/1999/xlink" x="0px" y="0px"
	 viewBox="0 0 200 200" style="enable-background:new 0 0 200 200;" xml:space="preserve">
	 <style type="text/css">
	     .primary{fill:#000000;}
	     .pinFill{fill:#FFFFFF;}
	 </style>
	 <g>
	 	<path id="pin" class="primary" d="M169.2,79.8c0-38.2-31-69.2-69.2-69.2s-69.2,31-69.2,69.2c0,14.1,4.3,27.3,11.5,38.2h0l0.1,0.2
	 		c1.6,2.4,3.3,4.6,5.2,6.8l52.4,68.2l52.4-68.2c1.9-2.2,3.6-4.4,5.2-6.8l0.1-0.2h0C165,107.1,169.2,94,169.2,79.8L169.2,79.8z"/>
	 	<path id="pinFill" class="pinFill" d="M100,143.5c-34.6,0-62.7-28.1-62.7-62.7S65.4,18.1,100,18.1s62.7,28.1,62.7,62.7
	 		S134.6,143.5,100,143.5L100,143.5z"/>
	 </g>
<g>
	<rect id="rect1" class="primary" x="59.5" y="72.7" transform="matrix(0.7071 -0.7071 0.7071 0.7071 -25.5096 94.5982)" width="83.9" height="10.8"/>
	<polygon id="polygon1" class="primary" points="67.4,112 64.5,113.7 64.5,110 59.4,120.7 68.5,116.6 68.6,114 66.3,114.6 	"/>
	<path id="path2" class="primary" d="M139.6,42.7l-2.8-2.8c-1.3-1.3-3.2-1.7-4.1-0.7l-2.6,2.6l7.6,7.6l2.6-2.6C141.3,45.9,141,44,139.6,42.7z"/>
</g>
</svg>
