<?xml version="1.0" encoding="utf-8"?>
<!-- Generator: Adobe Illustrator 26.0.0, SVG Export Plug-In . SVG Version: 6.00 Build 0)  -->
<svg version="1.1" id="Layer_1" xmlns="http://www.w3.org/2000/svg" xmlns:xlink="http://www.w3.org/1999/xlink" x="0px" y="0px"
	 viewBox="0 0 200 200" style="enable-background:new 0 0 200 200;" xml:space="preserve">
	 <style type="text/css">
	     .primary{fill:#000000;}
	     .pinFill{fill:#FFFFFF;}
	 </style>
	 <g>
	 	<path id="pin" class="primary" d="M169.2,79.8c0-38.2-31-69.2-69.2-69.2s-69.2,31-69.2,69.2c0,14.1,4.3,27.3,11.5,38.2h0l0.1,0.2
	 		c1.6,2.4,3.3,4.6,5.2,6.8l52.4,68.2l52.4-68.2c1.9-2.2,3.6-4.4,5.2-6.8l0.1-0.2h0C165,107.1,169.2,94,169.2,79.8L169.2,79.8z"/>
	 	<path id="pinFill" class="pinFill" d="M100,143.5c-34.6,0-62.7-28.1-62.7-62.7S65.4,18.1,100,18.1s62.7,28.1,62.7,62.7
	 		S134.6,143.5,100,143.5L100,143.5z"/>
	 </g>
<g>
	<path id="path1" class="primary" d="M136.7,120.2V43c0-3-2.5-5.4-5.4-5.4h-12.1c-1-2.6-3.5-4.3-6.3-4.3h-5.4c-0.9-3.2-3.9-5.6-7.4-5.6c-3.5,0-6.5,2.3-7.4,5.6
		h-5.4c-2.8,0-5.3,1.7-6.3,4.3H68.8c-3,0-5.4,2.5-5.4,5.4v77.2c0,3,2.5,5.4,5.4,5.4h62.5C134.3,125.6,136.7,123.2,136.7,120.2z
		 M100.2,32.8c1.9,0,3.5,1.6,3.5,3.5c0,1.9-1.6,3.5-3.5,3.5c-1.9,0-3.5-1.6-3.5-3.5C96.8,34.4,98.3,32.8,100.2,32.8z M131.2,120.1
		H68.9V43.7c0-0.3,0.2-0.6,0.6-0.6h11.2c0.4,1,1.4,1.7,2.5,1.7h33.9c1.1,0,2.1-0.7,2.5-1.7h11.7C131.2,43.1,131.2,120.1,131.2,120.1
		z"/>
</g>
<g>
	<g>
		<g>
			<polygon id="polygon1" class="primary" points="124.1,60.1 87,93.8 75.4,82.2 70.9,86.7 87.3,103.1 129,64.9 			"/>
		</g>
	</g>
</g>
</svg>
