<?xml version="1.0" encoding="utf-8"?>
<!-- Generator: Adobe Illustrator 26.0.0, SVG Export Plug-In . SVG Version: 6.00 Build 0)  -->
<svg version="1.1" id="Layer_1" xmlns="http://www.w3.org/2000/svg" xmlns:xlink="http://www.w3.org/1999/xlink" x="0px" y="0px"
	 viewBox="0 0 200 200" style="enable-background:new 0 0 200 200;" xml:space="preserve">
<style type="text/css">
    .primary{fill:#000000;}
    .pinFill{fill:#FFFFFF;}
</style>
<g>
	<path id="pin" class="primary" d="M169.2,79.8c0-38.2-31-69.2-69.2-69.2s-69.2,31-69.2,69.2c0,14.1,4.3,27.3,11.5,38.2h0l0.1,0.2
		c1.6,2.4,3.3,4.6,5.2,6.8l52.4,68.2l52.4-68.2c1.9-2.2,3.6-4.4,5.2-6.8l0.1-0.2h0C165,107.1,169.2,94,169.2,79.8L169.2,79.8z"/>
	<path id="pinFill" class="pinFill" d="M100,143.5c-34.6,0-62.7-28.1-62.7-62.7S65.4,18.1,100,18.1s62.7,28.1,62.7,62.7
		S134.6,143.5,100,143.5L100,143.5z"/>
</g>
<g>
	<path id="path2" class="primary" d="M122.46,98.04H77.92c-4.73,0-8.58,3.85-8.58,8.58s3.85,8.58,8.58,8.58h44.54c4.73,0,8.58-3.85,8.58-8.58
		S127.19,98.04,122.46,98.04z M122.46,111.2H77.92c-2.53,0-4.58-2.05-4.58-4.58s2.05-4.58,4.58-4.58h44.54
		c2.53,0,4.58,2.05,4.58,4.58S124.99,111.2,122.46,111.2z"/>
	<path id="path3" class="primary" d="M151.58,113.22l-22.85-22.85c0.2-0.63,0.31-1.3,0.31-1.99c0-3.63-2.94-6.58-6.58-6.58H88.42l41.91-21.82
		c1.14-0.59,1.72-1.89,1.42-3.13c-0.31-1.25-1.42-2.13-2.71-2.13H83.81l0.33-2.71c0.33-2.73-1.8-5.13-4.55-5.13h-9.16
		c-2.75,0-4.87,2.4-4.55,5.13l1.25,10.33c0.27,2.3,2.23,4.03,4.54,4.03h6.68c2.32,0,4.27-1.73,4.54-4.03l0.25-2.04h34.52
		l-42.3,22.02l-0.01,0.01l-0.74,0.38c-0.13,0.07-0.25,0.14-0.36,0.22c-0.35,0.23-0.68,0.5-0.98,0.8c-1.19,1.19-1.93,2.83-1.93,4.65
		c0,0.4,0.04,0.78,0.1,1.16l-23.68,23.68c-0.59,0.59-0.59,1.54,0,2.12c0.29,0.3,0.67,0.44,1.06,0.44c0.38,0,0.77-0.14,1.06-0.44
		l22.88-22.88c1.2,1.52,3.07,2.5,5.16,2.5h44.54c1.82,0,3.46-0.74,4.66-1.92c0.01-0.01,0.01-0.01,0.02-0.02l22.32,22.32
		c0.29,0.3,0.68,0.44,1.06,0.44c0.39,0,0.77-0.14,1.06-0.44C152.17,114.76,152.17,113.81,151.58,113.22z"/>
</g>
</svg>
