<?xml version="1.0" encoding="utf-8"?>
<!-- Generator: Adobe Illustrator 26.0.0, SVG Export Plug-In . SVG Version: 6.00 Build 0)  -->
<svg version="1.1" id="Layer_1" xmlns="http://www.w3.org/2000/svg" xmlns:xlink="http://www.w3.org/1999/xlink" x="0px" y="0px"
	 viewBox="0 0 200 200" style="enable-background:new 0 0 200 200;" xml:space="preserve">
	 <style type="text/css">
	     .primary{fill:#000000;}
	     .pinFill{fill:#FFFFFF;}
	 </style>
	 <g>
	 	<path id="pin" class="primary" d="M169.2,79.8c0-38.2-31-69.2-69.2-69.2s-69.2,31-69.2,69.2c0,14.1,4.3,27.3,11.5,38.2h0l0.1,0.2
	 		c1.6,2.4,3.3,4.6,5.2,6.8l52.4,68.2l52.4-68.2c1.9-2.2,3.6-4.4,5.2-6.8l0.1-0.2h0C165,107.1,169.2,94,169.2,79.8L169.2,79.8z"/>
	 	<path id="pinFill" class="pinFill" d="M100,143.5c-34.6,0-62.7-28.1-62.7-62.7S65.4,18.1,100,18.1s62.7,28.1,62.7,62.7
	 		S134.6,143.5,100,143.5L100,143.5z"/>
	 </g>
<g>
	<path id="path2" class="primary" d="M156.6,77c0-5.2-3-9.7-7.3-11.9c0.5-1.5,0.8-2.9,0.8-4.6c0-7.4-6-13.3-13.3-13.3c-1.4,0-2.7,0.2-4,0.6
		c-2.9-6.1-9.2-10.4-16.4-10.4c-1.7,0-3.3,0.2-4.9,0.7c-3.1-5.4-8.9-9.1-15.7-9.1c-7.2,0-13.4,4.2-16.3,10.3
		c4.5,0.9,8.5,3.4,11.4,6.9c0.8-0.1,1.6-0.2,2.4-0.2c6.5,0,12.6,3.3,16.3,8.5c0.5,0,0.9-0.1,1.4-0.1c8.6,0,15.6,7,15.6,15.6
		c0,0.7-0.1,1.4-0.2,2.2c3.6,2.9,5.7,7.3,5.7,12.1c0,4.6-2,8.9-5.4,11.9c-0.2,3.4-1.2,6.5-2.8,9.2c2.5,1.3,5.4,2.1,8.4,2.1
		c10,0,18.1-8.1,18.1-18.1c0-0.4,0-0.8-0.1-1.1C154.1,86.1,156.6,81.8,156.6,77z"/>
	<path id="path3" class="primary" d="M128,84.5c0-4.5-2.6-8.4-6.3-10.3c0.5-1.3,0.7-2.5,0.7-4c0-6.4-5.2-11.5-11.5-11.5c0,0-0.1,0-0.1,0c0,0,0,0-0.1,0
		c-1.1,0-2.3,0.2-3.3,0.5c-2.5-5.3-7.9-9-14.2-9c0,0,0,0-0.1,0c0,0,0,0-0.1,0c-1.4,0-2.8,0.2-4.1,0.6c-2.7-4.6-7.7-7.8-13.5-7.8
		c0,0,0,0,0,0c-0.1,0-0.1,0-0.2,0c-7,0-13,4.6-14.9,11c-3.8,1.1-6.8,3.9-8.2,7.5c-5.8,2.2-9.9,7.7-9.9,14.2c0,6.3,3.9,11.8,9.4,14
		c-0.2,1-0.4,2.1-0.4,3.2c0,8.4,6.8,15.2,15.2,15.2c3.3,0,6.5-1.1,9-3l5.3,6.9l-2.1,20.3h13.3c0,0-2.1-15.8-2.3-19
		c3.4-3.4,5.4-5.4,6.6-6.6c2.8,2.5,6.5,4.1,10.5,4.1c0,0,0,0,0.1,0c0,0,0,0,0.1,0c2.2,0,4.3-0.5,6.2-1.3c0,0,0.1-0.1,0.1-0.1
		c3-1.4,5.4-3.6,7.1-6.4c0,0,0.1,0,0.1,0.1c1.4-2.3,2.2-5,2.2-7.9c0-0.4,0-0.7-0.1-1C125.9,92.3,128,88.6,128,84.5z M83.1,110.1
		l-4.8-7.3c2.1,1,4.4,1.5,6.8,1.6l0.1,0.2L83.1,110.1z M88.3,111l2.6-7.5c0.7-0.2,1.4-0.5,2-0.8c0.4,0.7,0.8,1.4,1.3,2L88.3,111z"/>
	<path id="path4" class="primary" d="M107,115.1c-1.8,0-3.6-0.3-5.4-0.8l-1.8,18.2h15.4c0,0-1.5-11.7-2.3-18.3C111,114.8,109,115.1,107,115.1z"/>
</g>
</svg>
