<?xml version="1.0" encoding="utf-8"?>
<!-- Generator: Adobe Illustrator 26.0.0, SVG Export Plug-In . SVG Version: 6.00 Build 0)  -->
<svg version="1.1" id="Layer_1" xmlns="http://www.w3.org/2000/svg" xmlns:xlink="http://www.w3.org/1999/xlink" x="0px" y="0px"
	 viewBox="0 0 200 200" style="enable-background:new 0 0 200 200;" xml:space="preserve">
	 <style type="text/css">
	     .primary{fill:#000000;}
	     .pinFill{fill:#FFFFFF;}
	 </style>
	 <g>
	 	<path id="pin" class="primary" d="M169.2,79.8c0-38.2-31-69.2-69.2-69.2s-69.2,31-69.2,69.2c0,14.1,4.3,27.3,11.5,38.2h0l0.1,0.2
	 		c1.6,2.4,3.3,4.6,5.2,6.8l52.4,68.2l52.4-68.2c1.9-2.2,3.6-4.4,5.2-6.8l0.1-0.2h0C165,107.1,169.2,94,169.2,79.8L169.2,79.8z"/>
	 	<path id="pinFill" class="pinFill" d="M100,143.5c-34.6,0-62.7-28.1-62.7-62.7S65.4,18.1,100,18.1s62.7,28.1,62.7,62.7
	 		S134.6,143.5,100,143.5L100,143.5z"/>
	 </g>
<path id="path2" class="primary" d="M143.9,49.3l-14.7-13.1c-0.9-0.8-2.1-0.8-2.8,0l0,0c-0.6,0.6-0.6,1.6-0.1,2.3l-5.4,6.7c-2,2.5-0.9,6.2,0.6,8.9l-12.1,12
	L91.4,85.3v0l-8.1,8.5l-8.8-8.3c-0.3-0.3-0.8-0.3-1.1,0l-9.9,10.4c-3.1,3.3-4.8,7.6-4.7,12.1l0.3,11.1c0,1,0.5,2,1.1,2.7l-0.1,0.1
	c0.7,0.7,1.7,1.1,2.7,1.1l11.3-0.1c2.5,0,4.9-0.6,7.1-1.6c2-0.9,3.7-2.2,5.3-3.7l9.8-10.3c0.3-0.3,0.3-0.8,0-1.1l-8.8-8.3l8.1-8.5
	l18.2-19.1h0l12-11.9c1.6,0.9,3.7,1.6,5.7,1.6c1.4,0,2.8-0.4,3.8-1.3l6.7-6.2c0.8,0.4,1.7,0.3,2.3-0.3l0,0
	C144.9,51.3,144.7,50.1,143.9,49.3z M134.4,54.9c-0.2,0.2-0.3,0.3-0.5,0.4c-0.7,0.6-1,0.9-1.7,1.1c-2.2,0.3-4.6-0.4-6.4-2
	c-2-1.7-2.3-4.3-2.4-5.7c0-1.1,0.1-1.2,0.8-2.1l4.6-5.7l10.6,9.5L134.4,54.9z"/>
</svg>
