<?xml version="1.0" encoding="utf-8"?>
<!-- Generator: Adobe Illustrator 26.0.0, SVG Export Plug-In . SVG Version: 6.00 Build 0)  -->
<svg version="1.1" id="Layer_1" xmlns="http://www.w3.org/2000/svg" xmlns:xlink="http://www.w3.org/1999/xlink" x="0px" y="0px"
	 viewBox="0 0 200 200" style="enable-background:new 0 0 200 200;" xml:space="preserve">
	 <style type="text/css">
	     .primary{fill:#000000;}
	     .pinFill{fill:#FFFFFF;}
	 </style>
	 <g>
	 	<path id="pin" class="primary" d="M169.2,79.8c0-38.2-31-69.2-69.2-69.2s-69.2,31-69.2,69.2c0,14.1,4.3,27.3,11.5,38.2h0l0.1,0.2
	 		c1.6,2.4,3.3,4.6,5.2,6.8l52.4,68.2l52.4-68.2c1.9-2.2,3.6-4.4,5.2-6.8l0.1-0.2h0C165,107.1,169.2,94,169.2,79.8L169.2,79.8z"/>
	 	<path id="pinFill" class="pinFill" d="M100,143.5c-34.6,0-62.7-28.1-62.7-62.7S65.4,18.1,100,18.1s62.7,28.1,62.7,62.7
	 		S134.6,143.5,100,143.5L100,143.5z"/>
	 </g>
<g>
	<defs>
		<path id="path2" class="primary" d="M45.6,81.4c0,31,25.1,56.2,56.2,56.2c31,0,56.2-25.1,56.2-56.2s-25.1-56.2-56.2-56.2
			C70.8,25.3,45.6,50.4,45.6,81.4"/>
	</defs>
	<clipPath id="clipPath1">
		<use xlink:href="#path2"  style="overflow:visible;"/>
	</clipPath>
	<path id="path3" class="primary" style="clip-path:url(#clipPath1);" d="M131.7,47.8
		c-17.8-17.8-46.8-17.8-64.6,0c-17.8,17.8-17.7,46.6,0.1,64.4c16.6,16.6,42.3,18.2,60.8,3.3l34.8,34.8c1.9,1.9,4.9,2,6.8,0.1
		c1.9-1.9,1.8-4.9-0.1-6.8L134.8,109C149.9,90.7,148.4,64.6,131.7,47.8 M126.3,107.1c-14.9,14.9-39.1,14.9-53.9,0
		c-14.9-14.9-14.9-39.1,0-53.9c14.9-14.9,39.1-14.9,53.9,0C141.1,68.1,141.1,92.3,126.3,107.1"/>
</g>
<path id="path4" class="primary" d="M121.9,85.6c0-8.7-5.8-16.2-14.1-19.3c0,0.1,0,0.1,0,0.2c-1.4,3.9-2.2,7.8-2.6,9c-0.3,0.9-1.1,3.2-2,3.2h-8
	c-0.9,0-1.8-2.3-2.1-3.2l-2.3-8.1c0,0,0-0.5,0-0.5c-8.2,3.1-14,10.3-14,19c0,0-4.6,1.1-4.6,2.5c0,1.4,4.4,7,27.2,7
	c0,0,19.7,0.7,28.7-7.2C129.5,85.5,121.9,85.6,121.9,85.6"/>
<path id="path5" class="primary" d="M93.9,63.8c2.2-0.6,6.3-1.4,10.7,0c0.9,0.3,1.4,1.2,1.1,2.1c-1.1,3-1.6,4.6-2,5.5c-0.2,0.6-0.9,1.1-1.5,1.1h-6.1
	c-0.7,0-1.3-0.5-1.6-1.1l-1.7-5.5C92.5,65,93,64,93.9,63.8"/>
</svg>
