<?xml version="1.0" encoding="utf-8"?>
<!-- Generator: Adobe Illustrator 26.0.0, SVG Export Plug-In . SVG Version: 6.00 Build 0)  -->
<svg version="1.1" id="Layer_1" xmlns="http://www.w3.org/2000/svg" xmlns:xlink="http://www.w3.org/1999/xlink" x="0px" y="0px"
	 viewBox="0 0 200 200" style="enable-background:new 0 0 200 200;" xml:space="preserve">
	 <style type="text/css">
	     .primary{fill:#000000;}
	     .pinFill{fill:#FFFFFF;}
	 </style>
	 <g>
	 	<path id="pin" class="primary" d="M169.2,79.8c0-38.2-31-69.2-69.2-69.2s-69.2,31-69.2,69.2c0,14.1,4.3,27.3,11.5,38.2h0l0.1,0.2
	 		c1.6,2.4,3.3,4.6,5.2,6.8l52.4,68.2l52.4-68.2c1.9-2.2,3.6-4.4,5.2-6.8l0.1-0.2h0C165,107.1,169.2,94,169.2,79.8L169.2,79.8z"/>
	 	<path id="pinFill" class="pinFill" d="M100,143.5c-34.6,0-62.7-28.1-62.7-62.7S65.4,18.1,100,18.1s62.7,28.1,62.7,62.7
	 		S134.6,143.5,100,143.5L100,143.5z"/>
	 </g>
<g>
	<path id="path2" class="primary" d="M87.4,59c0-1.2-1-2.2-2.2-2.2H49.3c-1.2,0-2.2,1-2.2,2.2s1,2.2,2.2,2.2h35.8C86.4,61.1,87.4,60.2,87.4,59z"/>
	<path id="path3" class="primary" d="M150.3,56.8h-35.8c-1.2,0-2.2,1-2.2,2.2s1,2.2,2.2,2.2h35.8c1.2,0,2.2-1,2.2-2.2S151.5,56.8,150.3,56.8z"/>
	<path id="path4" class="primary" d="M132.4,66.8h-21.6c-2.5-3.4-6.5-5.6-11-5.6s-8.5,2.2-11,5.6H67.3c-2.4,0-4.3,1.9-4.3,4.3v10.2c0,2.4,1.9,4.3,4.3,4.3
		s4.3-1.9,4.3-4.3v-5.8h14.7c0.4,7.1,6.3,12.8,13.5,12.8s13.1-5.7,13.5-12.8h14.7v5.8c0,2.4,1.9,4.3,4.3,4.3s4.3-1.9,4.3-4.3V71.1
		C136.8,68.7,134.8,66.8,132.4,66.8z"/>
	<path id="path5" class="primary" d="M84,79c-15.4,9.1-15,37.8-15,37.8h5.7c0-23.7,12.3-32.3,12.3-32.3L84,79z"/>
	<path id="path6" class="primary" d="M115.6,79l-2.9,5.5c0,0,12.3,8.6,12.3,32.3h5.7C130.7,116.8,131,88.1,115.6,79z"/>
	<path id="path7" class="primary" d="M86.6,108.2h26.6V91.7H86.6V108.2z M89.8,94.9h20v10h-20V94.9z"/>
	<path id="path8" class="primary" d="M99.8,96.4c-1.9,0-3.5,1.6-3.5,3.5c0,1.9,1.6,3.5,3.5,3.5c1.9,0,3.5-1.6,3.5-3.5C103.3,98,101.8,96.4,99.8,96.4z"/>
</g>
</svg>
