<?xml version="1.0" encoding="utf-8"?>
<!-- Generator: Adobe Illustrator 26.0.0, SVG Export Plug-In . SVG Version: 6.00 Build 0)  -->
<svg version="1.1" id="Layer_1" xmlns="http://www.w3.org/2000/svg" xmlns:xlink="http://www.w3.org/1999/xlink" x="0px" y="0px"
	 viewBox="0 0 200 200" style="enable-background:new 0 0 200 200;" xml:space="preserve">
	 <style type="text/css">
	     .primary{fill:#000000;}
	     .pinFill{fill:#FFFFFF;}
	 </style>
	 <g>
	 	<path id="pin" class="primary" d="M169.2,79.8c0-38.2-31-69.2-69.2-69.2s-69.2,31-69.2,69.2c0,14.1,4.3,27.3,11.5,38.2h0l0.1,0.2
	 		c1.6,2.4,3.3,4.6,5.2,6.8l52.4,68.2l52.4-68.2c1.9-2.2,3.6-4.4,5.2-6.8l0.1-0.2h0C165,107.1,169.2,94,169.2,79.8L169.2,79.8z"/>
	 	<path id="pinFill" class="pinFill" d="M100,143.5c-34.6,0-62.7-28.1-62.7-62.7S65.4,18.1,100,18.1s62.7,28.1,62.7,62.7
	 		S134.6,143.5,100,143.5L100,143.5z"/>
	 </g>
<g>
	<path id="path2" class="primary" d="M149.8,77.6c-2-0.7-16.1-3.7-16.1-3.7S107.7,59,104.6,59c-3.1,0-24.6,0-24.6,0c-5.2,0-9.6,4-14.7,8.6
		c-2.4,2.2-5,4.6-7.9,6.7l-10.8,1.4c-1.6,0.5-2.7,2-2.7,3.7v12.4c0,2.1,1.7,3.9,3.9,3.9h7.4c0.5,6.2,5.8,11.1,12.1,11.1
		c6.4,0,11.6-4.9,12.1-11.1h35.5c0.5,6.2,5.8,11.1,12.1,11.1c6.4,0,11.6-4.9,12.1-11.1h6.1c4.8,0,7.2-2.1,7.8-4.1
		C154.8,86.7,153.7,78.9,149.8,77.6z M67.4,101c-3.5,0-6.3-2.8-6.3-6.3s2.8-6.3,6.3-6.3c3.5,0,6.3,2.8,6.3,6.3
		C73.7,98.2,70.9,101,67.4,101z M90.8,73.8H69.7c1.5-1.2,2.9-2.5,4.3-3.7c3.4-3.1,6.4-5.8,9.9-5.8c0,0,3.2,0,7,0L90.8,73.8
		L90.8,73.8z M96,64.3c2.6,0,5,0,6.1,0c2.9,0,14.8,6.9,19.2,9.5H96V64.3L96,64.3z M127.2,101c-3.5,0-6.3-2.8-6.3-6.3
		s2.8-6.3,6.3-6.3c3.5,0,6.3,2.8,6.3,6.3C133.5,98.2,130.7,101,127.2,101z"/>
</g>
</svg>
