<?xml version="1.0" encoding="utf-8"?>
<!-- Generator: Adobe Illustrator 26.0.0, SVG Export Plug-In . SVG Version: 6.00 Build 0)  -->
<svg version="1.1" id="Layer_1" xmlns="http://www.w3.org/2000/svg" xmlns:xlink="http://www.w3.org/1999/xlink" x="0px" y="0px"
	 viewBox="0 0 200 200" style="enable-background:new 0 0 200 200;" xml:space="preserve">
<style type="text/css">
    .primary{fill:#000000;}
    .pinFill{fill:#FFFFFF;}
</style>
<g>
	<path id="pin" class="primary" d="M169.2,79.8c0-38.2-31-69.2-69.2-69.2s-69.2,31-69.2,69.2c0,14.1,4.3,27.3,11.5,38.2h0l0.1,0.2
		c1.6,2.4,3.3,4.6,5.2,6.8l52.4,68.2l52.4-68.2c1.9-2.2,3.6-4.4,5.2-6.8l0.1-0.2h0C165,107.1,169.2,94,169.2,79.8L169.2,79.8z"/>
	<path id="pinFill" class="pinFill" d="M100,143.5c-34.6,0-62.7-28.1-62.7-62.7S65.4,18.1,100,18.1s62.7,28.1,62.7,62.7
		S134.6,143.5,100,143.5L100,143.5z"/>
</g>
<g>
	<path id="number" class="primary" d="M125.23,86.01h-8.84V45.67c0-0.66-0.23-1.22-0.7-1.69c-0.46-0.46-1.03-0.7-1.69-0.7h-10.83c-1.59,0-2.82,0.56-3.68,1.69
		L70.18,85.61c-0.4,0.46-0.68,0.98-0.84,1.54c-0.17,0.56-0.25,1.04-0.25,1.44v6.76c0,0.66,0.21,1.23,0.65,1.69
		c0.43,0.46,1.01,0.7,1.74,0.7h31.5v12.72c0,0.66,0.23,1.23,0.7,1.69c0.46,0.46,1.03,0.7,1.69,0.7H114c0.66,0,1.23-0.23,1.69-0.7
		c0.46-0.46,0.7-1.03,0.7-1.69V97.73h8.94c0.66,0,1.22-0.23,1.69-0.7c0.46-0.46,0.7-1.03,0.7-1.69v-6.96c0-0.73-0.22-1.31-0.65-1.74
		C126.64,86.23,126.03,86.01,125.23,86.01z M103.27,86.41H82.9l20.37-28.72C103.27,57.69,103.27,86.41,103.27,86.41z"/>
</g>
</svg>
