<?xml version="1.0" encoding="utf-8"?>
<!-- Generator: Adobe Illustrator 26.0.0, SVG Export Plug-In . SVG Version: 6.00 Build 0)  -->
<svg version="1.1" id="Layer_1" xmlns="http://www.w3.org/2000/svg" xmlns:xlink="http://www.w3.org/1999/xlink" x="0px" y="0px"
	 viewBox="0 0 200 200" style="enable-background:new 0 0 200 200;" xml:space="preserve">
	 <style type="text/css">
	     .primary{fill:#000000;}
	     .pinFill{fill:#FFFFFF;}
	 </style>
	 <g>
	 	<path id="pin" class="primary" d="M169.2,79.8c0-38.2-31-69.2-69.2-69.2s-69.2,31-69.2,69.2c0,14.1,4.3,27.3,11.5,38.2h0l0.1,0.2
	 		c1.6,2.4,3.3,4.6,5.2,6.8l52.4,68.2l52.4-68.2c1.9-2.2,3.6-4.4,5.2-6.8l0.1-0.2h0C165,107.1,169.2,94,169.2,79.8L169.2,79.8z"/>
	 	<path id="pinFill" class="pinFill" d="M100,143.5c-34.6,0-62.7-28.1-62.7-62.7S65.4,18.1,100,18.1s62.7,28.1,62.7,62.7
	 		S134.6,143.5,100,143.5L100,143.5z"/>
	 </g>
<g>
	<g>
		<path id="path2" class="primary" d="M100.8,90.7c-0.6,0-1.1-0.2-1.6-0.6L89,80.4c-0.9-0.9-0.9-2.3-0.1-3.2c0.9-0.9,2.3-0.9,3.2-0.1l10.2,9.6
			c0.9,0.9,0.9,2.3,0.1,3.2C102,90.4,101.4,90.7,100.8,90.7z"/>
	</g>
	<g>
		<path id="path3" class="primary" d="M106.5,84.7c-0.6,0-1.1-0.2-1.6-0.6l-10.2-9.6c-0.9-0.9-0.9-2.3-0.1-3.2c0.9-0.9,2.3-0.9,3.2-0.1l10.2,9.6
			c0.9,0.9,0.9,2.3,0.1,3.2C107.7,84.4,107.1,84.7,106.5,84.7z"/>
	</g>
	<path id="path4" class="primary" d="M95,91.7c-3.2,6.6-8.5,16.8-16.1,18.9c-2.3,0.6-4.1,0.2-5.4-1.2c-1.5-1.7-1.8-4.7-0.7-7.5c1.1-2.7,3.2-5.3,6.7-8.2
		c3.1-2.5,6.7-4.8,10.6-6.7l-6.1-5.8c-0.3-0.3-0.5-0.6-0.6-0.9c-4.1,0.4-8.4,1-11.9,2.4c-5,1.9-13.8,6.1-16.7,12.7
		c-1.2,2.7-1.3,5.6-0.2,8.4c1.2,3.2,3.4,5.4,6.1,6.4c1.1,0.4,2.3,0.6,3.5,0.6c1.4,0,2.9-0.3,4.4-0.8c0.1,0.2,0.2,0.5,0.4,0.7
		c-0.1,3.3,0.5,8.5,2.3,11.4c1.7,2.7,4.6,4.6,7.9,5.3c0.8,0.2,1.6,0.2,2.4,0.2c2.4,0,4.7-0.7,6.6-2c4-2.8,5.8-7.4,7.4-12
		c1.8-5.3,3.1-11.3,3.8-17.9L95,91.7z M68.5,100.1c-0.7,1.8-1,3.6-1,5.4c-2,0.8-3.8,1-5.3,0.4c-1.5-0.6-2.7-1.8-3.5-3.8
		c-0.7-1.7-0.6-3.3,0.1-4.9C61.2,91.8,70.3,88,73,86.9c3.2-1.2,7.3-1.7,11.5-2.2c-2.9,1.6-5.5,3.4-7.9,5.4
		C72.5,93.5,69.9,96.7,68.5,100.1z M91.2,112.1c-1.3,3.8-2.8,7.7-5.7,9.7c-1.5,1.1-3.6,1.4-5.6,1c-2.1-0.4-3.9-1.6-4.9-3.2
		c-0.6-1-1.1-2.9-1.4-4.9c1,0.4,2.1,0.6,3.3,0.6c1,0,2-0.1,3.1-0.4c5.7-1.5,10-6.1,13.4-11.1C92.8,106.7,92.1,109.5,91.2,112.1z"/>
	<path id="path5" class="primary" d="M103.1,69.6c3.4-6.5,8.9-16.6,16.6-18.5c2.3-0.6,4.1-0.1,5.3,1.3c1.5,1.8,1.7,4.7,0.5,7.5c-1.1,2.7-3.3,5.2-6.9,8
		c-3.1,2.4-6.8,4.6-10.7,6.4l6,5.9c0.3,0.3,0.5,0.6,0.6,0.9c4.1-0.3,8.4-0.8,12-2.1c5-1.8,14-5.8,17-12.3c1.3-2.7,1.4-5.5,0.3-8.4
		c-1.2-3.2-3.2-5.5-6-6.5c-1.1-0.4-2.3-0.7-3.5-0.7c-1.4,0-2.9,0.2-4.4,0.7c-0.1-0.2-0.2-0.5-0.3-0.7c0.2-3.3-0.3-8.5-2-11.4
		c-1.6-2.7-4.5-4.7-7.7-5.4c-0.8-0.2-1.6-0.3-2.4-0.3c-2.4-0.1-4.7,0.6-6.6,1.9c-4.1,2.7-6,7.3-7.6,11.8c-1.9,5.2-3.3,11.2-4.2,17.8
		L103.1,69.6z M129.7,61.8c0.8-1.8,1.1-3.6,1.1-5.3c2-0.8,3.9-0.9,5.4-0.3c1.5,0.6,2.7,1.9,3.4,3.9c0.6,1.7,0.6,3.3-0.2,4.9
		c-2.5,5.3-11.7,9-14.4,9.9c-3.2,1.1-7.4,1.6-11.5,1.9c2.9-1.6,5.6-3.3,8.1-5.2C125.6,68.3,128.2,65.2,129.7,61.8z M107.4,49.2
		c1.4-3.8,3-7.6,5.9-9.6c1.6-1,3.6-1.4,5.6-0.9c2.1,0.5,3.8,1.7,4.8,3.4c0.6,1,1.1,2.9,1.3,4.9c-1-0.4-2.1-0.6-3.3-0.6
		c-1,0-2,0.1-3.1,0.3c-5.7,1.4-10.2,5.9-13.7,10.8C105.6,54.6,106.4,51.8,107.4,49.2z"/>
</g>
</svg>
