<?xml version="1.0" encoding="utf-8"?>
<!-- Generator: Adobe Illustrator 26.0.0, SVG Export Plug-In . SVG Version: 6.00 Build 0)  -->
<svg version="1.1" id="Layer_1" xmlns="http://www.w3.org/2000/svg" xmlns:xlink="http://www.w3.org/1999/xlink" x="0px" y="0px"
	 viewBox="0 0 200 200" style="enable-background:new 0 0 200 200;" xml:space="preserve">
	 <style type="text/css">
	     .primary{fill:#000000;}
	     .pinFill{fill:#FFFFFF;}
	 </style>
	 <g>
	 	<path id="pin" class="primary" d="M169.2,79.8c0-38.2-31-69.2-69.2-69.2s-69.2,31-69.2,69.2c0,14.1,4.3,27.3,11.5,38.2h0l0.1,0.2
	 		c1.6,2.4,3.3,4.6,5.2,6.8l52.4,68.2l52.4-68.2c1.9-2.2,3.6-4.4,5.2-6.8l0.1-0.2h0C165,107.1,169.2,94,169.2,79.8L169.2,79.8z"/>
	 	<path id="pinFill" class="pinFill" d="M100,143.5c-34.6,0-62.7-28.1-62.7-62.7S65.4,18.1,100,18.1s62.7,28.1,62.7,62.7
	 		S134.6,143.5,100,143.5L100,143.5z"/>
	 </g>
<path id="path2" class="primary" d="M114.3,72l-3.6-7.2c-0.3-0.7-1.1-1.1-1.8-1.1v-4.1H144c1.1,0,2.1-0.9,2.1-2.1c0-1.1-0.9-2.1-2.1-2.1h-35.2v-2.1
	c0-1.1-0.9-2.1-2.1-2.1c-1.1,0-2.1,0.9-2.1,2.1v2.1H69.6c-1.1,0-2.1,0.9-2.1,2.1c0,1.1,0.9,2.1,2.1,2.1h35.2v4.1h-2.1
	c-0.6,0-1.1,0.2-1.5,0.6l-7.7,7.7H62.3c-0.8-1.4-2-2.5-3.4-3.2l-3.9-7.8c-0.5-1-1.7-1.4-2.7-1l-4.2,1.8c-1,0.4-1.5,1.5-1.1,2.6
	l2.1,6.2c-1.3,1.5-2.2,3.4-2.2,5.6c0,3.1,1.7,5.7,4.1,7.2v3.2c0,1.1,0.9,2.1,2.1,2.1h2.1c0.8,0,1.5-0.4,1.8-1.1l2-3.9
	c1.3-0.7,2.5-1.7,3.2-3c7.7,1.4,19.4,4.3,22.3,7.2l0.1,0.3c3.9,7.7,8.8,17.2,18.1,17.2H113v4.1H94.4c-1.1,0-2.1,0.9-2.1,2.1
	c0,1.1,0.9,2.1,2.1,2.1l20.5,0c0.1,0,0.1,0,0.2,0c0.1,0,0.1,0,0.2,0l16.1,0c0.1,0,0.2,0,0.3,0c0.1,0,0.2,0,0.3,0l4.2,0
	c0.8-0.1,7.5-1.2,9.8-5.2c0.6-1,0.2-2.3-0.8-2.8s-2.3-0.2-2.8,0.8c-1,1.8-5,2.8-6.5,3.1h-2.1v-4.2c7.2-0.7,12.4-4.9,12.4-10.2
	c0,0,0,0,0,0c0,0,0,0,0,0C146.1,88.4,132.1,72.7,114.3,72z M141.2,92.6h-15.8c-2.8,0-5.2-1.8-5.9-4.4l-3.6-12
	C128.9,77.5,138.6,87.7,141.2,92.6z M117.2,109.2V105h12.4v4.1H117.2z"/>
</svg>
