<?xml version="1.0" encoding="utf-8"?>
<!-- Generator: Adobe Illustrator 26.0.0, SVG Export Plug-In . SVG Version: 6.00 Build 0)  -->
<svg version="1.1" id="Layer_1" xmlns="http://www.w3.org/2000/svg" xmlns:xlink="http://www.w3.org/1999/xlink" x="0px" y="0px"
	 viewBox="0 0 200 200" style="enable-background:new 0 0 200 200;" xml:space="preserve">
	 <style type="text/css">
	     .primary{fill:#000000;}
	     .pinFill{fill:#FFFFFF;}
	 </style>
	 <g>
	 	<path id="pin" class="primary" d="M169.2,79.8c0-38.2-31-69.2-69.2-69.2s-69.2,31-69.2,69.2c0,14.1,4.3,27.3,11.5,38.2h0l0.1,0.2
	 		c1.6,2.4,3.3,4.6,5.2,6.8l52.4,68.2l52.4-68.2c1.9-2.2,3.6-4.4,5.2-6.8l0.1-0.2h0C165,107.1,169.2,94,169.2,79.8L169.2,79.8z"/>
	 	<path id="pinFill" class="pinFill" d="M100,143.5c-34.6,0-62.7-28.1-62.7-62.7S65.4,18.1,100,18.1s62.7,28.1,62.7,62.7
	 		S134.6,143.5,100,143.5L100,143.5z"/>
	 </g>
<path id="path2" class="primary" d="M139.09,48.07c-5.8-0.75-12.37,3.12-16.78,6.48c-4.06,3.09-7.4,7.12-10.4,11.22c-3.22,4.39-6.18,9.17-8.62,14.07
	c-0.37-1.34-1.6-2.32-3.06-2.32c-1.46,0-2.68,0.98-3.06,2.32c-2.44-4.91-5.4-9.69-8.62-14.08c-3-4.09-6.34-8.13-10.4-11.22
	c-4.42-3.36-10.98-7.23-16.78-6.48c-7.93,1.03-2.26,13.04-1.45,17.06c0.74,3.62,0.92,7.09,0.92,10.76c0,1.77,0,3.66,0.55,5.36
	c0.96,2.99,2.98,4.7,5.68,5.59c-1.78,0.57-3.65,1.46-4.39,3.16c-0.5,1.16-0.25,2.47-0.14,3.68c0.17,1.84,0.12,3.72,0.41,5.55
	c0.27,1.68,0.9,3.19,1.64,4.64l4.57,12.96c0.12,0.41,0.26,0.81,0.42,1.2c0.15,0.36,0.33,0.72,0.54,1.06
	c1.44,2.36,5.17,2.79,7.62,2.45c3.42-0.48,6.56-2.33,9.14-4.58c4.86-4.25,8.24-10.26,9.88-16.5c0.5,1.48,1.76,2.78,3.21,3.04
	c0.03,0.04,0.07,0.06,0.13,0.06c0.07,0,0.13-0.01,0.2-0.02c0.02,0,0.05,0.01,0.07,0.01c0.04,0,0.07-0.01,0.1-0.03
	c1.46-0.25,2.74-1.57,3.24-3.05c1.64,6.25,5.02,12.26,9.88,16.5c2.58,2.25,5.72,4.1,9.14,4.58c2.45,0.34,6.18-0.08,7.62-2.45
	c0.61-1,0.96-2.12,1.22-3.28l4.85-13.06c0.3-0.68,0.57-1.37,0.78-2.09l0-0.01c0.13-0.46,0.24-0.93,0.32-1.41
	c0.29-1.83,0.24-3.71,0.41-5.55c0.11-1.2,0.36-2.52-0.14-3.68c-0.73-1.7-2.61-2.58-4.39-3.16c2.7-0.89,4.73-2.6,5.68-5.59
	c0.54-1.7,0.54-3.6,0.55-5.36c0.01-3.67,0.19-7.15,0.92-10.76C141.35,61.12,147.02,49.11,139.09,48.07"/>
</svg>
