<?xml version="1.0" encoding="utf-8"?>
<!-- Generator: Adobe Illustrator 26.0.0, SVG Export Plug-In . SVG Version: 6.00 Build 0)  -->
<svg version="1.1" id="Layer_1" xmlns="http://www.w3.org/2000/svg" xmlns:xlink="http://www.w3.org/1999/xlink" x="0px" y="0px"
	 viewBox="0 0 200 200" style="enable-background:new 0 0 200 200;" xml:space="preserve">
<style type="text/css">
    .primary{fill:#000000;}
    .pinFill{fill:#FFFFFF;}
</style>
<g>
	<path id="pin" class="primary" d="M169.2,79.8c0-38.2-31-69.2-69.2-69.2s-69.2,31-69.2,69.2c0,14.1,4.3,27.3,11.5,38.2h0l0.1,0.2
		c1.6,2.4,3.3,4.6,5.2,6.8l52.4,68.2l52.4-68.2c1.9-2.2,3.6-4.4,5.2-6.8l0.1-0.2h0C165,107.1,169.2,94,169.2,79.8L169.2,79.8z"/>
	<path id="pinFill" class="pinFill" d="M100,143.5c-34.6,0-62.7-28.1-62.7-62.7S65.4,18.1,100,18.1s62.7,28.1,62.7,62.7
		S134.6,143.5,100,143.5L100,143.5z"/>
</g>
<g>
	<path id="number" class="primary" d="M74.11,112.83c-0.73,0-1.33-0.25-1.79-0.75s-0.7-1.08-0.7-1.74V45.76c0-0.73,0.23-1.32,0.7-1.79
		c0.46-0.46,1.06-0.7,1.79-0.7h30.31c5.7,0,10.37,0.79,14.01,2.38s6.34,3.86,8.1,6.81c1.75,2.95,2.63,6.44,2.63,10.48
		c0,2.38-0.45,4.49-1.34,6.31s-1.99,3.33-3.28,4.52s-2.5,2.05-3.63,2.58c2.52,1.19,4.75,3.15,6.71,5.86
		c1.95,2.72,2.93,5.9,2.93,9.54c0,4.37-0.98,8.13-2.93,11.28c-1.95,3.15-4.8,5.57-8.54,7.25c-3.74,1.69-8.33,2.53-13.76,2.53H74.11
		V112.83z M89.51,70.9h12.92c2.72,0,4.75-0.71,6.11-2.14c1.36-1.42,2.04-3.2,2.04-5.32c0-2.12-0.68-3.86-2.04-5.22
		s-3.4-2.04-6.11-2.04H89.51V70.9z M89.51,99.91h13.81c2.85,0,5-0.83,6.46-2.48c1.46-1.66,2.19-3.54,2.19-5.66
		c0-2.32-0.75-4.27-2.24-5.86c-1.49-1.59-3.63-2.38-6.41-2.38H89.51V99.91z"/>
</g>
</svg>
