<?xml version="1.0" encoding="utf-8"?>
<!-- Generator: Adobe Illustrator 26.0.0, SVG Export Plug-In . SVG Version: 6.00 Build 0)  -->
<svg version="1.1" id="Layer_1" xmlns="http://www.w3.org/2000/svg" xmlns:xlink="http://www.w3.org/1999/xlink" x="0px" y="0px"
	 viewBox="0 0 200 200" style="enable-background:new 0 0 200 200;" xml:space="preserve">
	 <style type="text/css">
	     .primary{fill:#000000;}
	     .pinFill{fill:#FFFFFF;}
	 </style>
	 <g>
	 	<path id="pin" class="primary" d="M169.2,79.8c0-38.2-31-69.2-69.2-69.2s-69.2,31-69.2,69.2c0,14.1,4.3,27.3,11.5,38.2h0l0.1,0.2
	 		c1.6,2.4,3.3,4.6,5.2,6.8l52.4,68.2l52.4-68.2c1.9-2.2,3.6-4.4,5.2-6.8l0.1-0.2h0C165,107.1,169.2,94,169.2,79.8L169.2,79.8z"/>
	 	<path id="pinFill" class="pinFill" d="M100,143.5c-34.6,0-62.7-28.1-62.7-62.7S65.4,18.1,100,18.1s62.7,28.1,62.7,62.7
	 		S134.6,143.5,100,143.5L100,143.5z"/>
	 </g>
<g>
	<path id="path2" class="primary" d="M146.3,76.8c0-20.2-20.9-36.6-46.6-36.6C74,40.2,53,56.6,53,76.8C53,97,74,113.5,99.7,113.5c5.3,0,10.3-0.7,15.1-2
		l-0.6,0.3c0,0,2.2,12.1,16.2,13.2c-4.8-8.4-3.2-16.8-2.7-18.9C139,99.4,146.3,88.8,146.3,76.8z M99.7,109.5
		C76.1,109.5,57,94.9,57,76.8c0-18,19.2-32.7,42.7-32.7c23.6,0,42.7,14.7,42.7,32.7C142.4,94.9,123.3,109.5,99.7,109.5z"/>
	<polygon id="polygon1" class="primary" points="110.4,68.9 103,67.8 99.7,61.1 96.4,67.8 89,68.9 94.3,74.1 93.1,81.5 99.7,78 106.3,81.5 105.1,74.1 	"/>
	<polygon id="polygon2" class="primary" points="123.9,76 120.6,69.3 117.3,76 109.9,77 115.2,82.3 114,89.6 120.6,86.1 127.2,89.6 126,82.3 131.3,77 	"/>
	<polygon id="polygon3" class="primary" points="82.1,76 78.8,69.3 75.5,76 68.1,77 73.4,82.3 72.2,89.6 78.8,86.1 85.4,89.6 84.2,82.3 89.5,77 	"/>
</g>
</svg>
