<?xml version="1.0" encoding="utf-8"?>
<!-- Generator: Adobe Illustrator 26.0.2, SVG Export Plug-In . SVG Version: 6.00 Build 0)  -->
<svg version="1.1" id="Layer_1" xmlns="http://www.w3.org/2000/svg" xmlns:xlink="http://www.w3.org/1999/xlink" x="0px" y="0px"
	 viewBox="0 0 200 200" style="enable-background:new 0 0 200 200;" xml:space="preserve">
	 <style type="text/css">
	     .primary{fill:#000000;}
	     .pinFill{fill:#FFFFFF;}
	 </style>
	 <g>
	 	<path id="pin" class="primary" d="M169.2,79.8c0-38.2-31-69.2-69.2-69.2s-69.2,31-69.2,69.2c0,14.1,4.3,27.3,11.5,38.2h0l0.1,0.2
	 		c1.6,2.4,3.3,4.6,5.2,6.8l52.4,68.2l52.4-68.2c1.9-2.2,3.6-4.4,5.2-6.8l0.1-0.2h0C165,107.1,169.2,94,169.2,79.8L169.2,79.8z"/>
	 	<path id="pinFill" class="pinFill" d="M100,143.5c-34.6,0-62.7-28.1-62.7-62.7S65.4,18.1,100,18.1s62.7,28.1,62.7,62.7
	 		S134.6,143.5,100,143.5L100,143.5z"/>
	 </g>
<g>
	<path id="path" class="primary" d="M132.4,91.5c0,0-5.8-19.2,1.7-27.3c0,0-10.7,2.2-14.7,12c0.2-5.3-0.3-11.2-8.5-19.8c0,0-16.5-9.1-6.8-22.1
		c0,0-42.9,8-28,52.2c0,0-11-2.7-9.7-19.2c0,0-9,46.3,29.4,61.7c-23-17.9-16.6-31.8-16.6-31.8c-0.8,10.5,6.2,12.2,6.2,12.2
		c-9.4-28,16.2-36.9,16.2-36.9c-6.2,8.3,5,16.6,5,16.6c5.2,5.5,6.3,10.4,6.2,13.8c2.5-6.3,9.3-7.6,9.3-7.6
		c-4.7,5.1-1.1,17.3-1.1,17.3c0.2,1.8-0.1,3.6-0.5,5.2C127.4,110.6,133.2,101.4,132.4,91.5z"/>
</g>
</svg>
