<?xml version="1.0" encoding="utf-8"?>
<!-- Generator: Adobe Illustrator 26.0.0, SVG Export Plug-In . SVG Version: 6.00 Build 0)  -->
<svg version="1.1" id="Layer_1" xmlns="http://www.w3.org/2000/svg" xmlns:xlink="http://www.w3.org/1999/xlink" x="0px" y="0px"
	 viewBox="0 0 200 200" style="enable-background:new 0 0 200 200;" xml:space="preserve">
	 <style type="text/css">
	     .primary{fill:#000000;}
	     .pinFill{fill:#FFFFFF;}
	 </style>
	 <g>
	 	<path id="pin" class="primary" d="M169.2,79.8c0-38.2-31-69.2-69.2-69.2s-69.2,31-69.2,69.2c0,14.1,4.3,27.3,11.5,38.2h0l0.1,0.2
	 		c1.6,2.4,3.3,4.6,5.2,6.8l52.4,68.2l52.4-68.2c1.9-2.2,3.6-4.4,5.2-6.8l0.1-0.2h0C165,107.1,169.2,94,169.2,79.8L169.2,79.8z"/>
	 	<path id="pinFill" class="pinFill" d="M100,143.5c-34.6,0-62.7-28.1-62.7-62.7S65.4,18.1,100,18.1s62.7,28.1,62.7,62.7
	 		S134.6,143.5,100,143.5L100,143.5z"/>
	 </g>
<g>
	<polygon id="polygon1" class="primary" points="126.5,48.6 118,40.9 79.5,40.9 79.5,56.2 118,56.2 	"/>
	<rect id="rect1" class="primary" x="96" y="59.1" width="4.9" height="38.8"/>
	<rect id="rect2" class="primary" x="96" y="33.9" width="4.9" height="4.9"/>
	<path id="path2" class="primary" d="M119.6,82.1c1.4-0.8,3.1-1.5,4.7-2.1c3.3-1.1,6.6-1.8,9.7-2.4c6.2-1.1,11.4-1.6,15.1-2c3.7-0.3,5.8-0.4,5.8-0.4
		s-2.1-0.2-5.8-0.3c-3.7-0.1-9-0.3-15.4,0c-3.2,0.2-6.7,0.5-10.4,1.2c-1.9,0.4-3.8,0.9-5.8,1.7c-1,0.4-2,0.9-3.1,1.7
		c-1,0.8-2.2,1.9-2.7,3.9c-0.2,1-0.2,2,0.1,2.9c0.3,0.9,0.7,1.6,1.2,2.2c0.9,1.2,2,2,3,2.7c2.1,1.4,4.2,2.2,6.5,3
		c1.1,0.3,1.9,0.6,2.8,1c0.9,0.3,1.6,0.8,2.4,1.2c0.7,0.4,1.3,0.9,1.8,1.4c0.4,0.4,0.7,0.9,0.6,1c0,0.2-0.2-0.1-0.3-0.2
		c-0.1-0.1-0.2,0.1-0.6,0.3c-0.7,0.6-2.1,1.3-3.6,1.8c-1.5,0.5-3.3,0.9-4.8,1.1l-1.4,0.2l-0.4,0.1l-0.1,0l0,0c-0.1,0,0.1,0,0.1,0
		l-0.2,0l-0.7,0.1c-0.9,0.1-1.8,0.2-2.7,0.2c-1.2,0.1-2.4,0.1-3.6,0.1L72.7,103l-12.2,20.1l13.8-1.1c0.2,0,0.5,0,0.9-0.1
		c1-0.1,2.5-0.2,4.4-0.3c3.8-0.3,9.2-0.8,15.7-1.6c3.3-0.4,6.8-0.9,10.5-1.5c3.7-0.6,7.7-1.3,11.8-2.4c1-0.2,2.1-0.6,3.2-0.8
		l0.8-0.2l0.2-0.1c0,0,0.2-0.1,0.2,0l0,0l0.1,0l0.4-0.1l1.6-0.5c2.4-0.8,4.5-1.7,6.8-3c2.2-1.3,4.5-2.9,6.6-5.5c1-1.3,2-3.1,2.3-5.2
		c0.4-2.2-0.2-4.6-1.3-6.3c-1.1-1.7-2.4-2.8-3.6-3.6c-1.2-0.8-2.5-1.3-3.7-1.8c-1.2-0.4-2.4-0.8-3.5-1c-1.2-0.3-2.3-0.4-3.3-0.6
		c-1.8-0.3-3.6-0.8-5-1.5c-0.7-0.3-1.3-0.7-1.7-1.1c-0.2-0.2-0.3-0.3-0.3-0.3c-0.1-0.1-0.1,0-0.1,0c-0.1,0,0-0.5,0.5-0.9
		C118.3,83,118.9,82.5,119.6,82.1z"/>
</g>
</svg>
