<?xml version="1.0" encoding="utf-8"?>
<!-- Generator: Adobe Illustrator 26.0.0, SVG Export Plug-In . SVG Version: 6.00 Build 0)  -->
<svg version="1.1" id="Layer_1" xmlns="http://www.w3.org/2000/svg" xmlns:xlink="http://www.w3.org/1999/xlink" x="0px" y="0px"
	 viewBox="0 0 200 200" style="enable-background:new 0 0 200 200;" xml:space="preserve">
	 <style type="text/css">
	     .primary{fill:#000000;}
	     .pinFill{fill:#FFFFFF;}
	 </style>
	 <g>
	 	<path id="pin" class="primary" d="M169.2,79.8c0-38.2-31-69.2-69.2-69.2s-69.2,31-69.2,69.2c0,14.1,4.3,27.3,11.5,38.2h0l0.1,0.2
	 		c1.6,2.4,3.3,4.6,5.2,6.8l52.4,68.2l52.4-68.2c1.9-2.2,3.6-4.4,5.2-6.8l0.1-0.2h0C165,107.1,169.2,94,169.2,79.8L169.2,79.8z"/>
	 	<path id="pinFill" class="pinFill" d="M100,143.5c-34.6,0-62.7-28.1-62.7-62.7S65.4,18.1,100,18.1s62.7,28.1,62.7,62.7
	 		S134.6,143.5,100,143.5L100,143.5z"/>
	 </g>
<g>
	<path id="path2" class="primary" d="M85.5,85.6"/>
	<g>
		<g>
			<path id="path3" class="primary" d="M121.7,40.1c0,0-0.6-1.2-2.2-2.1c-2-1.1-3.4-1.1-3.4-1.1s2-4.5,2.9-5.7c1-1.4,2.7-1.7,4.4-0.7c1.9,1,1.9,2.8,1.4,3.9"/>
		</g>
		<path id="path4" class="primary" d="M111.5,40.1c-7.1,0-12.8,5.7-12.8,12.8c0,7.1,5.7,12.8,12.8,12.8s12.8-5.7,12.8-12.8C124.4,45.8,118.6,40.1,111.5,40.1z
			 M111.8,57.1c-2.3,0-4.1-1.8-4.1-4.1s1.8-4.1,4.1-4.1c2.3,0,4.1,1.8,4.1,4.1S114.1,57.1,111.8,57.1z"/>
		<path id="path5" class="primary" d="M133.4,87.6l-0.6-5.3c0,0-5.7,1.7-12.8,2.7c0.6-9.7,1-18,1-18s-2.2,1.2-3.8,1.7c-1.6,0.5-5.1,1-5.1,1s-0.3,8.4-0.6,12
			l-0.3,4.1c-3.9,0.1-7.7-0.3-10.9-1.3c-2.5-0.8-4.8-2-6.9-3.4l2.5-4.1c1.8-3,6.3-10.1,6.3-10.1s-2.6-1.9-3.8-3.2
			c-1.3-1.5-2.4-4-2.4-4s-4.3,7.1-9.4,15.4c-4.7-5.2-7.2-10.3-7.2-10.3L75,69.4c0,0,2.8,5.7,8.2,11.3c-6.2,10.2-12.4,20.3-12.5,20.5
			l-5.4,15l1.1,0.4l-1.1,3.2l2.9,0.9l1.6-2.9l1.1,0.4l0.6-0.9c0.1-0.1,7.5-12.1,10.8-17.7l7.7-13c2.2,1.5,4.7,2.8,7.4,3.7
			c4.2,1.4,8.8,1.9,13.3,1.8l-1.3,16c-0.5,6.5-1.4,20.6-1.4,20.7l-0.1,1.1l1.2,0.3l-0.3,3.3l2.9,0.9l1-3.3l1.2,0.3l4.3-15.1l0-0.3
			c0-0.2,0.7-12.6,1.4-24.9C127.5,89.9,133.4,87.6,133.4,87.6z"/>
	</g>
</g>
</svg>
