<?xml version="1.0" encoding="utf-8"?>
<!-- Generator: Adobe Illustrator 26.0.0, SVG Export Plug-In . SVG Version: 6.00 Build 0)  -->
<svg version="1.1" id="Layer_1" xmlns="http://www.w3.org/2000/svg" xmlns:xlink="http://www.w3.org/1999/xlink" x="0px" y="0px"
	 viewBox="0 0 200 200" style="enable-background:new 0 0 200 200;" xml:space="preserve">
<style type="text/css">
    .primary{fill:#000000;}
    .pinFill{fill:#FFFFFF;}
</style>
<g>
	<path id="pin" class="primary" d="M169.2,79.8c0-38.2-31-69.2-69.2-69.2s-69.2,31-69.2,69.2c0,14.1,4.3,27.3,11.5,38.2h0l0.1,0.2
		c1.6,2.4,3.3,4.6,5.2,6.8l52.4,68.2l52.4-68.2c1.9-2.2,3.6-4.4,5.2-6.8l0.1-0.2h0C165,107.1,169.2,94,169.2,79.8L169.2,79.8z"/>
	<path id="pinFill" class="pinFill" d="M100,143.5c-34.6,0-62.7-28.1-62.7-62.7S65.4,18.1,100,18.1s62.7,28.1,62.7,62.7
		S134.6,143.5,100,143.5L100,143.5z"/>
</g>
<g>
	<g>
		<path id="path2" class="primary" d="M126.35,83.2l-17.57,13.98c-1.82,1.41-4.54,0.14-4.54-2.18v-4.68c0-1.5-1-2.81-2.5-2.81H73.83c-1.5,0-2.72-1.09-2.72-2.63
			v-7.35c0-1.45,1.23-2.72,2.72-2.72h27.92c1.5,0,2.5-1.18,2.5-2.68v-4.68c0-2.27,2.72-3.54,4.49-2.13l17.52,13.62
			C127.71,79.98,127.76,82.11,126.35,83.2z"/>
	</g>
	<g>
		<path id="path3" class="primary" d="M54.16,72.37l37.38-37.38c4.53-4.53,11.89-4.53,16.42,0l37.38,37.38c4.53,4.53,4.53,11.89,0,16.42l-37.38,37.38
			c-4.53,4.53-11.89,4.53-16.42,0L54.16,88.79c-2.26-2.26-3.4-5.24-3.4-8.21C50.76,77.61,51.9,74.64,54.16,72.37z M142,75.71
			l-37.38-37.38c-2.69-2.69-7.06-2.69-9.75,0L57.5,75.71c-2.69,2.69-2.68,7.06,0,9.74l37.38,37.38c2.69,2.69,7.06,2.69,9.75,0
			L142,85.45c1.34-1.34,2.01-3.11,2.01-4.87C144.02,78.82,143.35,77.05,142,75.71z"/>
	</g>
</g>
</svg>
