<?xml version="1.0" encoding="utf-8"?>
<!-- Generator: Adobe Illustrator 26.0.0, SVG Export Plug-In . SVG Version: 6.00 Build 0)  -->
<svg version="1.1" id="Layer_1" xmlns="http://www.w3.org/2000/svg" xmlns:xlink="http://www.w3.org/1999/xlink" x="0px" y="0px"
	 viewBox="0 0 200 200" style="enable-background:new 0 0 200 200;" xml:space="preserve">
	 <style type="text/css">
	     .primary{fill:#000000;}
	     .pinFill{fill:#FFFFFF;}
	 </style>
	 <g>
	 	<path id="pin" class="primary" d="M169.2,79.8c0-38.2-31-69.2-69.2-69.2s-69.2,31-69.2,69.2c0,14.1,4.3,27.3,11.5,38.2h0l0.1,0.2
	 		c1.6,2.4,3.3,4.6,5.2,6.8l52.4,68.2l52.4-68.2c1.9-2.2,3.6-4.4,5.2-6.8l0.1-0.2h0C165,107.1,169.2,94,169.2,79.8L169.2,79.8z"/>
	 	<path id="pinFill" class="pinFill" d="M100,143.5c-34.6,0-62.7-28.1-62.7-62.7S65.4,18.1,100,18.1s62.7,28.1,62.7,62.7
	 		S134.6,143.5,100,143.5L100,143.5z"/>
	 </g>
<g>
	<polygon id="polygon1" class="primary" points="84.3,46.2 84.3,50.2 142.1,50.2 142.1,94.6 87,94.6 87,98.6 146.2,98.6 146.2,46.2 	"/>
	<polygon id="polygon2" class="primary" points="113.1,105.3 124.3,120.1 130,120.1 118.8,105.3 	"/>
	<polygon id="polygon3" class="primary" points="93.4,120.1 99.1,120.1 110.3,105.3 104.6,105.3 	"/>
	<circle id="circle1" class="primary" cx="70.3" cy="51.8" r="8.8"/>
	<path id="path2" class="primary" d="M107.2,67c0-1.9-1.5-3.4-3.4-3.4H81.3h-5.2H61.5v23.2v6.2v23.7c0,1.9,1.5,3.4,3.4,3.4c1.9,0,3.4-1.5,3.4-3.4V93.2h5.4v22.8
		c0,2.2,1.8,4,4,4c2.2,0,4-1.8,4-4v-23v-6.2V70.4h22.2C105.7,70.4,107.2,68.9,107.2,67z"/>
	<path id="path3" class="primary" d="M51.9,71v20.6c0,2,1.6,3.6,3.6,3.6c2,0,3.6-1.6,3.6-3.6V63.7C55.1,63.7,51.9,66.9,51.9,71z"/>
</g>
</svg>
