<?xml version="1.0" encoding="utf-8"?>
<!-- Generator: Adobe Illustrator 26.0.0, SVG Export Plug-In . SVG Version: 6.00 Build 0)  -->
<svg version="1.1" id="Layer_1" xmlns="http://www.w3.org/2000/svg" xmlns:xlink="http://www.w3.org/1999/xlink" x="0px" y="0px"
	 viewBox="0 0 200 200" style="enable-background:new 0 0 200 200;" xml:space="preserve">
	 <style type="text/css">
	     .primary{fill:#000000;}
	     .pinFill{fill:#FFFFFF;}
	 </style>
	 <g>
	 	<path id="pin" class="primary" d="M169.2,79.8c0-38.2-31-69.2-69.2-69.2s-69.2,31-69.2,69.2c0,14.1,4.3,27.3,11.5,38.2h0l0.1,0.2
	 		c1.6,2.4,3.3,4.6,5.2,6.8l52.4,68.2l52.4-68.2c1.9-2.2,3.6-4.4,5.2-6.8l0.1-0.2h0C165,107.1,169.2,94,169.2,79.8L169.2,79.8z"/>
	 	<path id="pinFill" class="pinFill" d="M100,143.5c-34.6,0-62.7-28.1-62.7-62.7S65.4,18.1,100,18.1s62.7,28.1,62.7,62.7
	 		S134.6,143.5,100,143.5L100,143.5z"/>
	 </g>
<path id="path2" class="primary" d="M126.6,89.6c-3.9,0-7.1,3.2-7.1,7.1c0,3.9,3.2,7.1,7.1,7.1c3.9,0,7.1-3.2,7.1-7.1C133.7,92.8,130.5,89.6,126.6,89.6"/>
<path id="path3" class="primary" d="M137.1,74.5h-13l-7.7-10.7h-14.2v30.6H116c0.5-4.4,3.4-9.3,9.6-9.5c6.5-0.1,10.4,5.1,10.9,9.5h3.2V77.1
	C139.7,75.6,138.6,74.5,137.1,74.5 M105.8,75.6V66h9.7l6.3,9.6H105.8z"/>
<path id="path4" class="primary" d="M73.6,89.8c-3.9,0-7.1,3.2-7.1,7.1c0,3.9,3.2,7.1,7.1,7.1s7.1-3.2,7.1-7.1C80.7,93,77.5,89.8,73.6,89.8"/>
<path id="path5" class="primary" d="M98.8,80.9l-0.3,13.5H85.2C84.1,89,79.3,85,73.6,85C67.8,85,63,89,61.9,94.4H47.4l0.3-13.5H98.8z"/>
<path id="path6" class="primary" d="M91.1,78.1H50.4c-1.3,0-2.3-1-2.3-2.3V62.9c0-1.3,1-2.3,2.3-2.3h44.5c1.3,0,2.3,1,2.3,2.3v9.1
	C97.2,75.4,94.4,78.1,91.1,78.1"/>
<g>
	<path id="path7" class="primary" d="M154.8,104.3c-0.6,0-1.2-0.3-1.6-0.8l-9.6-13.3c-0.2-0.3-0.4-0.8-0.4-1.2V70.6c0-1.1,0.9-2,2-2s2,0.9,2,2v17.8l9.2,12.7
		c0.7,0.9,0.4,2.2-0.5,2.8C155.6,104.2,155.2,104.3,154.8,104.3z"/>
</g>
</svg>
