<?xml version="1.0" encoding="utf-8"?>
<!-- Generator: Adobe Illustrator 26.0.0, SVG Export Plug-In . SVG Version: 6.00 Build 0)  -->
<svg version="1.1" id="Layer_1" xmlns="http://www.w3.org/2000/svg" xmlns:xlink="http://www.w3.org/1999/xlink" x="0px" y="0px"
	 viewBox="0 0 200 200" style="enable-background:new 0 0 200 200;" xml:space="preserve">
	 <style type="text/css">
	     .primary{fill:#000000;}
	     .pinFill{fill:#FFFFFF;}
	 </style>
	 <g>
	 	<path id="pin" class="primary" d="M169.2,79.8c0-38.2-31-69.2-69.2-69.2s-69.2,31-69.2,69.2c0,14.1,4.3,27.3,11.5,38.2h0l0.1,0.2
	 		c1.6,2.4,3.3,4.6,5.2,6.8l52.4,68.2l52.4-68.2c1.9-2.2,3.6-4.4,5.2-6.8l0.1-0.2h0C165,107.1,169.2,94,169.2,79.8L169.2,79.8z"/>
	 	<path id="pinFill" class="pinFill" d="M100,143.5c-34.6,0-62.7-28.1-62.7-62.7S65.4,18.1,100,18.1s62.7,28.1,62.7,62.7
	 		S134.6,143.5,100,143.5L100,143.5z"/>
	 </g>
<g>
	<path id="path2" class="primary" d="M136,111.6c7-8.3,11.3-19,11.3-30.8c0-26.3-21.4-47.7-47.7-47.7S52,54.5,52,80.8s21.4,47.7,47.7,47.7
		c11.7,0,22.5-4.3,30.8-11.3 M99.6,120.5c-21.9,0-39.7-17.8-39.7-39.7c0-21.9,17.8-39.7,39.7-39.7c21.9,0,39.7,17.8,39.7,39.7
		C139.3,102.7,121.5,120.5,99.6,120.5z"/>
	<path id="path3" class="primary" d="M114.3,55.3c-1.9-1.1-4.3-0.4-5.4,1.4l-6.8,11.8c-2.2-0.4-4-0.2-4.9,0l-6.8-11.8c-1.1-1.9-3.5-2.5-5.4-1.4
		c-9.1,5.2-14.7,15-14.7,25.5c0,2.2,1.8,4,4,4h13.7c0.5,1.6,1.4,3,2.5,4.3l-6.8,11.8c-1.1,1.9-0.4,4.3,1.4,5.4
		c12.9,7.5,25.1,2.5,29.4,0c1.9-1.1,2.5-3.5,1.4-5.4L108.9,89c1.1-1.2,1.9-2.7,2.5-4.3h13.7c2.2,0,4-1.8,4-4
		C129,70.3,123.4,60.6,114.3,55.3z M87.8,76.8h-9.3c0.9-4.8,3.4-9.2,7.1-12.3l4.7,8.1c0,0,0,0,0,0C89.2,73.8,88.3,75.3,87.8,76.8z
		 M99.6,76.3c2.5,0,4.5,2,4.5,4.5c0,2.5-2,4.5-4.5,4.5c-2.5,0-4.5-2-4.5-4.5C95.1,78.3,97.1,76.3,99.6,76.3z M92.5,101.1l4.7-8.1
		c1,0.2,2.8,0.4,4.9,0l4.7,8.1C101.8,102.8,96.7,102.6,92.5,101.1z M111.4,76.8c-0.5-1.6-1.4-3-2.5-4.3c0,0,0,0,0,0l4.7-8.1
		c3.7,3.2,6.2,7.6,7.1,12.3H111.4z"/>
</g>
</svg>
