<?xml version="1.0" encoding="utf-8"?>
<!-- Generator: Adobe Illustrator 26.0.0, SVG Export Plug-In . SVG Version: 6.00 Build 0)  -->
<svg version="1.1" id="Layer_1" xmlns="http://www.w3.org/2000/svg" xmlns:xlink="http://www.w3.org/1999/xlink" x="0px" y="0px"
	 viewBox="0 0 200 200" style="enable-background:new 0 0 200 200;" xml:space="preserve">
	 <style type="text/css">
	     .primary{fill:#000000;}
	     .pinFill{fill:#FFFFFF;}
	 </style>
	 <g>
	 	<path id="pin" class="primary" d="M169.2,79.8c0-38.2-31-69.2-69.2-69.2s-69.2,31-69.2,69.2c0,14.1,4.3,27.3,11.5,38.2h0l0.1,0.2
	 		c1.6,2.4,3.3,4.6,5.2,6.8l52.4,68.2l52.4-68.2c1.9-2.2,3.6-4.4,5.2-6.8l0.1-0.2h0C165,107.1,169.2,94,169.2,79.8L169.2,79.8z"/>
	 	<path id="pinFill" class="pinFill" d="M100,143.5c-34.6,0-62.7-28.1-62.7-62.7S65.4,18.1,100,18.1s62.7,28.1,62.7,62.7
	 		S134.6,143.5,100,143.5L100,143.5z"/>
	 </g>
<path id="path2" class="primary" d="M54.8,89.7v6.9c2.3-2.2,5.3-3.5,8.4-3.6c3.3-0.1,6.7,1.2,9.2,3.6c1.2,1.1,2.1,2.5,2.8,3.9h2.2L69,89.7H54.8z"/>
<path id="path3" class="primary" d="M73.4,80.8c0,0,1.4-2.8,0-5.2H58.8l-4.1-16.8c0,0-3.3-3-5.7,0l4.9,22H73.4z"/>
<path id="path4" class="primary" d="M63.2,93.8c-6.4,0.2-12,6-11.8,12.4c0.2,6.7,5.6,11.9,12.4,11.8c6.5,0,11.8-5.7,11.7-12.4C75.5,99.1,69.8,93.6,63.2,93.8z"
	/>
<path id="path5" class="primary" d="M81.4,62.1c0.6,0.7,1.7,0.7,2.4,0.1L95,51.7c0.7-0.6,0.7-1.7,0.1-2.4c-0.6-0.7-1.7-0.7-2.4-0.1L81.4,59.7
	C80.7,60.4,80.7,61.4,81.4,62.1L81.4,62.1z"/>
<path id="path6" class="primary" d="M139.8,92.8c3.5-0.1,6.9,1.3,9.3,3.7c0.1-0.2,0.3-0.4,0.4-0.6c0.8-1.1,1.7-2.1,2.2-3.4c0.5-1.5,0.1-2.7-0.2-4.2
	c-0.3-1.4-0.5-2.8-0.8-4.3c-0.9-4.5-1.3-9.6-3.1-13.8c-1.3-3.1-3.4-4.2-6.6-4.7c-5.8-0.8-11.5-1.6-17.3-2.5
	c-7.6-1.1-14.1-2.2-21.6-3.2l-9.9,9.9l8.8,20.1H78.6L71,81.7H49.1c-3.3,3.5,0,7.2,0,7.2h20.5L78,100c4.6,0,9.2,0,13.8,0
	c9.4,0,18.7,0,28.1,0c2.9,0,5.9,0,8.8,0C130.8,95.9,135.1,93,139.8,92.8z"/>
<path id="path7" class="primary" d="M139.8,93.9c-6.4,0.2-12,6-11.8,12.4c0.2,6.7,5.6,11.9,12.4,11.8c6.5,0,11.8-5.7,11.7-12.4
	C152.1,99.1,146.4,93.7,139.8,93.9z"/>
<polygon id="polygon1" class="primary" points="99.8,89.2 98.5,86.2 76.5,86.2 79.4,89.2 "/>
<polygon id="polygon2" class="primary" points="85.7,62.2 90.9,62.2 94.1,65.4 97.7,61.9 94.7,58.9 95,52.9 92.9,55 92.8,57 91.8,56 88.3,59.6 88.9,60.2
	87.7,60.2 "/>
</svg>
