<?xml version="1.0" encoding="utf-8"?>
<!-- Generator: Adobe Illustrator 26.0.0, SVG Export Plug-In . SVG Version: 6.00 Build 0)  -->
<svg version="1.1" id="Layer_1" xmlns="http://www.w3.org/2000/svg" xmlns:xlink="http://www.w3.org/1999/xlink" x="0px" y="0px"
	 viewBox="0 0 200 200" style="enable-background:new 0 0 200 200;" xml:space="preserve">
	 <style type="text/css">
	     .primary{fill:#000000;}
	     .pinFill{fill:#FFFFFF;}
	 </style>
	 <g>
	 	<path id="pin" class="primary" d="M169.2,79.8c0-38.2-31-69.2-69.2-69.2s-69.2,31-69.2,69.2c0,14.1,4.3,27.3,11.5,38.2h0l0.1,0.2
	 		c1.6,2.4,3.3,4.6,5.2,6.8l52.4,68.2l52.4-68.2c1.9-2.2,3.6-4.4,5.2-6.8l0.1-0.2h0C165,107.1,169.2,94,169.2,79.8L169.2,79.8z"/>
	 	<path id="pinFill" class="pinFill" d="M100,143.5c-34.6,0-62.7-28.1-62.7-62.7S65.4,18.1,100,18.1s62.7,28.1,62.7,62.7
	 		S134.6,143.5,100,143.5L100,143.5z"/>
	 </g>
<g>
	<path id="path2" class="primary" d="M53.9,76.3h44.4c3.7,0,6.6-3,6.6-6.6v-6.6c0-3.7-3-6.6-6.6-6.6H53.9c-3.7,0-6.6,3-6.6,6.6v6.6
		C47.2,73.3,50.2,76.3,53.9,76.3z"/>
	<ellipse id="ellipse1" class="primary" transform="matrix(0.7071 -0.7071 0.7071 0.7071 -46.2719 82.8684)" cx="76.9" cy="97.3" rx="8.8" ry="8.8"/>
	<circle id="circle1" class="primary" cx="136.3" cy="97.3" r="8.8"/>
	<path id="path3" class="primary" d="M134.1,72.3l-8.3-12.1h-16.9v35.5h16c0.2-6.1,5.2-10.9,11.4-10.9s11.1,4.9,11.4,10.9h4.6V72.3H134.1z M113.3,73.4V62.9
		h11.1l6.7,10.4H113.3z"/>
	<path id="path4" class="primary" d="M47,95.6h18.5c0.2-6.1,5.2-10.9,11.4-10.9c6.1,0,11.1,4.9,11.4,10.9h17V78.7H47V95.6z"/>
</g>
</svg>
