<?xml version="1.0" encoding="utf-8"?>
<!-- Generator: Adobe Illustrator 26.0.2, SVG Export Plug-In . SVG Version: 6.00 Build 0)  -->
<svg version="1.1" id="Layer_1" xmlns="http://www.w3.org/2000/svg" xmlns:xlink="http://www.w3.org/1999/xlink" x="0px" y="0px"
	 viewBox="0 0 200 200" style="enable-background:new 0 0 200 200;" xml:space="preserve">
<path id="path2" d="M161.5,168c-5.3,0.5-8-0.6-8-0.6s0.5-1.1-0.2-1.9c-0.6-0.8-2.7,0-7.3-2.4c-4.8-2.4-6.7-7.2-6.7-7.2
	s1.1,0.2,3.5,1.6c2.2,1.4,3.7,1.1,4.6,0.6c1-0.2-0.2-1.8,0.6-1.8c1.1,0,3.2,2.1,4.9,1.9c1.9,0,2.2-0.2,2.9-0.6
	c0.5-0.5,1.8-1,2.7-1.6c1-0.5,1.6-2.9-0.5-1.9c-2.1,0.6-4.5-1.6-7.5-3c-3.2-1.6-4.6-3.7-4.6-3.7s1.8,0,3.8-0.3
	c2.1-0.3,3-2.7,1.4-2.9c-1.6-0.2-4.8-1.9-7.3-3.8c-2.9-1.9-5.9-4.5-9.1-6.5c3.2-0.3,5.7,0.3,7,1.3c1.3,1,2.1,1,3.7-0.2
	c3.2,0,4.1-1.6,4.1-2.2c0-1-1.4-1.1-2.1-1.1s-1.8-0.6-3.3-1.4c-1.3-1.3-4-3.7-4-3.7s-0.3-2.7-1.9-4.6c-1.4-1.9-3.3-1.6-4.8-3.7
	c1.4,1.3,4.8,0.2,4.8,0.2s2.7,1.8,4.8,1.9c2.1,0.2,3.7,0,4.5-1.1c0.8-1.1,0-1.8-1.3-1.9c-0.2-0.6-1.3-0.6-2.4-1.6
	c-0.5-1.3-2.2-1.9-2.4-2.4c-0.3-0.3-1.8-2.2-3.7-3.2c-1.9-1-3.2-2.4-3.2-2.4s3.2,1.4,4.1,1.4c1,0,1.8,0.2,2.4-0.6
	c1.1,0,1.4-0.6,1.3-1.4c-0.2-0.6-1.3-0.5-1.6-1.1c-0.3-0.5-1.8-0.6-3.3-1.9c-1.8-1.3-1.9-3.3-1.9-3.3s5.4,0,5.9-0.3s0.5-1.1,0.5-1.8
	c0-1-0.3-1.4-1.8-1.4c-1.3,0-1-0.6-1.9-1.3c-1-0.5-1.4-0.3-2.1-1.3c-1-1-1.6-1.6-2.7-1.9c-1.1-0.5-1.8-1.4-2.9-3.2
	c1-0.5,0.6-1.4,0.6-1.4s1.9,0,2.7,0c1,0,1.9,0.2,2.9-1s0.2-2.4-1-2.7c-1.1-0.2-2.4-0.3-3.7-1.8c-1.1-1.4-2.4-2.1-3.3-3
	c-1-1-1.8-0.6-2.7-1.6c-1-1-1.6-2.7-1.6-2.7s3,1.4,4,1.6c1.1,0.2,1.3,0.3,3.7,1.4c2.4,1.1,3.5,0.6,3.7,0c0.3-0.6-0.3-1.4-1.3-2.1
	c-1-0.6-1.8-1.8-3.3-2.4c-1.6-0.6-2.2-2.4-2.2-2.4s0.5-0.3,1.8-0.2c1.1,0.2,2.2,0.2,2.4-0.6c0.3-1-0.2-1.4-1.6-2.1
	c-1.4-0.6-2.9-2.1-4.1-2.7c-1.4-0.6-1.1-1.1-3.3-2.7c-2.2-1.6-5.9-6.2-5.9-6.2s1,0.3,1.8,0.6c1.1,0.3,1.3,0,3.2-0.2
	c1.9-0.2,1.9-0.3,2.2-1.6c0.3-1.3-2.1-2.7-3.8-3.7c-1.8-1.1-1.8-1.9-2.4-3.5c-0.6-1.4-2.4-1.8-4-4.6c1.6,0.6,3.5,0.5,3.8-1
	c0.5-1.4-1.6-3.3-5.1-6.7c1.3,0.6,3.2,0.3,3-1.3c-0.2-1.6-5.9-3.3-6.4-5.4c-0.3-2.2-1.3-2.2-1.6-4.6c-0.3-2.2-2.7-3-2.7-6.7
	s-1.3-7.7-2.1-7.7c-0.8,0-2.1,4-2.1,7.7s-2.2,4.5-2.7,6.7c-0.3,2.2-1.3,2.2-1.6,4.6c-0.3,2.2-6.4,3.8-6.4,5.4
	c-0.2,1.6,1.8,1.9,3,1.3c-3.5,3.5-5.4,5.4-5.1,6.7c0.5,1.4,2.2,1.6,3.8,1c-1.4,2.9-3.3,3.2-4,4.6s-0.6,2.2-2.4,3.5
	c-1.8,1.1-4.1,2.4-3.8,3.7c0.3,1.3,0.2,1.4,2.2,1.6c1.9,0.2,2.1,0.5,3.2,0.2c1.1-0.3,1.8-0.6,1.8-0.6s-3.7,4.6-5.9,6.2
	c-2.2,1.6-2.1,1.9-3.3,2.7c-1.4,0.6-2.9,1.9-4.1,2.7c-1.4,0.6-1.8,1.3-1.6,2.1c0.3,1,1.4,1,2.4,0.6c1.1-0.2,1.8,0.2,1.8,0.2
	s-0.6,1.9-2.2,2.7c-1.6,0.6-2.4,1.8-3.3,2.4c-1,0.6-1.6,1.6-1.3,2.1c0.3,0.6,1.4,1.1,3.7,0c2.4-1.1,2.7-1.3,3.7-1.4
	c1.1-0.2,4-1.6,4-1.6s-0.6,1.8-1.6,2.7s-1.8,0.6-2.7,1.6c-1,1-2.2,1.6-3.3,3c-1.1,1.4-2.4,1.6-3.7,1.8c-1.1,0.2-1.8,1.6-1,2.7
	c1,1.1,1.9,1,2.9,1s2.7,0,2.7,0s-0.2,1,0.6,1.4c-1,1.9-1.8,2.7-2.9,3.2c-1.1,0.5-1.8,1.1-2.7,1.9c-1,1-1.3,0.6-2.1,1.3
	c-1,0.5-0.5,1.1-1.9,1.3c-1.3,0-1.6,0.5-1.8,1.4c0,1,0,1.4,0.5,1.8c0.5,0.3,5.9,0.3,5.9,0.3s-0.3,2.2-1.9,3.3
	c-1.8,1.3-3,1.3-3.3,1.9c-0.3,0.5-1.4,0.2-1.6,1.1c-0.2,0.6,0.2,1.4,1.3,1.4c1,0.6,1.4,0.6,2.4,0.6c1.1,0,4.1-1.4,4.1-1.4
	s-1.4,1.6-3.2,2.4c-1.9,1-3.3,2.7-3.7,3.2c-0.3,0.3-2.1,1.3-2.4,2.4c-1.3,1-2.2,1-2.4,1.6c-1.3,0.2-1.8,0.6-1.3,1.9
	c0.5,1.3,2.2,1.3,4.5,1.1c2.1-0.2,4.8-1.9,4.8-1.9s3.3,1.1,4.8-0.2c-1.4,2.1-3.3,1.8-4.8,3.7c-1.4,1.9-1.9,4.6-1.9,4.6s-3,2.4-4,3.7
	c-1.6,0.6-2.7,1.4-3.3,1.4s-2.1,0.2-2.1,1.1c0,1,1.1,2.4,4.1,2.2c1.6,1.1,2.4,1.1,3.7,0.2s3.8-1.4,7-1.3c-3.2,2.1-6.5,4.6-9.1,6.5
	c-2.9,1.9-5.7,3.7-7.3,3.8c-1.6,0.2-0.6,2.4,1.4,2.9c2.1,0.3,3.8,0.3,3.8,0.3s-1.4,2.1-4.6,3.7c-3.2,1.6-5.4,3.8-7.5,3
	c-2.1-0.6-1.4,1.4-0.5,1.9c1,0.5,2.1,1,2.7,1.6c0.5,0.5,1,0.5,2.9,0.6c1.9,0,4-1.9,4.9-1.9c1.1,0,0,1.4,0.6,1.8
	c1,0.2,2.2,0.5,4.6-0.6c2.2-1.4,3.5-1.6,3.5-1.6s-1.9,4.8-6.7,7.2c-4.8,2.4-6.7,1.6-7.3,2.4c-0.6,1-0.2,1.9-0.2,1.9s-2.7,1.1-8,0.6
	c-5.3-0.5-0.6,2.4-0.2,3c0.6,0.5,3.8,2.1,5.6,2.4c1.8,0.2,6.2,1.1,6.2,1.1s-2.9,2.4-2.2,3.7c0.3,1.3,4.5,0.3,6.9,0
	c2.4-0.3,6.2-0.3,8.9-2.9c-2.2,2.1-2.9,3.2-1.9,3.7c1.1,0.6,6.9,0.3,10.5-1c-1.6,2.1-1.4,2.9-0.3,3.5c1.1,0.6,9.1,0,9.1,0
	s-1,1.3-0.2,1.8c0.8,0.5,8.3-0.5,9.9-1.9L99,191h11l-0.3-9.2c1.6,1.3,9.1,2.4,9.9,1.9c0.8-0.5-0.2-1.8-0.2-1.8s8.3,0.6,9.1,0
	c1.1-0.6,1.3-1.4-0.3-3.5c3.7,1.1,9.4,1.4,10.5,1c1.1-0.6,0.5-1.8-1.9-3.7c2.9,2.4,6.5,2.4,8.9,2.9c2.4,0.3,6.5,1.3,6.9,0
	c0.3-1.3-2.2-3.7-2.2-3.7s4.5-0.6,6.2-1.1c1.8-0.2,4.9-1.9,5.6-2.4C162.5,170.6,166.8,167.6,161.5,168z"/>
</svg>
