<?xml version="1.0" encoding="utf-8"?>
<!-- Generator: Adobe Illustrator 26.0.2, SVG Export Plug-In . SVG Version: 6.00 Build 0)  -->
<svg version="1.1" id="Layer_1" xmlns="http://www.w3.org/2000/svg" xmlns:xlink="http://www.w3.org/1999/xlink" x="0px" y="0px"
	 viewBox="0 0 200 200" style="enable-background:new 0 0 200 200;" xml:space="preserve">
<path id="path2" d="M183,143.8v-32.9c0-22.8-19.7-41.2-43.6-41.2H124c-3.6-6.6-9.7-11.7-16.9-14V44h3.4c3.1,0,5.7-2.6,5.7-5.7
	s-2.6-5.7-5.7-5.7H86.1c-3.1,0-5.7,2.6-5.7,5.7S83,44,86.1,44h3.4v11.7c-7.2,2.2-13.4,7.4-16.9,14H57.3c-24.1,0-43.6,18.4-43.6,41.2
	v32.9c-3.6,0.9-6.4,4.1-6.4,7.9c0,4.5,3.6,8.3,8.3,8.3h24.5c4.5,0,8.3-3.6,8.3-8.3c0-4-2.8-7.2-6.4-7.9v-32.9
	c0-7.2,7.1-13.1,15.7-13.1H73c5,9.1,14.7,15.3,25.7,15.3s20.7-6.2,25.7-15.3h15.3c8.6,0,15.7,5.9,15.7,13.1v32.9
	c-3.6,0.9-6.4,4.1-6.4,7.9c0,4.5,3.6,8.3,8.3,8.3h24.5c4.5,0,8.3-3.6,8.3-8.3C189.5,147.9,186.8,144.7,183,143.8z"/>
</svg>
