<?xml version="1.0" encoding="utf-8"?>
<!-- Generator: Adobe Illustrator 26.0.2, SVG Export Plug-In . SVG Version: 6.00 Build 0)  -->
<svg version="1.1" id="Layer_1" xmlns="http://www.w3.org/2000/svg" xmlns:xlink="http://www.w3.org/1999/xlink" x="0px" y="0px"
	 viewBox="0 0 200 200" style="enable-background:new 0 0 200 200;" xml:space="preserve">
<g>
	<path id="path1" class="primary" d="M53.4,63.9c0,2.8,2.4,5.2,5.2,5.2H139c2.8,0,5.2-2.4,5.2-5.2c0-2.8-2.4-5.2-5.2-5.2H58.9
		C56.1,58.8,53.4,61.1,53.4,63.9z"/>
	<path id="path2" class="primary" d="M139.2,89.1H58.9c-3,0-5.2,2.4-5.2,5.2c0,3,2.4,5.2,5.2,5.2h80.3c2.8,0,5.2-2.4,5.2-5.2
		C144.6,91.4,142,89.1,139.2,89.1z"/>
	<path id="path3" class="primary" d="M139.2,119.5H58.9c-3,0-5.2,2.4-5.2,5.2c0,2.8,2.4,5.2,5.2,5.2h80.3c2.8,0,5.2-2.4,5.2-5.2
		C144.6,121.9,142,119.5,139.2,119.5z"/>
	<path id="path4" class="primary" d="M139.2,150H58.9c-3,0-5.2,2.4-5.2,5.2c0,2.8,2.4,5.2,5.2,5.2h80.3c2.8,0,5.2-2.4,5.2-5.2
		C144.6,152.4,142,150,139.2,150z"/>
	<path id="path5" class="primary" d="M167.6,180.9V36.3c0-5.6-4.7-10.1-10.1-10.1h-22.7c-1.9-4.9-6.6-8.1-11.8-8.1H113c-1.7-6-7.3-10.5-13.9-10.5
		S86.9,12,85.3,18.2H75.1c-5.2,0-9.9,3.2-11.8,8.1H40.5c-5.6,0-10.1,4.7-10.1,10.1v144.5c0,5.6,4.7,10.1,10.1,10.1h117
		C163.1,191,167.6,186.5,167.6,180.9z M99.3,17.2c3.6,0,6.6,3,6.6,6.6s-3,6.6-6.6,6.6c-3.6,0-6.6-3-6.6-6.6
		C92.9,20.2,95.7,17.2,99.3,17.2z M157.3,180.7H40.7v-143c0-0.6,0.4-1.1,1.1-1.1h21c0.7,1.9,2.6,3.2,4.7,3.2h63.5
		c2.1,0,3.9-1.3,4.7-3.2h21.9C157.3,36.5,157.3,180.7,157.3,180.7z"/>
</g>
</svg>
