<?xml version="1.0" encoding="utf-8"?>
<!-- Generator: Adobe Illustrator 26.0.2, SVG Export Plug-In . SVG Version: 6.00 Build 0)  -->
<svg version="1.1" id="Layer_1" xmlns="http://www.w3.org/2000/svg" xmlns:xlink="http://www.w3.org/1999/xlink" x="0px" y="0px"
	 viewBox="0 0 200 200" style="enable-background:new 0 0 200 200;" xml:space="preserve">
<g>
	<path id="path1" d="M170.4,180.8V35.5c0-5.6-4.7-10.2-10.2-10.2h-22.8c-1.9-4.9-6.6-8.1-11.9-8.1h-10.2c-1.7-6-7.3-10.5-13.9-10.5
		c-6.6,0-12.2,4.3-13.9,10.5H77.4c-5.3,0-10,3.2-11.9,8.1h-23c-5.6,0-10.2,4.7-10.2,10.2v145.3c0,5.6,4.7,10.2,10.2,10.2h117.7
		C165.9,191,170.4,186.5,170.4,180.8z M101.7,16.3c3.6,0,6.6,3,6.6,6.6s-3,6.6-6.6,6.6s-6.6-3-6.6-6.6
		C95.3,19.3,98.1,16.3,101.7,16.3z M160,180.6H42.8V36.8c0-0.6,0.4-1.1,1.1-1.1H65c0.8,1.9,2.6,3.2,4.7,3.2h63.8
		c2.1,0,4-1.3,4.7-3.2h22C160,35.7,160,180.6,160,180.6z"/>
</g>
<g>
	<g>
		<g>
			<polygon id="polygon1" points="146.7,67.7 76.8,131.1 55,109.3 46.5,117.8 77.4,148.6 155.9,76.7 			"/>
		</g>
	</g>
</g>
</svg>
