<?xml version="1.0" encoding="utf-8"?>
<!-- Generator: Adobe Illustrator 26.0.2, SVG Export Plug-In . SVG Version: 6.00 Build 0)  -->
<svg version="1.1" id="Layer_1" xmlns="http://www.w3.org/2000/svg" xmlns:xlink="http://www.w3.org/1999/xlink" x="0px" y="0px"
	 viewBox="0 0 200 200" style="enable-background:new 0 0 200 200;" xml:space="preserve">
<path id="path2" class="primary" d="M154.4,10.7H45.2c-4.1,0-7.3,3.2-7.3,7.3c0,3.7,2.7,6.7,6.2,7.3v11.7c0,2.5,2.1,4.6,4.6,4.6s4.6-2.1,4.6-4.6
	V25.4h2.1c0.2,0.2,0.2,0.2,0.4,0.4l36.6,29.4v94v9.2v24.4c0,4.1,3.2,7.3,7.3,7.3c4.1,0,7.3-3.2,7.3-7.3v-35.6V138V55.1l36.6-29.4
	c0.2-0.2,0.2-0.2,0.4-0.4h2.1v11.5c0,2.5,2.1,4.6,4.6,4.6c2.7,0,4.6-2.1,4.6-4.6V25.2c3.5-0.5,6.2-3.5,6.2-7.3
	C161.6,13.9,158.4,10.7,154.4,10.7z M70.3,25.4h22.1v17.7L70.3,25.4z M107.1,43.1V25.4h22.1L107.1,43.1z"/>
</svg>
