<?xml version="1.0" encoding="utf-8"?>
<!-- Generator: Adobe Illustrator 26.0.2, SVG Export Plug-In . SVG Version: 6.00 Build 0)  -->
<svg version="1.1" id="Layer_1" xmlns="http://www.w3.org/2000/svg" xmlns:xlink="http://www.w3.org/1999/xlink" x="0px" y="0px"
	 viewBox="0 0 200 200" style="enable-background:new 0 0 200 200;" xml:space="preserve">
<path id="path2" class="primary" d="M172.4,168.8v-157H157h-0.2H42.8H31.6H27v157h-7.5V188h67.1v-15v-4.4v-37.5h26.7v37.5v4.4v15h67.1v-19.2H172.4z
	 M42.8,35.8h25v33.1h-25V35.8z M42.8,80.3h25v33.9h-25V80.3z M42.8,125.7h25v33.9h-25V125.7z M132,35.8h24.8v33.1H132V35.8z
	 M132,80.3h24.8v33.9H132V80.3z M132,125.7h24.8v33.9H132V125.7z M86.6,35.8h26.7v33.1H86.6V35.8z M86.6,114.3V80.3h26.7v33.9H86.6z
	"/>
</svg>
