<?xml version="1.0" encoding="utf-8"?>
<!-- Generator: Adobe Illustrator 26.0.2, SVG Export Plug-In . SVG Version: 6.00 Build 0)  -->
<svg version="1.1" id="Layer_1" xmlns="http://www.w3.org/2000/svg" xmlns:xlink="http://www.w3.org/1999/xlink" x="0px" y="0px"
	 viewBox="0 0 200 200" style="enable-background:new 0 0 200 200;" xml:space="preserve">
<g>
	<path id="path2" d="M82.5,135.8c-1.4,0-2.6-0.5-3.5-1.4c-0.9-0.9-1.4-2.1-1.4-3.5c0-0.9,0-2.1,0-3.1c0-0.9,0-1.9,0-2.8
		c0.9-5.9,3.1-11.3,5.9-16.3c3.1-5,6.4-9.2,10.4-13.4c4-4,7.8-8,11.6-11.6c3.8-3.5,6.8-7.1,9.7-10.6c2.6-3.5,4-7.1,4.2-10.6
		c0.2-3.8-0.5-6.8-2.1-9.4s-4.2-4.5-7.3-5.9c-3.1-1.4-6.6-2.1-10.1-2.1c-6.8,0-12.3,1.7-16,5c-4,3.3-6.6,8-8.5,14.4
		c-0.5,1.9-1.4,3.3-2.6,4.5c-1.2,1.2-3.1,1.7-5.4,1.7H36c-1.7,0-3.1-0.7-4.2-1.9c-1.2-1.2-1.9-2.8-1.9-5c0.2-6.8,1.9-13.4,5-19.8
		c3.1-6.4,7.8-12.3,13.7-17.7c6.1-5.4,13.4-9.7,22.6-12.7c9-3.1,19.6-4.7,31.4-4.7c12.7,0,23.3,1.4,31.8,4.5s15.1,7.1,19.8,12
		c5,5,8.3,10.1,10.4,15.6c2.1,5.4,3.1,10.6,2.8,15.3c-0.2,6.1-1.7,11.6-3.8,16.5c-2.1,5-5,9.4-8.3,13.7c-3.3,4.2-6.8,8.3-10.4,12
		c-3.8,3.8-7.1,7.5-10.1,11.6s-5.4,7.8-6.8,12c-0.2,1.2-0.7,2.4-0.9,3.5s-0.7,2.4-0.7,3.5c-0.9,2.1-2.1,3.8-3.3,5s-2.6,1.7-4.7,1.7
		H82.5V135.8z M82.9,190c-1.9,0-3.3-0.7-4.5-1.9s-1.9-2.8-1.9-4.5v-29c0-1.7,0.7-3.3,1.9-4.5s2.8-1.9,4.5-1.9h32.5
		c1.9,0,3.5,0.7,4.7,1.9c1.2,1.2,1.9,2.8,1.9,4.5v29c0,1.7-0.7,3.3-1.9,4.5c-1.2,1.2-2.8,1.9-4.7,1.9H82.9z"/>
</g>
</svg>
