<?xml version="1.0" encoding="utf-8"?>
<!-- Generator: Adobe Illustrator 26.0.2, SVG Export Plug-In . SVG Version: 6.00 Build 0)  -->
<svg version="1.1" id="Layer_1" xmlns="http://www.w3.org/2000/svg" xmlns:xlink="http://www.w3.org/1999/xlink" x="0px" y="0px"
	 viewBox="0 0 200 200" style="enable-background:new 0 0 200 200;" xml:space="preserve">
<g>
	<path id="path2" class="primary" d="M183.4,88.9c-3.3-1.1-26.3-6-26.3-6s-42.4-24.3-47.5-24.3c-5.1,0-40.1,0-40.1,0c-8.5,0-15.7,6.5-24,14
		c-3.9,3.6-8.2,7.5-12.9,10.9l-17.6,2.3c-2.6,0.8-4.4,3.3-4.4,6v20.2c0,3.4,2.8,6.4,6.4,6.4h12.1c0.8,10.1,9.5,18.1,19.7,18.1
		c10.4,0,18.9-8,19.7-18.1h57.9c0.8,10.1,9.5,18.1,19.7,18.1c10.4,0,18.9-8,19.7-18.1h9.9c7.8,0,11.7-3.4,12.7-6.7
		C191.6,103.8,189.8,91.1,183.4,88.9z M49,127.1c-5.7,0-10.3-4.6-10.3-10.3c0-5.7,4.6-10.3,10.3-10.3s10.3,4.6,10.3,10.3
		C59.3,122.5,54.7,127.1,49,127.1z M87.2,82.7H52.8c2.4-2,4.7-4.1,7-6c5.5-5.1,10.4-9.5,16.1-9.5c0,0,5.2,0,11.4,0L87.2,82.7
		L87.2,82.7z M95.7,67.2c4.2,0,8.2,0,9.9,0c4.7,0,24.1,11.3,31.3,15.5H95.7V67.2L95.7,67.2z M146.6,127.1c-5.7,0-10.3-4.6-10.3-10.3
		c0-5.7,4.6-10.3,10.3-10.3s10.3,4.6,10.3,10.3C156.8,122.5,152.3,127.1,146.6,127.1z"/>
</g>
</svg>
