<?xml version="1.0" encoding="utf-8"?>
<!-- Generator: Adobe Illustrator 26.0.2, SVG Export Plug-In . SVG Version: 6.00 Build 0)  -->
<svg version="1.1" id="Layer_1" xmlns="http://www.w3.org/2000/svg" xmlns:xlink="http://www.w3.org/1999/xlink" x="0px" y="0px"
	 viewBox="0 0 200 200" style="enable-background:new 0 0 200 200;" xml:space="preserve">
<path id="path2" class="primary" d="M129.2,59l3.7,9l-4.1,7l7.8,5.6l-7.8,9.7l-12.2-5.8l-14.3,5.6l-12.6-5.8l-15.5,2.4l3.2-9.4l-6.5-7l6.5-5.9
	L74.6,59H11.7c0,48.7,39.4,88.1,88.2,88.1S188,107.7,188,59C188,59,129.2,59,129.2,59z M97.1,98.1h6.1l3.3,9.7H94.2L97.1,98.1z
	 M87.2,137.3l6.4-19.6h12.8l6.9,19.6H87.2z"/>
</svg>
