<?xml version="1.0" encoding="utf-8"?>
<!-- Generator: Adobe Illustrator 26.0.2, SVG Export Plug-In . SVG Version: 6.00 Build 0)  -->
<svg version="1.1" id="Layer_1" xmlns="http://www.w3.org/2000/svg" xmlns:xlink="http://www.w3.org/1999/xlink" x="0px" y="0px"
	 viewBox="0 0 200 200" style="enable-background:new 0 0 200 200;" xml:space="preserve">
<g>
	<g>
		<path id="path2" d="M103,119.1c-1.2,0-2.1-0.4-3.1-1.2L80.4,99.3c-1.7-1.7-1.7-4.4-0.2-6.1c1.7-1.7,4.4-1.7,6.1-0.2l19.6,18.4
			c1.7,1.7,1.7,4.4,0.2,6.1C105.4,118.5,104.2,119.1,103,119.1z"/>
	</g>
	<g>
		<path id="path3" d="M114,107.6c-1.2,0-2.1-0.4-3.1-1.2L91.3,88c-1.7-1.7-1.7-4.4-0.2-6.1c1.7-1.7,4.4-1.7,6.1-0.2l19.6,18.4
			c1.7,1.7,1.7,4.4,0.2,6.1C116.3,107,115.2,107.6,114,107.6z"/>
	</g>
	<path id="path4" d="M91.9,121c-6.1,12.7-16.3,32.3-30.9,36.3c-4.4,1.2-7.9,0.4-10.4-2.3c-2.9-3.3-3.5-9-1.3-14.4
		c2.1-5.2,6.1-10.2,12.9-15.8c6-4.8,12.9-9.2,20.4-12.9l-11.7-11.1c-0.6-0.6-1-1.2-1.2-1.7c-7.9,0.8-16.1,1.9-22.9,4.6
		c-9.6,3.6-26.5,11.7-32.1,24.4c-2.3,5.2-2.5,10.8-0.4,16.1c2.3,6.1,6.5,10.4,11.7,12.3c2.1,0.8,4.4,1.2,6.7,1.2
		c2.7,0,5.6-0.6,8.5-1.5c0.2,0.4,0.4,1,0.8,1.3c-0.2,6.3,1,16.3,4.4,21.9c3.3,5.2,8.8,8.8,15.2,10.2c1.5,0.4,3.1,0.4,4.6,0.4
		c4.6,0,9-1.3,12.7-3.8c7.7-5.4,11.1-14.2,14.2-23.1c3.5-10.2,6-21.7,7.3-34.4L91.9,121z M41,137.2c-1.3,3.5-1.9,6.9-1.9,10.4
		c-3.8,1.5-7.3,1.9-10.2,0.8c-2.9-1.2-5.2-3.5-6.7-7.3c-1.3-3.3-1.2-6.3,0.2-9.4c4.6-10.4,22.1-17.7,27.3-19.8
		c6.1-2.3,14-3.3,22.1-4.2c-5.6,3.1-10.6,6.5-15.2,10.4C48.7,124.5,43.7,130.6,41,137.2z M84.6,160.2c-2.5,7.3-5.4,14.8-10.9,18.6
		c-2.9,2.1-6.9,2.7-10.8,1.9c-4-0.8-7.5-3.1-9.4-6.1c-1.2-1.9-2.1-5.6-2.7-9.4c1.9,0.8,4,1.2,6.3,1.2c1.9,0,3.8-0.2,6-0.8
		c10.9-2.9,19.2-11.7,25.7-21.3C87.7,149.9,86.3,155.2,84.6,160.2z"/>
	<path id="path5" d="M107.5,78.6c6.5-12.5,17.1-31.9,31.9-35.5c4.4-1.2,7.9-0.2,10.2,2.5c2.9,3.5,3.3,9,1,14.4
		c-2.1,5.2-6.3,10-13.3,15.4c-6,4.6-13.1,8.8-20.6,12.3L128.2,99c0.6,0.6,1,1.2,1.2,1.7c7.9-0.6,16.1-1.5,23.1-4
		c9.6-3.5,26.9-11.1,32.7-23.6c2.5-5.2,2.7-10.6,0.6-16.1c-2.3-6.1-6.1-10.6-11.5-12.5c-2.1-0.8-4.4-1.3-6.7-1.3
		c-2.7,0-5.6,0.4-8.5,1.3c-0.2-0.4-0.4-1-0.6-1.3c0.4-6.3-0.6-16.3-3.8-21.9c-3.1-5.2-8.6-9-14.8-10.4c-1.5-0.4-3.1-0.6-4.6-0.6
		c-4.6-0.2-9,1.2-12.7,3.6c-7.9,5.2-11.5,14-14.6,22.7c-3.6,10-6.3,21.5-8.1,34.2L107.5,78.6z M158.6,63.6c1.5-3.5,2.1-6.9,2.1-10.2
		c3.8-1.5,7.5-1.7,10.4-0.6c2.9,1.2,5.2,3.6,6.5,7.5c1.2,3.3,1.2,6.3-0.4,9.4c-4.8,10.2-22.5,17.3-27.7,19
		c-6.1,2.1-14.2,3.1-22.1,3.6c5.6-3.1,10.8-6.3,15.6-10C150.7,76.1,155.7,70.1,158.6,63.6z M115.7,39.4c2.7-7.3,5.8-14.6,11.3-18.4
		c3.1-1.9,6.9-2.7,10.8-1.7c4,1,7.3,3.3,9.2,6.5c1.2,1.9,2.1,5.6,2.5,9.4c-1.9-0.8-4-1.2-6.3-1.2c-1.9,0-3.8,0.2-6,0.6
		c-10.9,2.7-19.6,11.3-26.3,20.7C112.3,49.8,113.8,44.4,115.7,39.4z"/>
</g>
</svg>
