<?xml version="1.0" encoding="utf-8"?>
<!-- Generator: Adobe Illustrator 26.0.2, SVG Export Plug-In . SVG Version: 6.00 Build 0)  -->
<svg version="1.1" id="Layer_1" xmlns="http://www.w3.org/2000/svg" xmlns:xlink="http://www.w3.org/1999/xlink" x="0px" y="0px"
	 viewBox="0 0 200 200" style="enable-background:new 0 0 200 200;" xml:space="preserve">
<style type="text/css">
	.st0{clip-path:url(#SVGID_00000003087594275235076270000003184221158669807521_);}
</style>
<g>
	<g>
		<defs>
			<path id="SVGID_1_" d="M-5.2,99.1c0,59.9,48.5,108.6,108.6,108.6c59.9,0,108.6-48.5,108.6-108.6S163.5-9.5,103.4-9.5
				C43.5-9.3-5.2,39.2-5.2,99.1"/>
		</defs>
		<clipPath id="SVGID_00000008869596091791194930000001350601725341115021_">
			<use xlink:href="#SVGID_1_"  style="overflow:visible;"/>
		</clipPath>
		<path id="path3" style="clip-path:url(#SVGID_00000008869596091791194930000001350601725341115021_);" d="M161.1,34.2
			c-34.4-34.4-90.4-34.4-124.8,0s-34.2,90,0.2,124.4c32.1,32.1,81.7,35.2,117.5,6.4l67.2,67.2c3.7,3.7,9.5,3.9,13.1,0.2
			c3.7-3.7,3.5-9.5-0.2-13.1l-67-66.8C196.3,117.1,193.4,66.7,161.1,34.2 M150.7,148.8c-28.8,28.8-75.5,28.8-104.1,0
			c-28.8-28.8-28.8-75.5,0-104.1c28.8-28.8,75.5-28.8,104.1,0S179.3,120.2,150.7,148.8"/>
	</g>
</g>
<path id="path4" d="M142.2,107.2c0-16.8-11.2-31.3-27.2-37.3c0,0.2,0,0.2,0,0.4c-2.7,7.5-4.3,15.1-5,17.4c-0.6,1.7-2.1,6.2-3.9,6.2
	H90.6c-1.7,0-3.5-4.4-4.1-6.2l-4.4-15.6v-1c-15.8,6-27,19.9-27,36.7c0,0-8.9,2.1-8.9,4.8s8.5,13.5,52.6,13.5c0,0,38.1,1.4,55.4-13.9
	C156.9,107,142.2,107.2,142.2,107.2"/>
<path id="path5" d="M88.1,65.1c4.3-1.2,12.2-2.7,20.7,0c1.7,0.6,2.7,2.3,2.1,4.1c-2.1,5.8-3.1,8.9-3.9,10.6
	c-0.4,1.2-1.7,2.1-2.9,2.1H92.4c-1.4,0-2.5-1-3.1-2.1L86,69.2C85.4,67.4,86.4,65.5,88.1,65.1"/>
</svg>
