<?xml version="1.0" encoding="utf-8"?>
<!-- Generator: Adobe Illustrator 26.0.2, SVG Export Plug-In . SVG Version: 6.00 Build 0)  -->
<svg version="1.1" id="Layer_1" xmlns="http://www.w3.org/2000/svg" xmlns:xlink="http://www.w3.org/1999/xlink" x="0px" y="0px"
	 viewBox="0 0 200 200" style="enable-background:new 0 0 200 200;" xml:space="preserve">
<g>
	<path id="path2" d="M178.7,38.8l-18.1-19.9c-3.5-3.9-8.4-6.2-13.8-6.2H27.6c-7.2,0-12.9,5.7-12.9,12.9v149.4
		c0,7.2,5.7,12.9,12.9,12.9h143.1c7.2,0,12.9-5.7,12.9-12.9V51.3C183.4,46.6,181.8,42.3,178.7,38.8z M144.6,178.1H53.7v-74.5h90.9
		C144.6,103.6,144.6,178.1,144.6,178.1z M144.6,70.6c0,4.5-3.7,8.2-8.2,8.2H61.9c-4.5,0-8.2-3.7-8.2-8.2V41.4c0-4.5,3.7-8.2,8.2-8.2
		h74.5c4.5,0,8.2,3.7,8.2,8.2C144.6,41.4,144.6,70.6,144.6,70.6z"/>
	<rect id="rect1" x="119.8" y="39.4" width="17" height="33.3"/>
</g>
<path id="path3" d="M128.4,135.7H69.9c-2.5,0-4.5-2.1-4.5-4.5s2.1-4.5,4.5-4.5h58.5c2.5,0,4.5,2.1,4.5,4.5
	C132.9,133.8,130.9,135.7,128.4,135.7"/>
<path id="path4" d="M128.2,160.1H69.9c-2.5,0-4.5-2.1-4.5-4.5s2.1-4.5,4.5-4.5h58.5c2.5,0,4.5,2.1,4.5,4.5S130.9,160.1,128.2,160.1"
	/>
</svg>
