<?xml version="1.0" encoding="utf-8"?>
<!-- Generator: Adobe Illustrator 26.0.2, SVG Export Plug-In . SVG Version: 6.00 Build 0)  -->
<svg version="1.1" id="Layer_1" xmlns="http://www.w3.org/2000/svg" xmlns:xlink="http://www.w3.org/1999/xlink" x="0px" y="0px"
	 viewBox="0 0 200 200" style="enable-background:new 0 0 200 200;" xml:space="preserve">
<path id="path2" d="M128,30.6c-27.1-27.1-71.2-27.1-98.3,0s-26.9,71,0.2,98.1c25.2,25.2,64.3,27.7,92.6,5.1l52.9,52.9
	c2.8,2.8,7.3,3.1,10.4,0.2c2.8-2.8,2.6-7.3-0.2-10.4l-52.9-52.9C155.7,95.8,153.4,56.1,128,30.6 M115.4,116.5
	c-20.2,20.2-53.1,20.2-73.3,0s-20.2-53.1,0-73.3s53.1-20.2,73.3,0S135.5,96.4,115.4,116.5"/>
</svg>
