<?xml version="1.0" encoding="utf-8"?>
<!-- Generator: Adobe Illustrator 26.0.2, SVG Export Plug-In . SVG Version: 6.00 Build 0)  -->
<svg version="1.1" id="Layer_1" xmlns="http://www.w3.org/2000/svg" xmlns:xlink="http://www.w3.org/1999/xlink" x="0px" y="0px"
	 viewBox="0 0 200 200" style="enable-background:new 0 0 200 200;" xml:space="preserve">
<path id="path2" d="M187.4,38l-30.5-27.2c-1.9-1.7-4.4-1.7-5.8,0l0,0c-1.2,1.2-1.2,3.3-0.2,4.8l-11.2,13.9
	c-4.2,5.2-1.9,12.9,1.2,18.5l-25.1,24.9l-37.4,39.8l0,0l-16.8,17.6l-18.3-17.2c-0.6-0.6-1.7-0.6-2.3,0l-20.5,21.6
	c-6.4,6.8-10,15.8-9.8,25.1l0.6,23c0,2.1,1,4.2,2.3,5.6l-0.2,0.2c1.5,1.5,3.5,2.3,5.6,2.3l23.5-0.2c5.2,0,10.2-1.2,14.7-3.3
	c4.2-1.9,7.7-4.6,11-7.7l20.3-21.4c0.6-0.6,0.6-1.7,0-2.3l-18.3-17.2l16.8-17.6L125,81.6l0,0l24.9-24.7c3.3,1.9,7.7,3.3,11.8,3.3
	c2.9,0,5.8-0.8,7.9-2.7l13.9-12.9c1.7,0.8,3.5,0.6,4.8-0.6l0,0C189.5,42.2,189.1,39.7,187.4,38z M167.7,49.7c-0.4,0.4-0.6,0.6-1,0.8
	c-1.5,1.2-2.1,1.9-3.5,2.3c-4.6,0.6-9.5-0.8-13.3-4.2c-4.2-3.5-4.8-8.9-5-11.8c0-2.3,0.2-2.5,1.7-4.4l9.5-11.8l22,19.7L167.7,49.7z"
	/>
</svg>
