<?xml version="1.0" encoding="utf-8"?>
<!-- Generator: Adobe Illustrator 26.0.2, SVG Export Plug-In . SVG Version: 6.00 Build 0)  -->
<svg version="1.1" id="Layer_1" xmlns="http://www.w3.org/2000/svg" xmlns:xlink="http://www.w3.org/1999/xlink" x="0px" y="0px"
	 viewBox="0 0 200 200" style="enable-background:new 0 0 200 200;" xml:space="preserve">
<g>
	<polygon id="polygon1" class="primary" points="144.9,50.5 159.7,82.1 130.3,82.1 128.5,77.4 128.5,77.6 122.3,77.6 116.4,72.4 100.2,76.8
		91.2,73.9 80.3,76.8 71.4,75.4 69.3,82.1 35,82.1 49.5,50.5 	"/>
	<polygon id="polygon2" class="primary" points="162.1,89 132.3,89 128,96.5 136.5,102.7 128,113.5 114.6,107.4 98.9,113.5 85,107.4 67.9,109.9 
		71.6,99.7 64.4,91.6 67.3,89 32.3,89 8.9,140.8 188,140.8 	"/>
</g>
</svg>
