<?xml version="1.0" encoding="utf-8"?>
<!-- Generator: Adobe Illustrator 26.0.2, SVG Export Plug-In . SVG Version: 6.00 Build 0)  -->
<svg version="1.1" id="Layer_1" xmlns="http://www.w3.org/2000/svg" xmlns:xlink="http://www.w3.org/1999/xlink" x="0px" y="0px"
	 viewBox="0 0 200 200" style="enable-background:new 0 0 200 200;" xml:space="preserve">
<g>
	<g>
		<g>
			<path id="path2" class="primary" d="M106.5,78.4c-1.9,0-3.5,1.5-3.5,3.5c0,1.9,1.5,3.5,3.5,3.5c1.9,0,3.5-1.5,3.5-3.5
				C110,79.9,108.5,78.4,106.5,78.4z"/>
		</g>
	</g>
	<g>
		<g>
			<path id="path3" class="primary" d="M92.6,78.4c-1.9,0-3.5,1.5-3.5,3.5c0,1.9,1.5,3.5,3.5,3.5c2.1,0,3.5-1.5,3.5-3.5
				C96.2,79.9,94.5,78.4,92.6,78.4z"/>
		</g>
	</g>
	<g>
		<g>
			<path id="path4" class="primary" d="M84.6,50.6H80c-6.3,0-11.6,5.2-11.6,11.6v1.5c0,6.7,5.4,11.6,11.6,11.6c2.8,0,4.3-0.9,8.4-2.2
				c4.7-1.5,7.8-6,7.8-11C96.2,55.8,91,50.6,84.6,50.6z M86.1,66.4L86.1,66.4l-4.7,1.5c-3,0.9-6-1.3-6-4.3v-1.5l0,0
				c0-2.6,2.1-4.7,4.7-4.7h4.7c2.6,0,4.7,2.1,4.7,4.7C89.3,64,88,65.9,86.1,66.4z"/>
		</g>
	</g>
	<g>
		<g>
			<path id="path5" class="primary" d="M119.3,50.6h-4.7c-6.3,0-11.6,5.2-11.6,11.6c0,5,3.2,9.3,7.8,11l4.7,1.5c7.5,2.4,15.1-3,15.1-11v-1.5
				C130.7,55.8,125.7,50.6,119.3,50.6z M123.8,63.6c0,3.2-3,5.4-6,4.3l0,0l-4.7-1.5c-1.9-0.6-3.2-2.4-3.2-4.3c0-2.6,2.1-4.7,4.7-4.7
				h4.7c2.6,0,4.7,2.1,4.7,4.7v1.5H123.8z"/>
		</g>
	</g>
	<g>
		<g>
			<path id="path6" class="primary" d="M161.1,148.5c-4.7-0.9-10.5,0.6-13.8,5.4l-21.3-9.1l21.3-9.1c2.6,3.5,6.7,5.6,11.2,5.6
				c7.7,0,13.8-6.2,13.8-13.8c0-5-2.8-9.7-7.1-11.9c1.1-8.2-5.4-15.7-13.8-15.7c-9.3,0-15.7,9-13.4,17.2l-38.6,16.6L60.7,117
				c2.4-8.8-4.5-17.2-13.4-17.2c-8.4,0-14.9,7.5-13.8,15.7c-10.8,6.2-9,23.1,4.3,25.6c4.7,0.9,10.5-0.6,13.8-5.4l21.3,9.1L51.6,154
				c-2.6-3.5-6.7-5.6-11.2-5.6c-7.7,0-13.8,6.2-13.8,13.8c0,5,2.8,9.7,7.1,11.9c-1.1,8.2,5.4,15.7,13.8,15.7
				c9.1,0,15.7-8.8,13.4-17.2L99.6,156l38.6,16.6c-2.4,8.8,4.5,17.2,13.4,17.2c8.4,0,14.9-7.5,13.8-15.7
				C176.1,168.1,174.2,151.2,161.1,148.5z M51.8,128c-1.9-0.7-3.9,0.2-4.7,1.9c-1.5,3.9-5,4.7-7.7,4.3c-7.5-1.5-7.5-11.6-0.6-13.4
				c2.1-0.6,3-2.8,2.2-4.7c-1.9-4.7,1.7-9.5,6.3-9.5c5,0,8.8,5.4,5.8,10.3c-1.1,1.9-0.4,4.1,1.7,5l35.6,15.3l-8.8,3.7L51.8,128z
				 M55.1,167.8c-1.9,0.7-2.6,3.2-1.7,5c3,5-0.9,10.3-5.8,10.3s-8.2-4.9-6.3-9.5c0.7-1.9-0.4-4.1-2.2-4.7c-3-0.7-5-3.5-5-6.7
				c0-3.7,3.2-6.9,6.9-6.9c2.8,0,5.4,1.7,6.3,4.5c0.7,1.9,2.8,2.6,4.7,1.9l92.4-39.6c1.9-0.7,2.6-3.2,1.7-5c-3-5,0.9-10.3,5.8-10.3
				s8.2,4.9,6.3,9.5c-0.7,1.9,0.4,4.1,2.2,4.7c3,0.7,5,3.5,5,6.7c0,3.7-3.2,6.9-6.9,6.9c-2.8,0-5.4-1.7-6.3-4.5
				c-0.7-1.9-2.8-2.6-4.7-1.9l-31.7,13.6L55.1,167.8z M160.2,168.9c-0.9,0.2-1.7,0.9-2.2,1.9c-0.4,0.9-0.6,1.9-0.2,2.8
				c1.9,4.7-1.7,9.5-6.3,9.5c-5,0-8.8-5.4-5.8-10.3c1.1-1.9,0.4-4.1-1.7-5l-35.6-15.3l8.8-3.7l30.2,13.1c1.9,0.7,3.9-0.2,4.7-1.9
				c1.5-3.9,5-4.7,7.7-4.3C167.3,156.8,167.3,167,160.2,168.9z"/>
		</g>
	</g>
	<g>
		<g>
			<path id="path7" class="primary" d="M144.7,50.6c0-25-20.2-38.1-45-38.1c-25,0-45,13.3-45,38.1c0,5.4,0.9,13.6,3,19.2c-1.9,2.4-3,5.4-3,8.4
				c0,9.1,9,15.9,17.7,13.3h2.2c0.6,0.6,0.7,1.3,0.7,2.2v10.8c0,5.8,4.7,10.5,10.5,10.5h27.8c5.8,0,10.5-4.7,10.5-10.5V93.3
				c0-0.7,0.2-1.3,0.7-1.9h2.6c8.8,2.4,17.4-4.3,17.4-13.4c0-3-1.1-6-3-8.4C143.6,64.2,144.7,56.2,144.7,50.6z M135.4,73.1
				c1.5,1.3,2.2,3.2,2.2,5c0,4.7-4.5,8-9,6.5c-0.4-0.2-0.7-0.2-0.9-0.2c-3.7,0.2-4.9-0.4-6.3,0.6c-2.8,1.9-4.5,4.9-4.5,8.2v11.2
				c0,1.9-1.5,3.5-3.5,3.5h-3.5V95.5c0-1.9-1.5-3.5-3.5-3.5c-1.9,0-3.5,1.5-3.5,3.5V108h-6.9V95.5c0-1.9-1.5-3.5-3.5-3.5
				c-1.9,0-3.5,1.5-3.5,3.5V108h-3.5c-1.9,0-3.5-1.5-3.5-3.5V93.7c0-5.2-4.1-9.1-6.5-9.1H71c-1.5,0-2.6,1.1-5.4,0.2h-0.2
				c-2.8-0.9-4.7-3.5-4.7-6.5c0-1.9,0.7-3.7,2.2-5c1.1-0.9,1.5-2.6,0.9-3.9c-2.1-4.5-3.2-13.1-3.2-18.7c0-23,19.6-31.2,38.1-31.2
				s38.1,8.2,38.1,31.2c0,5.6-1.1,14.2-3.2,18.7C133.9,70.7,134.3,72.2,135.4,73.1z"/>
		</g>
	</g>
</g>
</svg>
