<?xml version="1.0" encoding="utf-8"?>
<!-- Generator: Adobe Illustrator 26.0.0, SVG Export Plug-In . SVG Version: 6.00 Build 0)  -->
<svg version="1.1" id="Layer_1" xmlns="http://www.w3.org/2000/svg" xmlns:xlink="http://www.w3.org/1999/xlink" x="0px" y="0px"
	 viewBox="0 0 200 200" style="enable-background:new 0 0 200 200;" xml:space="preserve">
<path id="path" class="primary" d="M187.7,94.4h-10.5l4.1-10c1.2-2.9-0.2-6.2-3.1-7.4c-2.9-1.2-6.2,0.2-7.4,3.1l-5.9,14.3h-6.9l7.1-17.1
	c1.2-2.9-0.2-6.2-3.1-7.4l-17.1-7.1L150,58l14.3,5.9c0.7,0.3,1.4,0.4,2.2,0.4c2.2,0,4.3-1.3,5.2-3.5c1.2-2.9-0.2-6.2-3.1-7.4
	l-10-4.1l7.4-7.4c2.2-2.2,2.2-5.8,0-8c-2.2-2.2-5.8-2.2-8,0l-7.4,7.4l-4.1-10c-1.2-2.9-4.5-4.2-7.4-3.1c-2.9,1.2-4.2,4.5-3.1,7.4
	L142,50l-4.8,4.8l-7.1-17.1c-1.2-2.9-4.5-4.2-7.4-3.1l-17.1,7.1v-6.9L120,29c2.9-1.2,4.2-4.5,3.1-7.4c-1.2-2.9-4.5-4.2-7.4-3.1
	l-10,4.1V12.3c0-3.1-2.5-5.6-5.6-5.6s-5.6,2.5-5.6,5.6v10.5l-10-4.1c-2.9-1.2-6.2,0.2-7.4,3.1c-1.2,2.9,0.2,6.2,3.1,7.4l14.3,5.9
	v6.9l-17.1-7.1c-2.9-1.2-6.2,0.2-7.4,3.1l-7.1,17.1L58,50l5.9-14.3c1.2-2.9-0.2-6.2-3.1-7.4c-2.9-1.2-6.2,0.2-7.4,3.1l-4.1,10
	L41.9,34c-2.2-2.2-5.8-2.2-8,0c-2.2,2.2-2.2,5.8,0,8l7.4,7.4l-10,4.1c-2.9,1.2-4.2,4.5-3.1,7.4c0.9,2.2,3,3.5,5.2,3.5
	c0.7,0,1.5-0.1,2.2-0.4L50,58l4.9,4.9l-17.1,7.1c-1.4,0.6-2.5,1.7-3.1,3.1c-0.6,1.4-0.6,2.9,0,4.3l7.1,17.1h-6.9L29,80
	c-1.2-2.9-4.5-4.2-7.4-3.1c-2.9,1.2-4.2,4.5-3.1,7.4l4.1,10H12.3c-3.1,0-5.6,2.5-5.6,5.6c0,3.1,2.5,5.6,5.6,5.6h10.5l-4.1,10
	c-1.2,2.9,0.2,6.2,3.1,7.4c0.7,0.3,1.4,0.4,2.2,0.4c2.2,0,4.3-1.3,5.2-3.5l5.9-14.3h6.9l-7.1,17.1c-1.2,2.9,0.2,6.2,3.1,7.4
	l17.1,7.1L50,142l-14.3-5.9c-2.9-1.2-6.2,0.2-7.4,3.1c-1.2,2.9,0.2,6.2,3.1,7.4l10,4.1l-7.4,7.4c-2.2,2.2-2.2,5.8,0,8
	c1.1,1.1,2.5,1.7,4,1.7c1.4,0,2.9-0.6,4-1.7l7.4-7.4l4.1,10c0.9,2.2,3,3.5,5.2,3.5c0.7,0,1.5-0.1,2.2-0.4c2.9-1.2,4.2-4.5,3.1-7.4
	L58,150l4.9-4.9l7.1,17.1c1.2,2.9,4.5,4.2,7.4,3.1l17.1-7.1v6.9L80,171c-2.9,1.2-4.2,4.5-3.1,7.4c1.2,2.9,4.5,4.2,7.4,3.1l10-4.1
	v10.5c0,3.1,2.5,5.6,5.6,5.6s5.6-2.5,5.6-5.6v-10.5l10,4.1c0.7,0.3,1.4,0.4,2.2,0.4c2.2,0,4.3-1.3,5.2-3.5c1.2-2.9-0.2-6.2-3.1-7.4
	l-14.3-5.9v-6.9l17.1,7.1c0.7,0.3,1.4,0.4,2.2,0.4c2.2,0,4.3-1.3,5.2-3.5l7.1-17.1l4.8,4.8l-5.9,14.3c-1.2,2.9,0.2,6.2,3.1,7.4
	c0.7,0.3,1.4,0.4,2.2,0.4c2.2,0,4.3-1.3,5.2-3.5l4.1-10l7.4,7.4c1.1,1.1,2.5,1.7,4,1.7s2.9-0.6,4-1.7c2.2-2.2,2.2-5.8,0-8l-7.4-7.4
	l10-4.1c2.9-1.2,4.2-4.5,3.1-7.4c-1.2-2.9-4.5-4.2-7.4-3.1L150,142l-4.9-4.9l17.1-7.1c2.9-1.2,4.2-4.5,3.1-7.4l-7.1-17.1h6.9
	L171,120c0.9,2.2,3,3.5,5.2,3.5c0.7,0,1.5-0.1,2.2-0.4c2.9-1.2,4.2-4.5,3.1-7.4l-4.1-10h10.5c3.1,0,5.6-2.5,5.6-5.6
	C193.4,96.9,190.9,94.4,187.7,94.4z M152.7,78.2L146,94.4h-32.4l22.9-22.9L152.7,78.2z M121.8,47.3l6.7,16.2l-22.9,22.9V54
	L121.8,47.3z M78.2,47.3L94.4,54v32.4L71.5,63.5L78.2,47.3z M47.3,78.2l16.2-6.7l22.9,22.9H54L47.3,78.2z M47.3,121.8l6.7-16.2h32.4
	l-22.9,22.9L47.3,121.8z M78.2,152.7l-6.7-16.2l22.9-22.9V146L78.2,152.7z M121.8,152.7l-16.2-6.7v-32.4l22.9,22.9L121.8,152.7z
	 M152.7,121.8l-16.2,6.7l-22.9-22.9H146L152.7,121.8z"/>
</svg>
