<?xml version="1.0" encoding="utf-8"?>
<!-- Generator: Adobe Illustrator 26.0.2, SVG Export Plug-In . SVG Version: 6.00 Build 0)  -->
<svg version="1.1" id="Layer_1" xmlns="http://www.w3.org/2000/svg" xmlns:xlink="http://www.w3.org/1999/xlink" x="0px" y="0px"
	 viewBox="0 0 200 200" style="enable-background:new 0 0 200 200;" xml:space="preserve">
<path id="path2" d="M142.2,117.5c-6.4,0-11.7,5.3-11.7,11.7c0,6.4,5.3,11.7,11.7,11.7s11.7-5.3,11.7-11.7
	C153.9,122.8,148.6,117.5,142.2,117.5"/>
<path id="path3" d="M159.5,92.5H138l-12.7-17.7h-23.4v50.5h22.8c0.8-7.3,5.6-15.4,15.8-15.7c10.7-0.2,17.2,8.4,18,15.7h5.3V96.8
	C163.8,94.4,162,92.5,159.5,92.5 M107.8,94.4V78.5h16l10.4,15.8H107.8z"/>
<path id="path4" d="M54.7,117.8c-6.4,0-11.7,5.3-11.7,11.7c0,6.4,5.3,11.7,11.7,11.7s11.7-5.3,11.7-11.7
	C66.4,123.1,61.1,117.8,54.7,117.8"/>
<path id="path5" d="M96.3,103.1l-0.5,22.3h-22c-1.8-8.9-9.7-15.5-19.2-15.5c-9.6,0-17.5,6.6-19.3,15.5H11.4l0.5-22.3H96.3z"/>
<path id="path6" d="M83.5,98.5H16.4c-2.1,0-3.8-1.7-3.8-3.8V73.4c0-2.1,1.7-3.8,3.8-3.8h73.5c2.1,0,3.8,1.7,3.8,3.8v15
	C93.6,94,89,98.5,83.5,98.5"/>
<g>
	<path id="path7" d="M188.7,141.7c-1,0-2-0.5-2.6-1.3l-15.8-22c-0.3-0.5-0.7-1.3-0.7-2V86.1c0-1.8,1.5-3.3,3.3-3.3
		c1.8,0,3.3,1.5,3.3,3.3v29.4l15.2,21c1.2,1.5,0.7,3.6-0.8,4.6C190,141.6,189.4,141.7,188.7,141.7z"/>
</g>
</svg>
