<?xml version="1.0" encoding="utf-8"?>
<!-- Generator: Adobe Illustrator 26.0.2, SVG Export Plug-In . SVG Version: 6.00 Build 0)  -->
<svg version="1.1" id="Layer_1" xmlns="http://www.w3.org/2000/svg" xmlns:xlink="http://www.w3.org/1999/xlink" x="0px" y="0px"
	 viewBox="0 0 200 200" style="enable-background:new 0 0 200 200;" xml:space="preserve">
<g>
	<path id="path2" class="primary" d="M22.6,89.8h74.6c6.2,0,11.1-5,11.1-11.1V67.6c0-6.2-5-11.1-11.1-11.1H22.6c-6.2,0-11.1,5-11.1,11.1v11.1
		C11.3,84.7,16.4,89.8,22.6,89.8z"/>
	<ellipse id="ellipse1" class="primary" cx="61.3" cy="125.1" rx="14.8" ry="14.8"/>
	<circle id="circle1" class="primary" cx="161.1" cy="125.1" r="14.8"/>
	<path id="path3" class="primary" d="M157.4,83.1l-14-20.3H115v59.7h26.9c0.3-10.3,8.7-18.3,19.2-18.3s18.7,8.2,19.2,18.3h7.7V83.1H157.4z
		 M122.4,84.9V67.3h18.7l11.3,17.5h-29.9V84.9z"/>
	<path id="path4" class="primary" d="M11,122.2h31.1c0.3-10.3,8.7-18.3,19.2-18.3c10.3,0,18.7,8.2,19.2,18.3H109V93.8H11V122.2z"/>
</g>
</svg>
