<?xml version="1.0" encoding="utf-8"?>
<!-- Generator: Adobe Illustrator 26.0.2, SVG Export Plug-In . SVG Version: 6.00 Build 0)  -->
<svg version="1.1" id="Layer_1" xmlns="http://www.w3.org/2000/svg" xmlns:xlink="http://www.w3.org/1999/xlink" x="0px" y="0px"
	 viewBox="0 0 200 200" style="enable-background:new 0 0 200 200;" xml:space="preserve">
<path id="path2" d="M150.1,93.1c0-7.3-4.2-13.6-10.4-16.7c0.7-2,1.1-4.2,1.1-6.4c0-10.4-8.4-18.7-18.7-18.7c-2,0-3.8,0.4-5.6,0.9
	c-4.2-8.5-12.9-14.5-23.1-14.5c-2.4,0-4.7,0.4-6.9,0.9C82.2,31,73.8,25.9,64.4,25.9c-11.4,0-21.1,7.4-24.3,17.8
	c-6.2,1.8-11.1,6.4-13.3,12.2c-9.4,3.5-16.2,12.5-16.2,23.2c0,10.4,6.4,19.1,15.3,22.9c-0.4,1.6-0.5,3.3-0.5,5.1
	c0.4,13.3,11.4,24.3,25.2,24.3c5.4,0,10.5-1.8,14.5-4.7l8.7,11.3L70.2,171h21.6c0,0-3.3-25.6-3.8-30.9c5.6-5.6,8.7-8.7,10.7-10.7
	c4.5,4.2,10.5,6.7,17.3,6.7c2.7,0,5.4-0.5,8-1.3l-15.4-31.8c-0.7-1.5-2-2.5-3.6-3.1L99,98.4c-3.1-0.9-4.7-4-4-7.1l2-7.1
	c0.9-2.9,3.8-4.7,6.9-4l17.1,4c1.8,0.4,3.3,1.6,4,3.3l14.2,33.6c1.5-3.3,2.4-6.9,2.4-10.5c0-0.5,0-1.1,0-1.6
	C146.4,105.6,150.1,99.8,150.1,93.1 M77.1,134.5l-7.8-11.8c2-2.4,3.6-5.3,4.5-8.2l6.5,11.3L77.1,134.5z M89.1,112.2l-3.5,10.4
	l-5.1-8.5C83.6,114,86.3,113.3,89.1,112.2 M95.2,125.8l-9.6,10.4l6-17.3C92.5,121.4,93.8,123.8,95.2,125.8"/>
<path id="path3" d="M156.1,111.6h27.8c2.4,0,4.2-1.8,4.2-4.2v-2.7c0-2.4-1.8-4.2-4.2-4.2h-27.8c-2.4,0-4.2,1.8-4.2,4.2v2.7
	C151.9,109.8,153.9,111.6,156.1,111.6"/>
<path id="path4" d="M174.8,98.4h-9.6v-3.8c-2-0.2-3.6-1.1-4.9-2.4c-3.5-3.5-3.3-9.4-3.3-9.6v-1.3h26v1.3c0,0.2,0,6.2-3.3,9.6
	c-1.3,1.3-2.9,2.2-4.9,2.4V98.4z M168,95.6h4.2v-3.8h1.5c1.8,0,3.3-0.5,4.4-1.6c1.8-1.8,2.4-4.7,2.5-6.4h-20.5
	c0.2,1.6,0.7,4.5,2.5,6.4c1.1,1.1,2.5,1.6,4.4,1.6h1.5v3.8H168z"/>
<path id="path5" d="M180.2,113.3h-20.5c-4.9,0-8.2,4.9-8.2,9.6v40c0,1.6,0.2,3.3,1.1,4.5c-1.1,0-2.2-0.2-3.1-0.5
	c-0.9-0.4-1.6-1.1-1.8-2l-2-5.8h0.2c0.9-0.4,1.3-1.5,0.9-2.4l-12-26.3c-0.4-0.7-0.9-1.1-1.6-1.1h0.2L116.8,92
	c-0.4-0.7-0.9-1.5-1.8-1.8l-11.3-3.8l-1.6,6.4l10.2,2.5c0.9,0.2,1.6,0.7,2,1.5l15.3,34.3c-0.5,0.5-0.5,1.3-0.4,2l12,26.3
	c0.4,0.9,1.3,1.3,2.2,0.9l2,5.6c0.5,1.6,1.6,2.9,3.3,3.6c1.3,0.5,2.5,0.7,4,0.7c0.7,0,1.6-0.4,2.4-0.5c1.5,1.1,3.1,1.3,5.1,1.3h20.2
	c4.9,0,9.3-3.3,9.3-8.2v-40C189.5,118.2,185.1,113.3,180.2,113.3"/>
</svg>
