<?xml version="1.0" encoding="utf-8"?>
<!-- Generator: Adobe Illustrator 26.0.2, SVG Export Plug-In . SVG Version: 6.00 Build 0)  -->
<svg version="1.1" id="Layer_1" xmlns="http://www.w3.org/2000/svg" xmlns:xlink="http://www.w3.org/1999/xlink" x="0px" y="0px"
	 viewBox="0 0 200 200" style="enable-background:new 0 0 200 200;" xml:space="preserve">
<path id="path2" d="M172.8,123c0-22.8,0-44,0-44c0-8.8-27.8-15.8-63.7-16.7c-0.9,2.9-1.6,5.6-2.2,8.3c27.5,0.5,49,5.2,49,10.9
	c0,6.1-24.2,10.9-54.4,10.9s-54.4-4.8-54.4-10.9c0-5.2,18.7-9.7,43.4-10.8c0.5-3.1,1.3-5.7,2-8.4C57.3,63.2,30,70.2,30,78.8v43.3
	c0,10.4,0.9,21.7-4.3,31c-3.9,7-11.1,12.4-16,18.8l34.3-6.5v10l21.7-15.3L80.6,191l31.4-30.7l16,15.4l16.7-19.7
	c0,0,27.5,14.5,43.1,17.6C187.7,173.8,172.8,145.8,172.8,123z"/>
<path id="path3" d="M92.4,85.7h8.8c0,0,0.9-38.6,22.8-48.6h-2.9C121.1,37,94.4,38.8,92.4,85.7z"/>
<path id="path4" d="M128,20.3c-4.5,4.1-5,11.1-0.9,15.6s11.1,5,15.6,0.9s7.7-21.7,7.7-21.7S132.5,16.2,128,20.3z"/>
<path id="path5" d="M126.2,17.8c-3.8-3.8-9.7-7.7-9.7-7.7s-4.3,12.4-2.9,16.7c1.3,3.9,5.2,6.1,9.2,5.4c-2.5-4.5-1.6-10,2.3-13.6
	C125.3,18.4,125.6,18.2,126.2,17.8z"/>
</svg>
