<?xml version="1.0" encoding="utf-8"?>
<!-- Generator: Adobe Illustrator 26.0.0, SVG Export Plug-In . SVG Version: 6.00 Build 0)  -->
<svg version="1.1" id="Layer_1" xmlns="http://www.w3.org/2000/svg" xmlns:xlink="http://www.w3.org/1999/xlink" x="0px" y="0px"
	 viewBox="0 0 200 200" style="enable-background:new 0 0 200 200;" xml:space="preserve">
<g>
	<path id="path1" class="primary" d="M155,61.8l4.4-5.2l1.9,1.6c0.9,0.8,2,1.1,3.1,1.1c1.4,0,2.7-0.6,3.7-1.7c1.7-2,1.5-5.1-0.6-6.8L153,38.6
		c-2-1.7-5.1-1.5-6.8,0.6c-1.7,2-1.5,5.1,0.6,6.8l1.8,1.5l-4.4,5.2c-10-7.1-21.8-11.8-34.5-13.5v-9.6H88.9v9.6
		C50.7,44.3,21,77.1,21,116.7c0,43.1,35.1,78.3,78.3,78.3s78.3-35.1,78.3-78.3C177.6,95.4,168.9,76,155,61.8z M99.3,186.5
		c-38.5,0-69.8-31.3-69.8-69.8s31.3-69.8,69.8-69.8s69.8,31.3,69.8,69.8S137.8,186.5,99.3,186.5z"/>
	<path id="path2" class="primary" d="M87.2,23.7h24.2c4.5,0,8.1-3.6,8.1-8.1s-3.6-8.1-8.1-8.1H87.2c-4.5,0-8.1,3.6-8.1,8.1S82.7,23.7,87.2,23.7z"/>
	<circle id="circle1" class="primary" cx="127.3" cy="70.6" r="3.6"/>
	<path id="path3" class="primary" d="M102,63.4c0-2.9-1.2-5.3-2.7-5.3s-2.7,2.4-2.7,5.3c0,2.6,1,4.8,2.3,5.2l-3,26.3l3.5,20.6l3.5-20.6l-3-26.3
		C101,68.2,102,66.1,102,63.4z"/>
</g>
</svg>
