<?xml version="1.0" encoding="utf-8"?>
<!-- Generator: Adobe Illustrator 26.0.2, SVG Export Plug-In . SVG Version: 6.00 Build 0)  -->
<svg version="1.1" id="Layer_1" xmlns="http://www.w3.org/2000/svg" xmlns:xlink="http://www.w3.org/1999/xlink" x="0px" y="0px"
	 viewBox="0 0 200 200" style="enable-background:new 0 0 200 200;" xml:space="preserve">
<path id="path2" class="primary" d="M157.3,25.9c-0.8,0-1.9,0-2.7,0.2C81.5-25.9,19.4,52,18.7,52.8l-1.4,1.9V188h14V59.8
	c4.1-4.7,16.7-18.4,34.5-27.7c24.8-13,49.2-12.8,72.5,0.6c-2.3,2.3-3.7,5-3.7,8.1c0,8.1,10.1,14.7,22.5,14.7s22.5-6.6,22.5-14.7
	C179.8,32.5,169.7,25.9,157.3,25.9"/>
<polygon id="polygon1" class="primary" points="151.9,81.1 183.8,81.1 165.4,127.9 185.8,127.9 148.2,193 156.1,143.6 136.5,143.6 "/>
</svg>
