<?xml version="1.0" encoding="utf-8"?>
<!-- Generator: Adobe Illustrator 26.0.2, SVG Export Plug-In . SVG Version: 6.00 Build 0)  -->
<svg version="1.1" id="Layer_1" xmlns="http://www.w3.org/2000/svg" xmlns:xlink="http://www.w3.org/1999/xlink" x="0px" y="0px"
	 viewBox="0 0 200 200" style="enable-background:new 0 0 200 200;" xml:space="preserve">
<path id="path2" d="M91.8,95.9c-4,0.2-8.4,0.4-13,0.4c-22.7,0-40.9-3.7-40.9-8.2c0-4.6,18.3-8.2,40.9-8.2c2.2,0,4.2,0,6.2,0.2
	l-2.7-6.4c-1.1,0-2.4,0-3.5,0c-29.8,0-53.9,5.7-53.9,12.6c0,0,0,32.5,0,32.7c0,7.9,0.7,16.3-3.3,23.4c-2.9,5.3-8.4,9.3-12.1,14.2
	l25.9-4.9v7.7l16.3-11.5L62.9,171l23.7-23.2l12.1,11.5l12.6-14.8c0,0,0.4,0.2,0.9,0.5L91.8,95.9z"/>
<g>
	<path id="path3" d="M140.2,76.2h40.4c3.5,0,6-2.6,6-6v-4c0-3.5-2.6-6-6-6h-40.4c-3.5,0-6,2.6-6,6v4
		C134.2,73.7,137.1,76.2,140.2,76.2z"/>
	<path id="path4" d="M153.6,51.4v5.5h14.1v-5.5c2.9-0.2,5.3-1.6,7.1-3.5c4.7-4.9,4.7-13.7,4.7-14.1V32h-37.8v1.8
		c0,0.2-0.2,9,4.7,14.1C148.3,49.9,150.6,51.2,153.6,51.4z M176,35.8c-0.2,2.4-1.1,6.6-3.7,9.3c-1.6,1.6-3.7,2.4-6.4,2.4h-2.2V53
		h-5.5v-5.5h-2.2c-2.6,0-4.7-0.7-6.4-2.4c-2.6-2.6-3.5-6.9-3.7-9.3H176z"/>
	<path id="path5" d="M175.5,78.6h-30c-7.1,0-11.9,7.1-11.9,14.1v58.1c0,2.4,0.2,4.7,1.6,6.6c-1.6,0-3.1-0.2-4.6-0.7
		c-1.3-0.5-2.4-1.6-2.6-2.9l-2.9-8.4h0.2c1.3-0.5,1.8-2.2,1.3-3.5l-17.4-38.4c-0.5-1.1-1.3-1.6-2.4-1.6h0.2L83.2,47.7
		c-0.5-1.1-1.3-2.2-2.6-2.6l-16.4-5.5L61.8,49l14.8,3.7c1.3,0.2,2.4,1.1,2.9,2.2l22.1,49.7c-0.7,0.7-0.7,1.8-0.5,2.9l17.4,38.4
		c0.5,1.3,1.8,1.8,3.1,1.3l2.9,8.2c0.7,2.4,2.4,4.2,4.7,5.3c1.8,0.7,3.7,1.1,5.8,1.1c1.1,0,2.4-0.5,3.5-0.7c2.2,1.6,4.6,1.8,7.5,1.8
		h29.4c7.1,0,13.5-4.7,13.5-11.9V92.7C189,85.7,182.6,78.6,175.5,78.6z"/>
</g>
</svg>
