<?xml version="1.0" encoding="utf-8"?>
<!-- Generator: Adobe Illustrator 26.0.2, SVG Export Plug-In . SVG Version: 6.00 Build 0)  -->
<svg version="1.1" id="Layer_1" xmlns="http://www.w3.org/2000/svg" xmlns:xlink="http://www.w3.org/1999/xlink" x="0px" y="0px"
	 viewBox="0 0 200 200" style="enable-background:new 0 0 200 200;" xml:space="preserve">
<path id="path2" class="primary" d="M103.5,101.9c-5.1,0.5-10.8,0.9-17,0.9c-20.9,0-37.9-3.4-37.9-7.5s17-7.5,37.9-7.5c3.6,0,7.2,0.2,10.4,0.3
	l-2.7-5.8c-2.6-0.2-5.1-0.2-7.9-0.2c-27.4,0-49.7,5.1-49.7,11.6v30.2c0,7.2,0.7,15.1-2.9,21.6c-2.7,4.8-7.7,8.6-11.1,13.2l23.8-4.5
	v7l15.1-10.6L71.8,172l21.9-21.4l11.1,10.8l11.6-13.7c0,0,3.9,2.1,9.4,4.6L103.5,101.9z"/>
<path id="path3" class="primary" d="M176.6,98.2c-0.7-1.5-2.4-2.1-3.8-1.4l-19.5,8.9c-1.9-1-4.3-1-6.3,0l-0.3,0.2l-0.9-1.9l5.7-2.7l-2.4-5l-5.8,2.9
	l-5.1-10.4l5.7-2.7l-2.4-5l-5.7,2.7l-5.1-10.4l5.8-2.7l-2.4-5l-5.7,2.7l-5.1-10.8l5.7-2.7l-2.4-5l-5.7,2.7l-5.3-11l5.7-2.7l-2.4-5
	l-5.7,2.7l-5.5-11.1l5.7-2.7l-2.4-5l-5.7,2.7c-1.5-2.2-3.4-3.9-5.8-4.8l0.5-6.2l-5.5-0.5L94,14.9c-1.5,0.2-2.9,0.5-4.1,1
	c-1.5,0.9-2.4,1.5-3.3,2.2L81.2,16l-2.2,5l4.5,2.1c-0.9,2.6-0.9,5.5,0,7.9l-5.7,2.7l2.4,5l5.7-2.7L91.3,47l-5.7,2.7l2.4,5l5.7-2.7
	l5.3,11l-5.5,2.9l2.4,5l5.7-2.7l5.1,10.8l-5.7,2.7l2.4,5l5.7-2.7l5.1,10.4l-5.7,2.7l2.4,5l5.7-2.7l5.1,10.4l-5.7,2.7l2.4,5l5.7-2.7
	l1,2.1c-3.4,1.9-4.8,6-3.1,9.6l12.3,25c1.4,2.7,4.3,4.3,7.2,3.9c0,0.2,0,0.2,0.2,0.3l14.2,32.9c0.3,1,1.4,1.5,2.4,1.5
	c0.2,0,0.2,0,0.3,0c1.2-0.2,2.1-1,2.2-2.1l7.4-46.1c1.5-2.1,1.9-5,0.7-7.5l-1.9-3.8c0.9-0.2,1.9-0.7,2.7-1.2
	c4.5-2.6,6.3-7.9,4.3-11.6c-2.2-3.8-7.7-4.8-12.2-2.1c-0.5,0.3-1,0.7-1.5,1.2l-3.1-6.2l18-8.2C176.6,101.4,177.3,99.7,176.6,98.2z
	 M131.6,113.3L90.8,29.1c-1-2.2,0-5.1,2.2-6.3c2.2-1,5.1,0,6.3,2.2l40.8,84.1L131.6,113.3z M157.2,178l-10.6-24.8c0,0,0,0,0-0.2
	l15.9-7.9L157.2,178z M164.4,119.8c1-0.5,1.9-0.9,2.7-0.9c1,0,2.1,0.3,2.4,1c0.7,1.2-0.2,3.3-2.4,4.6c-0.9,0.5-1.7,0.7-2.6,0.9
	l-2.1-4.1C163.1,120.8,163.6,120.3,164.4,119.8z"/>
</svg>
