<?xml version="1.0" encoding="utf-8"?>
<!-- Generator: Adobe Illustrator 26.0.2, SVG Export Plug-In . SVG Version: 6.00 Build 0)  -->
<svg version="1.1" id="Layer_1" xmlns="http://www.w3.org/2000/svg" xmlns:xlink="http://www.w3.org/1999/xlink" x="0px" y="0px"
	 viewBox="0 0 200 200" style="enable-background:new 0 0 200 200;" xml:space="preserve">
<g>
	<path id="path2" class="primary" d="M151.7,10.2H47c-3.8,0-6.7,3.1-6.7,6.7v163.3c0,3.8,3.1,6.7,6.7,6.7h104.5c3.8,0,6.7-3.1,6.7-6.7v-163
		C158.5,13.5,155.4,10.2,151.7,10.2z M80,16.4h38.8c0.9,0,1.6,0.7,1.6,1.6s-0.7,1.6-1.6,1.6H80c-0.9,0-1.6-0.7-1.6-1.6
		S79.1,16.4,80,16.4z M99.5,181.5c-4.6,0-8.2-3.6-8.2-8.2c0-4.6,3.6-8.2,8.2-8.2c4.6,0,8.2,3.6,8.2,8.2
		C107.5,177.9,103.8,181.5,99.5,181.5z M145.7,161H53V25.9h92.7C145.7,25.9,145.7,161,145.7,161z"/>
	<path id="path3" class="primary" d="M125.1,114.9h-19.3v3.8c0,3.5-0.4,6.7-1.3,10l-5.3,21.7l-5.1-21.3c-0.9-3.5-1.3-7.1-1.3-10.7v-3.5H73.4
		c0-5.1,2-9.8,5.5-13.1c1.3-1.3,2.9-2.4,4.6-3.3V54.8c-6-3.1-10-9.3-10-16.6H125c0,5.1-2,9.8-5.5,13.1c-1.3,1.3-2.9,2.4-4.6,3.3
		v43.7C121,101.6,125.1,107.8,125.1,114.9z"/>
</g>
</svg>
