<?xml version="1.0" encoding="utf-8"?>
<!-- Generator: Adobe Illustrator 26.0.2, SVG Export Plug-In . SVG Version: 6.00 Build 0)  -->
<svg version="1.1" id="Layer_1" xmlns="http://www.w3.org/2000/svg" xmlns:xlink="http://www.w3.org/1999/xlink" x="0px" y="0px"
	 viewBox="0 0 200 200" style="enable-background:new 0 0 200 200;" xml:space="preserve">
<path id="path2" class="primary" d="M172.1,9.8H81.2c-3.7,0-6.6,2.5-6.6,5.5v27.9h31.8c3.7,0,6.8,3.1,6.8,6.8v12.3h51.5c2,0,3.7,1.8,3.7,3.7
	c0,2-1.6,3.7-3.7,3.7h-51.5v21.8h51.5c2,0,3.7,1.8,3.7,3.7s-1.6,3.7-3.7,3.7h-51.5v21.8h51.5c2,0,3.7,1.8,3.7,3.7
	c0,2-1.6,3.7-3.7,3.7h-51.5v23h58.9c3.7,0,6.6-2.5,6.6-5.5V15.3C178.7,12.3,175.6,9.8,172.1,9.8z M164.7,40.2H88.6
	c-2,0-3.7-1.6-3.7-3.7c0-2.1,1.6-3.7,3.7-3.7h76.1c2,0,3.7,1.8,3.7,3.7C168.2,38.5,166.6,40.2,164.7,40.2z"/>
<g>
	<path id="path3" class="primary" d="M103,47.4H27c-3.1,0-5.5,2.5-5.5,5.5v132.6c0,3.1,2.5,5.5,5.5,5.5H103c3.1,0,5.5-2.5,5.5-5.5V53.1
		C108.5,50,106,47.4,103,47.4z M49.2,52.3h31.4c0.8,0,1.4,0.6,1.4,1.4s-0.6,1.4-1.4,1.4H49.2c-0.8,0-1.4-0.6-1.4-1.4
		S48.4,52.3,49.2,52.3z M65,186.7c-3.7,0-6.6-2.9-6.6-6.6c0-3.7,2.9-6.6,6.6-6.6c3.7,0,6.6,2.9,6.6,6.6
		C71.4,183.8,68.5,186.7,65,186.7z M98.2,169.7H31.8V60.1h66.3V169.7z"/>
</g>
</svg>
