<?xml version="1.0" encoding="utf-8"?>
<!-- Generator: Adobe Illustrator 26.0.2, SVG Export Plug-In . SVG Version: 6.00 Build 0)  -->
<svg version="1.1" id="Layer_1" xmlns="http://www.w3.org/2000/svg" xmlns:xlink="http://www.w3.org/1999/xlink" x="0px" y="0px"
	 viewBox="0 0 200 200" style="enable-background:new 0 0 200 200;" xml:space="preserve">
<path id="path2" d="M83.7,80.3V37.3c0-5.4-4.4-9.8-9.3-11.2V15.7c0-1.9-1.6-3.5-3.5-3.5s-3.5,1.6-3.5,3.5v10.6
	c-4.7,1.6-9.3,5.8-9.3,11.1v42.9c0,5.2,4.6,9.6,9.3,11.1v93.2c2.2,0.8,4.6,1.6,6.9,2.2V91.5C79.3,90,83.7,85.6,83.7,80.3"/>
<path id="path3" d="M154.2,104.4l-9.6-41.8c-1.1-5.1-5.4-8.5-10.3-9c-1.3-5.8-2.1-9.5-2.2-9.6c-0.5-1.9-2.2-3-4.1-2.7
	c-1.9,0.5-3,2.2-2.7,4.1c0,0.2,0.8,3.6,2.1,9.5c-4.6,2.4-7.1,7.7-5.8,12.9l9.6,41.8c1.3,5.2,5.7,8.7,10.7,9
	c4.6,20.1,9.2,40.3,12.5,54.8l0,0c2.1-1.4,4.1-2.8,6.2-4.4c-3.3-14.2-7.6-33.2-11.8-52C152.9,114.5,155.3,109.5,154.2,104.4"/>
<path id="path4" d="M99.5,96.4c-14.7,25.7-15.8,74.8-15.6,92.4c5.2,0.8,10.6,1.3,16.1,1.3c0,0,0,0,0.2,0
	C98.1,167.7,93.5,106.8,99.5,96.4"/>
<path id="path5" d="M115.8,112.9c6.5,18.6,15.9,58.1,18.9,70.7c3.9-1.4,7.7-3.2,11.4-5.2C141.8,164.9,128,122.6,115.8,112.9"/>
<path id="path6" d="M165.9,88c5.2,18.6,6.3,52.4,6.5,70c4.4-4.9,8.2-10.1,11.7-15.8C181.6,129.5,175.6,102.8,165.9,88"/>
<path id="path7" d="M47.3,75c-9.6,30.8-11.2,74.2-11.5,91c5.5,4.9,11.7,9,18.2,12.5C50.6,164.6,39.5,115.6,47.3,75"/>
<path id="path8" d="M19.5,101.3c2.7,6.3-1.3,29.7-3.5,41.4c2.5,4.3,5.5,8.4,8.7,12.2C25.3,139.6,25.9,105.5,19.5,101.3"/>
</svg>
