<?xml version="1.0" encoding="utf-8"?>
<!-- Generator: Adobe Illustrator 26.0.2, SVG Export Plug-In . SVG Version: 6.00 Build 0)  -->
<svg version="1.1" id="Layer_1" xmlns="http://www.w3.org/2000/svg" xmlns:xlink="http://www.w3.org/1999/xlink" x="0px" y="0px"
	 viewBox="0 0 200 200" style="enable-background:new 0 0 200 200;" xml:space="preserve">
<g>
	<g>
		<g>
			<g>
				<path id="path2" d="M192.6,53.4l-23,36.2l-36.2-23l16.7-3.7C140.5,45.8,122.4,35,102.6,35c-25.9,0-48.3,18.3-53.4,43.6
					l-24.6-5.1c7.5-36.7,40.3-63.7,78-63.7c31.6,0,59.9,18.5,72.7,47.2L192.6,53.4z"/>
			</g>
		</g>
	</g>
	<g>
		<g>
			<g>
				<path id="path3" d="M178.6,132.6c-10.2,33.8-40.9,56.4-76.2,56.4c-31.6,0-59.9-18.5-72.7-47.4l-17.5,3.9l23-36.2l36.2,23
					l-16.7,3.7c9.6,17.1,27.7,27.9,47.6,27.9c24.2,0,45.2-15.5,52.3-38.7L178.6,132.6z"/>
			</g>
		</g>
	</g>
</g>
</svg>
