<?xml version="1.0" encoding="utf-8"?>
<!-- Generator: Adobe Illustrator 26.0.2, SVG Export Plug-In . SVG Version: 6.00 Build 0)  -->
<svg version="1.1" id="Layer_1" xmlns="http://www.w3.org/2000/svg" xmlns:xlink="http://www.w3.org/1999/xlink" x="0px" y="0px"
	 viewBox="0 0 200 200" style="enable-background:new 0 0 200 200;" xml:space="preserve">
<g>
	<path id="path2" class="primary" d="M127.5,102.6c-13.1,0-23.7,10.7-23.7,23.7s10.7,23.7,23.7,23.7c13.1,0,23.7-10.7,23.7-23.7
		C151.2,113.1,140.6,102.6,127.5,102.6z"/>
	<path id="path3" class="primary" d="M67.2,69l-0.6,41.9L13.8,93.4l-2.2,6.7l49.2,16.4h-0.6v7.2h35.7v-4.8c3.2-14.2,16.1-25.6,31.7-25.6
		s28.7,11.5,31.7,25.6H187l1-49.8H67.2z M74.3,92.7h-4.8V73.8h4.8V92.7z"/>
</g>
</svg>
