<?xml version="1.0" encoding="utf-8"?>
<!-- Generator: Adobe Illustrator 26.0.2, SVG Export Plug-In . SVG Version: 6.00 Build 0)  -->
<svg version="1.1" id="Layer_1" xmlns="http://www.w3.org/2000/svg" xmlns:xlink="http://www.w3.org/1999/xlink" x="0px" y="0px"
	 viewBox="0 0 200 200" style="enable-background:new 0 0 200 200;" xml:space="preserve">
<g>
	<g>
		<g>
			<g>
				<path id="path2" class="primary" d="M70.9,45.1c0,2.8,2.6,5.2,5.6,5.2h77.2c3,0,5.6-2.4,5.6-5.2c0-2.8-2.6-5.2-5.6-5.2H76.5
					C73.3,40.2,70.9,42.4,70.9,45.1z"/>
			</g>
		</g>
	</g>
	<path id="path3" class="primary" d="M70.3,190c-30.6,0-55.7-25.1-55.7-55.7s25.1-55.7,55.7-55.7s55.7,25.1,55.7,55.7S101,190,70.3,190z M70.3,85.7
		c-26.9,0-48.6,21.7-48.6,48.6s21.9,48.6,48.6,48.6s48.6-21.7,48.6-48.6S97.2,85.7,70.3,85.7z"/>
	<g>
		<path id="path4" class="primary" d="M96.6,134.3l-22.3,2c-0.8,2-2.8,3.4-5,3.4c-3,0-5.4-2.4-5.4-5.4c0-2,1-3.8,2.6-4.6l2.8-35.6l2.8,35.6
			c1,0.6,1.8,1.6,2.2,2.6L96.6,134.3z"/>
	</g>
	<path id="path5" class="primary" d="M53.2,14.3v57.5c2.4-0.6,4.8-1.2,7.2-1.6V21.5h110.2v149.2H124c-1.8,2.6-3.6,5-5.6,7.2h59.3V14.3H53.2z"/>
	<path id="path6" class="primary" d="M153.7,70.4H81.9c9.2,1.6,17.5,5.2,24.9,10.1h46.8c3,0,5.6-2.4,5.6-5.2C159.3,72.8,156.7,70.4,153.7,70.4z"/>
	<path id="path7" class="primary" d="M153.7,105.6h-25.1c1.6,3.2,3,6.8,4,10.1h21.1c3,0,5.6-2.4,5.6-5.2C159.3,107.8,156.7,105.6,153.7,105.6z"/>
	<path id="path8" class="primary" d="M153.7,140.9H135c-0.4,3.6-1,7-1.8,10.1h20.7c3,0,5.6-2.4,5.6-5.2C159.3,143.2,156.7,140.9,153.7,140.9z"/>
</g>
</svg>
