<?xml version="1.0" encoding="utf-8"?>
<!-- Generator: Adobe Illustrator 26.0.0, SVG Export Plug-In . SVG Version: 6.00 Build 0)  -->
<svg version="1.1" id="Layer_1" xmlns="http://www.w3.org/2000/svg" xmlns:xlink="http://www.w3.org/1999/xlink" x="0px" y="0px"
	 viewBox="0 0 200 200" style="enable-background:new 0 0 200 200;" xml:space="preserve">
<g>
	<path id="path1" class="primary" d="M191.2,100.2c0-27.2-11.9-51.6-30.8-68.3l0.1-0.1C144.4,17.7,123.2,9,100.1,9c-25.2,0-48,10.2-64.5,26.7
		C19.1,52.3,8.9,75.1,8.9,100.2c0,48.7,38.2,88.5,86.3,91v-0.1c1.6,0.1,3.3,0.1,4.9,0.1c27.2,0,51.5-11.9,68.2-30.7l0,0
		c0.1-0.1,0.1-0.2,0.2-0.3c0.4-0.5,0.8-0.9,1.2-1.4c0.5-0.6,1-1.2,1.5-1.8c0.4-0.5,0.8-1,1.1-1.5c0.5-0.6,0.9-1.2,1.4-1.8
		c0.4-0.5,0.8-1.1,1.2-1.7c0.4-0.6,0.8-1.1,1.2-1.7c0.4-0.6,0.8-1.3,1.2-1.9c0.3-0.5,0.6-1,0.9-1.5c0.5-0.7,0.9-1.5,1.3-2.3
		c0.2-0.4,0.4-0.8,0.7-1.2c0.5-0.9,0.9-1.8,1.4-2.7c0.1-0.3,0.3-0.6,0.4-0.8c0.5-1,1-2.1,1.4-3.1c0.1-0.1,0.1-0.3,0.2-0.4
		c4.3-9.8,6.9-20.4,7.5-31.6H191C191.1,103.4,191.2,101.8,191.2,100.2z M137.9,138.1c-9.7,9.7-23,15.6-37.8,15.6
		c-29.6,0-53.5-24-53.5-53.5c0-14.8,6-28.1,15.6-37.8c9.7-9.6,23-15.6,37.8-15.6c29.6,0,53.5,23.9,53.5,53.5
		C153.6,115,147.6,128.4,137.9,138.1z"/>
	<path id="path2" class="primary" d="M100.1,50C72.5,50,50,72.5,50,100.2c0,27.7,22.5,50.2,50.1,50.2c27.7,0,50.2-22.5,50.2-50.2C150.3,72.5,127.8,50,100.1,50z
		 M100.1,145.5c-24.9,0-45.2-20.3-45.2-45.3c0-25,20.3-45.3,45.2-45.3c25,0,45.3,20.3,45.3,45.3
		C145.4,125.1,125.1,145.5,100.1,145.5z"/>
	<path id="path3" class="primary" d="M122.6,100.2c0-12.4-10.1-22.5-22.5-22.5c-12.4,0-22.5,10.1-22.5,22.5c0,12.4,10.1,22.5,22.5,22.5
		C112.5,122.6,122.6,112.6,122.6,100.2z M100.1,117.8c-9.7,0-17.6-7.9-17.6-17.6c0-9.7,7.9-17.6,17.6-17.6s17.6,7.9,17.6,17.6
		C117.7,109.9,109.8,117.8,100.1,117.8z"/>
	<path id="path4" class="primary" d="M100,75c3.6,0,6.6-2.9,6.6-6.6c0-3.6-3-6.6-6.6-6.6c-3.7,0-6.6,3-6.6,6.6C93.4,72,96.4,75,100,75z"/>
	<path id="path5" class="primary" d="M69.8,84.1c-3.7,0-6.6,3-6.6,6.6c0,3.7,2.9,6.6,6.6,6.6c3.7,0,6.6-2.9,6.6-6.6C76.4,87,73.5,84.1,69.8,84.1z"/>
	<path id="path6" class="primary" d="M81.2,119.7c-3.7,0-6.6,2.9-6.6,6.6c0,3.6,2.9,6.6,6.6,6.6c3.6,0,6.6-3,6.6-6.6C87.8,122.6,84.9,119.7,81.2,119.7z"/>
	<path id="path7" class="primary" d="M118.9,119.7c-3.6,0-6.6,2.9-6.6,6.6c0,3.6,2.9,6.6,6.6,6.6c3.7,0,6.6-3,6.6-6.6C125.5,122.6,122.5,119.7,118.9,119.7z"/>
	<path id="path8" class="primary" d="M123.8,90.7c0,3.7,2.9,6.6,6.6,6.6c3.6,0,6.6-2.9,6.6-6.6c0-3.6-3-6.6-6.6-6.6C126.7,84.1,123.8,87,123.8,90.7z"/>
</g>
</svg>
