<?xml version="1.0" encoding="utf-8"?>
<!-- Generator: Adobe Illustrator 26.0.2, SVG Export Plug-In . SVG Version: 6.00 Build 0)  -->
<svg version="1.1" id="Layer_1" xmlns="http://www.w3.org/2000/svg" xmlns:xlink="http://www.w3.org/1999/xlink" x="0px" y="0px"
	 viewBox="0 0 200 200" style="enable-background:new 0 0 200 200;" xml:space="preserve">
<g>
	<path id="path2" class="primary" d="M153.5,103.7c11,0,21.1,4.7,28.1,12.2c8.1-14.2,3.6-46.1-11.2-46.1c-0.5,0-3.8,0-8.6,0h-10.4
		c-9.5,0-22.1,0-35.3,0c-2.5-11.9-5.8-27.4-7.2-34.7C106.2,22,97.7,22,93,22H41.2c-3.4,0-12.2,0-13.3,12.4
		c-0.7,7.7-4.1,47.5-4.3,47.9c-0.2,2.2,1.4,4,3.4,4.1c0.9,0,1.8-0.2,2.5-0.7c0,0,0,0,0.2,0c7.9-4.3,16.9-6.5,26.3-6.5
		c14,0,27.2,5,36.9,14c9.9,9.4,15.5,22,15.5,35.8c0,2.5-0.2,5-0.5,7.6h7.6C118.1,117.9,134.1,103.7,153.5,103.7z M64.2,69.7
		c-14,0-25.7,0-31.9,0c1.1-12.4,2.7-29.9,3.1-34.7c0.4-5.2,2-5.4,5.8-5.4h23V69.7z M108.2,91.8c0,0-34.6-22.1-37.8-22.1V29.6h22.5
		c4.3,0,6.8,0,8.3,7c1.1,5.2,7,33.1,7,33.1V91.8z"/>
	<path id="path3" class="primary" d="M56.1,84.3c-26.1,0-47.3,18.9-47.3,45c0,12.4,5,23.9,14,32.2c8.8,7.9,20.5,12.4,33.3,12.4s24.7-4.3,33.3-12.4
		c9-8.3,14-19.6,14-32.2C103.5,103,82.2,84.3,56.1,84.3z M56.1,160.4c-17.3,0-31.3-14-31.3-31.3s14-31.3,31.3-31.3
		s31.3,14,31.3,31.3S73.4,160.4,56.1,160.4z"/>
	<path id="path4" class="primary" d="M153.5,108.6c-18.5,0-33.5,14.9-33.5,33.5c0,8.8,3.6,16.9,9.9,22.9c6.1,5.6,14.6,8.8,23.6,8.8
		s17.5-3.1,23.6-8.8c6.3-5.8,9.9-13.9,9.9-22.9C187,123.7,171.9,108.6,153.5,108.6z M153.5,162c-11.5,0-20.9-9.4-20.9-20.9
		s9.4-20.9,20.9-20.9c11.5,0,20.9,9.4,20.9,20.9S165,162,153.5,162z"/>
</g>
</svg>
