<?xml version="1.0" encoding="utf-8"?>
<!-- Generator: Adobe Illustrator 26.0.2, SVG Export Plug-In . SVG Version: 6.00 Build 0)  -->
<svg version="1.1" id="Layer_1" xmlns="http://www.w3.org/2000/svg" xmlns:xlink="http://www.w3.org/1999/xlink" x="0px" y="0px"
	 viewBox="0 0 200 200" style="enable-background:new 0 0 200 200;" xml:space="preserve">
<g>
	<path id="path2" d="M39.9,188h66.5V11.4H39.9V188z M73.5,178.1c-12.6,0-23.1-10.3-23.1-23.1s10.3-23.1,23.1-23.1
		c12.6,0,23.1,10.3,23.1,23.1S86.4,178.1,73.5,178.1 M73.5,121.9c-12.6,0-23.1-10.3-23.1-23.1c0-12.6,10.3-23.1,23.1-23.1
		c12.6,0,23.1,10.3,23.1,23.1C96.7,111.6,86.4,121.9,73.5,121.9 M73.5,65.5c-12.6,0-23.1-10.3-23.1-23.1c0-12.6,10.3-23.1,23.1-23.1
		c12.6,0,23.1,10.3,23.1,23.1S86.4,65.5,73.5,65.5"/>
	<path id="path3" d="M141.8,176.9c-11.1,0-18.7-8.2-18.7-19.1c0-11.1,7.8-19.1,18.9-19.1c11.1,0,18.5,8,18.7,19.1
		c0,10.9-7.4,19.1-18.7,19.1H141.8z M130.1,128.1l-4.9-95.3h33.5l-4.7,95.3H130.1z"/>
</g>
</svg>
