<?xml version="1.0" encoding="utf-8"?>
<!-- Generator: Adobe Illustrator 26.0.2, SVG Export Plug-In . SVG Version: 6.00 Build 0)  -->
<svg version="1.1" id="Layer_1" xmlns="http://www.w3.org/2000/svg" xmlns:xlink="http://www.w3.org/1999/xlink" x="0px" y="0px"
	 viewBox="0 0 200 200" style="enable-background:new 0 0 200 200;" xml:space="preserve">
<g>
	<polygon id="polygon1" points="135.9,40.2 119.5,25.3 45.2,25.3 45.2,54.9 119.5,54.9 	"/>
	<rect id="rect1" x="77" y="60.4" width="9.5" height="74.9"/>
	<rect id="rect2" x="77" y="11.8" width="9.5" height="9.5"/>
	<path id="path2" d="M122.6,104.8c2.7-1.5,6-2.9,9.1-4.1c6.4-2.1,12.7-3.5,18.7-4.6c12-2.1,22-3.1,29.2-3.9
		c7.1-0.6,11.2-0.8,11.2-0.8s-4.1-0.4-11.2-0.6c-7.1-0.2-17.4-0.6-29.7,0c-6.2,0.4-12.9,1-20.1,2.3c-3.7,0.8-7.3,1.7-11.2,3.3
		c-1.9,0.8-3.9,1.7-6,3.3c-1.9,1.5-4.2,3.7-5.2,7.5c-0.4,1.9-0.4,3.9,0.2,5.6c0.6,1.7,1.4,3.1,2.3,4.2c1.7,2.3,3.9,3.9,5.8,5.2
		c4.1,2.7,8.1,4.2,12.5,5.8c2.1,0.6,3.7,1.2,5.4,1.9c1.7,0.6,3.1,1.5,4.6,2.3c1.4,0.8,2.5,1.7,3.5,2.7c0.8,0.8,1.4,1.7,1.2,1.9
		c0,0.4-0.4-0.2-0.6-0.4c-0.2-0.2-0.4,0.2-1.2,0.6c-1.4,1.2-4.1,2.5-6.9,3.5c-2.9,1-6.4,1.7-9.3,2.1l-2.7,0.4l-0.8,0.2h-0.2l0,0
		c-0.2,0,0.2,0,0.2,0H121l-1.4,0.2c-1.7,0.2-3.5,0.4-5.2,0.4c-2.3,0.2-4.6,0.2-6.9,0.2l-75.5,1L8.5,184l26.6-2.1c0.4,0,1,0,1.7-0.2
		c1.9-0.2,4.8-0.4,8.5-0.6c7.3-0.6,17.8-1.5,30.3-3.1c6.4-0.8,13.1-1.7,20.3-2.9c7.1-1.2,14.9-2.5,22.8-4.6c1.9-0.4,4.1-1.2,6.2-1.5
		l1.5-0.4l0.4-0.2c0,0,0.4-0.2,0.4,0l0,0h0.2l0.8-0.2l3.1-1c4.6-1.5,8.7-3.3,13.1-5.8c4.2-2.5,8.7-5.6,12.7-10.6
		c1.9-2.5,3.9-6,4.4-10c0.8-4.2-0.4-8.9-2.5-12.2c-2.1-3.3-4.6-5.4-6.9-6.9c-2.3-1.5-4.8-2.5-7.1-3.5c-2.3-0.8-4.6-1.5-6.8-1.9
		c-2.3-0.6-4.4-0.8-6.4-1.2c-3.5-0.6-6.9-1.5-9.7-2.9c-1.4-0.6-2.5-1.4-3.3-2.1c-0.4-0.4-0.6-0.6-0.6-0.6c-0.2-0.2-0.2,0-0.2,0
		c-0.2,0,0-1,1-1.7C120.1,106.6,121.2,105.6,122.6,104.8z"/>
</g>
</svg>
