<?xml version="1.0" encoding="utf-8"?>
<!-- Generator: Adobe Illustrator 26.0.2, SVG Export Plug-In . SVG Version: 6.00 Build 0)  -->
<svg version="1.1" id="Layer_1" xmlns="http://www.w3.org/2000/svg" xmlns:xlink="http://www.w3.org/1999/xlink" x="0px" y="0px"
	 viewBox="0 0 200 200" style="enable-background:new 0 0 200 200;" xml:space="preserve">
<path id="path2" d="M173.2,99.7c0-22.7,0-43.8,0-43.8c0-9.3-31.8-16.8-71.1-16.8s-71.1,7.3-71.1,16.6v43.1c0,10.4,0.9,21.6-4.3,30.9
	c-3.9,7-11.1,12.3-15.9,18.8l34.1-6.4v10l21.6-15.2l14.8,30.6l31.3-30.6l15.9,15.4l16.6-19.7c0,0,27.3,14.5,42.9,17.5
	C188,150.3,173.2,122.4,173.2,99.7z M102,69.1c-30,0-54.2-4.8-54.2-10.9c0-5.9,24.3-10.9,54.2-10.9s54.2,4.8,54.2,10.9
	S132.1,69.1,102,69.1z"/>
</svg>
