<?xml version="1.0" encoding="utf-8"?>
<!-- Generator: Adobe Illustrator 26.0.2, SVG Export Plug-In . SVG Version: 6.00 Build 0)  -->
<svg version="1.1" id="Layer_1" xmlns="http://www.w3.org/2000/svg" xmlns:xlink="http://www.w3.org/1999/xlink" x="0px" y="0px"
	 viewBox="0 0 200 200" style="enable-background:new 0 0 200 200;" xml:space="preserve">
<path id="path2" d="M184,94c0-8.9-5.2-16.6-12.5-20.3c0.9-2.5,1.4-5,1.4-7.8c0-12.7-10.3-22.8-22.8-22.8c-2.3,0-4.6,0.4-6.8,1.1
	c-5-10.5-15.7-17.8-28.2-17.8c-2.9,0-5.7,0.4-8.4,1.2C101.5,18.2,91.5,12,79.9,12C66,12,54.2,21.1,50.3,33.7
	c-7.5,2.1-13.4,7.7-16.2,14.8c-11.4,4.3-19.6,15.3-19.6,28.2c0,12.5,7.7,23.4,18.5,27.8c-0.4,2-0.7,4.1-0.7,6.2
	c0,16.6,13.5,30.1,30.1,30.1c6.6,0,12.8-2.1,17.8-5.9l10.5,13.7L86.7,189h26.4c0,0-4.1-31.2-4.6-37.6c6.8-6.8,10.7-10.7,13-13
	c5.5,5,12.8,8.2,20.9,8.2c17.1,0,31-13.9,31-31c0-0.7,0-1.4-0.2-2C179.7,109.5,184,102.2,184,94 M109.7,117.3l-4.1,12.7l-6.1-10.3
	C103.1,119.5,106.5,118.6,109.7,117.3 M95.2,144.6l-9.4-14.4c2.5-2.9,4.5-6.4,5.7-10l8,13.5L95.2,144.6z M105.6,146.6l7.3-20.9
	c1.1,3,2.5,5.9,4.5,8.4L105.6,146.6z"/>
</svg>
