<?xml version="1.0" encoding="utf-8"?>
<!-- Generator: Adobe Illustrator 26.0.2, SVG Export Plug-In . SVG Version: 6.00 Build 0)  -->
<svg version="1.1" id="Layer_1" xmlns="http://www.w3.org/2000/svg" xmlns:xlink="http://www.w3.org/1999/xlink" x="0px" y="0px"
	 viewBox="0 0 200 200" style="enable-background:new 0 0 200 200;" xml:space="preserve">
<g>
	<path id="path2" class="primary" d="M55.2,138.8c-2.2-2.2-6-2.2-8.2,0L10.8,175l12,12L59,150.7c2.2-2.2,2.2-6,0-8.2L55.2,138.8z"/>
	<path id="path3" class="primary" d="M181.1,28.8l5-0.4l-0.4-5.6l-6,0.4c-0.6-1-1.2-2-2.2-3c-1-1-2.2-1.8-3.6-2.4l1.6-5.8l-5.4-1.4l-1.6,6.2
		c-2.6,0-5,1-7.2,2.6l-4.6-4.6l-4,4l4.6,4.6l-9,9l-4.6-4.6l-4,4l4.6,4.6l-8.8,8.8l-4.6-4.6l-4,4l4.6,4.6l-8.6,8.6l-4.6-4.6l-4,4
		l4.6,4.6l-8.4,8.4l-4.6-4.6l-4,4l4.6,4.6l-8.4,8.4l-4.6-4.8l-4,4l4.6,4.6l-5.6,5.6l5.2,5.2l71.3-71.3c1.8-1.8,5-1.8,6.8,0
		c1.8,1.8,1.8,5,0,6.8l-71.3,71.3l5.2,5.2l5.6-5.6l4.6,4.6l4-4l-4.6-4.6L124,91l4.6,4.6l4-4l-4.6-4.6l8.4-8.4l4.6,4.6l4-4l-4.6-4.6
		l8.6-8.6l4.6,4.6l4-4l-4.6-4.6l8.8-8.8l4.6,4.6l4-4l-4.6-4.6l9-9l4.6,4.6l4-4l-4.6-4.6C180.1,34.4,181.1,31.6,181.1,28.8z"/>
	<path id="path4" class="primary" d="M85.9,98.9c-2.8-2.8-7.2-2.8-9.8,0L55,119.9c-2.8,2.8-2.8,7.2,0,9.8l12,12c2.8,2.8,7.2,2.8,9.8,0l21.1-20.7
		c2.8-2.8,2.8-7.2,0-9.8L85.9,98.9z M85.9,121.3l-8.6,8.6c-1.6,1.6-4.4,1.6-6.2,0l-4.4-4.4c-1.6-1.6-1.6-4.4,0-6.2l8.6-8.6
		c1.6-1.6,4.4-1.6,6.2,0l4.4,4.4C87.7,116.9,87.7,119.7,85.9,121.3z"/>
</g>
</svg>
