<?xml version="1.0" encoding="utf-8"?>
<!-- Generator: Adobe Illustrator 26.0.2, SVG Export Plug-In . SVG Version: 6.00 Build 0)  -->
<svg version="1.1" id="Layer_1" xmlns="http://www.w3.org/2000/svg" xmlns:xlink="http://www.w3.org/1999/xlink" x="0px" y="0px"
	 viewBox="0 0 200 200" style="enable-background:new 0 0 200 200;" xml:space="preserve">
<g>
	<path id="path2" d="M183,60.4c0,1,0,1.9-0.2,2.9s-1.5,3.3-2.3,1.2c-1.5-3.7-2.9-7.7-3.7-11.6c-0.4-1.7-1.3-4-3.5-4
		c-5.6,0.2,1.3,12.7,2.3,14.8c1,1.7,8.1,15.6,9.6,20.1c2.1,5.8,3.5,11.8,4,17.7c0.8,6.6,0.6,13.3-0.4,19.9c-0.4,3.3-1.2,6.6-2.1,9.6
		c-0.4,1.7-1,3.3-1.5,5c-0.6,1.5-3.3,12.1-5.8,10.6c-1.2-0.8-0.2-3.1-0.6-4c0-0.2-0.2-0.4-0.2-0.4c-0.4-0.2-0.4,0.4-0.6,0.6
		c-0.4,4.4-3.3,7.1-6.9,9.1c-1.3,0.6-7.5,4-8.3,1.2c0-0.4,0-0.8-0.2-1.2c-0.6-1.3-1,0.4-1,0.8c-0.2,1.7-3.9,4.8-5.2,6
		c-8.5,6.6-19.7,10.6-30.1,6.7c-1.7-0.6-4.2-2.3-6.2-1.9c-0.4,0-1.3,1.2-1.3,1.7c0,2.3-1.2,7.7,2.1,8.5c0.4,0,10.4,2.7,12,2.7
		c0.2,0,0.6,0.2,0.6,0.4c0.4,0.4,0.2,1-0.2,1.3c-1,0.8-3.1,1.2-4.2,1.5c-2.1,0.8-2.3-0.8-3.9-1c-1-0.2-0.4,2.3-0.4,2.9
		c0.2,2.5-7.1-5.2-11.4-2.5c-0.8,0.4-1.9,0.8-2.5,0.2c-1-1-2.5,1.2-2.7-0.6c0-0.6,0.4-1.2,1-1.5c1-0.8,5-5.2,5-5.6
		c0-1.9,0-3.7,0-5.6c0-0.2,0.2-4.8-1-3.5c-0.2,0.4-0.2,0.8-0.2,1.2c-0.2,2.5-2.3,4-4,5.4c-1.7,1.2-4.6,3.5-6.7,3.5
		c-0.6,0-1.2-0.2-1.7-0.2c-1.7,0-2.9,1.5-4,2.7c-0.6,0.6-1,1.5-1.9,1.5c-0.6,0-1.2-0.6-1.3-1.2c-0.2-1,0.6-1.9-0.6-2.3
		c-0.6-0.2-1.5,0-1.7,0.6c-0.2,0.4-0.4,0.4-0.8,0.6c-3.5,0.6-3.9,0.2-3.9-3.1c0-2.3-1-0.8-2.1-0.2c-1.7,1.2-4,1.9-6,2.3
		c-1,0.2-2.3,0.4-3.1-0.2c-1.5-1,0.2-2.3,0-3.5c-0.4-2.7-5.8-0.2-6.9,0.4c-0.4,0.2-0.8,0.2-1.2,0.2c-1.7-0.4-0.6-3.3-0.6-4.2
		c0-0.2,0-0.2-0.2-0.4c-0.2-0.2-0.6,0-0.8,0c-1.5,0.8-2.9,1.5-4.6,1.9c-0.6,0-1.3,0.2-1.9-0.2c-1.2-0.6-0.2-1.7,0-2.7
		c0.6-1.3,0.6-2.3,0.6-3.7c0-3.1-0.2-6.6,1.3-9.4c1-1.7,2.3-3.9,3.3-5.8c0.8-1.5,3.3-6.9,0.8-8.3c-1.7-1-3.9,1.5-5,2.5
		c-1.9,1.5-3.9,3.1-6,4.8c-4.6,3.9-12.1,0.4-14.8-4.4c-1.3-2.5-1-5.2,1.2-6.9c1-0.8,0.8-2.1-0.6-2.1c-1.2,0-2.7,2.1-3.7,2.5
		c-1.2,0.6-2.5,0.6-3.9,0.2c-3.5-1-5.2-2.7-6.7-5.8c-1.2-2.3-2.3-4.4-3.3-6.9c-0.4-1.2,0-2.1,0.6-3.1c1.2-1.9,4.4-3.7,0.2-5
		c-1.9-0.6-4.8,0.2-6.6-1c-0.6-0.4-1-1.2-1.3-1.9c-1.3-3.3-1.3-7.1-1.3-10.6c0-1.2,1.2-2.7,0.6-3.7c-1.2-1.5-3.3-2.1-4-4
		c-0.8-2.1-0.8-4.8-0.8-6.9s0-4.2,0-6.2c0-1.2-0.2-2.1,0.6-2.9c0.4-0.4,1.5,0,1.7-0.8c0.2-0.6-2.3-1-2.9-1.7c-0.8-1-1-2.3-1-3.5
		c-0.4-4.8,0.4-8.5,2.7-12.5c0.2-0.4,0.6-0.4,1-0.4c0.8,0,1.3,0,2.1,0c0.4,0,0.6-0.2,0.6-0.4c0-0.4-0.2-0.4-0.6-0.6
		c-1.7-0.6-1.9-0.6-1.9-2.5c0-5.2,1.7-10.2,3.9-14.8c1.9-4.4,4.2-9.3,6.9-13.3c0.8-1.2,2.1-2.7,3.7-2.9c1.7-0.2,1.9,1,3.3-0.8
		c1.7-2.5,2.3-4,5.2-5.6c3.1-1.5,6.9-2.1,10.2-2.9c2.3-0.6,5-0.4,7.3,0c2.7,0.4,4,1.3,6.4,2.5c0.8,0.4,1.9,0.2,2.7,0.2
		c3.1,0.4,7.1,4.6,8.3,7.3c0.4,0.8,0.8,2.7,1.7,2.9c1.2,0.2,1.2-1.7,2.3-1.7c1.2,0,2.7,1.3,3.5,2.1c1.9,1.5,3.9,3.5,5.4,5.4
		c2.9,4,4.2,8.5,6.4,12.7c2.3,4.6,5.4,1.5,9.1,0.6c2.9-0.8,5.6-1.3,8.7-1.9c5.8-1,11.8-1.2,17.5-0.4c8.3,1,19.1,4.6,21.4,13.7
		c0.6,1.9,1.7,1.7,3.5,2.5c1.5,0.8,10.8,7.1,11.6,8.1c0.2,0.2,0.4,0.4,0.6,0.2c0.2,0,0.4-0.2,0.4-0.6c0-4.8-1.7-9.6-4.8-13.7
		c-3.7-4.6-7.1-10.4-5-16.6c1.5-4.2,5.8-7.9,10.4-7.7c7.3,0,12.9,7.1,15.8,13.1C181.1,46.9,182.6,53.7,183,60.4z"/>
</g>
</svg>
