<?xml version="1.0" encoding="utf-8"?>
<!-- Generator: Adobe Illustrator 26.0.2, SVG Export Plug-In . SVG Version: 6.00 Build 0)  -->
<svg version="1.1" id="Layer_1" xmlns="http://www.w3.org/2000/svg" xmlns:xlink="http://www.w3.org/1999/xlink" x="0px" y="0px"
	 viewBox="0 0 200 200" style="enable-background:new 0 0 200 200;" xml:space="preserve">
<path id="path2" class="primary" d="M134.8,89.5c-6,0-10.9,4.9-10.9,10.9c0,1.3,0.3,2.5,0.7,3.6l13.6-14.2C136.9,89.7,135.9,89.5,134.8,89.5"/>
<path id="path3" class="primary" d="M154.6,70.2c0-2.3-1.3-4.6-3.6-4.6h-20.1l-11.6-16.8H97.2v47.9h21.2c0.8-7.2,5.2-14.4,14.9-14.5
	c3.8,0,6.5,1,9.1,2.8L154.6,72L154.6,70.2L154.6,70.2z M102,67.9V53.6h15.7l9.6,14.4H102z"/>
<path id="path4" class="primary" d="M52.9,89.8c-6,0-10.9,4.9-10.9,10.9c0,6,4.9,10.9,10.9,10.9s10.9-4.9,10.9-10.9C63.9,94.7,59,89.8,52.9,89.8"/>
<path id="path5" class="primary" d="M71.1,96.7h20.4L92,75.1H13.1l-0.5,21.6H35c1.8-7.2,9.1-14.5,18-14.5S69.3,89.5,71.1,96.7"/>
<path id="path6" class="primary" d="M90,53.4c0-5.2-4.2-9.3-9.3-9.3H22.9c-5.2,0-9.3,4.2-9.3,9.3v7.7c0,5.2,4.2,9.3,9.3,9.3h57.8
	c5.2,0,9.3-4.2,9.3-9.3V53.4z"/>
<polygon id="polygon" class="primary" points="70.1,116.6 106.5,168.6 190,49.5 104.7,138.7 "/>
</svg>
