<?xml version="1.0" encoding="utf-8"?>
<!-- Generator: Adobe Illustrator 26.0.2, SVG Export Plug-In . SVG Version: 6.00 Build 0)  -->
<svg version="1.1" id="Layer_1" xmlns="http://www.w3.org/2000/svg" xmlns:xlink="http://www.w3.org/1999/xlink" x="0px" y="0px"
	 viewBox="0 0 200 200" style="enable-background:new 0 0 200 200;" xml:space="preserve">
<g>
	<polygon id="polygon1" class="primary" points="92.6,105.9 92.6,110.8 107.1,99.7 107.1,95 	"/>
	<polygon id="polygon2" class="primary" points="92.6,84.7 92.6,89.4 107.1,78.6 107.1,73.7 	"/>
	<path id="path2" class="primary" d="M153.9,11.7h-108c-4,0-7.2,3.2-7.2,7.2c0,3.7,2.6,6.7,6.1,7.2v11.6c0,2.5,2.1,4.6,4.6,4.6s4.6-2.1,4.6-4.6V26.2
		H56c0.2,0.2,0.2,0.2,0.4,0.4l36.2,29.1v12.8l14.4-11v-1.8l36.2-29.1c0.2-0.2,0.2-0.2,0.4-0.4h2.1v11.4c0,2.5,2.1,4.6,4.6,4.6
		c2.6,0,4.6-2.1,4.6-4.6V26.1c3.5-0.5,6.1-3.5,6.1-7.2C161,14.9,157.9,11.7,153.9,11.7z M92.6,43.7L70.7,26.2h21.9V43.7z
		 M107.1,43.7V26.2H129L107.1,43.7z"/>
	<path id="path3" class="primary" d="M111.5,56.3L83.2,77.9c-2.1,1.6-2.5,4.4-0.9,6.5c0.9,1.2,2.3,1.8,3.7,1.8c1.1,0,1.9-0.4,2.8-0.9l28.2-21.5
		c2.1-1.6,2.5-4.4,0.9-6.5C116.4,55.3,113.4,54.9,111.5,56.3z"/>
	<path id="path4" class="primary" d="M111.5,77.7L83.2,99c-2.1,1.6-2.5,4.4-0.9,6.5c0.9,1.2,2.3,1.8,3.7,1.8c1.1,0,1.9-0.4,2.8-0.9L116.9,85
		c2.1-1.6,2.5-4.4,0.9-6.5C116.4,76.5,113.4,76.1,111.5,77.7z"/>
	<path id="path5" class="primary" d="M111.5,98.9l-28.4,21.5c-2.1,1.6-2.5,4.4-0.9,6.5c0.9,1.2,2.3,1.8,3.7,1.8c1.1,0,1.9-0.4,2.8-0.9l28.2-21.5
		c2.1-1.6,2.5-4.4,0.9-6.5C116.4,97.8,113.4,97.5,111.5,98.9z"/>
	<path id="path6" class="primary" d="M111.5,120.2l-28.2,21.5c-2.1,1.6-2.5,4.4-0.9,6.5c0.9,1.2,2.3,1.8,3.7,1.8c1.1,0,1.9-0.4,2.8-0.9l28.2-21.5
		c2.1-1.6,2.5-4.4,0.9-6.5C116.4,119,113.4,118.6,111.5,120.2z"/>
	<path id="path7" class="primary" d="M92.6,181.8c0,4,3.2,7.2,7.2,7.2s7.2-3.2,7.2-7.2v-44.3l-14.4,11V181.8z"/>
	<polygon id="polygon3" class="primary" points="92.6,127.2 92.6,131.9 107.1,121.1 107.1,116.2 	"/>
</g>
</svg>
