<?xml version="1.0" encoding="utf-8"?>
<!-- Generator: Adobe Illustrator 26.0.2, SVG Export Plug-In . SVG Version: 6.00 Build 0)  -->
<svg version="1.1" id="Layer_1" xmlns="http://www.w3.org/2000/svg" xmlns:xlink="http://www.w3.org/1999/xlink" x="0px" y="0px"
	 viewBox="0 0 200 200" style="enable-background:new 0 0 200 200;" xml:space="preserve">
<g>
	<path id="path2" d="M45.3,180c-2.6,0-4.7-0.7-6.3-2.3c-1.6-1.6-2.6-3.3-2.8-5.4L10.8,23.6c-0.2-0.5-0.2-0.7-0.2-0.9
		c0-0.2,0-0.5,0-0.5c0-1.2,0.5-2.3,1.4-3.3c0.9-0.9,2.1-1.4,3.3-1.4h29c4.4,0,6.8,1.6,7.3,5.2L66.8,113l16.9-53.6
		c0.5-1.2,1.2-2.6,2.3-4c1.2-1.4,2.8-2.1,5.4-2.1h16.9c2.6,0,4.4,0.7,5.6,2.1c1.2,1.4,1.9,2.8,2.1,4l16.9,53.6l15.2-90.9
		c0.5-3.5,2.8-5.2,7.3-5.2h28.8c1.4,0,2.6,0.5,3.5,1.4c0.9,0.9,1.4,2.1,1.4,3.3c0,0.2,0,0.2,0,0.5c0,0.2,0,0.5,0,0.9L163.8,172
		c-0.2,2.1-1.2,3.7-2.8,5.4c-1.6,1.6-3.7,2.3-6.3,2.3h-22.2c-2.6,0-4.7-0.7-6.1-2.1c-1.4-1.4-2.3-2.8-2.8-4l-23.9-66.3l-23.7,66.5
		c-0.5,1.2-1.4,2.6-2.6,4c-1.4,1.4-3.3,2.1-5.9,2.1H45.3z"/>
</g>
</svg>
