<?xml version="1.0" encoding="utf-8"?>
<!-- Generator: Adobe Illustrator 26.0.2, SVG Export Plug-In . SVG Version: 6.00 Build 0)  -->
<svg version="1.1" id="Layer_1" xmlns="http://www.w3.org/2000/svg" xmlns:xlink="http://www.w3.org/1999/xlink" x="0px" y="0px"
	 viewBox="0 0 200 200" style="enable-background:new 0 0 200 200;" xml:space="preserve">
<g>
	<path id="path2" class="primary" d="M133.9,127.2c18.2,18,36.2,35.8,54.1,53.7c-4.1,3.9-7.8,7.4-11.4,11c-17.8-18-35.8-36.2-53.9-54.6
		c-21,14.1-42.7,17.8-66,9.8c-16.3-5.7-29-16.3-37.8-31.5C1.1,85.3,8.7,46.1,36.5,23.6c26.8-21.5,65.8-20,92,3.9
		C152.9,49.8,161.3,93.1,133.9,127.2z M80.2,17.1c-35.1,0-62.5,28-62.5,63.8c0.2,34.5,28.2,62.1,63.1,62.1
		c34.3-0.2,62.3-28.4,61.9-62.9C142.5,44.7,114.9,16.9,80.2,17.1z"/>
	<path id="path3" class="primary" d="M90,46.3c7.6,0,15.1,0,23.1,0c0,8.2,0,16.3,0,25.5c-3.1-3.7-5.5-6.5-7.8-9.4c-6.5,6.7-12.5,12.7-17.8,18.2
		c5.3,5.3,11,11,17.4,17.4c2-2.7,4.5-5.9,6.7-9.2c0.4,0.4,1,0.6,1.4,1c0,7.8,0,15.7,0,23.7c-7.8,0-15.5,0-23.3,0
		c-0.2-0.2-0.4-0.6-0.6-0.8c3.1-2.5,6.1-5.1,8.8-7.4c-6.5-6.5-12.3-12.3-17.6-17.6C75.1,93.1,69.2,99,63,105.2
		c2.2,2,5.3,4.5,8.2,7.2c-0.2,0.4-0.4,0.8-0.6,1c-7.8,0-15.3,0-23.3,0c0-7.8,0-15.5,0-24.1c3.1,3.1,5.9,5.7,8.4,8
		c5.9-5.9,11.6-11.9,17.4-17.4C67.7,74.7,62,69,55.5,62.4c-2.2,2.9-4.7,5.7-7.2,8.8c-0.4-0.2-0.6-0.4-1-0.6c0-8,0-16.1,0-24.5
		c7.8,0,15.5,0,24.1,0c-3.3,3.5-5.9,6.3-9,9.6c5.7,6.1,11.4,12.3,17.8,18.8c6.1-6.5,12.1-12.7,18.6-19.4c-3.3-2.9-6.3-5.3-9.4-8
		C89.6,46.9,89.8,46.5,90,46.3z"/>
</g>
</svg>
